/* XPM */
static char *result[] = {
/* columns rows colors chars-per-pixel */
"64 64 137 2 ",
"   c #060B0A",
".  c #080F0E",
"X  c #09110F",
"o  c #0B1311",
"O  c #0D1816",
"+  c #0F1C1A",
"@  c #101514",
"#  c #111D1B",
"$  c #1B1C1D",
"%  c #201B14",
"&  c #281F16",
"*  c #13211E",
"=  c #322317",
"-  c #302419",
";  c #1F1F20",
":  c #152522",
">  c #1A2725",
",  c #172926",
"<  c #192926",
"1  c #1A2D2A",
"2  c #1C312E",
"3  c #1E3330",
"4  c #222323",
"5  c #262829",
"6  c #2A2B2C",
"7  c #20322F",
"8  c #223532",
"9  c #2C3534",
"0  c #243935",
"q  c #263D3A",
"w  c #283F3D",
"e  c #333435",
"r  c #373738",
"t  c #343A3A",
"y  c #393A3B",
"u  c #513A26",
"i  c #583F2A",
"p  c #27403D",
"a  c #29413F",
"s  c #6B4D33",
"d  c #725136",
"f  c #79573A",
"g  c #3E3F40",
"h  c #2B4542",
"j  c #2E4946",
"k  c #2E4C49",
"l  c #3F4042",
"z  c #314E4B",
"x  c #3F4C49",
"c  c #33514E",
"v  c #3E504D",
"b  c #355452",
"n  c #3A5654",
"m  c #365956",
"M  c #395956",
"N  c #3B5D5A",
"B  c #3D615D",
"V  c #3E6461",
"C  c #3F6864",
"Z  c #434445",
"A  c #404847",
"S  c #464B4B",
"D  c #4A4C4D",
"F  c #445552",
"G  c #4C5453",
"H  c #455C5B",
"J  c #4C5D5A",
"K  c #535556",
"L  c #555659",
"P  c #555B5B",
"I  c #5B5C5D",
"U  c #5E5F60",
"Y  c #416562",
"T  c #426966",
"R  c #446D6A",
"E  c #556463",
"W  c #5E6263",
"Q  c #586866",
"!  c #546C6B",
"~  c #5B6A68",
"^  c #46716D",
"/  c #49726E",
"(  c #457470",
")  c #4A7572",
"_  c #4D7976",
"`  c #4E7C79",
"'  c #517472",
"]  c #5C7371",
"[  c #517E7B",
"{  c #626364",
"}  c #656669",
"|  c #66696A",
" . c #6A6C6D",
".. c #6D6F70",
"X. c #6E7173",
"o. c #647A78",
"O. c #727475",
"+. c #757779",
"@. c #77787A",
"#. c #7A7C7D",
"$. c #815C3E",
"%. c #876141",
"&. c #906745",
"*. c #966C49",
"=. c #996E4A",
"-. c #9D714D",
";. c #A77952",
":. c #AB7C54",
">. c #52827E",
",. c #B48259",
"<. c #BE8A5E",
"1. c #C38D60",
"2. c #CA9263",
"3. c #D09767",
"4. c #D59B6A",
"5. c #DEA16F",
"6. c #E4A672",
"7. c #7E7F81",
"8. c #558581",
"9. c #578985",
"0. c #598B86",
"q. c #5A8E8A",
"w. c #5D928D",
"e. c #5F9490",
"r. c #7F8081",
"t. c #609691",
"y. c #6BA097",
"u. c #828385",
"i. c #868789",
"p. c #86888A",
"a. c #8A8B8C",
"s. c #8D8E90",
"d. c #8F9092",
"f. c #919294",
"g. c #969799",
"h. c #97989A",
"j. c #999A9C",
/* pixels */
"6.6.6.6.6.6.6.6.6.6.6.6.6.6.6.5.5.5.5.5.5.5.5.6.6.6.6.6.6.6.6.6.6.6.6.6.6.6.6.6.6.6.5.5.5.5.5.5.5.5.6.6.6.6.6.6.6.6.6.6.6.6.6.6.",
"6.6.6.6.6.6.6.6.6.6.6.6.6.4.2.2.2.1.2.2.1.2.3.6.6.6.6.6.6.6.6.6.6.6.6.6.6.6.6.6.6.3.2.2.1.2.2.1.2.2.4.6.6.6.6.6.6.6.6.6.6.6.6.6.",
"6.6.6.6.6.6.6.6.6.6.6.6.1.& + # + + + + * + o :.6.6.6.6.6.6.6.6.6.6.6.6.6.6.6.6.:.o + O # + O + # # ; 1.6.6.6.6.6.6.6.6.6.6.6.6.",
"6.6.6.6.6.6.6.6.6.6.6.6.- 7 8 w p p g g h h 3 + 3.6.6.6.6.6.6.6.6.6.6.6.6.6.6.3.O 3 h g h g p h h 8 3 - 6.6.6.6.6.6.6.6.6.6.6.6.",
"6.6.6.6.6.6.6.6.6.6.6.6.O q c N b b b n b b b : :.<.:.:.-.&.$.s d $.&.-.:.:.1.:.: b b n b m m m N b q @ 6.6.6.6.6.6.6.6.6.6.6.6.",
"6.6.6.6.6.6.6.6.6.6.6.6.+ h Y Y N N N N N N N 9 t g g g Z Z S S S D Z Z g y y y 9 N N N N N m N V Y h # 6.6.6.6.6.6.6.6.6.6.6.6.",
"6.6.6.6.6.6.6.6.6.6.6.6.# z T T N b Y c M Y V G U U U U D { { U I { { D I { U U H Y C m k C m m T T z # 6.6.6.6.6.6.6.6.6.6.6.6.",
"6.6.6.6.6.6.6.6.6.6.6.6.: b ) ) 7 : N b N ^ R U  .| @.@.+.} ........{ +.@.@.} ..! C C N m N , 2 ) / b : 6.6.6.6.6.6.6.6.6.6.6.6.",
"6.6.6.6.6.6.6.6.6.6.6.6.< N ` ` k p C C C 7.( o.d.d. .a.s.a.s.7.r.s.a.s.a...s.s.X.) _ T C C k c ` _ N , 6.6.6.6.6.6.6.6.6.6.6.6.",
"6.6.6.6.6.6.6.6.6.6.6.6.1 V >.9.>.9.9.( ( ( ` [ u.7.a.u.} a.a.u.r.a.a.} 7.a.7.i.o.` 7.) C 8.9.8.8.8.V 1 6.6.6.6.6.6.6.6.6.6.6.6.",
"6.6.6.6.6.6.6.6.6.6.6.6.2 R 9.q.m h 8.9.8.9.8.C L L U U U I U U U U U U U U L L V 8.8.` 8.8.h m q.9.R 2 6.6.6.6.6.6.6.6.6.6.6.6.",
"6.6.6.6.6.6.6.6.6.6.6.6.3 ( q.w.p 3 ` e.9.q.9.m Z Z Z Z Z Z l l Z Z Z Z Z Z Z Z b 9.9.9.e.` 3 3 e.q.( 3 6.6.6.6.6.6.6.6.6.6.6.6.",
"6.6.6.6.6.6.6.6.6.6.6.6.1 C 9.q.` ( q.9.>.9.7.v D D D D D S g g r r g S D D S Z n 7.>.` 9.9.( 7.q.>.C 1 6.6.6.6.6.6.6.6.6.6.6.6.",
"6.6.6.6.6.6.6.6.6.6.6.6., V 8.9.8.9.8.( ( ` ( v L I L L U 6 g U { } u e L L U U m C 7.) C 8.9.8.9.7.C , 6.6.6.6.6.6.6.6.6.6.6.6.",
"6.6.6.6.6.6.6.6.6.6.6.6.: N _ ` ` ` 7.C C ` ) S } { U U } 4 g s.L s.l e U U U } b ( ) R C 8.` 8.>.>.m , 6.6.6.6.6.6.6.6.6.6.6.6.",
"6.6.6.6.6.6.6.6.6.6.6.6.: b ( ( C C C m C C T Z ....} } ..5 U } h. .{ r U } X...c R R N C C C C C C c : 6.6.6.6.6.6.6.6.6.6.6.6.",
"6.6.6.6.6.6.6.6.6.6.6.6.# k R T Y Y Y j b Y Y A +.+.....+.e L U f.} L g ....@.@.S Y V b j V V V C C m : 6.6.6.6.6.6.6.6.6.6.6.6.",
"6.6.6.6.6.6.6.6.6.6.6.6.+ h Y V N N N N n N N A 7.7.@.@.-.{ ; O.j.7.4 O.@.@.7.7.x N M M N N N N C C h + 6.6.6.6.6.6.6.6.6.6.6.6.",
"6.6.6.6.6.6.6.6.6.6.6.6.@ w h V b b b b b b b Z p.a.u.u.y.7.; 7.j.7.4 a.u.7.p.p.l b b c c c m b B h q + 6.6.6.6.6.6.6.6.6.6.6.6.",
"6.6.6.6.6.6.6.6.6.6.6.6.u 3 3 8 8 8 8 8 8 8 3 S f.f.a.a.g.u.; 7.g.@.4 f.a.a.f.f.S 7 0 0 0 3 p 3 3 3 3 u 6.6.6.6.6.6.6.6.6.6.6.6.",
"6.6.6.6.6.6.6.6.6.6.6.6.f k 0 0 0 0 0 0 0 0 j J j.j.f.f.j.a.$ I +.U $ j.f.f.j.j.H j 0 0 3 3 3 3 3 q k f 6.6.6.6.6.6.6.6.6.6.6.6.",
"6.6.6.6.6.6.6.6.6.6.6.6.$ 7 0 h g h h h h h 0 S h.h.s.s.h.p.; @.h.#.4 g.s.s.h.g.D q h h g h k h k 3 2 # 6.6.6.6.6.6.6.6.6.6.6.6.",
"6.6.6.6.6.6.6.6.6.6.6.6.@ w b B b b b b b b n D s.s.p.p.s.7.; @.h.#.4 s.i.i.s.s.D b b b m b m N V b g O 6.6.6.6.6.6.6.6.6.6.6.6.",
"6.6.6.6.6.6.6.6.6.6.6.6.+ h V V N N B B N N N G u.i.#.7.u.+.$ U #.{ $ i.7.7.i.i.G N N N N V N C V V p + 6.6.6.6.6.6.6.6.6.6.6.6.",
"6.6.6.6.6.6.6.6.6.6.6.6.* k C R C R C k M Y Y G 7.7.O.O.#. .; O.f.@.4 #.O.O.7.#.J V Y m z Y C C R R k * 6.6.6.6.6.6.6.6.6.6.6.6.",
"6.6.6.6.6.6.6.6.6.6.6.6.: b ( _ ( ( ^ b N ^ R P X.O. . .O.{ 4 @.h.7.4 O. . .O.O.J C R B n ^ C 8.) ( m : 6.6.6.6.6.6.6.6.6.6.6.6.",
"6.6.6.6.6.6.6.6.6.6.6.6., N ` ` ` [ ` V T _ ( E | | W {  .I ;  .s.#.4  .{ { }  .U ( _ T Y C 8.C 7.C N , 6.6.6.6.6.6.6.6.6.6.6.6.",
"6.6.6.6.6.6.6.6.6.6.6.6.1 V 8.9.8.9.8.) ) >.` E { W I P U K ;  .d.7.4 { I L { U E _ 8.) ) 7.9.8.9.9.V 1 6.6.6.6.6.6.6.6.6.6.6.6.",
"6.6.6.6.6.6.6.6.6.6.6.6.1 ^ 9.w.q.q.w.8.8.9.8.Q { L K K L K > O.f.#.5 L K L L { Q 8.9.8.8.q.w.q.q.9.C 3 6.6.6.6.6.6.6.6.6.6.6.6.",
"6.6.6.6.6.6.6.6.6.6.6.6.3 ( q.e.w.t.e.e.9.9.q.~ O.....O...O.% ..f.#.4 ........O.! 9.q.9.w.e.e.e.e.q.C 3 6.6.6.6.6.6.6.6.6.6.6.6.",
"6.6.6.6.6.6.6.6.6.6.6.6.1 C 9.9.9.9.9.w.8.9.8.! O.O.O.O.I D 4 @.j.#.4 S U O.O.O.' 8.9.8.9.9.9.9.q.9.C 3 6.6.6.6.6.6.6.6.6.6.6.6.",
"6.6.6.6.6.6.6.6.6.6.6.6., V 8.8.7.` 8.C C 9.C ` @.+.+.+.$ L  .i.f.p...I ; +.+.@._ C >.>.C >.8.>.8.>.C 2 6.6.6.6.6.6.6.6.6.6.6.6.",
"6.6.6.6.6.6.6.6.6.6.6.6., m C 7.( ( 7.C C ) ( U O.O.O.O.> | >.s.j.s.#.} 4 ..O...E / ) T T _ _ _ [ _ M : 6.6.6.6.6.6.6.6.6.6.6.6.",
"6.6.6.6.6.6.6.6.6.6.6.6.: m ( ) ( C C m B R C F L I L L 4 | ;.s.j.s.#.} 4 I I I F T T N M R / R / / c : 6.6.6.6.6.6.6.6.6.6.6.6.",
"6.6.6.6.6.6.6.6.6.6.6.6.+ k R C C C V g b V V G { { { { 5 e g S K D l e 6 { { { G V B b j Y Y Y C C k ; 6.6.6.6.6.6.6.6.6.6.6.6.",
"6.6.6.6.6.6.6.6.6.6.5.5.+ h V V m m M N m N m G  . . .Z @ X X X o X X X 5 U  . .L N M M n N N M C V g + 6.6.6.6.6.6.6.6.6.6.6.6.",
"6.6.6.6.6.6.6.6.6.6.6.6.O q p N m m c c c b c G O.7.! + 7 7 p 7 8 7 8 8 5 e O.O.P c b b b b z b N h 3 O 6.6.6.6.6.6.6.6.6.6.6.6.",
"6.6.6.6.6.6.6.6.6.6.6.6.s 1 3 3 3 3 3 3 3 2 g 7.#.-.G 1 p a c p 0 z c 0 0 # O.#.O.t 3 8 7 8 8 8 3 2 , s 6.6.6.6.6.6.6.6.6.6.6.6.",
"6.6.6.6.6.6.6.6.6.6.6.6.5.f i i i 4 ~ | 7.7.7.7.7.n : q a m >.a w Y R a a 7 5 O.i.u.7.#. .{ = i i i f 5.6.6.6.6.6.6.6.6.6.6.6.6.",
"6.6.6.6.6.6.6.6.6.6.6.6.6.6.6.6.6.$.{ 7.a.d.d.7.g 2 g j a B >.c h _ >.h j h q * { a.s.a...} %.6.6.6.6.6.6.6.6.6.6.6.6.6.6.6.6.6.",
"6.6.6.6.6.6.6.6.6.6.6.6.6.6.6.6.6.%.} ..d.j.+.; p a M B a B >.c j R ) j b B z h 1 S s.f...} %.6.6.6.6.6.6.6.6.6.6.6.6.6.6.6.6.6.",
"6.6.6.6.6.6.6.6.6.6.6.6.6.6.6.6.6.%.} } s.u.: k z B C C c c B a z M N c N Y T N c w D f.| } %.6.6.6.6.6.6.6.6.6.6.6.6.6.6.6.6.6.",
"6.6.6.6.6.6.6.6.6.6.6.6.6.6.6.6.*.= U U 7.U g m >.M C C B c c c N m b N T R T R C c : 7.{ I - *.6.6.6.6.6.6.6.6.6.6.6.6.6.6.6.6.",
"6.6.6.6.6.6.6.6.6.6.6.6.6.6.6.*.; 7 7 7 3 : h C B >.T >.>.>.>.>._ _ 8 3 8 0 0 R ( b : 8 2 8 2 ; =.6.6.6.6.6.6.6.6.6.6.6.6.6.6.6.",
"6.6.6.6.6.6.6.6.6.6.6.6.6.6.6.s 3 b c c b 3 k ( >.C C B B Y >.>.[ [ p c c n c c ) N : b c b b 0 s 6.6.6.6.6.6.6.6.6.6.6.6.6.6.6.",
"6.6.6.6.6.6.6.6.6.6.6.6.6.6.6.s p V m m m p z ( >.C a z a a a >.9.8.z T ) 9.T T ` B , m n b N w s 6.6.6.6.6.6.6.6.6.6.6.6.6.6.6.",
"6.6.6.6.6.6.6.6.6.6.6.6.6.6.6.s h C V m m p b _ >.a v >.>.Q B a >.0.N >.T T N m ` C 1 N N N Y h s 6.6.6.6.6.6.6.6.6.6.6.6.6.6.6.",
"6.6.6.6.6.6.6.6.6.6.6.6.6.6.6.s k C C C C k k 7.B B >.C >.B / B / w.T q.w.>.^ ) 9.C 2 C T Y / j s 6.6.6.6.6.6.6.6.6.6.6.6.6.6.6.",
"6.6.6.6.6.6.6.6.6.6.6.6.6.6.6.s b ) ^ / ^ c N >.C _ B ) y.' M >.( w.C 9.( V m N q.^ 2 / / ( ) c s 6.6.6.6.6.6.6.6.6.6.6.6.6.6.6.",
"6.6.6.6.6.6.6.6.6.6.6.6.6.6.6.s m [ _ ` ` b N 8.C ( R q.y.>.R / ( e.m ( C 8.C C q.( 2 _ ` ` ` m s 6.6.6.6.6.6.6.6.6.6.6.6.6.6.6.",
"6.6.6.6.6.6.6.6.6.6.6.6.6.6.6.s k T C C Y j m >.^ B R >.>.>.R B ) 9.k N C 8.V N 9.C 2 V Y Y T k s 6.6.6.6.6.6.6.6.6.6.6.6.6.6.6.",
"6.6.6.6.6.6.6.6.6.6.6.6.6.6.6.s V q.0.q.q.V b ` >.b b M B B b m 8.9.3 h j h g V 9.C 1 0.q.q.q.C s 6.6.6.6.6.6.6.6.6.6.6.6.6.6.6.",
"6.6.6.6.6.6.6.6.6.6.6.6.6.6.6.s R e.e.e.e.C b C >._ B p p p B _ ` ` V N N N C ` _ V , e.t.e.e.R s 6.6.6.6.6.6.6.6.6.6.6.6.6.6.6.",
"6.6.6.6.6.6.6.6.6.6.6.6.6.6.6.s ( e.e.e.e.9.2 V j b ^ ^ ) ) _ _ _ ) _ ) ) ( V b b k b e.t.e.t.R s 6.6.6.6.6.6.6.6.6.6.6.6.6.6.6.",
"6.6.6.6.6.6.6.6.6.6.6.6.6.6.6.s C q.q.q.q.e.b 3 m R B B B T B B V V V V N N C V c 2 8.q.q.q.w.C s 6.6.6.6.6.6.6.6.6.6.6.6.6.6.6.",
"6.6.6.6.6.6.6.6.6.6.6.6.6.6.6.s k R T R C R c # a / >.B m ^ B R N T C R m ^ >.N 1 h ( C T T R k s 6.6.6.6.6.6.6.6.6.6.6.6.6.6.6.",
"6.6.6.6.6.6.6.6.6.6.6.6.6.6.6.s m 7.C C ` ` N c , m q.C b C 3 C j N j C m 9.C h , N 7._ _ _ [ b s 6.6.6.6.6.6.6.6.6.6.6.6.6.6.6.",
"6.6.6.6.6.6.6.6.6.6.6.6.6.6.6.s c ) ( 7._ ` m b c 3 C 7.m C 3 C j m c m C 7.k , k m C _ o./ ) b s 6.6.6.6.6.6.6.6.6.6.6.6.6.6.6.",
"6.6.6.6.6.6.6.6.6.6.6.6.6.6.6.s z ! ..f.7.} c j m * q N N V 2 N h k m c C k , c j b ~ @.s...! k s 6.6.6.6.6.6.6.6.6.6.6.6.6.6.6.",
"6.6.6.6.6.6.6.6.6.6.6.6.6.6.6.s h ! ......o.k 7 k p O g z N 2 b j g N h k 2 : k 3 k ......O.! j s 6.6.6.6.6.6.6.6.6.6.6.6.6.6.6.",
"6.6.6.6.6.6.6.6.6.6.6.6.6.6.6.s g T | 7...] j o + : o , g k b b b b m g 3   + * . h ]  .u...T g s 6.6.6.6.6.6.6.6.6.6.6.6.6.6.6.",
"6.6.6.6.6.6.6.6.6.6.6.6.6.6.6.s 0 H | i.+.U q s <.<.<.s 3 3 3 q 3 3 3 3 + ,.<.<.s g U X.i. .N q s 6.6.6.6.6.6.6.6.6.6.6.6.6.6.6.",
"6.6.6.6.6.6.6.6.6.6.6.6.6.6.6.f > 0 0 0 q 0 , -.6.6.6.,.; : , , 1 , 1 , u 6.6.6.-.; 0 0 0 0 3 1 %.6.6.6.6.6.6.6.6.6.6.6.6.6.6.6.",
"6.6.6.6.6.6.6.6.6.6.6.6.6.6.6.6.d . o . o . %.5.6.6.6.5.;.;.;.;.;.;.;.;.1.6.6.6.6.%.. o . o o f 5.6.6.6.6.6.6.6.6.6.6.6.6.6.6.6."
};
