/* XPM */
static char *result[] = {
/* columns rows colors chars-per-pixel */
"64 64 111 2 ",
"   c #121A06",
".  c #070A10",
"X  c #0B0E14",
"o  c #13171E",
"O  c #182106",
"+  c #162008",
"@  c #1B260A",
"#  c #1E2A0C",
"$  c #212D0C",
"%  c #26370C",
"&  c #2A3B0E",
"*  c #151A23",
"=  c #191F2C",
"-  c #1D232E",
";  c #1E2431",
":  c #202733",
">  c #222835",
",  c #242B3A",
"<  c #282F3F",
"1  c #333537",
"2  c #363739",
"3  c #2E4210",
"4  c #324611",
"5  c #354912",
"6  c #394E14",
"7  c #445E1A",
"8  c #46601B",
"9  c #4B651C",
"0  c #51691E",
"q  c #526F21",
"w  c #567122",
"e  c #5C7C26",
"r  c #272F40",
"t  c #282F40",
"y  c #2A3243",
"u  c #2D3649",
"i  c #2F394C",
"p  c #3E3F40",
"a  c #313A4D",
"s  c #383D4A",
"d  c #343D54",
"f  c #3F4143",
"g  c #364157",
"h  c #3A4255",
"j  c #36415A",
"k  c #3A455D",
"l  c #3D495F",
"z  c #3B4662",
"x  c #3E4A63",
"c  c #3F4B69",
"v  c #414346",
"b  c #434549",
"n  c #46484A",
"m  c #4E4F51",
"M  c #4F5258",
"N  c #525355",
"B  c #595A5B",
"V  c #404C67",
"C  c #424E6B",
"Z  c #45526C",
"A  c #5A5D60",
"S  c #465372",
"D  c #495673",
"F  c #4B5976",
"G  c #485578",
"H  c #4D5B7B",
"J  c #515F7E",
"K  c #51617D",
"L  c #656667",
"P  c #646569",
"I  c #67686A",
"U  c #68696A",
"Y  c #696B70",
"T  c #727374",
"R  c #717378",
"E  c #7D7E7F",
"W  c #628127",
"Q  c #648A2B",
"!  c #6B8D2C",
"~  c #6E942E",
"^  c #71932D",
"/  c #6F9931",
"(  c #739E32",
")  c #799D33",
"_  c #75A234",
"`  c #7CA535",
"'  c #7EA936",
"]  c #80A736",
"[  c #81AC37",
"{  c #84AE38",
"}  c #88AF38",
"|  c #86B039",
" . c #8BB43A",
".. c #8FB83B",
"X. c #92BA3C",
"o. c #515F81",
"O. c #546384",
"+. c #576886",
"@. c #576689",
"#. c #58678B",
"$. c #5A6B8C",
"%. c #5E718F",
"&. c #5D6E92",
"*. c #5F7095",
"=. c #7E7F80",
"-. c #627695",
";. c #657897",
":. c #6B809F",
">. c #8A8B8D",
",. c #969798",
"<. c #97989A",
/* pixels */
"{ ' [ { ' ' [ { ' ` ' ' [ | ' | { ' { { ` ' [ { ' ` { ` { | ' | | ' { { ` ' ' { ' ` ' ' ' | ' | | ' ' | ' ' ' { ' ` ' ' { | ' | ",
"( [ ' ' `  . .{ | |  .'  .` ' { ( [ ` ' `  ...{ { |  .' | ' ' { ( ' ` ' '  . .{ { {  .[  .` ' { ( ' ' ' ' |  .{ | | | { | ' ' { ",
"|  .|  ...X....... . .{ ' ` { ' {  .|  ...X. . ... .X.{ ' ` { ' |  .|  ...X. . ... ...} ' ` ' ' |  .|  ...X....... ...{ ' ` ' ' ",
" .[ [ ` ' { | | { ' { ' _ ' | {  .' { ' [ {  .| { ' ' ' _ ' | {  .' { ` ] | |  .{ ' [ ] _ '  .|  .' [ ` ' | | | { ' ' ' _ '  .{ ",
"` ' ' ` [ [ { _ ( `  .` {  .' | ' ' ' ` { ' { ` ( `  .` }  .' | ` ' ' ' { ' { ` _ `  .` [  .' { ' ' ' ` [ ' ' ` ( `  .` {  .' | ",
"[ [  .X...{ ' ' { { { .. .|  .| ' '  .X...{ ' ` { { }  . .}  .{ ' {  .X...{ ' ' { { { .. .| ..{ ' {  .X.X.{ ' ' { } {  . .|  .| ",
"| / { '  .| | { { ` ` { _ ' '  .| / { '  .| { { { ` ` [ ` [ '  .| / ' ' | | | { [ ' ' [ ` ' '  .| / { '  .| | { { ' ` { _ ' '  .",
"' { |  .{ | | { ( ` ` _ ` / ( | ' { |  .| |  .[ ( ` ` _ _ / ( { ' | |  .{  . .' ( ) ` ` _ / ( { ' { |  .{ | | { ( ` ` _ ` / ( | ",
"' ..}  .} }  .[  .[ [ ..[ } ..{ ' ..|  .| | { [  .{ {  .[ |  .{ ' ..|  .{  .{ {  .[ [ ..' | ..{ ' ..| | }  .} [  .[ { ..[ } ..{ ",
"' [ ` ` ' ` ` ) ] ..X. .{ ` ' { ' { ' _ ' ' ` ) ] X.X. .| ` ' | ' | ' _ ] ` ` ) ]  .X. .| ` ' | ' { ' ` ` ` ` ) ]  .X. .{ ` ' { ",
"'  .[ [ ` | { ] [ [  . .| ` _ { '  .' { `  .{ ] ' [  . .| ` _ { ' | ' | `  .{ ` [ [  . .{ ` _ { '  .` } `  .{ ` [ [  . .| ` _ { ",
"'  . ...X...| `  . .) ` {  .| ` '  . . .X...{ [  . .( ` {  .| ` '  . . .X.X.| '  . .) ` { ..| ` '  . ...X... .`  . .) ` {  .| ` ",
".... . .[ ` ] ' ` ( ` ) ` ' ( {  ... . .[ ` ` [ ` ( ) ` ` { ( { ..X. . .' ' ` ' ' ( ` ) ` [ ( { .... . .[ ` ] ' ` ( ` ) ` ' ( { ",
"{  .| ' ` { ` ( [  .`  .[ ` { { {  .| ' ] [ ` / [ | ]  .[ _ { { ' ..| ` ' { ` / ]  .'  .[ _ { { {  .| ` ` { ` ( [ { `  .[ ` { { ",
"| | ' |  .{ ` { | ' |  ... .X. . .| [ { } { [ {  .'  . . . ..... .| ' | | | ' { | ' |  . . ... . .| ' |  .{ ` {  .'  . . . .....",
" .' { [ ` _ ` ` [ [ | [ _ [ { [  .` { { ` _ ` ` ' ' | [ _ { { '  .' ' | ` ( ' ` ] { | { ` { [ '  .` { { ` _ ` ` [ [ | [ _ [ { [ ",
"| ' { { ` ' ' [ ' ` ' ' [ | ' | | ' { { ` ' ' [ ] ` [ ` { { '  .| ` [ } ' ' [ [ ' ' ' ' ' { [ | ' ' { | ` ' ' { ' ` ' ' { | ' | ",
"( ' ` ' '  ...{ { {  .' | ' ' { ( [ ` ' '  ...{ { }  .[  .` ` { ( [ ' ' ` } ..[ { |  .'  .' ' { _ ' ' ' '  ...{ | |  .' | ' ' { ",
"|  .|  ...X... ... ...} ' ' ' ' |  .|  .X.X... . . ...} ' ` ' ' |  .} } ..X....... ...{ ' ' [ ' |  .| | ..X.......| X.| ' ` ' ' ",
" .' ' ' [ | | | { ' [ ] _ '  .[  .' { ` ` { [ q 5 4 4 4 3 4 5 5 5 4 4 4 4 5 w [ [ ' ' ' _ '  .[  .' { ` ` | | | { ' ' ' _ '  .{ ",
"' ' ` ` [ ' { _ _ `  .` }  .' { ` [ ` ] [ ^ & X 1 2 p A P T =.=.T U B p 2 2 X & Q ` | ` }  .' | ' ' ' ` [ ' { _ ( `  .` {  .' | ",
"' {  ...X.{ ' ' [ | { .. .|  .| [ [  ...W   * : f p b T =.>.,.<.>.:.T n 2 v : *   e { .. .|  .| ' '  ...X.{ ' ' { } {  . .|  .| ",
"| ( { '  .{ | { [ ' ' [ _ [ '  .{ ( ( 6 X - , , v v m T =.>.,.<.>.E T m b v , , - X 5 ) _ [ '  .| / { '  .| | { | ` ` { ' ' '  .",
"' { |  .{  .| { ( ) ` ` _ / ( { ' ' & * > < < y p B L T =.>.,.<.>.E T U B v y y , > * % _ / ( [ ' | | ..{ | | { ( ` ` _ _ / / | ",
"' ..|  .}  .{ [  .{ [  .' { ..{ ' } $ > y y g h v B L Y =.>.<.<.>.=.T U B v d d y y , $ ` } ..[ ' ..}  .{ | { }  .[ { ..[  ...[ ",
"' { ' _ ] ` ` ) ]  .X. .| ' ' { ' ` # , a x Z V s N L T =.>.,.,.>.=.T U N s V S x i , $ ' ` ' | [ [ ` ` [ ` ` ) ]  .X. .{ ` ' { ",
"'  .' { `  .{ ` ' {  . .| ` _ ' ' [ # , d D F C a h N B I Y R T T L A M b a V F D g < $ ` ` _ [ '  .[ { `  .{ ] [ [  . .| ` _ { ",
"'  . . .X...} [  . .) ] [ ..| ` [ [ $ y g S Z j d d j d d d d d b d d d d d h Z Z j y # ` ..| ` [ |  . .X...{ `  . .) ` {  .| ` ",
".... . .' ' ` [ ' ( ` ) ` { _ }  . .# u k C j d C C C C C C d u V C C C Z C d z C j u @ ( { _ ' .... . .[ ' ` [ ` ( ` ) ` ' ( { ",
"{  . ._ ` { ` / '  .`  .] ` { | [ [ # a k z z Z C D S D D C = * d D D D S C C z z k i # ` _ | | {  .| ` ` { ` ( [ { `  .[ ` { { ",
" .| ' | | | ' { { '  . ... ... . .` # a z z G z > D G G F G , - z F G G S > d G z z d $ }  ..... .| ' | | | ` }  .'  . ...| X. .",
" .' ' | ` _ ` ` [ [ { { ( [ [ [  .) $ d c c D ; d H J J J J S V J J o.H o.d > D c c d # ~ [ ' '  .` { { ` _ ` ` ' [ | [ _ { { [ ",
"{ ` [ | ' ' ' { ' ' [ ' ' { [ | | _ # j S c c , G O.O.O.@.o.; ; V O.O.o.o.H , V c c j # _ { ' | { ' { { ' ' ' [ ] ' ' ' [ { ' | ",
"( } ` ' ' | ..' { |  .'  .' ' { ( _ # j S S O.K O.O.@.+.#.@.; - C #.@.@.@.O.o.o.S S z # ' ' ' { ( ' ' ' '  . .{ | |  .'  .' ' { ",
"|  .|  ...X.......| ..{ ' ' ' ' | { # z G G K x a u y l o.&.H F $.&.&.$.#.#.@.#.G G z # ) ' ' ' |  .|  ...X....... ...| ' ' { ' ",
" .' [ ` ' | | | { ' ' ' _ '  .[  ._ # k G c < y a a g i < c %.*.&.$.#.#.#.@.o.#.G G z # / '  .{  .' ' ' ' { | | [ ' ' ' ( ' | { ",
"' ' ' ` ' [ { ` ( `  .` |  .' { ' _ # j x y g l l l l k g g x %.o.d C H o.S z d S S j # `  .' { ' ' ' ' ' [ { _ ) `  .` {  .' { ",
"' [  .X.X.[ ' ' { | } .. .| ..| ' ` $ d g l x D K K K D i i g K H a r J #.d a d C C d $ } |  .| ' [  .X.X.{ ' ' { { | .. .| ..| ",
"| ( [ '  .| | [ } ' ` [ ` ' '  .| ~ $ d l V K K +.%.%.K l x l Z G a ; o.&.t u d c c d # ( ' '  .| / { ' | { | { { ' ' ' ' ' '  .",
"' [ | ..[  . .' ( ) _ ` _ / ( { ' _ # d Z F +.%.;.;.;.%.H F D x S a = o.#.t u i z z i @ ( / ( { ' { |  .{  .| { ( ) ) ` _ / / { ",
"' .. . .{ | | [  .[ [ ..' }  .{ ' { # d G H %.*.:.:.:.-.+.+.F c C a d J o.k d u k z i $ ` } ..{ [  .{  .| | { {  .' { ..' |  .[ ",
"' [ ' _ ' ` ` ` ] ..X...| ` ' | ' ` # a c F +.%.-.:.:.K F F Z x D Z C S D C C V d d u $ ` ' ` | ' { ' ` [ ` ` ) ] ..X. .| ' ' | ",
"'  .' { `  .[ ` ' [  ...{ ` _ ' ' ' # y l c F +.+.%.+.K l k l l C V C Z S V V s d d y $ ` ` _ { '  .] { `  .{ ] ' '  . .| ' _ [ ",
"[  . . .X...} [ ..} ) ] [ ..| ' { { 4 ; u k l Z F K K Z g u i l b d S +.$.H l u d u ; & ' ..| ` { |  . .X...| ' .. .) ' '  .| ' ",
"..X. . .[ ` ` [ ' ( _ _ ' ' _ ' ...._ @ ; y g h h l l l g u g x k d V G J C d y y ; + ! ` { ( {  .X. . .[ ` ` [ ` ) ) ` ' ' ) { ",
"{  .| ` ` { ` ^ { | [ } [ ` | | '  .| W . > , y u s u y , u g h j d d h d i y < , . e  .[ ` { { {  .| ` ` { ` / ' { '  .] ` { { ",
"| | ' { | | ' } | ' |  ...| .... .| '  .w X > , > > > , < < < < y y < < < < < , X q  . ... ..... .| ' | { | ' { | { |  ...| .. .",
" .' { { ` _ ` ` [ ' | { _ { ' '  .' ' | _ 6 o > , , , , , , , , , , , , , , , o 6 ` | { ( [ [ '  .` { { ' ) ' ` ' ' | { _ { { ' ",
"| ' ' | ' ' ' { ' ` [ ' [ | ' | { ' { { ` ( & * : : : : ; > > > : > : : : : * & _ ` ' ' ' | '  .' ' { | ` ' ' { ' _ ' ' { | ' | ",
"/ { ' ' `  . .{ | | | {  .` ` | ( [ ` ' '  .)   o o o o o o o o o o o o o o O ~ | |  .'  .` ' [ _ ' ' ' ' | X.{ | | | '  .' ' { ",
"|  .| | ..X....... ...{ ' _ ' ' |  .|  ...X...^ 0 9 0 9 8 7 9 8 9 0 9 9 0 0 ~  ... ...| ' ' [ ' |  .| | ..X.....X. .X.{ ' _ ' ' ",
" .' { ` ' { | | { ' ' ' _ '  .|  .' [ ' ] {  .{ [ ' [ ' _ '  .[  .' } ` ` }  .| { ' ' ' _ '  .[  .' { ` ' | | | { ' ' ' _ '  .{ ",
"' ' ' ` ' { { _ ( `  .` |  .' | ' ' ' ` { ' { ` _ ` | ` }  .' { ' ' ' ` ' { { _ ( `  .` {  .' | ' ' ' ` ' { ' ` _ `  .` |  .' | ",
"' {  .X...{ ' ' { } {  . .| ..| ' '  .X...{ ' ` [ } } .. .|  .| ' [  .X...{ ' ' { { { .. .| ..| ' '  .X.X.{ ' ' { { { X. .| ..| ",
"| / { '  .| | { { ' ` { _ ' '  .| / { '  .| { { | ` ` [ ` ' '  .| / { '  .| | { { ' ` [ ` ' '  .| / | ' | | | | { ` ` ' ` ' '  .",
"' { |  .{ | | { ( ` ` _ ` / ( { ' { |  .| |  .[ ( ` ) ` _ / ( } ' { |  .{  .| [ ( ) ) ` _ / / { ' | |  .{  .| ' ( ` ` ` _ / / { ",
"' ..}  .{ | } [  .[ { ..[ }  .{ ' ..|  .| | { [  .[ [ ..' { ..{ ' ..|  .| | | [  .[ [ ..[ { ..{ ' ..{  .{  .{ {  .[ [ ..[  . .{ ",
"[ [ ` ` [ ` ` ) ]  .X. .{ ` `  .' { ' _ [ ' ` ) ] X.X. .| ' ` | ' | ' _ ' ` ` ` ] ..X. .| ` ' | [ { ` ` ] ` ` ) ] ..X. .{ ` ' { ",
"'  .[ { `  .{ ] [ [  . .| ' _ { '  .' | _  .{ ] ' [  . .| ` _ { '  .' | )  .[ ` ' [  ...{ ` _ [ '  .[ { `  .{ ] ' '  . .{ ` _ { ",
"[ |  . .X...{ [  . .) ` '  .| ` '  . . .X.X.{ [  . .) ` ' ..| ` '  . . .X...{ [ .. .) ` [ ..| ' [ |  . .X...{ ' .. .) ` { ..| ` ",
".... . .{ ` ` ' ` ( ` ) ` ' ( { .... .| { ` ` ' ' ( ` ) ` [ _ { ..X. . .} ` ` [ ` ( ` ) ` { _ '  .X. . .[ ` ] ' ` ( ` ) ` { ( { ",
"{  .| ` ` { ` ( [ { `  .{ ` { { {  .| ' ` { ` / ' | [  .[ _ { { {  .| ` ` } ` / '  .`  .[ _ | | {  .| ` ` { ` ( [ } `  .[ _ { { ",
" .| ' | | | ` }  .'  . ...| X. .| | [ } } { [ { | '  . . . ... .| | ' | | | ' } | '  . . . ... .| | ' |  .{ ` {  .'  . . . . . .",
" .` { { ` _ ` ` ' [ | [ _ { { [  .` { { ` _ ` ` [ ' } [ _ { { '  .' { { ` ( ` ` ` { { { _ { { '  .' { { ` _ ` ` [ ' { { _ { { { "
};
