/* XPM */
static char *_f71fe39b9bf4a3ec883cca32fa1b338SJTU6O1Z1lJImpWT[] = {
/* columns rows colors chars-per-pixel */
"70 70 235 2 ",
"   c #5A5554",
".  c #5E5959",
"X  c #575454",
"o  c #554F4F",
"O  c #635C5C",
"+  c #64605F",
"@  c #675E60",
"#  c #666263",
"$  c #6A6465",
"%  c #6E6A69",
"&  c #6B6768",
"*  c #736C6D",
"=  c #776D6B",
"-  c #736E72",
";  c #757171",
":  c #7A7474",
">  c #7E7879",
",  c #7A7779",
"<  c #6F706E",
"1  c #827C7C",
"2  c #BF7B7A",
"3  c #FE4D5D",
"4  c #F95B6B",
"5  c #FF4B62",
"6  c #FC6D76",
"7  c #FD8E2B",
"8  c #FE932B",
"9  c #FE9826",
"0  c #FE9434",
"q  c #FD9A33",
"w  c #FD9A3D",
"e  c #F9993A",
"r  c #FDAD3C",
"t  c #FCA639",
"y  c #FFB335",
"u  c #FCB33C",
"i  c #FDB83D",
"p  c #F5B43C",
"a  c #FDB12E",
"s  c #88807E",
"d  c #B8997A",
"f  c #CD994F",
"g  c #FD9A43",
"h  c #F89A44",
"j  c #E49A56",
"k  c #DAA558",
"l  c #D5B258",
"z  c #FCAD43",
"x  c #F9A547",
"c  c #F4B444",
"v  c #FDB443",
"b  c #FDB943",
"n  c #F5B34B",
"m  c #FCB34B",
"M  c #FFBA4B",
"N  c #FCAA57",
"B  c #FDBA56",
"V  c #EBB04F",
"C  c #CD9669",
"Z  c #E39A61",
"A  c #D3A970",
"S  c #E2AD63",
"D  c #FAB669",
"F  c #ECB26F",
"G  c #FAC777",
"H  c #F8C873",
"J  c #FBC356",
"K  c #7E7886",
"L  c #FF7980",
"P  c #1EA7FE",
"I  c #1AA6FE",
"U  c #2EA8F5",
"Y  c #27A7FA",
"T  c #37AAFA",
"R  c #53AEEC",
"E  c #49AEFE",
"W  c #45ADF9",
"Q  c #49B2FE",
"!  c #55B5FF",
"~  c #5DB7FE",
"^  c #59B8FB",
"/  c #47AFEE",
"(  c #62B5FE",
")  c #63B9FB",
"_  c #65B4F5",
"`  c #74BAF5",
"'  c #7CB8EC",
"]  c #868181",
"[  c #8C8788",
"{  c #938D8D",
"}  c #948E80",
"|  c #9C958D",
" . c #98968B",
".. c #958E91",
"X. c #969393",
"o. c #9C9595",
"O. c #9C9A95",
"+. c #9C9699",
"@. c #95999A",
"#. c #9D9999",
"$. c #95969B",
"%. c #A9988B",
"&. c #B69C83",
"*. c #A29594",
"=. c #A29995",
"-. c #A0969B",
";. c #A29C9C",
":. c #AA9994",
">. c #A4A39A",
",. c #B6A38C",
"<. c #A69BA2",
"1. c #A5A3A3",
"2. c #A9A4A4",
"3. c #ADABAC",
"4. c #AAA7A9",
"5. c #B4ACAA",
"6. c #BCB1AD",
"7. c #B6B3B4",
"8. c #B9B5B5",
"9. c #BCBCBB",
"0. c #B9B8B8",
"q. c #B5ACB1",
"w. c #9A9F9E",
"e. c #FC8690",
"r. c #D5B291",
"t. c #E5AC8A",
"y. c #ECB689",
"u. c #FC97A2",
"i. c #C3B5A9",
"p. c #D4BCA3",
"a. c #D5BBA9",
"s. c #CDBDB6",
"d. c #C4BDBD",
"f. c #CCBEBA",
"g. c #C4B9B6",
"h. c #D2BDB4",
"j. c #D1BDBB",
"k. c #DABDB3",
"l. c #F8B4B1",
"z. c #D09694",
"x. c #FFCE81",
"c. c #FBC38B",
"v. c #FFD184",
"b. c #FECA99",
"n. c #FCD998",
"m. c #D8C0A7",
"M. c #CEC1B6",
"N. c #C5C2BD",
"B. c #CCC1BB",
"V. c #D3C2BA",
"C. c #D1C2B6",
"Z. c #FED8A7",
"A. c #FEDDB5",
"S. c #EACCAD",
"D. c #FFE4BA",
"F. c #D2C09A",
"G. c #99BAD7",
"H. c #83B3D7",
"J. c #A8B7CA",
"K. c #ABB9C7",
"L. c #B5BBC8",
"P. c #A4BBD6",
"I. c #89BCEA",
"U. c #C5BDC2",
"Y. c #CBBEC1",
"T. c #CABEC8",
"R. c #D2B8C3",
"E. c #BEC9CE",
"W. c #96C3E9",
"Q. c #8AC9EC",
"!. c #B2D3EC",
"~. c #C4C2C3",
"^. c #CAC4C4",
"/. c #CDCACC",
"(. c #C5C6CA",
"). c #D3CCCC",
"_. c #DBCEC9",
"`. c #D4C6C3",
"'. c #D9D1CB",
"]. c #D3CED0",
"[. c #D5D3D3",
"{. c #DCD5D4",
"}. c #DDDBDB",
"|. c #D9D9D6",
" X c #CED4D7",
".X c #E3D5CA",
"XX c #F5DAC8",
"oX c #E2DEDE",
"OX c #EBDEDA",
"+X c #E7D9D5",
"@X c #F2DDD4",
"#X c #F2DFDA",
"$X c #FBDAD4",
"%X c #F0CCC8",
"&X c #FBE4C8",
"*X c #EEE1DB",
"=X c #E4E1DB",
"-X c #F2E3DD",
";X c #FEEEDD",
":X c #F8E3D6",
">X c #FFF2DB",
",X c #FBF5D3",
"<X c #C9D6E5",
"1X c #D7DBE3",
"2X c #E3DEE1",
"3X c #DCE3E8",
"4X c #E5E3E3",
"5X c #EBE5E4",
"6X c #ECEBEB",
"7X c #E6E5E8",
"8X c #F1E5E4",
"9X c #F4EEEC",
"0X c #F7E9E7",
"qX c #FFF3E3",
"wX c #FFFCEE",
"eX c #F9F3ED",
"rX c #F1EDF2",
"tX c #F5F3F3",
"yX c #FBF5F3",
"uX c #FDFCF5",
"iX c #FBF6FB",
"pX c #F5FEFE",
"aX c #FEFEFA",
"sX c #FEFBFD",
"dX c #FDFDFD",
"fX c #FFFFFD",
"gX c #FEFEFE",
"hX c #FFFEFF",
"jX c #FEFFFF",
"kX c white",
"lX c #FEFEFF",
"zX c #FEFEFE",
"xX c #FEFEFE",
"cX c #F5FBF4",
"vX c #EEF9E9",
/* pixels */
"kXkXkXkXkXkXkXkXkXkXkXkXkXkXkXkXkXkXkXkXkXkXkXkXkXkXkXkXkXkXkXkXkXsXsXsXiXkXkXdXkXkXkXkXkXkXkXkXkXkXkXkXkXkXkXkXkXkXkXkXkXkXkXkXkXkXkXkXkXkX",
"kXkXkXkXkXkXkXkXkXkXkXkXkXkXkXkXkXkXkXkXkXkXkXkXkXkXkXkXkXkXkXkXdX0X%X$XaXsXsXaXkXkXkXkXkXkXkXkXkXkXkXkXkXkXkXkXkXkXkXkXkXkXkXkXkXkXkXkXkXkX",
"kXkXkXkXkXkXkXkXkXkXkXkXkXkXkXkXkXkXkXkXkXkXkXkXkXkXkXkXkXkXkXkXeXu.6 4 l.dXdXpXkXkXkXkXkXkXkXkXkXkXkXkXkXkXkXkXkXkXkXkXkXkXkXkXkXkXkXkXkXkX",
"kXkXkXkXkXkXkXkXkXkXkXkXkXkXkXkXkXkXkXkXkXkXkXkXkXkXkXkXkXkXkXkXl.e.6 3 4 :XpXsXkXkXkXkXkXkXkXkXkXkXkXkXkXkXkXkXkXkXkXkXkXkXkXkXkXkXkXkXkXkX",
"kXkXkXkXkXkXkXkXkXkXkXkXkXkXkXkXkXkXkXkXkXkXkXkXkXkXkXkXkXkXkXkXl.e.L 3 4 ;XpXiXkXkXkXkXkXkXkXkXkXkXkXkXkXkXkXkXkXkXkXkXkXkXkXkXkXkXkXkXkXkX",
"kXkXkXkXkXkXkXkXkXkXkXkXkXkXkXkXkXkXkXkXkXkXkXkXkXkXkXkXkXkXkXkX0Xe.6 5 u.iXiXkXkXkXkXkXkXkXkXkXkXkXkXkXkXkXkXkXkXkXkXkXkXkXkXkXkXkXkXkXkXkX",
"kXkXkXkXkXkXkXkXkXkXkXkXkXkXkXkXkXkXkXkXkXkXkXkXkXkXkXkXkXkXkXkXsX_.2 z.yXsXsXaXkXkXkXkXkXkXkXkXkXkXkXkXkXkXkXkXkXkXkXkXkXkXkXkXkXkXkXkXkXkX",
"kXkXkXkXkXkXkXkXkXkXkXkXkXkXkXkXkXkXkXkXkXkXkXkXkXkXkXkXkXkXkXkXsXOXo.0.aXaXkXpXkXkXkXkXkXkXkXkXkXkXkXkXkXkXkXkXkXkXkXkXkXkXkXkXkXkXkXkXkXkX",
"kXdXdXdXkXkXkXkXkXkXkXdXdXdXkXkXkXkXkXkXkXkXkXkXkXaXkXkXkXkXkXkXsXoX+.8.iXkXdXkXkXkXkXkXkXkXkXkXkXkXkXkXkXkXkXkXdXkXkXdXkXdXdXkXkXkXkXkXkXkX",
"kXkXkXkXkXdXkXkXkXkXkXkXdXkXkXkXkXkXkXkXkXkXkXkXkXdXkXkXkXkXkXkXsX}.X.8.kXkXkXaXdXdXdXkXkXkXkXkXkXkXkXkXkXkXkXkXkXdXkXkXkXkXdXdXkXdXkXkXtXkX",
"kXdXkXdXkXiXkXdXsXkXkXkXdXkXiXkXkXkXkXkXkXkXkXkXkXkXkXkXdXdXkXkXaX}.X.7.kXdXkXkXdXkXkXdXkXiXiXkXkXkXkXkXkXkXkXkXkXkXiXdXiXkXkXdXkXkXkXkXkXkX",
"kXkXkXkXkXkXkXkXkXkXkXkXkXkXdXkXkXkXkXkXkXkXkXkXkXkXkXkXkXkXaXkXaX}.#.7.yXkXkXaXdXdXkXkXkXkXkXsXkXkXkXkXkXkXkXkXkXkXkXkXkXdXkXkXkXaXiXkXkXdX",
"kXkXkXkXkXkXkXkXkXkXsXdXkXkXkXkXkXkXkXkXkXkXkXkXkXkXiXaXaXaXuXtX0X}.g.d.*X9XeXaXkXkXkXkXdXkXkXkXkXkXkXkXkXkXkXkXkXcXiXiXkXkXiXkXdXkXkXkXiXkX",
"kXkXdXsXkXkXiXkXsXkXkXsXkXkXkXdXkXkXkXkXkXkXkXkXkXkXkXaXyX9X8X8X-X-X*X+X.X_.^.{.5XtXaXkXkXiXkXkXkXkXkXkXkXkXkXkXtX/.7.7.4XkXkXkXkXaX~.3.9.[.",
"7X}.|.1XkXkXkXkXkXtX|.|.oXdXkXkXkXkXkXkXkXkXkXkXkXaXuX9X5XOX+X#X*X*X*X-X2XOX.X`.f._.8XaXaXkXkXkXkXkXkXkXkXkXkXkX}.#.X.+.].kXkXkXdXuX8.X.+.2.",
"3.+.+.5.tXdXkXdXdX[.o.X.1.7XiXkXkXkXkXkXkXkXkXkXkXtX5XoX*X-X-X:X*X*X*X*X#XOX8X+X_.f.d.|.tXkXkXkXkXkXkXkXkXkXkXkX{.X.7.}.dXkXcXkXkXkX5X{.>.{ ",
"-.;.0.[.kXuXkXdXkX7XN.4.o.{.sXkXaXkXdXkXdXkXkXkXqX3X*X@X*X#X-X=X4X8X2X#X$X+X7X-X@X_.k.s. XtXkXaXkXdXkXdXkXkXdXkX X@.9.aXkXkXkXdXdXkXdX6X>. .",
"o.4.4XkXkXkXkXkXkXkXcX0.o.|.kXkXaXkXkXkXdXkXaXtX#X8X-X4X*X@X8X8X@X@X$X-X5X-X-X:X5XoX{.h.a..XuXsXkXdXkXkXkXkXaXkX{.o.d.aXuXaXaXuXdXdXkXtX#.#.",
"o.1.tXkXdXkXkXdXkXdXaXN.o.|.kXkXkXkXkXdXkXkXyX5XOX5X@X#X*X<X!.#X8X*X4X4X-X-X1X!.1X@X2X_.j.T.oXkXkXkXkXkXkXdXkXkX'.o.7.kXpXdXaXaXdXdXaX=X1.#.",
"o.-.6XdXkXdXkXkXkXiXaX9.o.[.aXkXkXkXdXdXkXsXeX=X#X4X#X2XW.Q T Q.*X@XOX5X*X<X` Q / !.2XXXV.U.B.9XkXkXkXkXkXdXkXdX5X>.@.3XkXkXdXkXkXaXuX0.@.q.",
"1.#.).kXdXkXkXdXdXkX5X4.#.=XkXdXkXkXkXkXkXyX8X*X#X=X-X!._ ! Y T <X:X@X*XOXW.! R I ^ 3X@X`.s.B.+XdXkXkXkXkXsXkXdXaX/.O.5.5XaXiXkXsXaX|.O.<.4X",
"[.+.1.5XkXdXkXdXkXiX8.X.9.tXkXkXkXaXkXkXdX0X*X*X*X+X:X!.^ ) T Y !.5X=X*X@XI.! ~ Y R |.+X7XY.g.V.tXkXsXkXkXkXkXdXkX9X7.X.d.pXkXpXpX7X1.@.).kX",
"kX0.o.7.tXdXkXaXaX[.O.3.7XkXdXdXkXkXkXkXaX8XOX-X-X5X:X<X` Q Y R }.*X*X:X4X!.) T I W.-X@X5XV.h.j.4XaXkXkXkXiXkXkXdXdX3X1.| .X&XD.&Xi.X.L.yXuX",
"dXtX3.X.`.aX9XuX7X1.-.].aXkXkXdXkXkXkXaXuX-X+X-X#X*X#X8X<XW.Q.1X-X+X:X@X7X2X<XQ.W.=X=X5X@XV.j.U.}.kXkXsXkXkXkXkXkXkXuX_.d F m 9 g Z ,.6XdXdX",
"uXsX}.w.A D D N Z %.L.yXdXuXuXdXkXkXdXkXeX-X-X*X-X-X*X*X*X*X-X-X*X*X*X*X*X*X*X*X*X-X*XOX*X_.f.s.'.uXdXdXkXkXdXkXsXdXpX&XB y y z q w F qXsXkX",
"aXkXdXF N m p t h j :XkXkXsXdXdXaXkXdXkX9XOX*XOX*X*X*X-X-X*X*X*X*X*X*X-X-X*X*X-X*X*X*X*X-X.XC.f.).tXdXkXkXdXkXdXaXdXuXG c z M c x 0 w A.dXpX",
"dXdX>XB y v y t 8 9 b.dXsXdXpXuXkXkXkXkX9X#X#XOX*X*X*X*X-X*X*X*X*X*X*X*X*X*X*X*XOX*X*X*X*X.XB.f.`.yXkXkXdXdXkXdXdXpXeXB z b v b t 8 0 b.pXdX",
"uXdXZ.c u i u z t w N tXkXkXsXdXkXdXdXsX2X_._._._._._._._._._._._._._._._._._._._._._._._.V.5.4.5.tXdXdXkXkXkXkXkXpXqXH M c u y x 0 g Z.dXaX",
"dXdXn.u b c z b h h z eXaXuXkXpXkXkXkXdX{.f.s.s.s.f.f.C.f.f.f.f.s.s.f.s.s.s.f.s.s.f.s.f.s.6.*.O.;.9XkXkXkXdXsXaXaX5X6.A y v b p x 7 h D.uXaX",
"dXkXD.p y n u r 0 7 Z '.wXkXiXaXkXdXdXkX{.B.s.f.f.f.s.f.f.f.s.j.f.f.f.f.M.f.f.f.f.s.s.s.f.6.=.o.;.tXkXkXdXuXkXkXrXN.O.d V M a t 9 w c.uXdXaX",
"dXkXqXH u v u t 7 h &.O.].sXdXsXdXdXdXkX.XV.f.j.f.j.B.f.f.f.f.f.f.B.B.j.j.B.f.f.f.f.s.f.B.6.;.o.>.6XdXkXkXkXaX6X0.X.$.$.d S x N N b.qXdXdXaX",
"cXkXkX,XH y w g e C o.*.w.].kXpXaXdXdXkX{.f.f.f.s.f.s.f.j.s.f.f.j.f.s.B.s.j.f.f.B.B.s.f.B.6.#.o.<.rXdXkXdXkXtX8.O.o.<.| @.=.A.:X>XdXkXuXdXpX",
"kXkXkXuX>X&Xb.y.&.;.@.@.*.;.).pXkXeXqX,XOXR.h.N.d.k.h.~.~.h.h.f.j.s.f.s.s.f.j.s.M.s.j.d.V.i.+.*.2.*XuXeXyXvX6.+.+.o.o.+.2.|.kXdXkXkXkXkXkXkX",
"aXkXdXpXdXdXkXcXf.#.X.+.-.X.O.S.v.D N D a.M.h.f.d.s.s.M.s.s.h.M.M.s.s.M.s.M.M.s.U.U.h.s.f.i.$.$.;.D m N F r.%.@.+.o.o.2.}.kXiXkXkXkXkXkXkXkX",
"kXkXdXdXpXdXdXdXsX9.;.*.*.+.&.S p a 0 w t.i.s.j.j.s.k.h.f.d.~.^.f.j.j.j.j.j.f.j.h.j.k.h.f.6.$.o.:.n y z w g C $.o.o.1.{.kXkXkXdXkXkXkXkXkXkX",
"dXkXkXkXaXuXuXuXkXpXU.*.X.%.S v c r w g t.s.j.j.j.j.j.L.K.K.K.0.J.J.J.J.J.J.J.J.J.J.g.h.f.6.#.o.| V v z z 0 0 d o.2.}.kXkXdXdXkXkXkXkXkXkXkX",
"dXkXkXkXkXkXdXdXdXdXtX^.$.d v u v y 0 0 t.j.f.B.s.B.9.R T U U P U U U U U U U U U W G.s.j.i.#.+.>.V a y v e q Z 1.|.aXkXiXkXdXkXkXkXkXkXkXkX",
"kXkXkXaXdXdXpXpXaXdXkXcXL.A y p v u 0 w t.g.d.V.j.N.9.T I Y Y I P Y P P P P P Y I Y ' i.C.i.o.O.%.c v b y t q j |.kXkXdXkXkXkXkXkXkXkXkXkXkX",
"pXdXkXaXkXaXaXaXdXkXdXaXpXS.p b c c e q t.d.d.a.h.U.d.W W W W Q E E E E E E Q E / E G.s.B.6.#.*.*.V b c c x w D kXaXkXiXkXkXcXkXkXkXkXkXkXkX",
"kXdXdXdXdXkXkXkXsXvXsXdXpX>XB b r y q 0 t.Y.^.h.h.~.s._ ( ~ ~ _ ~ ~ ~ ( ~ ( ~ ~ ~ ! P.k.f.7.#.o.:.n u i z w 8 b.dXaXdXkXkXkXdXkXkXkXkXkXkXkX",
"kXkXkXkXkXkXkXkXkXkXkXcXpXsXZ.p c r 9 g t.s.M.f.h.h.L.' ! ( ) ( ( ( ( ( ( ( ( ( ) ( G.C.s.7.=.o.%.V u m t 9 D qXkXkXkXkXkXkXkXkXkXkXkXkXkXkX",
"kXkXkXkXkXkXkXkXpXkXkXuXdXkX;Xn.M z 7 h r.s.f.Y.C.M.U.' ~ ( ) ( ~ ( ( ~ ( ~ ~ ( ! ~ G.k.j.7.*.+.>.S y t e D XXdXkXkXkXkXkXkXkXkXkXkXkXkXkXkX",
"kXkXkXkXkXkXkXkXuXdXkXuXaXsXkXuXD.A.b.Z.S.f.s.f.N.d.L.I.) ( ) ( ) ~ ) ) ^ _ ) ) ` ` E.s.B.8.*.o.1.S.n.b.A.qXkXpXkXkXkXkXkXkXkXkXkXkXkXkXkXkX",
"kXkXkXkXkXkXkXkXdXdXkXkXaXkXdXpXpXpXkXaX}.B.s.R.h.k.h.L.L.K.L.L.L.L.L.L.L.L.L.L.L.K.L.s.B.7.*.*.1.tXdXdXdXdXdXuXkXkXkXkXkXkXkXkXkXkXkXkXkXkX",
"kXkXkXkXkXkXkXkXkXdXdXaXkXsXkXaXkXkXdXdX{.s.f.f.d.h.j.f.B.j.h.h.f.j.j.s.j.j.j.j.k.s.h.k.f.5.o.-.>.7XkXkXtXuXkXkXkXkXkXkXkXkXkXkXkXkXkXkXkXkX",
"kXkXkXkXkXkXkXkXaXdXpXdXkXkXkXuXdXuXkXdX.Xf.d.f.s.k.h.s.s.N.f.Y.j.M.j.M.M.j.j.M.f.f.f.h.h.8.+.$.>.9XdXdXkXkXaXpXkXkXkXkXkXkXkXkXkXkXkXkXkXkX",
"kXkXkXkXkXkXkXkXkXdXaXaXkXkXkXsXdXdXdXpX+Xf.d.V.~.Y.N.f.j.B.j.f.s.s.g.f.s.s.d.s.U.f.f.f.C.6.o.+.-.iXkXpXpXdXuXpXkXkXkXkXkXkXkXkXkXkXkXkXkXkX",
"kXkXkXkXkXkXkXkXdXdXkXkXdXuXdXkXkXuXsXdX+Xf.d.k.s.f.B.j.s.N.R.f.B.f.B.B.f.f.B.f.h.h.f.U.^.i.*.o.>.rXdXwXaXkXaXdXkXkXkXkXkXkXkXkXkXkXkXkXkXkX",
"kXkXkXkXkXkXkXkXkXdXkXdXdXkXkXkXdXkX>X;X.XF.p.p.p.p.p.p.p.p.p.p.p.p.p.a.m.p.p.p.p.p.p.m.p.r.&.&.,.XX,XcXdXdXcXkXkXdXkXkXkXiXdXkXkXkXkXkXkXkX",
"kXkXkXkXkXkXkXkXdXdXkXkXkXkXkXiXsXn.J B m v n B z m m m n M m v m m m v m M m m M m n m n m n n x h g D ,XdXdXkXkXkXkXdXkXkXkXdXkXkXkXkXkXkX",
"kXkXkXkXkXkXkXkXkXkXkXiXkXdXkXkXeXB y n y i u v u u u i u u i u u p u i u p u u u u u u b p u u r g 7 q b.uXpXdXsXkXkXiXkXkXdXkXkXkXkXkXkXkX",
"kXkXkXkXkXkXkXkXkXkXkXdXdXkXdXdX,Xi y n v v p i v v u b b v v v b b v v v v v v b i v v u u v v c x h t c.uXkXkXdXdXkXdXkXkXdXkXkXkXkXkXkXkX",
"kXkXkXkXkXkXkXkXkXsXkXsXkXkXdXkXcXG b p z N b i v M m p v v c v r M b c b v v b b v c M v b v v r 0 7 h A.pXdXkXkXdXkXkXdXkXkXkXkXkXkXkXkXkX",
"kXkXkXkXkXkXkXkXkXdXkXkXkXtX}.}.2Xa.F l k k f f f F v.x.x.x.v.x.x.F f k x.x.v.G G v.x.G S S k S k j j A M.].).7XdXkXdXkXdXkXkXdXkXkXkXkXkXkX",
"kXkXkXkXkXkXkXkXkXiXkXkXdX~.1.+.;.<.-.#.| } 1 = ; { =XkXkXdXdXuXaXN.o s tXaXaXuXkXaXdXN.;.=.O.=.} <.-.{ , - % ] }.kXdXkXkXkXkXkXkXkXkXkXkXkX",
"kXkXkXkXkXkXkXkXkXkXdXdXrX#.+.o.| O.| +.o.=.K % ; - /.dXkXdXkXkXkX(.X [ sXkXsXkXkXkXtX4.+.o.o.o.#.$.-.*.] < < = 0.dXkXkXkXdXdXkXkXkXkXkXkXkX",
"kXkXkXkXkXkXkXkXkXkXdXkX6X+.[ { o.o.o.o.o.o.> * * * ~.kXsXkXkXkXkX^.X [ dXiXkXkXdXdXtX;.{ { | +.o.o.o.-.] * * = 3.kXkXkXkXkXkXdXkXkXkXkXkXkX",
"kXkXkXkXkXkXkXkXkXkXkXkX}.% O + * O.-.o.o.O.:     O 8.cXkXkXdXkXkX~.. ] kXkXiXkXkXiX7X< . O % o.-.o.O.o.> . X   4.kXkXkXkXdXkXdXkXkXkXkXkXkX",
"kXkXkXkXkXkXkXkXkXkXdXdX}.+ . . ; o.o.o.-.o.: X . X 0.kXkXkXkXkXdXE.* X.rXkXdXdXkXkX6X* . O % X.O.o.o.o.1     X 2.dXkXdXkXkXkXdXkXkXkXkXkXkX",
"kXkXkXkXkXkXkXkXdXkXdXkXtXX.{ { { #.o.#.;.{ 1 * * & 6.7X3X4X7X4X}.3.X.+./.7X4X4X7X7X{.o.{ { { =.o.o.o.#.1 & * % 3.kXkXkXkXkXkXdXkXkXkXkXkXkX",
"kXkXkXkXkXkXkXkXkXkXkXiX6X>.#.o.*.o.o.o.o.o.] = % = * @ $ % & $ ] +.-.o.{ - $ $ # # < X.-.O.o.o.O.-.o.o.] = : ; 7.kXkXkXkXkXkXkXkXkXkXkXkXkX",
"kXkXkXkXkXkXkXkXkXkXkXkX6X;.o.#.o.o.+.o.o.#.1 * = ; * & $ $ & & { *...-.o.% % # # $ < X.o.o.-.o.o.+.o.o.1 * * * 7.kXdXkXkXdXkXdXkXkXkXkXkXkX",
"kXkXkXkXkXkXkXkXkXdXdXkX4X1 ; 1 [ O.o.o.#.o.: # + # 5.7X7X7X6X6X2X2.;.1.^.6X7X6X6X6X[.[ : : s o.o.o.o.O.1 @ # # 4.dXkXdXkXdXkXkXkXkXkXkXkXkX",
"kXkXkXkXkXkXkXkXkXkXkXkXoXO X o & o.o.X.#.o.= X   X 0.kXkXkXaXkXkXrXoX1XkXkXkXkXdXkXtX#   X O o.#.#.o.o.1 X X X 1.kXkXkXdXkXkXdXkXkXkXkXkXkX",
"kXkXkXkXkXkXkXkXkXdXkXkX7X: : * [ | o.o.o.-.: O O $ L.aXkXkXkXkXkXkXkXkXkXkXkXkXkXdX6X[ = ; s *.o.o.o.-.1 O & O 3.kXdXdXkXkXkXkXkXkXkXkXkXkX",
"kXkXkXkXkXkXkXkXdXdXkXdX9X#.;.;.o.o.+.o.O.=.] ; ; & ~.kXkXkXkXdXkXkXkXkXkXkXkXkXkXkXtX1.O.-.o.O.o.o.o.#.s * = * 3.dXkXkXkXkXkXkXkXkXkXkXkXkX",
"kXkXkXkXkXkXkXkXdXkXkXsXrX1.{ X.o.+.o.o.+.X.> * * ; [.dXiXkXkXkXkXkXkXkXkXkXkXkXkXkXtX3.X.O.o.O.o.o.-.O.] * * = d.dXkXkXdXkXkXkXkXkXkXkXkXkX",
"kXkXkXkXkXkXkXkXkXdXdXkXaX~.;.;.-.#.#.-.+..., ; = ..4XkXkXkXsXdXkXkXkXkXkXkXkXkXkXkXaX(.;.#.o.#.-.o.+.[ , - ; [ 3XkXdXkXdXkXkXdXkXkXkXkXkXkX",
"kXkXkXkXkXkXkXkXdXkXkXsXkXtX4X}.4X}.}.}.oX[././.}.6XkXdXaXdXkXkXkXkXkXkXkXkXkXkXiXkXkXiX4X=X=XoX4X}.4X[./.[.[.7XdXkXiXkXkXkXkXkXkXkXkXkXkXkX",
"kXkXkXkXkXkXkXkXkXkXkXdXkXkXkXkXkXkXkXkXkXkXkXkXiXkXdXdXkXiXkXkXkXkXkXkXkXkXkXkXkXkXkXkXkXkXiXsXdXiXkXaXkXkXiXkXkXkXkXkXkXdXdXkXkXkXkXkXkXkX"
};
