/* XPM */
static char *_73c9d89d0ce47d6ae0cfc402e071100hUVHvqwHQW9zbWiU[] = {
/* columns rows colors chars-per-pixel */
"70 70 221 2 ",
"   c #010202",
".  c #0A0303",
"X  c #020B03",
"o  c #0A0B06",
"O  c #04050A",
"+  c #04090D",
"@  c #0A0A0B",
"#  c #0B050C",
"$  c #120507",
"%  c #011300",
"&  c #081408",
"*  c #010C13",
"=  c #0C0E12",
"-  c #000512",
";  c #110E11",
":  c #0D1113",
">  c #0F1519",
",  c #0B1818",
"<  c #121313",
"1  c #161A1D",
"2  c #1C1C1C",
"3  c #171717",
"4  c #221C1D",
"5  c #123014",
"6  c #22211F",
"7  c #011927",
"8  c #131C21",
"9  c #1C1E21",
"0  c #191F2B",
"q  c #041833",
"w  c #221C20",
"e  c #1D2224",
"r  c #1C242A",
"t  c #192829",
"y  c #10343C",
"u  c #222424",
"i  c #21262A",
"p  c #232A2D",
"a  c #2B2B2B",
"s  c #292626",
"d  c #242731",
"f  c #242D32",
"g  c #2A2E31",
"h  c #312F30",
"j  c #263135",
"k  c #2C3134",
"l  c #2B353B",
"z  c #2A363B",
"x  c #333434",
"c  c #323539",
"v  c #35393D",
"b  c #3B3B3B",
"n  c #393837",
"m  c #273325",
"M  c #1E401D",
"N  c #31443C",
"B  c #2A4439",
"V  c #2E6C34",
"C  c #42413F",
"Z  c #013855",
"A  c #2E3C43",
"S  c #273944",
"D  c #343D43",
"F  c #3A3E41",
"G  c #32394A",
"H  c #3D3F54",
"J  c #033C69",
"K  c #004A5E",
"L  c #2D434C",
"P  c #2D4147",
"I  c #334244",
"U  c #3D4144",
"Y  c #34454C",
"T  c #39464D",
"R  c #354A4D",
"E  c #394A4E",
"W  c #384A46",
"Q  c #2F4C53",
"!  c #364653",
"~  c #3A4551",
"^  c #364952",
"/  c #3A4A52",
"(  c #334C5C",
")  c #375054",
"_  c #004163",
"`  c #434444",
"'  c #424649",
"]  c #444A4C",
"[  c #4B4C4C",
"{  c #494747",
"}  c #51514F",
"|  c #4C4E53",
" . c #414A57",
".. c #4E5154",
"X. c #535455",
"o. c #565759",
"O. c #555A5D",
"+. c #5A5B5B",
"@. c #5A5657",
"#. c #524F50",
"$. c #5E605F",
"%. c #60605E",
"&. c #5A5E61",
"*. c #5C6063",
"=. c #636363",
"-. c #64696C",
";. c #6B6B6C",
":. c #63666A",
">. c #6B6E71",
",. c #676C70",
"<. c #6C7174",
"1. c #727273",
"2. c #727578",
"3. c #7D7D7D",
"4. c #767B7E",
"5. c #68716E",
"6. c #807F7D",
"7. c #45814B",
"8. c #45A34E",
"9. c #50B24F",
"0. c #51A15C",
"q. c #045789",
"w. c #045B91",
"e. c #02699F",
"r. c #017196",
"t. c #017DB8",
"y. c #0578A7",
"u. c #7A7E81",
"i. c #7C8182",
"p. c #7F8488",
"a. c #0B96D8",
"s. c #0580C6",
"d. c #00B2FC",
"f. c #828383",
"g. c #828689",
"h. c #838A8D",
"j. c #8B8C8C",
"k. c #898E91",
"l. c #878C90",
"z. c #918F92",
"x. c #8C9195",
"c. c #8E989A",
"v. c #949495",
"b. c #929699",
"n. c #959B9C",
"m. c #9B9B9B",
"M. c #8E908D",
"N. c #9B9EA2",
"B. c #A49BA0",
"V. c #9DA2A4",
"C. c #9FA7AC",
"Z. c #A3A3A4",
"A. c #A4AAAB",
"S. c #ACACAC",
"D. c #A4A5A7",
"F. c #AAAFB2",
"G. c #A4AEB0",
"H. c #ADB3B5",
"J. c #AEB6BA",
"K. c #ABB5B6",
"L. c #B4B5B5",
"P. c #B2B6B9",
"I. c #B5BABD",
"U. c #BBBCBC",
"Y. c #BAB5B8",
"T. c #B0AFB4",
"R. c #BAC0BE",
"E. c #B6BEC1",
"W. c #BABEC1",
"Q. c #BCC2C5",
"!. c #BCC5C9",
"~. c #BFC8CF",
"^. c #BBC8D0",
"/. c #C4C4C4",
"(. c #C1C6C9",
"). c #C4CACD",
"_. c #CCCBCB",
"`. c #C4CDD2",
"'. c #CBCFD2",
"]. c #CAD2D5",
"[. c #CDD6DA",
"{. c #CED8DC",
"}. c #C7D2D7",
"|. c #D4D4D4",
" X c #D1D6DB",
".X c #D2DADE",
"XX c #DCDCDC",
"oX c #D9D9D7",
"OX c #D4CFD5",
"+X c #E2DADD",
"@X c #D6E0DF",
"#X c #CEDBE1",
"$X c #D3DCE1",
"%X c #D9DEE2",
"&X c #D6E0E4",
"*X c #DAE2E4",
"=X c #DCE5E9",
"-X c #E4E4E4",
";X c #E2E6E9",
":X c #E3EAEB",
">X c #ECECED",
",X c #E9E8EA",
"<X c #F1EEEE",
"1X c #F2F2EF",
"2X c #EDEEF1",
"3X c #F2EFF1",
"4X c #FBEFF3",
"5X c #EEF3F4",
"6X c #F5F5F5",
"7X c #F9F6F6",
"8X c #F5F6F9",
"9X c #F9F6F9",
"0X c #F6F9F9",
"qX c #FAFBFA",
"wX c #FDFDFD",
"eX c #FEFEFE",
"rX c white",
"tX c #FEFFFF",
"yX c #FEFEFE",
"uX c #FFFFFF",
"iX c #F7F9F6",
/* pixels */
"rXrXrXrXrXrXrXrXrXrXrXrXrXrXrXrXrXqXrXqXwXwXrXrXrXwXwXiXXXZ.;.C 2 o O   @ 6 { 1.S.-XqXqXwXwXrXrXqXrXrXrXrXrXrXrXrXrXrXrXrXrXrXrXrXrXrXrXrXrX",
"rXrXrXrXrXrXrXrXrXrXrXrXrXrXrXrXrXrXrXrXrXwXrXrXqX,XS.%.u O o                   @ p :.U.1XrXrXrXrXrXqXrXrXrXrXrXrXrXrXrXrXrXrXrXrXrXrXrXrXrX",
"rXrXrXrXrXrXrXrXrXrXrXrXrXrXrXrXrXwXrXrXqXwXrX3XD.n o     : a ..-.u.p.g.u.-.' u +     O ` S.6XqXwXrXrXrX6XrXqXrXrXrXrXrXrXrXrXrXrXrXrXrXrXrX",
"rXrXrXrXrXrXrXrXrXrXrXrXrXrXrXrXwXrXrXrXrXrX/.` . O @ c 2.A.).}.{.%X$X$X#X{.[.`.A.,.p O   @ X._.rXqXrXrXrXqXrXqXrXrXrXrXrXrXrXrXrXrXrXrXrXrX",
"rXrXrXrXrXrXrXrXrXrXrXrXrXrXrXrXrXrXqXrX6Xj.3   O b c.)..X$X{.#X.X$X[.{.{.[.$X{.{.%X).4.g     6 m.qXrXqXrXrXrXrXrXrXrXrXrXrXrXrXrXrXrXrXrXrX",
"rXrXrXrXrXrXrXrXrXrXrXrXrXrXrXrXrX6XrXqX;.O   u h.}..X{..X{.$X}.{.{.[.{..X{.{.{.$X}.{..XW.:.<   o j.6XrXrXqXwXrXrXrXrXrXrXrXrXrXrXrXrXrXrXrX",
"rXrXrXrXrXrXrXrXrXrXrXrXrXrXrXrXwXrX6X;.  + U P.{.{.$X{.{.{.{.{.).Q.Q.Q.(._.'..X%X#X{. X[.(.g.a   O f.7XqXrXrXrXrXrXrXrXrXrXrXrXrXrXrXrXrXrX",
"rXrXrXrXrXrXrXrXrXrXrXrXrXrXrXrXwXwXf.  O | !..X{.{.$X[.R.b.:.` k e 9 1 e k ] -.c.E.$X{.{.%X).v.g   o m.rXrXrXrXrXrXrXrXrXrXrXrXrXrXrXrXrXrX",
"rXrXrXrXrXrXrXrXrXrXrXrXrXrXrXrXrXY.3   ] ~.#X.X#X{.V.X.9                       X u O.A..X X$X).j.k   2 _.rXrXrXrXrXrXrXrXrXrXrXrXrXrXrXrXrX",
"rXrXrXrXrXrXrXrXrXrXrXrXrXqXrXrX2X`   s E.$X[..XJ.X.@       = 8 e r f f p e 1 =     + < O.I.$X[.I.3.<   X.>XrXrXrXrXrXrXrXrXrXrXrXrXrXrXrXrX",
"rXrXrXrXrXrXrXrXrXrXrXrXrXqXrXrXZ.  @ k.{.}.{.j.6     : 9 z / I T ! / / / / Y A c u       g n.oX'.A.X.  @ U.rXrXrXrXrXrXrXrXrXrXrXrXrXrXrXrX",
"rXrXrXrXrXrXrXrXrXrXrXrXrXrXrX6X{   v `.$X$X4.<   @ e D / ^ Y ^ ! ! Y ! ! ^ ! ! D Y Y r +   3 k.{.U.v.u   %.iXrXrXrXrXrXrXrXrXrXrXrXrXrXrXrX",
"rXrXrXrXrXrXrXrXrXrXrXrXrXrXqX_.@ O h.&X.Xh.<   * S / / ^ ! Y ^ ^ E ^ ) / Y Y ^ ! ) ^ ! j :   1 V.'.D...  2 oXrXrXrXrXrXrXrXrXrXrXrXrXrXrXrX",
"rXrXrXrXrXrXrXrXrXrXrXrXrXrXrXm.. > P.&XH.i   > A ! ^ ! Y ! E E Y Y Y Y E Y ! / ^ ! L R Y z >   c Q.Y.0.@ O S.rXrXrXrXrXrXrXrXrXrXrXrXrXrXrX",
"rXrXrXrXrXrXrXrXrXqXrXrXrXrXrX:.  F  X].;.  X l ^ Y I D D D T ~ / ! Y Y ^ / / T I z Y R / / k   O f.Y.z.4   f.rXrXrXrXrXrXrXrXrXrXrXrXrXrXrX",
"rXrXrXrXrXrXrXrXrXqXrXwXrXrXwX{   o. X).a   9 ~ ^ z 1 +   O 8 j Y ! ^ R Y Y f , . O O 1 A Y I 8 . b Y.B.h   &.rXrXrXrXrXrXrXrXrXrXrXrXrXrXrX",
"rXrXrXrXrXrXrXrXrXwXrXrXqXrX6Xb   -.%XA.=   j ! B = . X     o   t ^ ! ! ~ 0 X X   O     , L E p   1 D.B.`   [ wXrXrXrXrXrXrXrXrXrXrXrXrXrXrX",
"rXrXrXrXrXrXrXrXrXrXrXrXrXrX>Xx   <.=XV.# O v / S . - q.s.q.7   X p ^ ^ d .   q e.e._   . z ( c   > V.V.`   { 6XrXrXrXrXrXrXrXrXrXrXrXrXrXrX",
"rXrXrXrXrXrXrXrXrXrXrXqXrXwX>Xx   <.$XV.@ X z ^ l . + r.d.d.y.7   4 ' L @   Z a.d.a.J   $ S ( l   3 V.B.`   [ rXrXrXrXrXrXrXrXrXrXrXrXrXrXrX",
"rXrXrXrXrXrXrXrXrXrXrXrXrXqX9Xb   -.$XJ.:   j / N *   * K y.w.q   1 T I <   Z t.y._ + o , P  .d   1 Z.B.`   } qXrXrXrXrXrXrXrXrXrXrXrXrXrXrX",
"rXrXrXrXrXrXrXrXrXwXrXrXqXrXrX[   &.{.!.i   f W R A = . .   - . X p H Q t     +       3 l ! Y e   c T.m.x   %.rXrXrXrXrXrXrXrXrXrXrXrXrXrXrX",
"rXrXrXrXrXrXrXrXrXrXrXrXrXrXqX=.  ` }.[.[   , I ! ^ A 8 * %   o d T ~ ~ L 8 & . $ = t N Y ( I o   =.U.v.u   f.rXrXrXrXrXrXrXrXrXrXrXrXrXrXrX",
"rXrXrXrXrXrXrXrXrXrXqXrXrXrXrXv.  u ~.=Xj.O   f L R T / Y z P D L Q ! / / ! A G S G H E ) Y 0   < b.L.j.<   S.wXrXrXrXrXrXrXrXrXrXrXrXrXrXrX",
"rXrXrXrXrXrXrXrXqXrXrXrXrXrXrXU.o + C. X].` O   d I R ! ~ E Y ( / I R ! ! W W ( ^ W E ! G 9 . O X.'.D.;.  < _.rXrXrXrXrXrXrXrXrXrXrXrXrXrXrX",
"rXrXrXrXrXrXrXrXrXrXrXwXrXrXiX>Xx   &.{.{.J.k     : u z Y T Y / ~ ~ / T T / ~ Y T Y k p =     n Q.!.m.b   ` 6XqXrXrXrXrXrXrXrXrXrXrXrXrXrXrX",
"rXrXrXrXrXrXrXrXrXrXrXrXrXrXrXqX6.  8 F..X XI.' O X X O + > 8 r d f f f f p r e , :       = &.W. XS.2.O o v.qXrXrXrXrXrXrXrXrXrXrXrXrXrXrXrX",
"rXrXrXrXrXrXrXrXrXrXrXrXrXrXrXrXoXa   U (..X[.[.x.' =     .                         O 1 | N.}.#X/.j.s   x -XrXrXrXrXrXrXrXrXrXrXrXrXrXrXrXrX",
"rXrXrXrXrXrXrXrXwXrXrXrXrXrXrXrXrXf.    F P. X{.$X`.E.b.:.[ b a e e 1 1 e e a c [ >.b.P. X$X#X~.f.u     m.wXrXqXrXrXrXrXrXrXrXrXrXrXrXrXrXrX",
"rXrXrXrXrXrXrXrXrXrXrXrXrXrXrXqXqXS.    . 9 2.J.{.{.$X*X&X{.`.`.!.W.E.E.Q.Q.).}.$X.X$X.X.X].A.X.: O   . /.rXrXrXrXrXrXrXrXrXrXrXrXrXrXrXrXrX",
"rXrXrXrXrXrXrXrXrXrXrXrXrXrXrXrXrXU.  o O     3 U 2.n.G.E.`.}.[.{.{.{..X{.}.}.}.!.Q.K.c.5.v <     o   < _.qXqXrXrXrXrXrXrXrXrXrXrXrXrXrXrXrX",
"rXrXrXrXrXrXrXrXrXrXwXqXrXrXrXrXrXL.@ O j.%.< O       : e f v F ' ' ] [ ] ` N b x 1 + +     # 3 &.>.  @ /.rXrXqXrXrXrXrXrXrXrXrXrXrXrXrXrXrX",
"rXrXrXrXrXrXrXrXrXrXrXrXrXrXrXrX'.a   X Z.6X/.M.| a ; #                             o < a o.j._.$Xu.X   b |.rXrXrXrXrXrXrXrXrXrXrXrXrXrXrXrX",
"rXrXrXrXrXrXrXrXrXrXrXwXrXrXqX6X[       j.qX6XqX<X-X/.S.v.6.>.:.+.%.+.X.+.=.:.1.0.B.T.`.-X4X9X<X$X:.      =.rXwXrXrXrXrXrXrXrXrXrXrXrXrXrXrX",
"rXrXrXrXrXrXrXrXrXwXrXqXrXrXwXL.@   @   ;.qX6X6X6X6X6X7XiXqXqX6X7X<X6X6X7X>XwXqXqXqX4X4X8X4X8X:X X[       3 /.wXrXrXrXrXrXrXrXrXrXrXrXrXrXrX",
"rXrXrXrXrXrXrXrXrXwXrXrXrXwXqX=.  c b   [ 6X6X6X6X6X6X6X7X6X6X6X7X6X6X6X7XqX3X3X4X<X7XiX3X9X8X:X'.c   c 4   2.rXrXrXrXrXrXrXrXrXrXrXrXrXrXrX",
"rXrXrXrXrXrXrXrXrXrXrXrXrXrX-X6   1.;.  x ,X6X8X6X6X6X6X6X6X6X6X6X6X<X6X3X6X9XqX6X5X5X0X8X2X8X%XQ.e   =.`   b 3XrXrXrXrXrXrXrXrXrXrXrXrXrXrX",
"rXrXrXrXrXrXrXrXrXrXwXrXrXrXI.o * V.j.  u oX9X6X6X6X6X0X6X6X6X6X6XqX6X6X7X6X,Xv...v O.I.6X7X5X*XF.=   g.;.. < _.rXrXrXrXrXrXrXrXrXrXrXrXrXrX",
"rXrXrXrXrXrXrXrXrXrXrXrXrXrXj.  e ).Z.O @ U.qX3X6X6X6X6X6X6X6X6X6X6X6X6X9X,X;.X . X   $ B.3X5X*Xb.O ; D.j.<   Z.rXrXrXrXrXrXrXrXrXrXrXrXrXrX",
"rXrXrXrXrXrXrXrXrXrXrXwXrXrX=.  F [.P.1   v.wX6X6X6X6X6X6X6X6X6X8X6X6XiXiXD.X   5 5 %   w OX5X{.2.  u U.b.u   f.rXrXrXrXrXrXrXrXrXrXrXrXrXrX",
"rXrXrXrXrXrXrXrXrXqXrXwXrXiX[   O..X`.g   2.6X7X6X6X6X6XqXiX6X6X6X6X6X6X6X$.  2 8.0.V %   m.2X[.|   F '.S.g   %.rXrXrXrXrXrXrXrXrXrXrXrXrXrX",
"rXrXrXrXrXrXrXrXrXrXrXrXrX>Xx   <..X[.|   [ <XqX6X6X6X6X6X6X6X6X6X>X8X9X4X#.O m 9.8.V %   z.:X}.x   -.oXF.C   { 6XrXrXwXrXrXrXrXrXrXrXrXrXrX",
"rXrXrXrXrXrXrXrXrXrXrXrXrX,Xu   i.$X#X2.  a XX6X6X8X7X6X6XiX6X6X6XrX2X9X4X0.. + V 7.M % $ T.:XJ.3   p..XP.}   b 6XrXrXrXrXrXrXrXrXrXrXrXrXrX",
"rXrXrXrXrXrXrXrXrXrXrXrXwXXX6   k.$X$Xb.O o /.6X6X6X6X6X6X6X6X8X6X<XqX6X7X_.s   X X %   #.,X$Xn.  @ A..XL.+.  a >XrXrXwXrXrXrXrXrXrXrXrXrXrX",
"rXrXrXrXrXrXrXrXrXrXqXrXrXXX2   x.$X#XP.3   m.9X6X6X6X6X6X6X6X6X6XiX6X9X7XqXL.b # O = @.oX5X{.;.  p Q..XI.@.  a ,XrXrXrXrXrXrXwXrXrXrXrXrXrX",
"rXrXrXrXrXrXrXrXrXrXwXrXrX|.2   k.$X$X`.v   :.6X6X6X6X6X6X6X6X6X1X6X6X>X7X6X6X,XY.V.W.3XwX=X{.'   ] [..XU.@.  a ,XrXrXrXrXrXrXrXrXrXrXrXrXrX",
"rXrXrXrXrXrXrXrXrXrXrXrXrXXX2   k.$X#X#X&.  n ,X6X8X6XiX6X6X6X6X6X6XqX0X6X6XiX>X9XqX6X6X5X=X!.9   <.$X XI.@.  a ,XqXrXwXrXwXrXwXrXrXrXrXrXrX",
"rXrXrXrXrXrXrXrXrXrXrXrXrX-Xs   h.$X{.#Xh.. < /.7X6X6X6X6X6X6X6X6X6X>X6X6X6X6XiX1XiX6X9X0X@Xn.; @ N.$X[.P.X.  x 1XrXrXrXrXrXrXrXrXrXrXrXrXrX",
"rXrXrXrXrXrXrXrXrXrXrXrXrX,Xa   u.$X$X{.H.<   m.0X7X0X6X6X6X6X6X6XqXiX6X6X0X5X6X7X7X6X4X2X.X5.  e Q. X{.H.[   C 6XrXrXrXrXwXrXrXrXrXrXrXrXrX",
"rXrXrXrXrXrXrXrXrXrXrXrXrX>Xb   -.$X{..XE.a   +.8XqX6X6X6X6X6X6X6X6X6X6X6X6X6X6X6X6X8X8X;X].`   [ ].[..XS.n   } rXrXrXrXrXrXrXrXrXrXrXrXrXrX",
"rXrXrXrXrXrXrXrXwXrXrXwXrXwXX.  ..{.{.$XQ.[   a XX6X6X6X6X6X6X6X6X6X6XiX6X6X6XiX6X6X9X6X*XJ.>   4..X.X[.Z.a . -.rXrXrXrXrXrXrXrXrXrXrXrXrXrX",
"rXrXrXrXrXrXrXrXrXrXrXwXrXrX>.  v '..X].P.@.  @ I.8X8X7X6X6XqX6X6X7X6X6X6X6X6X6X6X6X0X2X*Xx.  O l..X{.).m.2   j.rXrXrXrXrXrXrXrXrXrXrXrXrXrX",
"rXrXrXrXrXrXrXrXrXrXrXrXwXrXm.  2 I.$X[.S.C     6.iX6X6X6X6X6X6X6X6X6X6X6X8X6X6X6X6X0X,X.XO.    ,.{.$X).f.o   Y.rXrXrXrXrXrXrXrXrXrXrXrXrXrX",
"rXrXrXrXrXrXrXrXrXrXrXrXrXrX/.< O n.[.`.n.2 .   b ,X6X6X6X6X6X6X6X6X6X6X6X6X6X6X1X6X6X;XQ.u     D `.{.W.$.O 3 XXrXrXrXrXrXrXrXrXrXrXrXrXrXrX",
"rXrXrXrXrXrXrXrXrXrXrXqXrXrX,Xx   +.XXQ.>.o   . ; U.rX6X6X6X6X6X8X6X6X6X6XiX6X6X7X6X5X=Xx.#     < F..XS.x   [ 6XrXrXrXrXrXrXrXrXrXrXrXrXrXrX",
"rXrXrXrXrXrXrXrXwXrXrXrXrXrXiX6.  u P.F.` o 2 ;   3.6X6X6X6X6X6X6X6XiX6X6X6X6X6X1XiX;X[.o.  2 :   ;.).i.<   z.rXrXrXrXrXrXrXrXrXrXrXrXrXrXrX",
"rXrXrXrXrXrXrXrXrXrXrXrXrXrXrX/.< O | >.X   6.:.  x -X6X6X1XqX6X6X6X6X6X6X6X6X6X6XiX*XR.9   1.+.  3 i.c   6 |.rXrXrXrXrXrXrXrXrXrXrXrXrXrXrX",
"rXrXrXrXrXrXrXrXrXrXrXrXrXrXrXrX>.o   #   x -XL.o @ S.rX3X6XqX6X6XqXqX6X6X6X6X7X8X5X.Xp.# : ).R.2   @ . O f.rXqXrXrXrXrXrXrXrXrXrXrXrXrXrXrX",
"rXrXrXrXrXrXrXrXrXrXrXrXrXrXrXrX>XX.@ o a /.rX,Xn   +.6X6X6X6X6X6X6X6X6X6X6X6X6X6X,X[.b   | 6XqXS.u   @ 1.6XrXrXrXrXrXrXrXrXrXrXrXrXrXrXrXrX",
"rXrXrXrXrXrXrXrXrXrXrXrXrXrXrXrXrX6X/.S.-XqXqXrXu.  2 _.0X6X6X6X6X6X6X6X7X6X6X6X8X$XC.= . m.rXrXrXXXS./.iXrXrXrXrXrXrXrXrXrXrXrXrXrXrXrXrXrX",
"rXrXrXrXrXrXrXrXrXrXrXrXrXrXrXrXrXrXrXrXrXwXrXrX|.2   3.6XqX6X6X6X6X6X6X6X6X6X6X5X X..  a -XrXqXrXrXqXqXrXrXrXrXrXrXrXrXrXrXrXrXrXrXrXrXrXrX",
"rXrXrXrXrXrXrXrXrXrXrXrXrXrXrXrXrXrXrXqXqXrX6XrXrX;.  u |.6XiX6X6X6X6X6X6X6X8X6X=XF.1   6.wXwXrXrXrXrXrXrXqXrXrXrXrXrXrXrXrXrXrXrXrXrXrXrXrX",
"rXrXrXrXrXrXrXrXrXrXrXrXrXrXrXrXrXrXrXrXrXrXrXqXqX_.<   3.6X6XqX6X6XiXiX6X8X8X2X X&.  4 XXwXqXqXrXqXrXrXrXqXqXrXrXrXrXrXrXrXrXrXrXrXrXrXrXrX",
"rXrXrXrXrXrXrXrXrXrXrXrXrXrXrXrXrXqXrXrX6XrXrXrXrXrX=.  s _.iX1X7X1X6X6X6X9X2X%XD.< . 6.wXqXrXrXrXrXrXwXrXrXwXrXrXrXrXrXrXrXrXrXrXrXrXrXrXrX",
"rXrXrXrXrXrXrXrXrXrXrXrXrXrXrXrXrXrXrXrXrXrXrXrXrXrX_.3   ;.<XqXiX1X6X6X6X6X>X].W   s +XwXrXqXrXrXrXrXrXrXrXrXrXrXrXrXrXrXrXrXrXrXrXrXrXrXrX",
"rXrXrXrXrXrXrXrXrXrXrXrXrXrXrXrXrXrXrXrXrXrXrXrXqXrXrX3.  @ D.qX6X6X6X6X6X8X$Xg.O O j.rXrXqXrXrXrXrXrXrXrXrXrXrXrXrXrXrXrXrXrXrXrXrXrXrXrXrX",
"rXrXrXrXrXrXrXrXrXrXrXrXrXrXrXrXrXrXrXrXrXrXrXrXrXrXqX,Xx   h _.6X6X7X8X6X;XD.1   { 6XrXrXqXrXqXrXrXrXrXrXrXrXrXrXrXrXrXrXrXrXrXrXrXrXrXrXrX",
"rXrXrXrXrXrXrXrXrXrXrXrXrXrXrXrXrXrXrXrXrXrXrXrXwXrXrXrXU.;   b _.6XqXrX*XS.g   6 _.wXqXrXrXqXrXrXrXrXrXrXrXrXrXrXrXrXrXrXrXrXrXrXrXrXrXrXrX",
"rXrXrXrXrXrXrXrXrXrXrXrXrXrXrXrXrXrXrXrXrXrXrXrXrXqXrXqXwXv.O o 2 =.v.j.o.=   < Z.rXrXwXqXrXrXrXrXrXrXrXrXrXrXrXrXrXrXrXrXrXrXrXrXrXrXrXrXrX",
"rXrXrXrXrXrXrXrXrXrXrXrXrXrXrXrXrXrXrXrXrXrXrXrXrXwXrXrXwXqXv.2           O a A.rXwXrXrXwXrXrXrXrXrXrXrXrXrXrXrXrXrXrXrXrXrXrXrXrXrXrXrXrXrX",
"rXrXrXrXrXrXrXrXrXrXrXrXrXrXrXrXrXrXrXrXrXrXrXrXrXrXrXrXrXrXrX/.=.2 o O s ;.|.6XqXrX6XrXrXrXrXrXrXrXrXrXrXrXrXrXrXrXrXrXrXrXrXrXrXrXrXrXrXrX"
};
