/* XPM */
static char *_32669a01f5b47cc9dd6200aa0bb895dPWisUNpjZI66QoZS[] = {
/* columns rows colors chars-per-pixel */
"70 70 246 2 ",
"   c #020202",
".  c #0B0202",
"X  c #020A02",
"o  c #0B0A02",
"O  c #02020B",
"+  c #0B030B",
"@  c #030B0B",
"#  c #0B0B0B",
"$  c #120201",
"%  c #130C01",
"&  c #1B0C01",
"*  c #160709",
"=  c #031002",
"-  c #0A120B",
";  c #17150A",
":  c #020313",
">  c #020B14",
",  c #02031A",
"<  c #0A0715",
"1  c #120C13",
"2  c #170B1A",
"3  c #071418",
"4  c #131313",
"5  c #1C1B1B",
"6  c #171717",
"7  c #240903",
"8  c #2A1602",
"9  c #371A03",
"0  c #281616",
"q  c #142819",
"w  c #392605",
"e  c #2B261A",
"r  c #2F2413",
"t  c #061527",
"y  c #181A24",
"u  c #03122D",
"i  c #172625",
"p  c #022738",
"a  c #11292F",
"s  c #242423",
"d  c #2C2C2C",
"f  c #262828",
"g  c #2B352A",
"h  c #36342D",
"j  c #282B36",
"k  c #2A3636",
"l  c #333333",
"z  c #3C3C3C",
"x  c #363838",
"c  c #322E31",
"v  c #211A21",
"b  c #431C02",
"n  c #442902",
"m  c #552601",
"M  c #493604",
"N  c #573904",
"B  c #5B3C15",
"V  c #663704",
"C  c #6E3A0C",
"Z  c #433A38",
"A  c #3A433A",
"S  c #544306",
"D  c #784A03",
"F  c #6A5802",
"G  c #7A5507",
"H  c #694802",
"J  c #796900",
"K  c #484338",
"L  c #6F5E21",
"P  c #032945",
"I  c #03354A",
"U  c #073A56",
"Y  c #09325B",
"T  c #373A42",
"R  c #2A3647",
"E  c #0A3764",
"W  c #2B1F4D",
"Q  c #413E49",
"!  c #034559",
"~  c #36454B",
"^  c #3A4956",
"/  c #355150",
"(  c #01486B",
")  c #025473",
"_  c #3E5A62",
"`  c #3E6260",
"'  c #444444",
"]  c #4B4B4B",
"[  c #474846",
"{  c #444A56",
"}  c #445357",
"|  c #575757",
" . c #52514E",
".. c #5B6359",
"X. c #4E5A64",
"o. c #5C686A",
"O. c #59737B",
"+. c #536978",
"@. c #6B6C6B",
"#. c #656567",
"$. c #7B7B7A",
"%. c #767477",
"&. c #6F6F71",
"*. c #635E5A",
"=. c #873E09",
"-. c #864905",
";. c #974A04",
":. c #875605",
">. c #955803",
",. c #855210",
"<. c #AA5408",
"1. c #926A0C",
"2. c #A97705",
"3. c #AC6E0F",
"4. c #976D21",
"5. c #CF7006",
"6. c #FC7B02",
"7. c #E77A04",
"8. c #837C7D",
"9. c #7E827E",
"0. c #A98405",
"q. c #B69308",
"w. c #AE8221",
"e. c #CB8407",
"r. c #D68804",
"t. c #C99900",
"y. c #D09811",
"u. c #E68700",
"i. c #F88A07",
"p. c #FC9301",
"a. c #F59A02",
"s. c #FE9C02",
"d. c #FB980B",
"f. c #FB9815",
"g. c #E9910A",
"h. c #C7A506",
"j. c #D6AD08",
"k. c #E7A908",
"l. c #FDA302",
"z. c #FAAB05",
"x. c #E9B807",
"c. c #FDBC03",
"v. c #FEBC0C",
"b. c #F9B805",
"n. c #FBA715",
"m. c #FDB915",
"M. c #E4B31C",
"N. c #FDC304",
"B. c #FDCB03",
"V. c #FDC30B",
"C. c #F7C807",
"Z. c #FEC312",
"A. c #F9C515",
"S. c #EBC40B",
"D. c #FDC627",
"F. c #858876",
"G. c #025B86",
"H. c #065494",
"J. c #056899",
"K. c #096A92",
"L. c #0275B6",
"P. c #0A70AB",
"I. c #5C7886",
"U. c #547690",
"Y. c #647A86",
"T. c #6E788B",
"R. c #067AC5",
"E. c #0D7AC8",
"W. c #827F84",
"Q. c #0287B5",
"!. c #5B818A",
"~. c #658287",
"^. c #71848E",
"/. c #0689D6",
"(. c #0498D8",
"). c #098ECC",
"_. c #039BE4",
"`. c #0B95E9",
"'. c #08A7EA",
"]. c #12A8E9",
"[. c #04A8F7",
"{. c #03B4FD",
"}. c #0EAAF5",
"|. c #848584",
" X c #8C8C8C",
".X c #8A8886",
"XX c #9B9B9B",
"oX c #969695",
"OX c #8A9092",
"+X c #9EA39E",
"@X c #9699A4",
"#X c #A59CAA",
"$X c #9BA7A8",
"%X c #A5A4A5",
"&X c #ACABAC",
"*X c #A7A8A8",
"=X c #B5ADB5",
"-X c #ACB5B6",
";X c #BABBBB",
":X c #B4B4B3",
">X c #B4B2AC",
",X c #A59E9B",
"<X c #C3BBB6",
"1X c #BFC5B9",
"2X c #CCC4BB",
"3X c #B8BBC2",
"4X c #BBC8C5",
"5X c #C3C3C4",
"6X c #CDCDCD",
"7X c #CBC9C7",
"8X c #D7D3CC",
"9X c #CED8D9",
"0X c #D3D2D2",
"qX c #DCDCDC",
"wX c #D6DAD8",
"eX c #CECBD1",
"rX c #E5D9DC",
"tX c #D8E9D9",
"yX c #E7E7DC",
"uX c #DAD9E6",
"iX c #D8D7E9",
"pX c #DDE7E4",
"aX c #E4E4E4",
"sX c #ECECEC",
"dX c #E8E8E8",
"fX c #F7F8ED",
"gX c #EBECF5",
"hX c #F4EBF8",
"jX c #ECF6F4",
"kX c #F5F5F5",
"lX c #FCFCF5",
"zX c #F5F5FA",
"xX c #FDF6FD",
"cX c #F5FDFD",
"vX c #FBFBFB",
"bX c #F9F9F9",
"nX c #FDFDFD",
"mX c gray99",
"MX c #FEFEFE",
"NX c white",
"BX c #FFFEFF",
"VX c #FEFDFE",
"CX c #FEFEFE",
"ZX c #F7F9F5",
"AX c #EEF4E8",
"SX c #E1DFE0",
/* pixels */
"nXnXnXnXnXbXnXnXnXnXnXnXnXnXbXnXnXnXnXnXnXnXnXnXnXnXnXnXbXnXnX0Xg @ . O   K tXxXnXnXnXnXbXnXnXnXnXnXnXnXnXnXnXnXnXnXnXnXnXnXnXnXnXnXbXnXnXnX",
"nXnXbXnXnXnXnXnXnXnXnXbXnXnXnXnXmXkXsXaX0X;X%XXX X&.@.%.qXnXkX] #   $ * . : @.xXnX6X&.@.$..XoX&X5X0XaXjXkXkXVXnXnXnXnXnXbXnXnXbXnXnXnXnXbXnX",
"nXnXnXbXnXnXnXnXbXnXnXkXsX0X*X.X#.] l 6 # o       #     XXxXaX6 O H 2.0.F . s dXnX|.        #   # 1 5 c [ @.oX&X0XdXkXnXnXbXnXnXnXnXnXnXnXnX",
"nXnXbXnXnXnXnXmXkX5X|.| f # @             1 5 s c x [ #.wXnXXX# & r.l.x.q.$ + ;XbX7X#.] z d 6 6 # o             # d | oX5XkXnXnXnXnXnXnXnXnX",
"bXnXnXnXnXkX7X$.d     #     5 d | @.|.*X;XeXaXdXsXZXnXnXnXnX| X n u.n.D.k.w = &.nXzXkXnXkXsXdXaX6X;XXX|.@.] d 5 @       4 l $.qXnXbXnXnXbXnX",
"nXnXnXnXaX$.4     # f  ..X;XwXdXnXnXnXnXnXmXnXnXnXnXnXnXVXaXd   :.p.b.b.V.H X T kXnXnXnXbXnXnXbXmXbXnXnXnXkXaXqX&X$. .f       6 |.sXnXkXnXnX",
"nXnXnXaX[ #   l &.;XsXbXnXnXbXnXnXnXnXnXnXnXnXnXnXnXnXVXnX>X. . 2.s.v.C.V.0.@ 4 7XnXnXnXnXnXZXnXnXnXnXnXnXnXnXnXnXnXbXaX&X#.d   # | kXnXkXnX",
"nXnXnXoX  # |.aXnXbXnXnXnXnXnXmXnXnXnXnXnXnXnXnXnXnXnXnXVX8.  r i.z.m.N.N.j.& . oXnXnXnXnXnXnXnXnXnXnXnXnXnXnXnXnXnXnXnXnXnXqX$.  # %XbXnXnX",
"nXnXkX|.  5 5XvXnXnXnXnXnXnXnXnXnXnXnXnXnXnXnXbXVXnXnXnXjXZ   C p.b.v.V.A.m.N . ] mXmXmXnXnXnXnXnXnXnXnXnXnXnXnXnXnXnXvXnXvXvX*X4   XXnXnXnX",
"nXmXnX0Xv   @ @.<XdXnXnXnXnXnXnXnXnXnXnXnXnXbXnXnXlXcXnX6X;   :.d.Z.C.b.N.m.M   d qXnXnXnXnXnXnXnXnXnXnXnXbXnXVXnXnXnXnXaX;X| 4   d 0XnXbXnX",
"bXnXnXnX:Xl #   # c &.+X7XdXnXnXbXnXnXnXbXnXnXnXnXnXlXnX@X    7 >.n.V.B.h.M @ @ o %XnXnXnXnXnXnXnXkXnXkXnXnXbXZXkX6XXX#.l       l 5XnXnXnXbX",
"nXnXnXnXZXaX.Xl #       6 d ] $.XX:X6XsXnXnXnXnXzXnXVXAX|   < + > S 0.4.w   + &   &.mXnXnXnXnXnXnXbXkX0X*XoX%.] f 6       # T oXkXnXkXnXnXnX",
"nXnXnXnXnXnXbXdX;X@.z 6             6 |.nXnXnXnXnXnXlXdXj . N b O     o X 7 -.V   z sXnXnXnXnXnXnXkX#.#         X   s [ 8.;XsXnXnXnXnXbXZXnX",
"bXnXnXnXnXnXnXnXnXnXbX0X:X|.*.z d 4 @ &.kXnXnXnXnXbXlXwX6 . <.i.:.n % 0 r 2.s.>.  f dXnXnXlXnXnXnXbX]   5 d z #. X:X0XZXkXnXnXnXbXnXnXnXnXnX",
"nXnXnXnXnXnXnXbXbXsXbXbXnXnXnXzXaX6X7XsXnXnXnXnXVXvXlXwXy O <.6.p.7.i.u.d.p.s.1.O s dXnXlXnXnXnXnXnXqX5X6XaXsXnXnXbXnXnXZXkXnXnXnXnXnXnXnXnX",
"nXbXnXnXnXnXnXsX@.' x |.sXnXnXnXnXnXvXnXnXnXbXnXnXvXxXrX5 o ;.6.i.f.s.g.p.d.f.:.  d dXbXlXnXnXnXnXnXnXbXnXnXnXmXbXsX%.c z %.kXmXnXbXnXnXnXnX",
"nXnXnXbXnXxXaX} :   . * 8.zXnXlXnXnXVXbXnXmXnXnXnXnXnXdXf   b 3.6.i.d.s.s.f.3.b   ' AXnXnXvXnXnXnXzXnXlXnXnXmXlXfX#.      = O.hXcXnXZXnXZXmX",
"mXmXmXmXmXyX| . . ! I     $.gXnXkXnXnXnXnXnXnXnXnXcXnXnXoXy % 9 C D D D D G 9   2 &XnXnXbXnXnXnXnXnXnXnXnXnXcXAX&.O , P p O + @.AXmXnXkXnXlX",
"VXcXnXxXpX... : ! ]._.U   4 ] -XbXnXnXnXbXbXnXnXmXZXnXmXnXOX< $ #   . * .   O y >XnXbXnXnXnXnXlXbXmXmXmXnXjX*XZ   O P P.).U   $ @.dXZXmXnXnX",
"nXfXfXVX*X  : Y /.[.[.).I     $ [ *XsXmXnXnXnXmXnXnXnXkXlXnX&Xv   # d d   X l >XnXnXnXbXvXnXnXnXnXcXcXzX,Xx #   + p P._.'.`.( O # 5XnXnXnXnX",
"nXlXmXVXoX. , K./.'.[.[.Q.u @     - ] &XkXVXVXVXbXnXVXnXnXfXnX%.  l 7X<Xd   .XlXnXvXnXmXVXxXVXmXnXsX+XT +     + t G.(.}.'.{.Q.3   %XmXzXVXnX",
"bXmXbXmX-XX : I P.R.}.[.].( : X + O   @ [ %XsXnXlXmXVXcXmXnXxX$.O Q 3X2Xf : @XxXmXmXmXnXVXzXnXdXXXh   O # .   O ( R.}.[.{.).U   6 <XnXmXnXnX",
"nXmXnXnXdX@.# @ P J.R.'.}.Q.u O 6 k 3     1 Q ,XyXmXVXlXcXgX;X' . X g g X   | 2XsXnXZXnXxXdX+Xd O o # 3 j 6   p P.(._.}.).P   X %.bXVXVXnXnX",
"nXnXlXlXnXpX#.$   t G.R.`.(.( . 2 T ~ k 1     # h #XhX8XF.l -     O           1 A |.SXaXoXl   - : 6 f ^ T X @ Y R.[.'.J.P   # $.bXbXnXVXmXnX",
"nXbXnXnXbXnXsXW..   > p H.P.G.- . a / ~ ~ f 3   + : l e X o + ; f k     c d v     $ e k : : o 4 a ^ ^ ~ i . 3 K.E.J.I @   v .XmXnXnXnXnXnXnX",
"nXnXnXnXbXbXnXbX-Xj   . O P U ,   , d k ^ { j -   o .   = h &.OX+X&.  1 $.XX|.@.k + X     X , k / ^ j i > . @ E p 3   . K =XnXnXnXnXnXnXnXnX",
"nXnXkXbXnXnXnXnXlXuXoXc * + O   @ O . # a f O   % 9 0 , ,  .*X%XoX@.. o %.oXXX+X .: - 8 9 2 $ - i s 1 O   # .   + . Z XXdXmXnXmXnXnXnXnXnXnX",
"bXnXnXnXnXZXlXlXfXcXcXjX+X[ 1 h +X$.2 @   + O 9 0.x.t.M + 5 *.h 5 #   X ; s ] | ;   V r.x.2.8     X $ s OXoXg 6 X.=XsXvXcXcXZXnXnXnXnXnXnXnX",
"nXnXnXnXnXnXnXnXmXnXxXlXnXbX0XqXnXlXwX~.0 .   -.m.b.B.q.o X   : @ O O @   O # X : 2 e.c.B.C.L . + e $.rXlXnXqX6XjXcXlXnXcXnXnXmXnXnXnXnXnXnX",
"nXnXnXnXnXnXnXnXlXnXmXmXmXnXbXlXnXfXcXmX<X5   <.z.v.B.y.. @   - R _ } X.^ k 2 O   & r.b.A.Z.J & y wXcXnXfXnXcXcXmXmXnXnXkXlXVXVXnXnXnXnXnXnX",
"nXnXnXnXnXnXnXnXmXmXnXlXcXlXnXmXVXnXlXnX*X#   V k.N.M.G $ o j +.~.Y.Y.~.I.Y.O.~ X # -.m.V.j.e   6 3XmXmXfXnXnXnXnXnXnXnXmXmXnXnXnXnXnXnXnXnX",
"nXnXnXnXnXnXnXnXnXcXcXVXnXnXmXvXVXcXlXhX ..   + n D S <   ; ^ _ O.^.!.!.!.!.!.+.2 O % N D w   .   *.zXmXlXnXnXlXlXnXnXmXmXnXnXVXnXnXnXnXnXnX",
"nXnXnXnXnXnXnXnXnXnXnXnXnXnXnXnXnXnXnX:X    s # $ +   + . O q z / +.} X.+.U.O.g   . @   ,   # f   # 0XZXnXnXnXnXnXnXnXnXnXnXnXnXnXnXnXnXnXnX",
"nXnXnXnXnXnXnXnXnXnXnXnXnXnXnXnXnXnXnX&.  f |.@.2 X X ( ! + . a y O O O   W W o @ ) ) # . 5 @.W.v   |.nXnXnXnXnXnXnXnXnXnXnXnXnXnXnXnXnXnXnX",
"nXnXnXnXnXnXnXnXnXnXnXnXnXnXnXnXnXbXkXd   [ XX Xi   U E.Q.( @ O   * 7 6 X       ( `.[.!   r @XXXl   ' kXnXnXnXnXnXnXnXnXnXnXnXnXnXnXnXnXnXnX",
"nXnXnXnXnXnXnXnXnXnXnXnXnXnXnXnXnXnX0X6   @.%X@.  3 H.).'.P.> .   S t.t.M O   y ).'.{.L.> $ T.&X|   s aXbXnXnXnXnXnXnXnXnXnXnXnXnXnXnXnXnXnX",
"nXnXnXnXnXnXnXnXnXnXnXnXnXnXnXnXnXnX:X# # W.%X[ . 3 L./.[.G.O o & 1.B.Z.G .     J.}.{./.u o | ,X$.  # 6XmXbXnXnXnXnXnXnXnXnXnXnXnXnXnXnXnXnX",
"nXnXnXnXnXnXnXnXnXnXnXnXnXnXnXnXnXbX%X    l l 5 + P )./.}.P   B y.x.Z.c.x.h.M O U [.'.].I   5 x d     ;XnXnXnXnXnXnXnXnXnXnXnXnXnXnXnXnXnXnX",
"nXnXnXnXnXnXnXnXnXnXnXnXnXnXnXnXnXnXXX          : Y L.(._.p X -.n.c.C.C.B.C.F , p [.[.}.I   +       # &XnXnXnXnXnXnXnXnXnXnXnXnXnXnXnXnXnXnX",
"nXnXnXnXnXnXnXnXnXnXnXnXnXnXnXnXbXnX%X     .] v   p L.(.[.p   V q.b.C.N.z.y.n   U {.}.(.p X s | z     ;XnXnXnXnXnXnXnXnXnXnXnXnXnXnXnXnXnXnX",
"nXnXnXnXnXnXnXnXnXnXnXnXnXnXnXnXnXcX;X. - $XuX#.  t P.).{.)   . $ 4.v.V.G %     J.'.[.(.3   ^.0XXX# 6 7XnXlXnXnXnXnXnXnXnXnXnXnXnXnXnXnXnXnX",
"nXnXnXnXnXnXnXnXnXnXnXnXnXnXnXnXnXZX8X6 # OXuXOX, X H./.{.Q.@ .   N h.h.N O : 3 ).{.[.L.: @ $XdX^.  i SXnXnXnXnXnXnXnXnXnXnXnXnXnXnXnXnXnXnX",
"nXnXnXnXnXnXnXnXnXnXnXnXnXnXnXnXZXnXsXx O #.qX4X6 * E L.).(     o + 8 % : :   X ) (.'.U . f 9X9X] + Q bXnXnXnXnXnXnXnXnXnXnXnXnXnXnXnXnXnXnX",
"nXnXnXnXnXnXnXnXnXnXnXnXnXnXnXnXnXnXnX#.O l 4X^.q < , ( I O < v < :     # s e     ( G.3   j #X&Xv # |.nXbXnXnXnXnXnXnXnXnXnXnXnXnXnXnXnXnXnX",
"nXnXnXnXnXnXnXnXnXnXnXnXnXnXnXnXnXnXnX:X-   c , .     @   . q ~ } X._ ` U.U.I.R X   O       3 z   # 6XnXmXnXnXnXnXnXnXnXnXnXnXnXnXnXnXnXnXnX",
"nXnXnXnXnXnXnXnXnXnXnXnXnXnXnXnXnXnXzXZXK   < $ w G M + . - ^ { U.^.T.I.O.I.!.+.; # 7 B L w       #.kXnXnXnXnXnXnXnXnXnXnXnXnXnXnXnXnXnXnXnX",
"nXnXnXnXnXnXnXnXnXnXnXnXnXnXnXnXnXlXmXnX>X> @ m j.b.D.F . = j +.!.O.I.!.!.~.O.~ .   >.k.c.k.w + 4 5XkXnXlXnXnXnXnXnXnXnXnXnXnXnXnXnXnXnXnXnX",
"nXnXnXnXnXnXnXnXnXlXnXnXnXnXnXnXnXfXnXxX<Xt . 1.z.B.z.h.; , X 4 ~ / X.+.~ k 6   O 5 u.V.N.V.J   s eXmXnXlXlXnXZXnXnXnXnXnXnXnXnXnXnXnXnXnXnX",
"nXnXnXnXnXnXnXnXfXmXnXmXmXlXlXlXbXlXVXiXj O $ -.n.c.B.q.. : o         X     X X @ & 5.m.Z.N.F * # x 0XnXnXmXmXnXxXxXnXnXnXlXnXnXnXnXnXnXnXnX",
"nXnXnXnXnXnXnXlXmXmXnXnXlXAXbXhXbXfX2Xx       9 0.x.h.M + j 9.| d ;     y k *.^.4   N y.x.0.; +   < Z wXZXzXhXjXnXnXbXkXnXnXlXnXnXnXnXnXnXnX",
"nXnXnXnXnXnXnXnXmXlXfXnX9XO.x x x X.c . 4 ..v O 7 9 ; < : T.uX9X7X|.  # XXeXuXuXo.@ . 8 w o : 5 | * . g  .T g A ..tXnXkXnXcXnXnXnXnXnXnXnXnX",
"nXnXnXnXnXnXnXnXZXnXnX8Xz O     X O o X  XeX.X4 O   O   = ] $X-XiX$XO > &X9X-XOX[   . X     5 oX0X8.  = O * . O X ] dXVXnXmXmXnXnXnXnXnXnXnX",
"nXnXnXnXnXnXnXnXlXzX9Xx   7 V =.H $ : i $XiX%.o @ z %.1       f z k     x A 4 X   2 6 T.j   1 OX0XoX3 : 7 -.-.V *   { sXfXmXcXlXnXnXnXnXnXnX",
"nXnXnXnXnXnXnXnXlXAX{ O 7 ;.7.p.f.3.$ + f *.* X x qXxX| O X   O X     @   O @ @ O O #.bX0X~   ; o.e   & 3.a.a.g.,.7   #.nXnXmXnXnXnXnXnXnXnX",
"nXnXnXnXnXnXnXnXcX+X: 7 =.i.f.p.f.s.>.* $     Q qXVXVX|.# + f j j f 6 y j j { ~ @ X +XnXnX4Xl     + 7 3.l.i.f.l.n.H . 2 =XnXmXnXnXnXnXnXnXnX",
"nXnXnXnXnXnXnXnXrXc   & -.3.7.a.s.a.d.1.o O ; eXmXlXbX3X@   k _ O.I.Y.I.I.Y.~._ . 4 7XlXlXnX=X1 , 7 3.a.p.s.u.r.5.,.% X K yXnXnXnXnXnXnXnXnX",
"mXmXVXfXlXmXlXZX%.O , #   X 7 V r.p.l.s.>.= > <XnXkXnXdX5   j ~ I.I.T.I.~.U.Y.R   c kXnXbXbX*X  * ;.g.a.f.7.N @ .   @ O X  XmXcXnXnXnXvXnXnX",
"nXzXnXnXmXxXVX4X-   9 9 o - O # N i.p.d.e.8   ;XlXnXnXcX| X 6 ^ _ a y 3 g Y.O.a   @.bXbXnXnXoX  8 7.i.f.r.n @   % % w 8 O f 8XfXnXbXnXnXbXnX",
"VXmXmXmXcXnXhX .. 9 5.d.j.q.H $ : >.d.s.r.7 O :XlXnXmXmX X  # T y   <     R +.1   %XnXnXnXnXXX  7 7.6.i.>.  + ;.r.M.k.e.9 @ @.xXbXnXnXnXbXnX",
"nXlXcXvXnXnX,Xo : 1.s.n.C.V.A.M : N p.p.D @ < :XnXnXmXnX:X#   i     P P   > x O 4 0XnXnXnXnX*X  1 ;.6.7.n o N p.z.B.N.v.J   @ =XnXnXnXnXnXnX",
"nXlXmXnXlX8Xg   m g.z.V.D.c.N.:.@ 9 r.:.X   | zXnXnXnXnXrXf   O . p P.P.p       Z dXnXnXmXnXaX[ O $ ;.5.7   1.l.b.S.C.A.j.w O K dXbXnXnXnXnX",
"vXnXmXnXfX9.@ * 5.z.b.C.b.V.N.w.  % N $ O ] qXVXnXnXnXnXlX|     . ( /.}.G.#   # #.nXvXbXnXnXnX0Xx : & b X % 5.s.A.V.C.V.v.2.#   oXnXnXnXnXVX",
"nXnXcXnX<Xy . C s.b.b.Z.V.v.B.q.*     O  .uXmXxXnXnXnXnXmX.X  @ : J./.[.).O     XXnXnXnXnXbXnXnX0XT   :   7 5.f.k.v.v.b.A.S.S O f 6XnXnXnXbX",
"nXZXnXkX .O 9 e.l.C.m.c.V.C.4.M   @ ; oXsXVXlXmXnXnXnXnXmX:X#   p P./.[._.t X @ wXnXbXnXnXnXnXnXnXgX&.; $   M 2.d.s.v.N.N.B.q.0   @.ZXnXnXnX",
"xXnXlX>Xo   ;.l.c.V.b.c.h.S &   + | 8XnXmXnXmXnXnXnXnXnXnXaXs X P L.`.{.'.P @ x gXxXnXnXnXnXnXnXnXnXbX7X] #   # V r.d.l.b.c.C.J O 2 5XlXnXlX",
"lXmXbXF.O 5 e.a.n.C.j.1.7   o ~ =XbXnXmXnXvXnXnXnXnXbXnXnXZX' X P E./.'.'.I   *.mXVXnXnXnXnXnXnXnXnXnXnXbX,Xl     8 >.a.l.l.b.y.-    XnXnXnX",
"mXmXnX&X.   V y.a.2.n 1 X q  XSXVXnXnXlXnXVXnXnXmXnXnXbXnXnX]   U L.(.{.'.I > *.nXnXnXmXnXnXnXnXnXbXnXbXnXnXSX$.0 +   w 3.a.r.M   - 7XlXZXnX",
"mXnXZXbX9.# + m V *     #.9XxXnXnXAXnXnXbXnXnXVXnXnXnXnXnXbX|   a ) ) P.K.3 + &.nXnXnXnXnXnXnXnXnXnXnXbXbXnXVXnX<X .4   7 C b   X  XlXnXnXnX",
"lXnXnXlXzXT.= + @   A =XfXlXxXnXnXnXnXnXnXnXnXnXnXnXVXVXnXnX&X# X   O : O - ; -XnXnXnXnXnXnXnXnXzXnXnXnXnXbXVXbXZXzX,Xz   @ < + oXnXZXnXnXZX",
"nXlXnXxXmXzXY.; ; ~.sXxXvXmXlXfXlXnXzXnXnXlXnXnXnXbXnXnXnXnXVX X<   $ . # = +XmXnXnXnXnXnXnXnXnXnXbXbXbXVXnXnXnXcXcXfXSX%.o 6 OXzXvXbXnXlXnX"
};
