/* XPM */
static char *f93d7826100c4184945cb90b6e96667es2BbEKPl79ub94xM[] = {
/* columns rows colors chars-per-pixel */
"70 70 248 2 ",
"   c #020202",
".  c #0B0202",
"X  c #020A02",
"o  c #0B0A03",
"O  c #03030B",
"+  c #0B030B",
"@  c #030A0B",
"#  c #0B0B0C",
"$  c #130302",
"%  c #130B01",
"&  c #1D0C01",
"*  c #13030B",
"=  c #190708",
"-  c #081207",
";  c #151307",
":  c #020213",
">  c #0C0313",
",  c #030B13",
"<  c #0C0D13",
"1  c #02031A",
"2  c #0B061B",
"3  c #140914",
"4  c #0B1418",
"5  c #131313",
"6  c #1C1C1C",
"7  c #161618",
"8  c #250704",
"9  c #271504",
"0  c #361906",
"q  c #2E0F10",
"w  c #18231A",
"e  c #1D2E0A",
"r  c #372704",
"t  c #25251B",
"y  c #382416",
"u  c #2C2F0F",
"i  c #070423",
"p  c #061626",
"a  c #181B25",
"s  c #011D33",
"d  c #140F26",
"f  c #221B26",
"g  c #231932",
"h  c #05242C",
"j  c #1A2527",
"k  c #042839",
"l  c #122D35",
"z  c #232423",
"x  c #2C2C2C",
"c  c #282828",
"v  c #342C29",
"b  c #2A3129",
"n  c #34322D",
"m  c #272A34",
"M  c #322D33",
"N  c #2A353A",
"B  c #343434",
"V  c #3C3C3D",
"C  c #363738",
"Z  c #471A05",
"A  c #482905",
"S  c #583803",
"D  c #4F2F07",
"F  c #643907",
"G  c #6B360B",
"H  c #463637",
"J  c #344138",
"K  c #524207",
"L  c #744809",
"P  c #685707",
"I  c #704E09",
"U  c #7D6608",
"Y  c #716E11",
"T  c #424239",
"R  c #444120",
"E  c #062A47",
"W  c #013746",
"Q  c #063B57",
"!  c #0B3050",
"~  c #283546",
"^  c #363944",
"/  c #3E2D40",
"(  c #033C67",
")  c #1F1D44",
"_  c #443B46",
"`  c #044C50",
"'  c #38484A",
"]  c #394755",
"[  c #344E52",
"{  c #004868",
"}  c #0A4674",
"|  c #0B576B",
" . c #1F5C6C",
".. c #444443",
"X. c #4C4C4C",
"o. c #494849",
"O. c #4D5347",
"+. c #484954",
"@. c #465558",
"#. c #575859",
"$. c #534C51",
"%. c #5D6158",
"&. c #67675F",
"*. c #4A5964",
"=. c #555763",
"-. c #596978",
";. c #516B73",
":. c #6C6B6C",
">. c #666666",
",. c #6A6B7A",
"<. c #727273",
"1. c #7A7A7A",
"2. c #72726D",
"3. c #615956",
"4. c #803F05",
"5. c #864B06",
"6. c #885702",
"7. c #975605",
"8. c #924B0F",
"9. c #AA5705",
"0. c #8A6506",
"q. c #986B11",
"w. c #A67A05",
"e. c #B2710D",
"r. c #916222",
"t. c #D67C02",
"y. c #C6720E",
"u. c #F07908",
"i. c #847B75",
"p. c #65827D",
"a. c #B28F0A",
"s. c #BB9D14",
"d. c #D98506",
"f. c #CA9B05",
"g. c #D08F0D",
"h. c #E48705",
"j. c #FB8B04",
"k. c #E99704",
"l. c #F59401",
"z. c #FC9402",
"x. c #FD9C02",
"c. c #F89A06",
"v. c #FB9916",
"b. c #EC8F16",
"n. c #C6A404",
"m. c #D7B307",
"M. c #E4A704",
"N. c #FAA706",
"B. c #E7B703",
"V. c #FEBC02",
"C. c #FEBC0B",
"Z. c #F9B607",
"A. c #FDA715",
"S. c #FDBD14",
"D. c #FCB819",
"F. c #E1AD12",
"G. c #F9B225",
"H. c #CC9022",
"J. c #EDC707",
"K. c #F9C505",
"L. c #FBC516",
"P. c #F3CC14",
"I. c #FDC521",
"U. c #82847F",
"Y. c #07588D",
"T. c #096591",
"R. c #0578B6",
"E. c #0D6EAD",
"W. c #5B7A87",
"Q. c #57728B",
"!. c #767784",
"~. c #687C8E",
"^. c #047ACC",
"/. c #817991",
"(. c #0B8BBA",
"). c #5C848D",
"_. c #668289",
"`. c #72868B",
"'. c #6F84A1",
"]. c #0787C5",
"[. c #0498CB",
"{. c #0689D6",
"}. c #0495DA",
"|. c #118ECC",
" X c #079AE5",
".X c #0B94E9",
"XX c #04A5E7",
"oX c #04A9F9",
"OX c #06B3FB",
"+X c #10B0F4",
"@X c #0EAADD",
"#X c #848484",
"$X c #898B8B",
"%X c #8A8E92",
"&X c #938E94",
"*X c #9B9B9B",
"=X c #959796",
"-X c #908F87",
";X c #A5A59E",
":X c #929AA4",
">X c #9CA3A7",
",X c #A4A4A3",
"<X c #ABACAB",
"1X c #A7A7A8",
"2X c #ADB1AC",
"3X c #B2B3AB",
"4X c #BCBCBC",
"5X c #B4B6B6",
"6X c #ACAFB3",
"7X c #A29F9F",
"8X c #C3BABA",
"9X c #BEC1BE",
"0X c #CCC6BD",
"qX c #B7BAC3",
"wX c #C5BAC2",
"eX c #BCCACF",
"rX c #C3C3C3",
"tX c #CCCCCC",
"yX c #C8C8C9",
"uX c #D6DACC",
"iX c #CCCDD4",
"pX c #CED9D9",
"aX c #D2D2D3",
"sX c #DADADB",
"dX c #D2CFCF",
"fX c #E5D8D3",
"gX c #DAE3D4",
"hX c #E7EBDD",
"jX c #D8D8E4",
"kX c #E3D7E8",
"lX c #DBE7E7",
"zX c #E5E4E4",
"xX c #ECECEB",
"cX c #E8E8E7",
"vX c #EDF4EA",
"bX c #FBFDED",
"nX c #F6F6EB",
"mX c #EAECF4",
"MX c #EDF8F8",
"NX c #F5F5F5",
"BX c #FAF6F4",
"VX c #F5FBF4",
"CX c #FBFCF5",
"ZX c #F6F5FC",
"AX c #FCF6FB",
"SX c #F5FCFC",
"DX c #FDFEFD",
"FX c #F3ECEF",
/* pixels */
"DXDXDXDXDXDXDXDXDXDXNXDXDXDXDXDXDXDXCXDXDXNXDXZXDXDXDXDXDXDXDXDXDXDXDXDXDXDXDXDXDXDXDXDXDXDXDXDXDXDXDXDXDXDXDXDXDXDXDXDXCXAXDXNXDXSXDXAXDXCX",
"NXDXDXDXDXDXDXDXDXBXDXNXDXDXDXDXCXNXDXDXDXDXDXDXDXDXDXDXNXDXDXDXDXDXDXDXDXDXDXDXDXDXDXDXDXDXDXDXDXDXDXDXDXDXDXDXDXDXCXCXDXDXCXCXDXDXDXDXCXVX",
"DXDXDXDXDXNXDXDXDXDXDXDXNXDXDXDXCXDXVXVXVXDXNXCXDXDXDXDXDXDXDXDXDXDXDXDXDXDXDXDXDXDXDXDXDXDXDXDXDXDXDXDXDXDXDXDXDXDXBXDXDXDXZXDXCXCXvXDXZXDX",
"NXDXDXDXNXDXDX7X=XsXDXDXDXDXNXDXMXDXCXCXDXBXDXDXDXDXNXBXDXDXDXDXDXDXDXDXDXDXDXDXDXDXDXDXDXDXDXDXDXDXDXDXDXDXDXDXSXDXDXDXAXDXDXZX8X=X9XNXDXCX",
"DXDXDXNXDXzX#.5   c yXVXNXDXDXDXCXNXmXeX1XtXNXDXNXDXDXDXDXDXDXDXDXDXDXDXDXDXDXDXDXDXDXDXDXDXDXDXDXDXDXDXDXDXDXDXCXDXDXDXNXCX0X&.2 O a -XmXDX",
"ZXDXDXDXDX#X#   5   B NXDXDXNXDXBXhX>.@ . o 1.mXDXNXDXDXDXDXDXDXDXDXDXDXDXDXDXDXDXDXDXDXDXDXDXDXDXDXDXDXDXDXDXDXCXDXDXCXlX%XN X o >   X :XZX",
"DXCXDXDXaX6   1.1X5   &XDXDXDXNXmX2.$ < : o o !.NXDXDXDXNXDXDXDXDXDXDXDXDXDXDXDXDXDXDXDXDXDXDXDXDXDXDXDXDXDXDXDXDXAXFX3X..O * 9 U s.D $ # `.",
"DXDXDXDX#XO z sXDX#.  B FXDXDXNXQ.$   { (.(   o %XDXBXDXDXDXDXNXDXDXDXDXDXDXDXDXDXDXDXDXDXDXDXDXDXCXCXCXDXCXVXCXVXsX:.;   o S s.J.C.g.D > 7 ",
"DXDXDXFXB   :.DXNX9X  5 5XDXCX1.  @ } .XoX{.!   4 9XDXCXAXDXDXDXDXDXDXDXDXDXDXDXDXDXDXDXDXDXDXDXCXAXDXCXVXVXnXFX-Xe :   A w.J.J.K.z.x.S 2 O ",
"NXDXDXrX< o 1XDXNXcXx   1.DXDXV . W (.XX+XOX].s . H cXMXDXDXDXDXDXDXDXDXDXDXDXDXDXDXDXDXDXDXDXDXAXDXbXDXDXnXqXT O   q U F.C.K.K.V.N.e.8 o 2.",
"VXDXDX#XO z sXDXDXDX>.  o.NXNXM . k E.}.XXOXXXE.< o >XCXbXCXSXCXDXDXDXDXDXDXDXDXDXDXDXDXDXDXDXCXDXDXnXCXkX,.@ , 2 9 f.S.K.K.K.D.c.k.0 o n sX",
"DXDXDX%.  $.DXDXNXDX*XO 6 sXDX1.@ O E E..XXXXX+XW   B ZXBXDXSXDXDXDXDXDXDXDXDXDXDXDXDXDXDXDXDXBXDXBXCXlX+.. o & X r B.L.K.C.Z.C.N.7.> - 1XDX",
"DXDXzXx   #XDXDXDXDXtX#   1XDXcX,.  @ k T.^..XXXE., $ 6XSXDXSXSXDXDXDXDXDXDXDXDXDXDXDXDXDXDXDXCXMXDXzXT O 9 L L X ; F.V.K.L.G.A.g.8 > $.vXAX",
"DXDXaX# # <XNXDXNXDXNXc   =XNXDXxX1.  . s { E.R.^.E . @.BXDXDXCXDXDXDXDXDXDXDXDXDXDXDXDXDXDXDXBXDXNX,.o . I c.y.2 = d.N.S.L.N.k.F   7 0XnXDX",
"DXNX5Xo 6 aXDXDXDXDXNXX.  >.NXDXBXmXH       p ( T.` O 3 dXnXDXCXDXDXDXDXDXDXDXDXDXCXDXDXDXDXDXCXBXZX^ O L k.v.d.. i 5.v.N.z.l.e.9 4 ,.CXDXbX",
"DXBX%X  x zXDXDXDXDXDX<.  V NXDXDXSX<XX O . &   d 1 + t pXSXDXZXDXDXDXDXDXDXDXDXDXDXDXDXDXCXBXVXAXZXM @ 5.z.l.l.F : o K 7.y.H.A 1 ~ lXbXDXCX",
"DXDX>.  X.BXDXDXDXDXDX=XO x cXDXDXDXcXJ   # a @   O X 1XCXDXDXCXDXDXDXDXDXDXDXDXBXDXDXDXDXDXNXDXCXxX_ . L k.x.z.t.D       % 9 * . 7XDXDXCXSX",
"DXNXX.  >.DXDXDXDXDXDX1X  5 tXDXDXDXDX1X# + m ^ b X   #XSXCXDXDXDXDXDXFXDXDXDXDXDXBXCXDXDXDXDXCXDXnX#.2 8 e.c.z.A.d.8.0 & X O . X.DXDXFXDXDX",
"DXNXc o #XDXDXDXNXDXDXdX5   0XDXDXDXCXxXV   < ] [ a   t cXDXDXDXNXDXDXzXyX5X5X5XyXjXDXDXDXDXDXbXDXjXc X + 8 w.c.c.k.v.u.y.Z : ; yXVXNXDXDXNX",
"DXzX7 O *XDXDXDXDXNXDXcX>.o.zXNXDXDXSXDX*X@ X m ] ~ 3 + !.SXCXDXaX1.^ z # o <   7 c ^ 1.iXNXAXAXfX_ o o # + q 9.v.u.j.u.7.& : 2.NXDXDXDXNXDX",
"DXaX5 o 5XDXDXDXDXDXNXDXcXDXDXDXNXDXDXDXxXB > < ' ] a   b uX3X=.# o         @   # : : # o #.yXiXH   < !.7Xw o 8 9.u.t.7.& O _ cXDXCXDXCXDXVX",
"DX4X# o tXDXDXDXDXDXDXDXDXDXDXDXDXDXDXDXDX*X  @ j ' j @   z a :   6 B #.1.x   H 7X#X^ z o   < f   < *.tXsX>.  1 > q 8 . O M tXDXDXBXCXAXDXDX",
"DX1XO 7 sXDXDXDXDXDXNXDXDXDXDXDXDXDXSXDXNXFXB @ j b , :   $     x 1.7X1X1XB   $.uXgXgX5XN O . $ <   e &X$X;   - O   O   o.sXDXDXDXSXDXSXDXCX",
"DX*X  c cXDXDXDXDXDXDXDXDXDXDXDXAXDXDXDXDXDX*X  .   > 9 U U A + # <.=X<.#.z   x ~.>XeX*X2 o r Y P 9 3 f # 2 / 2X;X*X=X2XlXFXDXDXDXDXNXDXDXDX",
"DXU.  v xXDXDXDXCXDXDXBXDXDXDXDXVXDXFXVXDXAXzXv +   & e.K.L.B.t X w g * . : O   X @ c x O A m.K.J.a.# .   J iXCXDXBXDXDXDXNXDXDXDXDXDXDXDXDX",
"NX`.o V NXNXDXNXDXDXbXbXCXDXSXvXDXDXDXDXFXDXSX:XX X r F.P.B.K.6.3 . O O p ! ` h 4 > < . . P Z.K.Z.B.r : ^ tXDXDXCXDXDXDXDXDXDXDXDXDXDXNXDXDX",
"DX:.  ..DXDXDXDXAXDXSXDXCXCXDXCXSXDXDXSXDXCXDXcXj @ q f.V.C.G.S   # W ].].@XoX{. X^.Q ,   S G.D.D.g.9 O ,.NXDXDXDXDXSXDXDXDXDXBXSXDXDXDXDXAX",
"DX:.  :.NXDXNXDXbXDXDXDXBXhXzXxXvXbXVXDXCXCXBXfXn o $ G e.g.I % X | OXoXXXoXXX+XXXXX@XT.@ $ 8.f.e.F   o t >.7XiXmXDXDXDXDXDXDXDXDXDXDXDXDXDX",
"DXyX1.iXAXDXDXCXSXsX6X:.^ 6 z m o.3XCXAXCXZXSX-X+   O > & 9 o O . Y.}.XX+XoXOXoXXXOX}.} o +   0 8 .     O     5 v :.;XtXFXNXDXDXDXAXDXDXDXDX",
"DXDXDXNXDXcX0X=X$.z #     . 3 : O p 6XAXDXDXmXC X N O.7 O O   w     | (.Y.( k W T.[.| O   ; X @ 2 - 2.' : +   - o     5 V :.7XyXNXDXDXNXDXCX",
"NXCXzX9X<.J 7   $     9 S 0.0.6.0   s 8XnXVXyXo o -.,X#.+ + ^ -.v . o p ,   3 . @ 2 X > N ;.] O @ `.jX:X  3 *.[ N a , O   + @ 3 C >.%.2.4XDX",
"sX&.x + O . . t S R @ $ 8.v.z.v.t.0 # B -X%X#.. ; %X*XO.  ; Q.).~.) @ X + D P S X +   N ;.).,.5 % =.kX6Xw   [ ~.).W.-.N O .   . O   @ X ; =X",
"@.  o * r P e.M.S.G.K 3 = e.z.x.z.L     X   + O c *X&Xz   ^ W.).Q./ o o @ g.P.f.; O @ z Q._.W.~ @ M yXpXC + C W.Q.Q.N - o   : p E W Q 4 $ 7 ",
"O   P a.F.L.L.K.L.P.n.u   D h.v.x.I + + t x     v 1.2.5   ' _._.;.O o D P B.L.Z.P K + @ ;.).~.] X f %X6XV   a ).p.N .   k T.(.XXoXoXXXY.@   ",
"  8 w.C.L.J.J.J.K.Z.K.q.+ & d.v.N.L . m 4X4XM @   5 5   @ *.W.).[ + 5 f.L.L.Z.V.L.n.= X *.).).]     4 4   @ a W.~.4 O E ^.oXXXoXXXoXOXE.4   ",
"  = q.N.D.Z.C.N.K.C.L.q.X 9 k.z.c.5.. M yXeXB           , *._.).[ : - n.K.L.K.J.S.n.9 X @.Q.~.;..   , X     a W.Q.5 # W E.^.^.{.@X].}.Y.  . ",
"@ * L g.h.l.N.N.M.L.D.r   y t.v.A.L O 4 z J % $ V <.>.2 @ [ _.).;.> X I w.B.V.J.r.P + : @.'.W.[ . 5 %X:XN   j W.W.m   O s { T.^.R.^.R.{ O o ",
"u X   & r 5.y.h.N.l.7.< > 8.j.j.u.G .   -   #   x *X*X6 @ ~ _.-.+.d     8 a.D.y.&   @ 2 @.Q.`.^   x iXpX..  N ;.Q.*.d   % * # s E E ! a   1 ",
"eX#.3 . +   o t G r.9 $ G u.u.u.y.Z   t 2.!.' O 7 $X,XV   7 *.*.^ g O X . K 6.F o   X j J *.-.4   %.pX5Xc   m *.' ' ' j     -   5   @ o . &X",
"DXFXfX1X#.M %       O O F 9.r.7.Z O 2 2XBXCX8X& : :.,X:.  @ J N w   3 i 1 O O     o :   4 [ m o . $XpX:X  O N N j 4 > @ X   + 3 a o.@.#.;XAX",
"DXDXDXDXNXcX<X`.V 6   O O     . @ 4 $XDXDXNXFXn O H 3.f   O   a +   { R.Y.) s k Y.R.{ @ = 7 @ . X 6 /.X.  i @   < O @   c X.&X5XcXNXCXDXDXDX",
"DXsX*XsXDXDXDXDXxXtX&X#.m 5 7 a c *XDXDXDXVXDXp.: > O X = %   + . { [.@XXXoXoXXX@XXX.XQ   , O ;   <   @ 1   > $ w $.#XrXzXDXCXDXVXDXDXCXDXDX",
"DX<.# %.DXDXDXDXDXDXDXFXzXuXuXuXzXZXBXBXDXDXnXsXu   X S a.n.I % 2 ( R.(.{..X|. X[.[.^.Q X X 0.s.n.A   - , O.#XyXzXDXDXCXDXCXDXDXDXDXDXDXDXDX",
"DX#.# o.DXDXBXDXCXCXCXDXDXDXDXDXDXDXDXDXDXDXDXcXv @ 9 f.I.L.L.S + 3 ! Y.E.^.^.^.E.} ! p X A J.S.C.n.9 O <.bXDXMXDXDXDXDXDXZXDXDXDXDXBXDXDXDX",
"DX<.o V NXDXDXDXDXDXAXDXDXDXDXDXAXBXDXDXDXBXDX1X>   Z B.L.Z.P.L X . : s 4 k E k s p   1 3 L K.L.S.m.Z O +.kXAXSXDXDXDXDXZXDXDXNXDXDXDXDXDXDX",
"DX#X  x cXDXDXDXCXCXDXDXDXNXDXDXDXDXZXDXBXDXzXV O + 2 a.Z.Z.M.0 X 5 a $ . . o     $ h j   A k.N.Z.a.= :   T tXAXDXDXDXBXDXDXDXDXDXDXDXDXDXCX",
"DX*Xo j cXDXDXNXDXDXDXDXDXDXDXDXDXDXDXDXDXDX<XO X @   y 8.9.H 8 + :.&X:.@.w   j -.&XqX$X# O D 7.6.q O - ; @ +.yX5X6X2X4XNXDXNXDXDXCXDXZXDXDX",
"VX6X  6 zXDXDXDXDXCXCXDXDXDXDXBXDXDXNXDXNXFX^ O < v O   o +   . b `.1X;X=X^   $.sXjXpXeXB O i .   > 6 #X1.* . 5 @ o   3 #.sXDXCXCXDXDXDXDXDX",
"DXqXo # tXDXDXDXDXDXDXDXDXDXDXDXDXDXDXDXNX1Xo . m [ j + $ ; -     z ^ :.U.M @ $.>X=X>.B #   o ;     >.iXaX%.X .   9 &     X.kXDXDXDXDXDXDXDX",
"DXtX# # 4XDXDXDXDXNXNXDXDXNXDXDXDXDXDXBXvX..@ d ] ] l O 6 yX3X=.O o   o #     X 4 ,     5 ..2XyX/ 1 ; -X;Xt > = 7.y.g.5.i   X.vXZXDXDXNXCXDX",
"DXzX6   1XDXDXDXDXDXDXNX$X<.zXDXCXDXNXDX1Xo . N ' C + + !.AXDXxX5X<.c + o +     < o C 1.<XVXDXNXiX_ o - z # . q.x.A.l.z.6.+ o &XCXDXDXDXDXDX",
"BXNXM   #XDXNXDXDXNXDXyX# # yXDXDXDXSXZXo.  5 ' [ M o 9 aXDXDXCXDXDXNXsX4X*X=X<X<XdXxXDXDXNXDXDXAX0Xx , : = 0.z.N.j.x.l.t.D o 7 tXDXDXZXDXZX",
"DXDXo.  :.DXDXDXDXDXDX<XO 5 dXDXDXDXDX<X< @ l ' ) @   2.DXVXVXDXDXDXNXNXDXDXDXNXDXDXDXNXDXDXNXDXBXBX%.  $ q.l.z.z.k.7.S Z # O . %.DXDXSXDXDX",
"DXVX>.  X.DXDXDXDXDXDX*Xo t zXDXCXCXNXo.O . 6 3 $   d 1XDXDXDXDXDXBXDXDXDXDXDXDXDXDXDXDXDXDXNXDXDXZXN 3 4.z.z.A.b.D < > ,     o @ 5XDXSXSXDX",
"DXDX#X  x cXDXDXDXNXDX<.  ..NXDXDXDX2X#   $ . . - O   B aXDXDXDXDXDXDXDXDXDXDXDXDXDXDXDXDXDXDXDXvXDX~   5.j.b.l.S .   S U a.H.u . T zXDXDXVX",
"DXDX1X+ 7 sXDXDXNXDXDXX.  #.DXNXMXMXo.  * O k { T.(   % uXNXDXBXDXDXDXDXDXDXDXDXDXDXDXDXDXDXZXDXDXcXV   S b.j.u.9 , I D.S.K.L.w.% o U.CXVXCX",
"DXDXtX5   5XDXDXDXDXcXx   #XBXCXxX!.= O p }  X}.E.k o +.SXCXSXDXDXDXDXDXDXDXDXDXDXDXDXDXDXDXDXSXCXvX!.  q 8.t.y., X n.V.C.C.K.L.S o a uXDXDX",
"NXDXzXx   #XDXNXDXDXaX7   5XVXNXi.o . k (.@X X.XY.O % 7XNXDXDXDXDXDXDXDXDXDXDXDXDXDXDXDXDXDXDXDXDXCXtXC . 8 5.5.. 5 m.L.I.B.J.G.s.; O :.FXNX",
"DXDXNXX.@ $.NXDXDXDX*XO j aXNX#X$ + Q (.+XoX XR.E > v vXDXDXDXDXDXDXDXDXDXDXDXDXDXDXDXDXDXDXDXDXDXbXbXsX/   & 8   Z k.A.L.L.K.Z.K.0.+   8XDX",
"DXDXDX-X  x zXDXDXNX:.  V FXDXV O ` }.oXXXoX^.| , . &XVXCXNXDXDXDXDXDXDXDXDXDXDXDXDXDXDXDXDXDXDXAXDXCXZXpX@., . , q t.N.k.C.K.K.C.m.A   C mX",
"DXDXDXyX  # 0XSXDXzXB   <.DXNXC   ` @XoX.X^.E.h   M mXVXVXDXDXDXDXDXDXDXDXDXDXDXDXDXDXDXDXDXDXDXDXSXDXAXCXvX>Xn O > 0 0.M.A.Z.D.C.L.w.8 @ _.",
"DXDXDXzXB   <.DXDXqXo   wXVXZX<.@ * { [.{.T.E O o 5XSXDXDXDXBXDXDXDXDXDXDXDXDXDXDXDXDXDXDXDXDXCXCXCXDXAXCXbXZXuX!.; #   A y.k.A.Z.N.M.S   5 ",
"NXDXDXNX#X  z zXBX:.# n xXSXDXlX#.. O ( E.Q @ . 1.NXDXDXSXDXDXDXDXDXDXDXDXDXDXDXDXDXDXDXDXDXCXDXDXCXDXDXDXnXDXVXBX0XX.o > = L t.v.A.H.D . ; ",
"DXDXNXDXtX5 O #X4X7   #XDXDXSXSXgX3.. i : . O :.xXDXFXCXDXVXCXDXDXDXDXDXDXDXDXDXDXDXDXDXDXDXDXDXDXbXVXDXDXDXNXSXNXDXAX:Xx   : 0 7.u.D   < !.",
"DXDXDXDXNX<.  # w   x zXNXDXDXAXDXhX#.    o :.zXDXDXDXNXDXDXDXDXDXDXDXDXDXDXDXDXDXDXDXDXDXDXDXDXDXDXDXDXDXDXDXDXDXBXVXDXsX1.f     5 o   <.BX",
"DXDXNXDXDXxX..5   7 0XSXDXDXDXDXBXDXcX3X&X<XxXDXDXDXDXNXDXDXDXDXDXDXDXDXDXDXDXDXDXDXDXDXDXDXDXDXDXDXDXDXDXDXDXDXDXDXDXDXDXNX4X#.5 X   #XNXAX",
"DXDXDXDXDXNXxX#X%XaXZXDXDXDXDXDXNXDXDXNXDXNXDXDXDXDXDXDXDXDXDXDXDXDXDXDXDXDXDXDXDXDXDXDXDXDXDXDXDXDXDXDXDXDXDXDXDXDXDXDXDXDXDXcX3X<.3XVXCXDX",
"DXDXDXNXDXDXDXDXFXDXDXDXNXDXDXNXDXDXSXDXDXDXDXDXDXDXDXDXDXDXDXDXDXDXDXDXDXDXDXDXDXDXDXDXDXDXDXDXDXDXDXDXDXDXDXDXNXDXDXDXDXNXNXDXDXDXDXDXMXDX",
"DXDXDXNXDXDXDXDXDXDXDXVXDXDXDXDXZXCXDXDXFXDXDXBXDXDXDXDXDXDXDXDXDXDXDXDXDXDXDXDXDXDXDXDXDXDXDXDXDXDXDXDXDXDXDXDXDXDXDXZXDXDXDXVXDXNXDXDXNXDX",
"DXDXDXDXDXDXDXDXBXDXNXDXDXDXDXZXDXCXBXDXDXDXBXDXDXDXDXDXDXDXDXDXDXDXDXDXDXDXDXDXDXDXDXDXDXDXDXDXDXDXDXDXDXDXDXDXDXNXDXDXDXDXDXDXDXDXDXDXNXCX"
};
