/* XPM */
static char *a4acbdefd792471ac1a2bb877dcc0219IrPOcCavBFuq3XfG[] = {
/* columns rows colors chars-per-pixel */
"70 70 248 2 ",
"   c #020202",
".  c #0A0202",
"X  c #020A02",
"o  c #0B0A03",
"O  c #02030B",
"+  c #0A020B",
"@  c #040A0A",
"#  c #0B0B0B",
"$  c #130302",
"%  c #130B02",
"&  c #1B0B01",
"*  c #16080A",
"=  c #051208",
"-  c #161408",
";  c #030313",
":  c #020A13",
">  c #0B0C12",
",  c #070517",
"<  c #140814",
"1  c #091519",
"2  c #131314",
"3  c #1C1C1C",
"4  c #16161A",
"5  c #250B01",
"6  c #281705",
"7  c #351804",
"8  c #26181B",
"9  c #2C0B0C",
"0  c #19241A",
"q  c #362605",
"w  c #24241B",
"e  c #2D2E14",
"r  c #061727",
"t  c #171A24",
"y  c #08142B",
"u  c #192427",
"i  c #042739",
"p  c #1D2A34",
"a  c #0D3435",
"s  c #2B2B2C",
"d  c #242626",
"f  c #332B28",
"g  c #283328",
"h  c #282C35",
"j  c #372E37",
"k  c #2A3539",
"l  c #333233",
"z  c #3A3B3C",
"x  c #363839",
"c  c #34302B",
"v  c #2B1C29",
"b  c #461B03",
"n  c #492902",
"m  c #552C00",
"M  c #473503",
"N  c #583903",
"B  c #493C1A",
"V  c #653703",
"C  c #6C3001",
"Z  c #463836",
"A  c #31443E",
"S  c #514309",
"D  c #774907",
"F  c #6B5607",
"G  c #765808",
"H  c #68480F",
"J  c #7A6505",
"K  c #4A4132",
"L  c #032B48",
"P  c #013749",
"I  c #023856",
"U  c #092F54",
"Y  c #2A3943",
"T  c #363944",
"R  c #363952",
"E  c #053A69",
"W  c #291F42",
"Q  c #4A3B45",
"!  c #004B54",
"~  c #36454A",
"^  c #394A53",
"/  c #304A4D",
"(  c #024668",
")  c #085376",
"_  c #3E5865",
"`  c #434343",
"'  c #4B4B4A",
"]  c #454747",
"[  c #474953",
"{  c #495658",
"}  c #535353",
"|  c #5A5B5A",
" . c #554D50",
".. c #626C59",
"X. c #475764",
"o. c #525561",
"O. c #665E67",
"+. c #566569",
"@. c #596A75",
"#. c #526E7B",
"$. c #646465",
"%. c #6C6C6C",
"&. c #686769",
"*. c #6A746E",
"=. c #73726B",
"-. c #6C7576",
";. c #7B7B7B",
":. c #757576",
">. c #6A6972",
",. c #615C50",
"<. c #844A04",
"1. c #8A5604",
"2. c #955507",
"3. c #8E510C",
"4. c #A45604",
"5. c #956203",
"6. c #926C0B",
"7. c #B1700B",
"8. c #CA750A",
"9. c #F67B03",
"0. c #EB7706",
"q. c #847775",
"w. c #75827D",
"e. c #AE8C09",
"r. c #9D8106",
"t. c #CA8403",
"y. c #D98503",
"u. c #C89905",
"i. c #D59211",
"p. c #E68903",
"a. c #F88C04",
"s. c #E99702",
"d. c #FE9402",
"f. c #FD9A02",
"g. c #FD9B0B",
"h. c #F79509",
"j. c #FB9914",
"k. c #ED8B1E",
"l. c #CBA605",
"z. c #DAAA0F",
"x. c #FBA705",
"c. c #E6B404",
"v. c #FCBC03",
"b. c #FDBC0B",
"n. c #F9B606",
"m. c #FCA817",
"M. c #FCBD13",
"N. c #FBB718",
"B. c #E8B10F",
"V. c #FAB623",
"C. c #ECC504",
"Z. c #FDC301",
"A. c #FEC30C",
"S. c #FBC706",
"D. c #FBC615",
"F. c #F9D010",
"G. c #FFC223",
"H. c #89877B",
"J. c #075889",
"K. c #056398",
"L. c #0A6689",
"P. c #096AA5",
"I. c #0679B9",
"U. c #0673AF",
"Y. c #085BA1",
"T. c #5B7A87",
"R. c #567289",
"E. c #657C88",
"W. c #777A87",
"Q. c #6E768A",
"!. c #087CC7",
"~. c #827A82",
"^. c #0984BB",
"/. c #5C818F",
"(. c #64828A",
"). c #658394",
"_. c #798885",
"`. c #0586C9",
"'. c #0694C9",
"]. c #0288D6",
"[. c #0696DA",
"{. c #1395DB",
"}. c #0BA9DE",
"|. c #0499E5",
" X c #0D98EB",
".X c #02A6EA",
"XX c #04A8F8",
"oX c #06B2FC",
"OX c #0CB4F1",
"+X c #848585",
"@X c #8B8C8B",
"#X c #86888A",
"$X c #8A918E",
"%X c #9B9B9B",
"&X c #949697",
"*X c #908E94",
"=X c #95A29B",
"-X c #A3A29C",
";X c #9B9BA1",
":X c #9DA5AA",
">X c #A3A3A4",
",X c #ABABAC",
"<X c #AAA6A9",
"1X c #ACB5B5",
"2X c #B3B3B3",
"3X c #BCBCBC",
"4X c #B7B5B7",
"5X c #AEAEAD",
"6X c #A69BA3",
"7X c #C3BAB8",
"8X c #B6C0B8",
"9X c #C8C2BE",
"0X c #BABBC3",
"qX c #BDC1C5",
"wX c #C3C3C3",
"eX c #CCCCCC",
"rX c #C7C8C8",
"tX c #CDD2C9",
"yX c #D5D3CB",
"uX c #CDDADB",
"iX c #D3D3D3",
"pX c #D9DADA",
"aX c #D1C9D1",
"sX c #E5DBD2",
"dX c #D8E5DC",
"fX c #E6E4D9",
"gX c #DDD9E3",
"hX c #D9E8EA",
"jX c #E4E4E4",
"kX c #ECECEB",
"lX c #E6E8E8",
"zX c #F2EBEA",
"xX c #EDF2ED",
"cX c #FBFBEC",
"vX c #ECF9F8",
"bX c #F4F4F4",
"nX c #FAF5F4",
"mX c #F5FCF5",
"MX c #FCFCF5",
"NX c #FCF5FC",
"BX c #F5FDFD",
"VX c white",
"CX c #FEFEFE",
"ZX c #FDFDFD",
"AX c #FDFDFD",
"SX c #F6F6F9",
"DX c #F0EDF6",
"FX c #ECDFE6",
/* pixels */
"AXNXCXAXCXZXMXCXCXCXCXCXZXCXCXMXCXCXCXCXCXCXCXCXCXCXCXCXCXCXCXCXCXCXCXCXCXCXCXCXCXCXSXnXCXCXCXZXNXCXCXmXMXCXNXCXCXCXCXZXCXZXCXZXZXSXCXMXCXZX",
"CXMXMXCXBXBXCXMXCXCXSXZXCXCXCXCXCXCXCXCXCXCXCXCXCXCXCXCXCXCXCXCXCXCXCXCXCXCXCXCXZXZXCXCXCXCXZXCXMXmXZXZXZXCXBXMXCXCXSXMXCXCXCXZXCXCXZXCXZXZX",
"CXbXCXCXAXAXCXNXZXCXCXCXZXZXCXZXCXCXCXCXCXCXCXCXCXCXCXCXCXCXCXCXCXCXCXCXCXCXCXCXCXCXCXnXMXCXCXCXBXMXMXAXNXCXZXAXCXZXCXZXCXSXZXZXZXCXAXZXZXZX",
"BXCXbX2Xq.5XxXZXCXZXSXCXAXZXCXCXCXCXCXCXCXCXCXCXCXCXCXCXCXCXCXCXCXCXCXCXCXCXCXCXCXCXZXZXCXAXCXCXSXCXNXAXAXnXZXCXZXCXZXSXeX@X+XlXCXCXCXSXAXCX",
"nXBX_.  X - ,.0XZXCXCXCXAXSXCXCXCXCXCXCXCXCXCXCXCXCXCXCXCXCXCXCXCXCXCXCXCXCXCXCXCXSXCXCXZXCXZXkX5X*X,XlXBXmXCXZXCXCXZX3X3   # ] jXMXAXAXCXZX",
"nX:.. . 2     8 :.pXCXnXZXAXCXCXCXCXCXCXCXCXZXZXCXCXCXCXCXCXCXCXCXCXCXCXCXCXCXCXZXCXSXZXZXCXjX%.. .   | fXCXAXCXCXNXjXs   3 #   ;.bXAXZXZXZX",
"W.# + n i.4.7 > . l &XbXCXmXCXAXCXZXZXCXZXZXZXZXCXCXCXCXCXCXCXCXCXCXCXCXCXCXCXCXZXmXCXSXCXlX%.  + , y . ,.dXBXBXCXCX+XX 2 wX+X  2 eXCXnXZXZX",
"# . m i.j.g.8.C +   + } wXBXAXBXMXZXMXMXZXMXZXZXCXCXCXCXCXCXCXCXCXCXCXCXCXCXCXCXCXCXNXCXSXH.+   P L.E O . { hXAXZXkXl   &.nXlXs   +XSXZXCXSX",
"2   V x.x.v.x.h.8.n ; o 2 :.sXNXmXMXAXAXNXMXMXMXCXCXCXCXCXCXCXCXCXCXCXCXCXCXCXCXZXBXBXZX4Xo   L K.].[.( @   =.bXZX3X  # 3XZXCX%.  s lXCXCXCX",
"w.@ & 6.D.A.b.n.m.s.5.9 ;   c %XvXZXNXCXAXAXZXAXCXCXCXCXCXCXCXCXCXCXCXCXCXCXCXCXAXAXvXlXf   i Y.`. X.XOX!   T nXCX%.  x lXCXZX3X# # wXCXCXCX",
"lXx X q c.b.S.n.n.x.g.y.5 @   @ [ uXMXZXMXMXAXZXCXCXCXCXCXCXCXCXCXCXCXCXCXCXCXCXMXMXCX*X. @ J.`.XX XoX[.i @ T SXSX`   %.ZXCXZXlXs   #XCXZXCX",
"AX3X  + J v.M.S.D.D.n.s.b   5 & O x uXMXMXCXZXBXCXCXCXCXCXCXCXCXCXCXCXCXCXCXCXCXCXMXlXj O L I.[.XXoX'.I   O +XAXiX3   >XZXCXCXnX}   } nXZXZX",
"ZXxX>.@ - l.G.n.C.V.S.l.4   2.<.9   T tXMXCXSXCXCXCXCXCXCXCXCXCXCXCXCXCXCXCXCXCXCXvX=X* @ J.].XX}.^.i . + q.zXMX2X  2 eXZXCXSXCX+X  s lXCXCX",
"cXCXiXt X S D.Z.v.Z.Z.l.. @ 7.9.3.5 O >.bXMXAXBXCXCXCXCXCXCXCXCXCXCXCXCXCXCXCXCXmXSX .. i U.|.{.) y . - W.zXMXBX+X  l lXCXZXCXZX4X  2 eXCXCX",
"cXMXNXH.. 5 r.D.S.S.N.D ; 5 0.k.k.m   T kXZXAXMXCXCXCXCXCXZXZXZXCXCXCXCXCXCXCXCXSXpX&   E K.( r ; o   ] vXAXcXvX|   ' CXCXSXCXZXpX2 o <XZXZX",
"AXCXBXdX] ; e i.7.J m $ X N d.d.d.<.. k nXZXCXCXCXCXCXCXCXCXCXZXCXCXCXCXCXCXCXCXZXuXj . @ X X . .   . 2XBXZXCXSXZ   :.CXnXCXmXCXlXs   #XAXZX",
"AXCXAXmX2X#   # X : O @ N y.g.f.h.D X k AXnXZXCXCXCXCXCXAXAXCXZXMXZXAXCXBXMXAXMXMXMX:X1   . * 4 O # ] DXZXCXZXlXd   %XZXCXZXZXZXZX}   | CXCX",
"CXCXSXZXCX|     o 6 V 2.s.f.d.f.4.$ O | nXCXAXBXCXCXZXCXCXZXZXCXCXCXBXZXCXCXCXnXAXnX:.  @ p R Y   # <XCXZXCXCXeX2   2XCXZXZXCXMXZX%.  ] ZXCX",
"ZXAXCXZXZXiX3 # m p.a.d.a.g.d.2.& O : f 7XMXMXZXnXCXZXkXeX2X,X&X>X3XiXkXAXAXCXCXCXiX- . h / ~ %   ] bXCXZXCXCXwX# 2 wXCXZXCXCXCXCX+X  l lXCX",
"ZXZXAXZXZXCX@X    1.d.g.g.g.6.*   p @   Q iXvXBXbX,X:.z # #       @ # l =.4XDXAXCXW.# X l ~ Y   @ <XCXZXCXCXCXlX:.+XSXCXZXCXSXZXCX>X  3 jXCX",
"CXCXSXCXCXZXkX' O , D u.t.2.$ . g 6X@X- O T 9X5X] >     # > @     2     X X } ,X7X8 @ u / ^ 1   ` kXCXCXCXCXCXCXZXSXCXbXZXCXCXCXCX3X  > tXZX",
"MXCXZXCXSXCXZXgX .    % 6     . O.iXiX..  O 2 .   # x +.&X:X .  l ~.%.Z u     2 2 o + p ^ k . $ >XZXCXAXCXCXCXCXCXCXZXCXCXCXCXZXCXtX2   7XZX",
"CXCXCXAXCXAXZXZXdX} * o O # 4 X * W._.t O X   ,   h 0XuXhXpX[   z ;X5X>X+Xs   $ @ O   . s # O R xXZXCXnXCXCXCXZXCXCXZXCXZXZXCXCXZXgX3   ,XZX",
"CXNXAXCXCXnXCXmXBXbX7X2X2X1XwX[ O % %   7 2.4.m @ , *XqX*XO.d   4 ' >.*X>.. $ B 4.3.q   O X X <XCXCXZXCXCXZXCXCXCXZXCXCXZXCXZXCXZXlXd   %XZX",
"CXCXCXCXZXMXCXCXCXZXZXMXZXZXZXiXA O + * r.b.x.s.q X u t O     O . +   4 = X q s.n.x.r.& X ; z hXAXBXZXAXCXMXZXAXMXCXAXCXAXMXZXCXCXlXl   +XCX",
"ZXZXCXCXZXCXZXCXCXCXCXCXAXZXSXCXsXQ   7 B.b.A.S.G * ;   r y i L i r r O # o D D.b.S.c.7 . + <XMXZXSXZXNXCXAXBXAXBXAXAXMXBXCXCXMXnXbX~ . :.ZX",
"MXCXCXZXCXCXCXCXBXAXCXZXCXAXCXCXNX-.O 6 l.v.N.B.S   , U ) P.!.I.I.U.K.L >   N D.S.A.u.8 O f lXZXCXCXZXAXZXAXmXCXBXCXCXMXMXNXCXBXCXCX` # $.CX",
"CXSXZXCXCXnXCXCXZXZXZXAXCXlX3X+X{ # @   S e.l.J   X E ].'.[.[.[.].{.!.!.E , % F l.e.S     e sXNXcXCXNXNXAXFXpXyXsXfXvXMXCXAXAXCXCXZX&.  %.CX",
"AXAXCXZXZXZXZXSXCXjX8X@X .8 #     O : O > . %   @   I ].XX.X.X.XXXOX}.'.I       * % O , o + ;.ZXZXCXCXCX&Xd u t t d o.*XaXzXZXCXNXCXiX&XpXZX",
"MXCXZXNXZXjX4X*X' 8 #   X #   @ ,   [ W.3 X @ : - $ O ( U.J.L i L J.U.( O + 4   @   3 } x O l zXZXNXmX$X2   .           3 z w.5XlXZXZXBXCXCX",
"AX>X| } ` 0 #   @   @ # 4 u k k   O ;XhX+X.   Y / u .   =   +     O r     u A Y .   %.-X*.@ - 7XMXcX,Xy , b 3.4.4.N       . X * s | >XpXbXZX",
"@X#   O   #   #   @ 4 ~ ^ ^ X.p . w 1XuX|   4 +.{ Y u     % N <.H .     u x _ +.4 X z <X~.4   ~ W.=.w   b 8.9.9.0.m < 5 3.V q X   # . 2 } eX",
",   r P L L r @       t X.R.#.k   ` uXeXs   Y E.R.X.1 :   * 8.m.e.5   X 4 X.>.T.k @ 3 %X;Xs   . . X   X V 9.a.a.3.: > 2.f.g.p.7.G n & ;   e ",
". # ! `.!.U.I.P.( i O   p (.-.u   x %X#X2   { T.E.X.  + H 6.D.Z.n.6.H X @ +.T.T.[ O > &.-.x   o Z h 2 . D j.j.0.q   M V.M.c.x.d.a.p.t.D . @ ",
"X   L.|.]. X|.!.].U.i # 4 #.E.t     @ @   @ +.T.).X.  6 u.A.C.Z.A.S.i.% O _ )./.X.@           l 3XrXj   D x.f.p.-   r.D.A.v.v.N.n.n.x.7.%   ",
"O , P.oX.XXXXXXX XI.L   t E.#.i   O >       X./.T.X.@ % l.D.v.b.N.F.l.-   _ ).E.{ @   * #   O l 3X4Xh O D d.g.p.$ * 6.S.Z.S.C.C.M.F.n.7.&   ",
"X   L..X.XXX|.`.L.L     k /.E.d   T 1X&X3   ^ E./.#.@   M G n.Z.c.F M o X #.T.E.[ O # =.;.j   O f d @ ; D x.j.s.M   q l.b.D.Z.b.A.z.e.F   O ",
"4 $ r I I i 1 @ . . o x #./.#.x   T uXrXs   Y (.(.R.p   O - u.A.u.o   . h R./.T.Y   d &X%Xd   # X   X   <.d.f.f.7.& O S V.N.z.7.F q % X   ' ",
"=X-   X O       +   x +.R./.)./   t 1XuX$.@ 1 @.).@.h     X M F N o     W Q.T.#.4   ' %X@X2    .*X@Xc + 7 8.j.j.d.3.*   S N 6   . + . f $.pX",
"ZX3X%.O.>.x % @   @ O 1 u Y _ [ o @ *XhX;.@   / #.k . X 4   X ,   @ r X . g R.~ X . | >X+.# o wXAXMX7Xy @ 7 1.1.2.V % @   X   2 A -.4XlXAXMX",
"nXCXZXZXCXbXeX>X$.z 2       #   ;   ] %.> ; + X - O   ( '.L.P i I Y.'.(   O 1 +   + 4 ' x   x vXAXAXCX,X2 O   . @     # d } *XrXkXCXSXCXCXZX",
"CXCXZXCXAXZXZXZXAXlXaX>X%.c 4     O       % 6 ;     ( |.oXXXXXoXXXoX.X}.) O   $ - -       + H.AXAXAXMXZX2X] d d d z %.,XgXmXZXMXCXCXeX;.eXCX",
"mXCXCXCXZXZXCXCXCXCXCXnXCXbXeX%X..8 $   V 8.y.1.$   L.}..XXXoX XXX.XXXXX) X & F y.8.V +   g fXNXmXCXZXMXAXlXkXlXfXxXZXCXCXZXZXZXZXbX$.  %.CX",
"CXCXCXCXCXCXCXSXCXCXCXZXCXCXAXZXAXQ.  5 i.N.b.N.S   : I I.|.[.XX{.[.!.P 2   m V.Z.v.i.9   g jXnXZXCXZXnXZXZXMXmXZXZXMXnXZXCXCXZXCXZX'   &.CX",
"CXMXNXCXCXSXZXZXZXZXZXCXZXSXCXCXeXx @ q c.A.F.v.F   + # @ r a P P y O . O O 1.M.C.F.c.q @ X ;XBXCXkXCXCXSXCXvXZXZXCXMXZXZXZXZXMXCXbXz   ;.SX",
"CXCXCXCXCXZXCXCXCXZXCXZXZXCXZXaXk     . e.A.Z.z.q . h d @           * v 0   7 c.D.b.7.5   O f lXZXCXCXSXAXZXZXZXCXMXnXZXZXZXCXCXCXbXs   #XCX",
"AXCXZXmXAXCXCXZXbXlX>X%X&X>X5Xx + 4 w . 6 F J q   r &XeX:XQ.d   0 +.:.%X=.%   f 5.G 6 ; . o X %XCXZXCXAXCXNXZXCXCXCXCXZXZXZXCXCXCXlXd   %XCX",
"CXCXAXCXCXnXCXCXpX`       X # X - _.&X0   < . X   j 4XuXdXpX .  x -X>X%X+Xp .   .   @ = k 1   j kXmXCXCXZXCXCXAXCXCXCXZXZXCXCXCXCXpX2 # -XCX",
"BXCXMXZXNXCXAXeXx O $ 9 9 + O   O.yXiX{ @   d #     d ] ~.;X`   s ;.| l 3     2 u   @ p ^ p > O &XCXAXCXZXSXCXCXZXCXCXCXCXZXZXZXCXeX# + 3XCX",
"nXMXZXCXBXAXjX`   % <.0.9.4.& $ w ;X:.<   ` aXaX| # @ >   @   @ X         2 | 3XtXg   4 ~ ^ > @ z kXCXCXZXZXZXZXCXkXCXbXZXZXCXZXMX4X@ 2 iXCX",
"MXnXCXCXZXnX=.O $ 4.9.9.a.a.5.8 O 2     Q aXNXAXbXeX+Xx d t     # # d ` ;.iXSXCXZXq.; < T ^ k     %XCXZXCXZXCXjX] &.kXCXCXCXCXZXCX>X  3 jXCX",
"NXCXMXmXZXaX1 @ n 8.0.a.h.f.d.7.& X X l gXMXMXCXCXCXAXZXpXeX4X2X4XrXpXZXCXZXCXCXmXlX8 O t ~ ~ 4   z kXCXCXCXCX3X  2 eXZXCXSXCXMXCX+X  s kXCX",
"CXAXNXCXBX} .   O & n 3.8.m.s.x.7.5 ; } cXAXBXAXAXNXnXCXCXCXCXAXAXCXbXZXCXSXMXZXCXSX#XX   u A h   # >XCXCXCXCXeX2   ,XCXCXCXCXCXAX$.  ] SXZX",
"BXBXNXMX-X  $ * %     ; M 0.d.f.j.V . ` kXMXMXNXCXCXZXCXZXZXAXAXNXZXCXCXAXCXCXCXNXCX:Xo .   @ t     z kXAXCXCXkXs   %XCXZXZXZXCXZX]   %.nXCX",
"BXcXcXhXR O n i.8.2.N * O V d.d.g.<.  l NXZXmXAXSXCXCXZXZXCXCXCXCXZXCXCXAXCXMXnXAXuXd X ; 1   $       ,XCXZXCXkXz   :.ZXZXCXCXCXlXf   $XZXCX",
"AXCXAXW.@ % 7.h.d.x.a.D : $ t.g.s.N   T DXMXcXZXCXZXZXZXMXCXCXCXCXCXCXCXCXCXAXCXZXyX& ; E L.( r   #   z xXNXCXZX$.  ' bXCXZXZXCXpX3   ,XCXCX",
"ZXcXrX- O V f.x.D.M.x.u.& < 7.d.G % ; >.SXMXMXAXCXCXCXCXCXCXCXCXCXCXCXCXCXCXCXCXCXvX{ . i !.!.U.( 1     -.xXnXZX*X  d bXCXZXCXZX,X# # iXCXCX",
"NXnX .O 6 t.m.N.D.Z.M.z.-   D 2.5   ] jXCXBXmXCXCXCXCXCXCXCXCXCXCXCXCXCXCXCXCXCXBXAX5X. : P.|.[.!.K.i O   >.kXmX,X  2 wXCXCXZXCX+X  s lXZXCX",
"AX<Xo @ 2.f.b.b.n.S.S.z.q X &     [ jXcXMXAXBXAXCXCXCXCXCXCXCXCXCXCXCXCXCXCXCXCXAXNXxXz X L oX.XXX|.P.U @   ;.BXpX3   -XZXSXZXSX}   | ZXZXCX",
"pXj X q s.x.A.b.S.Z.D.u.7 ; ; = >.lXmXMXCXCXZXMXCXCXCXCXCXCXCXCXCXCXCXCXCXCXCXCXAXAXBX=X  1 P.XXXX|.[.U.i   j nXSX'   $.CXZXCXpXd   #XZXCXZX",
"-.  < 7.x.v.n.S.D.z.J 6   X K 5XnXMXBXCXNXAXMXZXCXCXCXCXCXCXCXCXCXCXCXCXCXCXCXCXMXAXZXlXZ . i '.oXXX|.'.a   Q xXAXq.  s kXZXSX2X  2 wXCXCXZX",
"% @ C x.f.A.S.S.7.n   @ e $XzXZXMXMXZXCXnXAXAXCXCXCXCXCXCXCXCXCXCXCXCXCXCXCXCXCXmXAXNXMX3X2   U '.oX X( :   ;.BXCX3X#   3XnXZX%.  x kXCXCXCX",
"2 , n t.F.F.e.N =   = &.yXAXMXmXAXMXCXBXCXZXAXAXCXCXCXCXCXCXCXCXCXCXCXCXCXCXCXCXMXAXNXmXAX@X%   I ^.( $ + @.bXBXCXbXl X } ZXpXd   +XAXZXZXZX",
"#X#   m e.1.7 @   ` ,XNXAXZXCXBXCXMXZXBXMXMXAXAXCXCXCXCXCXCXCXCXCXCXCXCXCXCXCXCXZXBXZXAXBXnXW.X . : O $ %.zXMXvXAXZX&X  4 <X:.  3 iXCXZXMXZX",
"NX*XX   2     w *XjXZXSXZXZXSXCXCXCXCXCXCXCXCXCXCXCXCXCXCXCXCXCXCXCXCXCXCXCXCXCXCXZXCXCXZXCXDX;.#   @ *.lXAXbXZXZXMXkXl   2   # +XCXZXZXCXCX",
"CXMX$X4   2 %.tXZXZXZXZXCXCXCXCXCXCXCXCXCXCXCXCXCXCXCXCXCXCXCXCXCXCXCXCXCXCXCXCXCXCXCXZXAXSXCXxXeX,XqXxXSXmXZXZXCXZXZXwXs   # | lXNXCXZXZXZX",
"ZXSXMX8X%X3XnXZXCXZXCXCXZXMXCXCXCXCXCXCXCXCXCXCXCXCXCXCXCXCXCXCXCXCXCXCXCXCXCXCXZXCXSXZXCXAXAXCXMXZXZXCXMXbXnXCXSXCXCXCXpX&X>XbXCXbXCXZXCXSX",
"CXAXCXSXnXCXZXMXZXCXCXCXZXCXCXCXCXCXCXCXCXCXCXCXCXCXCXCXCXCXCXCXCXCXCXCXCXCXCXCXZXCXZXZXAXMXZXZXMXAXbXnXCXCXCXCXCXZXCXCXCXCXCXCXnXCXCXZXCXZX",
"nXMXZXZXZXZXZXZXZXCXZXnXCXCXZXCXCXCXCXCXCXCXCXCXCXCXCXCXCXCXCXCXCXCXCXCXCXCXCXCXCXnXCXCXZXZXCXCXZXZXZXCXZXNXCXSXZXZXZXnXSXCXCXCXCXCXnXCXCXZX",
"ZXZXAXNXCXCXZXnXZXZXCXCXCXCXCXCXCXCXCXCXCXCXCXCXCXCXCXCXCXCXCXCXCXCXCXCXCXCXCXCXCXCXCXAXAXAXSXAXMXZXZXCXCXZXCXCXCXZXCXZXZXZXCXCXCXSXCXCXCXCX"
};
