/* XPM */
static char *_0a32e9ca6db45f0bc29f2950cab7c0esC9PYgqC3KGAdMnS[] = {
/* columns rows colors chars-per-pixel */
"70 70 237 2 ",
"   c #020202",
".  c #0A0201",
"X  c #030A02",
"o  c #0B0A02",
"O  c #01030B",
"+  c #0C030B",
"@  c #040A0B",
"#  c #0B0B0B",
"$  c #120402",
"%  c #140B02",
"&  c #1C0B01",
"*  c #160907",
"=  c #0C120B",
"-  c #171409",
";  c #020312",
":  c #080B14",
">  c #140A15",
",  c #091518",
"<  c #131313",
"1  c #1B1B1B",
"2  c #161818",
"3  c #220901",
"4  c #241202",
"5  c #2B1602",
"6  c #381C03",
"7  c #251A19",
"8  c #1C2819",
"9  c #0D231C",
"0  c #372604",
"q  c #2A2817",
"w  c #041624",
"e  c #181823",
"r  c #000628",
"t  c #221B26",
"y  c #00222C",
"u  c #1A2527",
"i  c #022A3B",
"p  c #03253A",
"a  c #1D2B34",
"s  c #232324",
"d  c #2C2C2C",
"f  c #252926",
"g  c #32352A",
"h  c #2B2D33",
"j  c #292B3A",
"k  c #2C3233",
"l  c #2A363B",
"z  c #343434",
"x  c #3B3B3B",
"c  c #363838",
"v  c #2E3030",
"b  c #411B00",
"n  c #472903",
"m  c #542A04",
"M  c #4B3601",
"N  c #5A3803",
"B  c #4C3413",
"V  c #643A01",
"C  c #653803",
"Z  c #713502",
"A  c #41393A",
"S  c #3C4339",
"D  c #574003",
"F  c #484208",
"G  c #774805",
"H  c #6A5402",
"J  c #785904",
"K  c #684F0B",
"L  c #474233",
"P  c #7C6B01",
"I  c #022946",
"U  c #023548",
"Y  c #033757",
"T  c #2A3542",
"R  c #393D46",
"E  c #013E62",
"W  c #453D42",
"Q  c #034457",
"!  c #37454A",
"~  c #394B55",
"^  c #354A55",
"/  c #034A68",
"(  c #025278",
")  c #444444",
"_  c #4B4A4B",
"`  c #44474D",
"'  c #434B57",
"]  c #495658",
"[  c #525252",
"{  c #5C5C5C",
"}  c #54585A",
"|  c #52524D",
" . c #5D6159",
".. c #65635E",
"X. c #455864",
"o. c #505163",
"O. c #586468",
"+. c #556875",
"@. c #59727C",
"#. c #4B667A",
"$. c #646464",
"%. c #6C6D6C",
"&. c #686767",
"*. c #737373",
"=. c #7B7B7B",
"-. c #767679",
";. c #6B7073",
":. c #615A52",
">. c #884901",
",. c #875505",
"<. c #965702",
"1. c #8F4C08",
"2. c #A75607",
"3. c #876504",
"4. c #956D08",
"5. c #AC6903",
"6. c #B17405",
"7. c #8C6C21",
"8. c #C87600",
"9. c #D17005",
"0. c #F57B02",
"q. c #E37B03",
"w. c #817F7A",
"e. c #AB8304",
"r. c #B58E11",
"t. c #AE9300",
"y. c #CA8506",
"u. c #D88405",
"i. c #CB9A07",
"p. c #D59A02",
"a. c #CA9315",
"s. c #E58903",
"d. c #FB8802",
"f. c #EA9802",
"g. c #FD9502",
"h. c #FD9A01",
"j. c #FE9B0B",
"k. c #F69707",
"l. c #EB9013",
"z. c #D6A905",
"x. c #D1A806",
"c. c #FEA103",
"v. c #FEAA01",
"b. c #FAAB09",
"n. c #E9B405",
"m. c #FEBC02",
"M. c #FEBD0C",
"N. c #F9B805",
"B. c #FBBA14",
"V. c #EDAC11",
"C. c #FDC403",
"Z. c #FEC30B",
"A. c #FAC707",
"S. c #FDC313",
"D. c #FFCC10",
"F. c #ECC305",
"G. c #84867C",
"H. c #035887",
"J. c #046799",
"K. c #09638F",
"L. c #026BA9",
"P. c #0479B8",
"I. c #0874AD",
"U. c #5A7A88",
"Y. c #5D7B94",
"T. c #647C87",
"R. c #7B7C83",
"E. c #0479C3",
"W. c #0287B9",
"Q. c #5C8289",
"!. c #628289",
"~. c #7C8488",
"^. c #668196",
"/. c #0586C7",
"(. c #0491CC",
"). c #0288D5",
"_. c #0495D8",
"`. c #0499E6",
"'. c #068DE3",
"]. c #02AAEF",
"[. c #07A6EA",
"{. c #02A5F2",
"}. c #03AAF4",
"|. c #04ACFD",
" X c #0BA7F7",
".X c #02B1FC",
"XX c #17A8E1",
"oX c #848484",
"OX c #8B8B8A",
"+X c #868B88",
"@X c #8D8D93",
"#X c #9C9C9C",
"$X c #969796",
"%X c #8F9190",
"&X c #A3A19E",
"*X c #979DA2",
"=X c #A39CA5",
"-X c #9EA3A5",
";X c #A3A4A3",
":X c #ACABAB",
">X c #A7A8A9",
",X c #ADB4BA",
"<X c #B4B4B4",
"1X c #BCBCBB",
"2X c #B8B5B8",
"3X c #AFACB2",
"4X c #C8C2BB",
"5X c #BEBEC3",
"6X c #C3BED2",
"7X c #B7C3C9",
"8X c #C3C3C3",
"9X c #CDCDCD",
"0X c #C6C8CA",
"qX c #D3CED3",
"wX c #D3D3D3",
"eX c #DCDCDC",
"rX c #D4D8DA",
"tX c #D1D3CF",
"yX c #E1D8D7",
"uX c #E5E4DD",
"iX c #D9D9E5",
"pX c #DBE5EA",
"aX c #E4E4E4",
"sX c #ECECEC",
"dX c #E6E8E7",
"fX c #F1EBEC",
"gX c #F8F8EE",
"hX c #F5EEF4",
"jX c #EBF6F9",
"kX c #F4F4F4",
"lX c #FDFEF5",
"zX c #FBF5FE",
"xX c #F5FEFE",
"cX c #FEFEFE",
"vX c #F6F8F7",
"bX c #E9EDEE",
"nX c #E2DDE3",
/* pixels */
"lXxXxXlXcXvX@X< o -.iXcXcXxXxXcXcXcXcXcXcXcXcXcXcXcXcXcXcXcXcX#X=     .   : OXlXcXcXcXcXcXcXcXcXcXcXcXcXcXxXlXcXlXcXcXsXT.- - R.kXcXcXcXcXcX",
"lXcXcXzXxX%Xo ; X   z >XkXcXlXlXxXcXcXcXcXzXcXcXcXcXcXcXcXcX2X2 .   :       # >XcXcXcXcXcXcXcXcXcXcXcXcXcXcXcXcXcXvX2XA .     : =.vXcXcXcXvX",
"cXcXlXcXOXX . n C $   o | 9XlXcXcXzXcXcXcXcXcXcXcXcXcXcXcXlX%.  , K.J.K./ w   [ cXcXcXcXcXcXcXcXcXvXxXcXlXcXcXcXqXO.X X $ N m   . w.kXcXcXcX",
"zXcXvX8X=   m i.j.6.n O . 2 -.pXcXcXcXcXcXcXxXlXcXcXcXcXcXcX$.+ Y }..X_./.U O [ vXcXcXcXcXcXcXcXcXcXxXlXlXcXdXG.7   @ 0 6.f.l.m   X <XcXcXcX",
"cXlXcX$XO % r.C.v.h.f.<.5 O   z &XvXcXcXcXcXcXcXcXcXcXcXcXcXO.  U [.}._.E.I O ` vXcXcXcXcXcXcXcXlXcXcXlXlX3XR     4 3.n.A.b.j.u.-   w.cXcXcX",
"lXlXzX4X, . P A.Z.m.h.j.8.G %   @ | 0XvXcXcXvXcXcXvXcXcXcXsXc . p ].}.'.P.I o 8 dXcXcXcXcXcXcXcXvXcXzXtX{ > O o D i.C.N.M.m.c.<.  < :XcXcXcX",
"cXcXlXvX$.  4 i.C.C.Z.M.h.k.6.n     < *.dXcXcXcXcXcXcXvXcXrX#   w `.}.'.P.y   % 2XcXcXcXcXcXcXcXcXsXOX1   . n r.F.S.N.S.S.c.8.0   _ vXcXcXcX",
"cXcXcXcXtXs . D B.Z.m.M.N.b.b.q.-   .   ) qXcXcXcXcXcXcXcX#X+   @ /. X).K.@ : O +XcXcXcXcXcXxXcXaX_   @ O . r.A.m.C.C.N.m.j.Z O 1 8XcXcXcXcX",
"cXcXcXcXcX%X  + e.F.C.m.S.S.k.9.*   n $   x wXcXcXcXcXcXcX$.@     (  X)./   .   [ cXcXcXcXcXcXnX`   . M o   r.m.Z.F.Z.Z.j.8.@   -.vXcXcXcXcX",
"cXcXcXcXcXdX)   0 z.A.C.F.M.c.<.O 3 9.1.$   A uXcXcXcXcXdXx       p I.I.p   X   f iXcXcXcXcXvX[   O ,.q.6 O J Z.m.B.Z.v.f.m . v eXcXcXcXcXcX",
"cXcXcXcXvXcX<X#   P B.C.C.c.k.D   n q.0.1.$ O >XcXcXcXcXqX<   l # O i U   . 9 @ # 5XcXcXcXcX2Xo . G g.k.V O M B.Z.D.N.c.<.@ . =XcXcXcXcXvXcX",
"cXcXcXcXcXzXvX$.  5 a.V.V.p.>..   1.g.0.q.5   $XcXcXlXcX&X  : +.c     @ O 1 R @   +XcXcXcXvX<X@ & u.c.g.<.O . H i.z.f.9.6   | kXcXcXcXcXcXcX",
"cXcXcXcXcXcXcXwXq + 5 0 = $ O X n u.g.d.q.5   $XcXcXcXcX&.  u U.U.u 1 , j ~ ~ <   [ vXcXcXcX<X  4 u.h.g.l.N   @ o % b 5   < 7XzXcXcXcXcXcXcX",
"cXcXcXcXcXcXcXcX+X        . * N s.j.j.l.2.o   -XcXlXcXsXc   T T.U.T.T.U.U.U.^ a   s aXcXvXcX1X+ X <.h.h.g.s.V 3 X O   ;   -.lXlXcXcXvXcXcXcX",
"cXcXcXcXcXlXcXxXbXS . % >.8.y.d.h.g.g.4.& O * 3XcXcXcX9X< @ ] ^.Q.U.@.^.T.@.X.k   # 1XcXcXcX8X1   o 4.k.g.j.k.s.5.1.3   h yXcXxXcXcXcXcXcXcX",
"cXcXcXcXcXcXcXcXcX<X:   J g.h.j.g.j.5.4 . O O c 9XcXcX&X  @ ~ ^ T u e w u h a k @ . +XcXcXrX)     $ * <.g.g.g.g.0.>.%   #XcXcXcXcXcXcXcXcXcX",
"cXcXcXcXcXcXcXcXcXcX$.  $ ,.l.c.k.6.& O s $.- O l tXlX&.    @ .                 O   [ cXeXS X * ..f   & <.k.j.0.1.* ; ' kXcXcXcXcXcXcXcXcXcX",
"cXcXcXcXcXcXcXcXlXcXaX`   * N >.G 4   < #XwXoX> . h -.7 ;   X , c x O   c R u O     > *.R . X -.rX>Xe O & G G Z & . c wXxXlXcXlXcXcXcXcXcXcX",
"cXcXcXcXcXcXcXcXcXvXcXdX`   X     O   . =.tX$X1   O   .   ! OX5XrX,X: X -XrX,X*X_ @ .       # +XqXOX= O       O O R qXlXzXcXcXlXcXcXcXcXcXcX",
"cXcXcXcXcXcXcXcXxXcXlXlXeX%.z z R | k . # } 8   $ 0 4 .   %.pXrX7X$X@ . +X0XrXpXR.O O * 0 $ O 1  .-   g { l z A @.wXlXlXcXcXcXcXcXcXcXcXcXcX",
"cXcXcXcXcXcXcXcXcXcXlXcXcXcXhXzXbXlXeXA   @ O 4 e.n.a.C   = ~.O.k 1     # d { oXu   M x.V.6.5       z 0XlXzXkXfXkXlXcXcXcXcXcXcXcXcXcXcXcXcX",
"cXcXcXcXcXcXcXcXzXcXcXcXzXxXcXcXcXcXcXrXS   O J M.Z.S.8.& @     O   . O       @ X . r.C.m.B.<.    h qXcXcXzXcXcXlXcXcXcXxXgXlXcXcXcXcXcXcXcX",
"cXcXcXcXcXcXcXcXcXcXcXvXvXcXgXcXcXzXlXcX9Xs . 3.N.S.M.s.- O   < T ~ X.X.~ ! ,   O - i.C.A.b.5.  2 8XcXxXcXlXcXxXcXzXzXcXcXgXlXcXcXcXcXcXcXcX",
"cXcXcXcXcXcXcXcXcXcXcXcXcXcXcXcXcXcXcXzX8X, X 0 n.m.n.<.O   ! @.!.!.Q.Q.T.!.O.l   X J B.N.p.m   + :XlXcXcXcXcXcXcXlXlXlXcXcXcXxXcXcXcXcXcXcX",
"cXcXcXcXcXcXcXcXcXcXcXcXcXcXcXcXxXcXcXkX{ O   . 0 H N *   - #.Q.!.T.Y.^.Q.U.~ ! = .   F H n ;     ! kXvXcXcXcXcXcXcXcXcXcXcXcXcXcXcXcXcXcXcX",
"cXcXcXcXcXcXcXcXcXcXcXcXcXcXcXcXcXzXcX9X<   z :             T U.U.#.X.] X.X.! u +   X   .   # k   < 2XcXcXcXcXxXcXcXcXcXcXcXcXcXcXcXcXcXcXcX",
"cXcXcXcXcXcXcXcXcXcXcXcXcXcXcXcXcXzXcXoX  u ,X*Xj   : H./   . a 8 ,     + , 1 + . Y / r O 2 %X7Xh   *.cXcXlXcXcXcXcXcXcXcXcXcXcXcXcXcXcXcXcX",
"cXcXcXcXcXcXcXcXcXcXcXcXcXcXcXcXcXcXvX) O ` rX0Xf   Q ].[./       O * - .       Q ).E.Y . u 7XrXO.  c sXcXcXcXcXcXcXcXcXcXcXcXcXcXcXcXcXcXcX",
"cXcXcXcXcXcXcXcXcXcXcXcXcXcXcXcXcXcXeX1   oXpX*X= O P.}.|.(., O   M p.z.D     # W.}./.H.@   @XiX$X@ < 9XcXcXcXcXcXcXcXcXcXcXcXcXcXcXcXcXcXcX",
"cXcXcXcXcXcXcXcXcXcXcXcXcXcXcXcXcXcX9X2 @ *XrX~.  w _.}.].J.  X = ,.Z.Z.7.*     H.]._.L.w   %.iX;X< . <XcXcXcXcXcXcXcXcXcXcXcXcXcXcXcXcXcXcX",
"cXcXcXcXcXcXcXcXcXcXcXcXcXcXcXcXcXcX1X  O x [ f   i _..X.Xi + M i.n.C.F.A.y.V   i {.'.E.i . e } _     ;XcXcXcXxXcXcXcXcXcXcXcXcXcXcXcXcXcXcX",
"cXcXcXcXcXcXcXcXcXcXcXcXcXcXcXcXcXcX<X  .         U  X}.}.I O H A.C.N.Z.m.b.>.O y {._.E.I @           #XcXvXcXcXcXcXcXcXcXcXcXcXcXcXcXcXcXcX",
"cXcXcXcXcXcXcXcXcXcXcXcXcXcXcXcXlXcX<X. @ d c 1   I [.}.}.Y O M p.n.M.Z.N.y.D @ p }.).E.I . 1 z z .   ;XcXcXcXcXcXcXcXcXcXcXcXcXcXcXcXcXcXcX",
"cXcXcXcXcXcXcXcXcXcXcXcXcXcXcXcXxXxXtX#   -.;X{   w (.].|.J.  X o J D.A.4.%   O H.}._.I.w   ' ;X=.# # <XcXcXcXcXcXcXcXcXcXcXcXcXcXcXcXcXcXcX",
"cXcXcXcXcXcXcXcXcXcXcXcXcXcXcXcXcXlXnXs   { >X-.@ @ P.|.]./.,   O M i.x.D     > W.[.E.J.,   $.>X*.  < tXcXcXcXcXcXcXcXcXcXcXcXcXcXcXcXcXcXcX",
"cXcXcXcXcXcXcXcXcXcXcXcXcXcXcXcXcXzXvX)   c #X$Xs   Y |.[./ .     . o - .       Q (.E.Y   , $X#X!   d kXcXvXcXcXcXcXcXcXcXcXcXcXcXcXcXcXcXcX",
"cXcXcXcXcXcXcXcXcXcXcXcXcXcXcXcXcXcXcXoX  7 R.*.7 O # ( / O . a j     O X , t O   Y / @   2 &.OX7 . *.zXcXcXcXcXcXcXcXcXcXcXcXcXcXcXcXcXcXcX",
"cXcXcXcXcXcXcXcXcXcXcXcXcXcXcXcXcXcXzX9X#   d #   O .       j T.Y.+.X.' +.' T 8   .     .   > 8   @ 2XcXxXcXcXcXcXcXcXcXcXcXcXcXcXcXcXcXcXcX",
"cXcXcXcXcXcXcXcXcXcXcXcXcXcXcXcXcXcXcXvX{   . . 0 J N $   , @.@.U.Q.Q.!.!.@.] ^ <   . D K n O .   | kXcXcXcXvXcXcXcXcXcXcXcXcXcXcXcXcXcXcXcX",
"cXcXcXcXcXcXcXcXcXcXcXcXcXcXcXcXcXcXcXcX5X<   g z.N.B.J . O R U.T.T.^.Y.Q.U.+.l @   J B.Z.f.m   # >XxXcXlXcXcXcXcXcXcXcXcXcXcXcXcXcXcXcXcXcX",
"cXcXcXcXcXvXcXcXlXzXcXcXxXcXcXcXcXlXcXcXtXu $ 3.A.A.N.s.*   . e l ~ X.] ' l , @   $ i.C.N.N.2.X 2 1XcXcXcXcXcXxXxXcXzXcXcXlXcXcXcXcXcXcXcXcX",
"cXcXcXcXcXcXvXcXcXxXvXcXxXkX0XiXcXlXnXw.8 X   J A.D.m.y.&   X       @ @   @ X     o r.Z.A.b.1.  . 7 -.rXlXcXeXwXkXcXlXcXvXcXxXxXcXcXcXcXcXcX",
"cXcXcXvXcXcXcXcXcXxXcXfX3X{ < f -XOX1 . .   O 4 6.n.p.C O 2 { _ 7 <     # 7 A ..1   F i.n.e.6 O .   @ 1 *.;Xg % _ ;XsXcXcXvXcXlXcXcXcXcXcXvX",
"cXcXvXcXcXcXcXcXxXdX&Xc o   . . @     : 2 u = @ > 6 4   O _ >X$X$X*.#   $.#X&X&X:.O ; 5 6 %   . a u .     : O O   # z @XdXcXzXlXcXcXcXvXcXcX",
"cXcXcXcXcXcXcXcX2XA o   @ p Y :     u l ~ ~ k         X X z $.@X$XG.#   *.#XOX%.c .     +     v ^ ! l u ;   O Y p O . . d ,XxXcXcXvXcXcXcXcX",
"cXcXcXzXcXcXvX+X<   @ Y J./.J.:   u ^ ~ ^ a 2 +   ; f f . O + > d v     h d 2 @   O 7 g O O   , h ^ ! ^ a   : H.I.H.I ;   . R.bXcXcXcXcXcXcX",
"cXlXcXcXcXkX=.#   I J.[.}.E.E   # z ! k 2 O X   z $XuXuXG.! *                 # c G.yXfX=XS X   . , l ! R *   / `.).E.H.y   . %.dXcXcXcXvXcX",
"cXcXcXcXkX=.O   U (.|.[.`.L.w   e k w   . O z $XdXlXzXxXcXsX4Xo.  @ z v # . ) 1XfXxXlXzXxXbX;XW $     = T 1   w _.[.{./.J.I @ . %.sXcXcXcXcX",
"cXcXvXcX0X< . Y _..X|.[./.E ; O +     . c #XsXcXcXcXzXcXcXxXcX$X. s 1X8XA   -.cXcXcXcXcXcXcXcXsX>X) @     o     ( XX}.{.E.L.Y     3XlXcXcXzX",
"zXcXgXlX:X  : W.|.]. X'.K., O     @ x #XsXxXvXcXxXvXcXcXxXcXlXG.  d 1X0Xk   *.lXcXcXcXcXcXcXcXcXxXvX:X) #     @ w W.}.}. X).J.: O $XcXcXcXcX",
"cXcXlXlX7XX O / `.[.`.I.p . . . x ;XsXcXcXcXcXcXxXcXcXcXcXcX<Xz     d v <   7 3XvXcXvXcXcXcXcXcXcXcXcXhX:X_ @     i (..X{._.Y ;   ;XcXvXcXcX",
"xXcXzXcXjX&.. . E /.L.I     ! ;XkXcXcXcXcXcXcXcXcXcXcXlXcX3X2 O   O         . r OXcXcXcXzXcXvXcXcXcXcXcXzXkX<X_ # . Y _. X/ +   { sXcXcXcXcX",
"cXcXlXcXzXdX&.+   i p +   ;.kXxXcXcXzXcXcXcXcXcXcXzXcXlX<X< O 5 >.G G >.Z Z 0 O 1 #XvXcXcXcXcXcXcXcXcXcXcXvXcXkX~.. . U Q     { aXcXcXcXcXcX",
"xXlXzXlXcXcXhXO.@     O &.kXlXlXcXcXcXcXlXcXcXcXzXxXxXgXW   n 6.h.c.h.c.j.0.9.b   d aXcXcXcXcXcXcXcXzXcXcXcXcXcXjXw.+       | aXcXvXcXcXcXcX",
"cXcXcXcXxXcXlXgX-.A z -.sXlXcXcXcXcXvXcXcXcXcXcXcXxXcXdXj   ,.c.j.k.k.j.j.d.0.<.  1 eXvXcXcXcXcXcXcXcXcXcXcXcXcXlXfXw.R R %.dXcXcXcXcXcXcXcX",
"zXcXxXcXcXcXxXlXxXvXzXcXxXcXvXjXdXtX8XiXcXcXcXcXcXcXlXuXf   ,.j.g.f.s.s.s.d.0.2.  1 rXcXcXcXcXcXcXcXsX8XwXdXkXcXxXcXcXgXgXvXcXcXcXcXcXcXcXcX",
"cXcXcXcXcXcXcXcXcXvXvXeX<XOX$.x s 2   _ vXcXcXcXcXlXcXuXu + <.h.5.n & & 0 ,.0.2.  < eXcXcXcXcXcXcXlX*.+ 2 s x { +X<XwXvXcXcXcXcXcXcXcXcXcXcX",
"cXvXcXcXcXvXcXsX2XoX) 1       @   @ < $.hXcXcXzXcXlXcXkXc . D <.3 . o X   # m N   d aXcXcXcXcXcXcXcXoX2             1 A %.1XsXvXcXcXcXcXcXcX",
"cXcXcXvXcXsX%Xx <       < s _ -.$X:X9XsXcXcXcXcXcXcXvXcX%.  % . O 0 4.4.M   . O   [ vXcXcXcXcXcXvXcXkX0X<X$X*.[ d <       O z OXdXvXcXcXcXcX",
"vXcXcXcX8Xc       d $.#X9XsXlXzXcXcXcXcXvXcXcXcXzXcXlXcX:X@ O O M x.A.D.B.<.3     %XcXcXcXcXcXcXcXcXcXcXcXcXcXcXdX9X;X%.z #   @ d 1XcXcXcXvX",
"cXcXcXeXd   # { 1XdXcXcXcXcXcXcXcXcXcXcXcXcXcXcXlXcXcXcXnXs   F B.A.m.M.B.h.<.X < 9XcXcXcXcXcXcXcXcXcXcXcXcXcXcXcXcXvXcXdX1X%.#   1 9XcXcXcX",
"cXcXcX#X  < >XzXvXcXcXvXcXcXcXcXcXcXcXvXcXcXcXcXlXcXcXzXxX|   N N.M.Z.A.v.h.V   x kXcXcXcXcXcXcXcXcXcXcXcXcXcXcXvXcXcXcXcXcXvX8X1   oXvXcXcX",
"cXcXcX;X. @ -.aXzXcXcXcXcXcXcXcXcXcXcXcXcXcXcXcXcXcXcXlXcX%X  4 z.C.Z.N.v.s.6   =.cXcXcXcXcXcXcXcXcXcXcXcXcXcXcXcXcXcXcXvXcXdXoX# @ OXcXcXcX",
"cXcXcXkX{ @   s %.:XaXvXcXcXcXcXcXcXcXcXcXcXcXcXcXcXcXcXxX0X2   6.M.A.Z.h.6.X + <XcXcXcXcXcXcXcXcXcXcXcXcXcXcXcXcXcXzXdX5X%.d     _ sXcXcXcX",
"cXcXcXcXsXoX1     . s [ oX:XrXdXlXcXcXcXcXcXcXcXcXcXcXcXcXkXx   H C.A.v.g.J O d aXcXcXcXcXcXcXcXcXcXcXcXcXvXsXeX<X+X[ f #   O 2 =.uXcXcXcXcX",
"cXcXcXcXvXcXeXw.z <         1 d ) &.+X#X<X9XeXdXsXkXvXvXcXcX%.@ 0 V.S.b.s.n    .lXcXcXzXvXsXdXnX9X1X=X+X%.[ d < O       + v =.9XkXcXcXcXcXcX",
"cXzXcXcXcXcXcXcXkX5X+X{ d : .           + # 2 7 d x _ $.8XlX1X+ % t.C.v.y.&   #XcXwX$.) x z s 1 # o           @ < s [ oX4XsXvXcXcXcXcXcXcXvX",
"cXcXcXxXcXcXcXcXcXcXcXvXsXtX3X%X$._ v 1 < @   @         oXcXaXd O K 6.5.G   1 iXcX#X  o         @ # 7 z ) $.+X>X9XdXcXcXcXcXcXcXvXcXcXzXcXcX",
"cXcXcXcXcXcXcXcXcXcXcXcXcXcXcXvXzXlXsXaXwX1X>X#X+X=.%.%.9XcXcX&.  . . .   X [ vXcXeX*.$.-.+X#X>X1X9XeXkXvXcXcXcXcXcXvXcXcXcXcXcXcXcXcXcXcXcX",
"cXcXcXvXcXcXcXcXcXcXcXcXcXcXcXcXcXcXcXcXcXcXcXcXcXvXcXcXcXcXcXeX)     X   g qXlXcXvXcXcXcXcXcXcXcXcXcXcXcXcXcXvXzXcXcXcXcXcXcXcXcXcXcXcXcXcX"
};
