/* XPM */
static char *result[] = {
/* columns rows colors chars-per-pixel */
"64 64 147 2 ",
"   c #010101",
".  c #080503",
"X  c #0C0A04",
"o  c #0D0C0A",
"O  c #110C05",
"+  c #110E0A",
"@  c #16120E",
"#  c #1D140B",
"$  c #0C0E10",
"%  c #161413",
"&  c #191612",
"*  c #1D1A15",
"=  c #1E1C1A",
"-  c #22160B",
";  c #271A0D",
":  c #2A1C0F",
">  c #221C15",
",  c #291D13",
"<  c #221E19",
"1  c #2E2115",
"2  c #25211C",
"3  c #29251F",
"4  c #342415",
"5  c #392817",
"6  c #32261C",
"7  c #33281F",
"8  c #1D2125",
"9  c #222123",
"0  c #2B2620",
"q  c #2C2822",
"w  c #21252A",
"e  c #24282D",
"r  c #332720",
"t  c #3D2F23",
"y  c #272C31",
"u  c #2A2F34",
"i  c #2B3136",
"p  c #2D353B",
"a  c #383637",
"s  c #30363C",
"d  c #31393E",
"f  c #53453D",
"g  c #5A4639",
"h  c #634C3E",
"j  c #75553A",
"k  c #7C593B",
"l  c #2F3A41",
"z  c #343C42",
"x  c #393E43",
"c  c #374047",
"v  c #3B4146",
"b  c #364048",
"n  c #3B444B",
"m  c #3F484F",
"M  c #3C4551",
"N  c #3E4952",
"B  c #41464B",
"V  c #444A4D",
"C  c #504A49",
"Z  c #434C53",
"A  c #494D52",
"S  c #424F59",
"D  c #465057",
"F  c #4C5156",
"G  c #46535E",
"H  c #4A545C",
"J  c #4F585D",
"K  c #50595F",
"L  c #6F5543",
"P  c #715645",
"I  c #775945",
"U  c #7C5C44",
"Y  c #72594A",
"T  c #625854",
"R  c #475660",
"E  c #495761",
"W  c #4E5A63",
"Q  c #515D65",
"!  c #535F69",
"~  c #53626D",
"^  c #5B656E",
"/  c #576772",
"(  c #5B6771",
")  c #5C6A74",
"_  c #5E6A7D",
"`  c #626E76",
"'  c #616E79",
"]  c #65737D",
"[  c #68747E",
"{  c #815F46",
"}  c #846146",
"|  c #8D6645",
" . c #846248",
".. c #926946",
"X. c #936C4C",
"o. c #9D724D",
"O. c #A27652",
"+. c #A47853",
"@. c #A97A54",
"#. c #A77B58",
"$. c #897A74",
"%. c #B5835A",
"&. c #B9865B",
"*. c #C69165",
"=. c #CD9566",
"-. c #D09767",
";. c #D69B6B",
":. c #DA9F6E",
">. c #DDA16F",
",. c #DFA270",
"<. c #E4A672",
"1. c #5F6A80",
"2. c #616D81",
"3. c #677780",
"4. c #6A7682",
"5. c #6C7A84",
"6. c #6A768F",
"7. c #6E7D88",
"8. c #797C81",
"9. c #717E8A",
"0. c #74838E",
"q. c #768491",
"w. c #788693",
"e. c #7A8A96",
"r. c #798398",
"t. c #7D8D99",
"y. c #8C9096",
"u. c #82919D",
"i. c #818FA0",
"p. c #8495A1",
"a. c #8999A6",
"s. c #8C9CAA",
"d. c #8FA0AD",
"f. c #92A2AE",
"g. c #93A5B2",
"h. c #96A8B5",
"j. c #98AAB7",
"k. c #9BADBA",
"l. c #9EB1BE",
"z. c #A4B5C3",
"x. c #A7BAC8",
"c. c #A8BBC9",
"v. c #B2C2CA",
"b. c #B5C9D7",
"n. c #C4D5DE",
"m. c #C6D9E4",
"M. c #CCDDE6",
/* pixels */
"<.<.<.<.<.<.<.<.<.<.<.<.<.<.<.<.<.<.<.<.<.<.<.<.<.<.<.<.<.<.<.<.<.<.<.<.<.<.<.<.<.<.<.<.<.<.<.<.<.<.<.<.<.<.<.<.<.<.<.<.<.<.<.<.",
"<.<.<.<.<.<.<.<.<.<.<.<.<.<.<.<.<.<.<.<.<.<.<.<.<.<.<.<.<.<.<.<.<.<.<.<.<.<.<.<.<.<.<.<.<.<.<.<.<.<.<.<.<.<.<.<.<.<.<.<.<.<.<.<.",
"<.<.<.<.<.<.<.<.<.<.<.<.<.<.<.<.<.<.<.<.<.<.<.<.<.<.<.<.<.<.<.<.<.<.<.<.<.<.<.<.<.<.<.<.<.<.<.<.<.<.<.<.<.<.<.<.<.<.<.<.<.<.<.<.",
"<.<.<.<.<.<.<.<.<.<.<.<.<.<.<.<.<.<.<.<.<.<.<.<.<.<.<.<.<.<.<.<.<.<.<.<.<.<.<.<.<.<.<.<.<.<.<.<.<.<.<.<.<.<.<.<.<.<.<.<.<.<.<.<.",
"<.<.<.<.<.<.<.<.<.<.<.<.<.<.<.<.<.<.<.<.<.<.<.<.<.<.<.<.<.<.<.<.<.<.<.<.<.<.<.<.<.<.<.<.<.<.<.<.<.<.<.<.<.<.<.<.<.<.<.<.<.<.<.<.",
"<.<.<.<.<.<.<.<.<.<.<.<.<.<.<.<.<.<.<.<.<.<.<.<.<.<.<.<.<.<.<.<.<.<.<.<.<.<.<.<.<.<.<.<.<.<.<.<.<.<.<.<.<.<.<.<.<.<.<.<.<.<.<.<.",
"<.<.<.<.<.<.<.<.<.<.<.<.<.<.<.<.<.<.<.<.<.<.<.<.<.<.<.<.<.<.<.<.<.<.<.<.<.<.<.<.<.<.<.<.<.<.<.<.<.<.<.<.<.<.<.<.<.<.<.<.<.<.<.<.",
"<.<.<.<.<.<.<.<.<.<.<.<.<.<.<.<.<.<.<.<.<.<.<.<.<.<.<.<.<.<.<.<.<.<.<.<.<.<.<.<.<.<.<.<.<.<.<.<.<.<.<.<.<.<.<.<.<.<.<.<.<.<.<.<.",
"<.<.<.<.<.<.<.<.<.<.<.<.<.<.<.<.<.<.<.<.<.<.<.<.<.<.<.<.<.<.<.<.<.<.<.<.<.<.<.<.<.<.<.<.<.<.<.<.<.<.<.<.<.<.<.<.<.<.<.<.<.<.<.<.",
"<.<.<.<.<.<.<.<.<.<.<.<.<.<.<.<.<.<.<.<.<.<.<.<.<.<.<.<.<.<.<.<.<.<.<.<.<.<.<.<.<.<.<.<.<.<.<.<.<.<.<.<.<.<.<.<.<.<.<.<.<.<.<.<.",
"<.<.<.<.<.<.<.<.<.<.<.<.<.<.<.<.<.<.<.<.<.<.<.<.<.<.<.<.<.<.<.<.<.<.<.<.<.<.<.<.<.<.<.<.<.<.<.<.<.<.<.<.<.<.<.<.<.<.<.<.<.<.<.<.",
"<.<.<.<.<.<.<.<.<.<.<.<.<.<.<.<.<.<.<.<.<.<.<.<.<.<.<.<.<.<.<.<.<.<.<.<.<.<.<.<.<.<.<.<.<.<.<.<.<.<.<.<.<.<.<.<.<.<.<.<.<.<.<.<.",
"<.<.<.<.<.<.<.<.<.<.<.<.<.<.<.<.<.<.<.<.<.<.<.<.<.<.<.<.<.<.<.<.<.<.<.<.<.<.<.<.<.<.<.<.<.<.<.<.<.<.<.<.<.<.<.<.<.<.<.<.<.<.<.<.",
"<.<.<.<.<.<.<.<.<.<.<.<.<.<.<.<.<.<.<.<.<.<.<.<.<.<.<.<.<.<.<.<.<.<.<.<.<.<.<.<.<.<.<.<.<.<.<.<.<.<.<.<.<.<.<.<.<.<.<.<.<.<.<.<.",
"<.<.<.<.<.<.<.<.<.<.<.<.<.<.<.<.<.<.<.<.<.<.<.<.<.<.<.<.<.<.<.<.<.<.<.<.<.<.<.<.<.<.<.<.<.<.<.<.<.<.<.<.<.<.<.<.<.<.<.<.<.<.<.<.",
"<.<.<.<.<.<.<.<.<.<.<.<.<.<.<.<.<.<.<.<.<.<.<.<.<.<.<.<.<.<.<.<.<.<.<.<.<.<.<.<.<.<.<.<.<.<.<.<.<.<.<.<.<.<.<.<.<.<.<.<.<.<.<.<.",
"<.<.<.<.<.<.<.<.<.<.<.<.<.<.<.<.<.<.<.<.<.<.<.<.<.<.<.<.<.<.<.<.<.<.<.<.<.<.<.<.<.<.<.,.<.<.<.<.<.<.<.<.<.<.<.<.<.<.<.<.<.<.<.<.",
"<.<.<.<.<.<.<.<.<.<.<.<.<.<.<.<.<.<.<.<.<.<.<.<.<.<.<.<.<.<.<.<.<.<.<.<.<.<.<.,.<.<.<.>.<.<.<.<.<.<.<.<.<.<.<.<.<.<.<.<.<.<.<.<.",
"<.<.<.<.<.<.<.<.<.<.<.<.<.<.<.<.<.<.<.<.<.<.<.<.<.<.<.<.<.<.<.<.<.<.<.<.<.,.;.;.>.;.>.>.>.>.>.,.<.<.<.<.<.<.<.<.<.<.<.<.<.<.<.<.",
"<.<.<.<.<.<.<.<.<.<.<.<.<.<.<.<.<.<.<.<.<.<.<.<.<.<.<.<.<.<.<.<.<.<.<.;.X.%.0.` n b ] 3.0.$.%.<.<.<.<.<.<.<.<.<.<.<.<.<.<.<.<.<.",
"<.<.<.<.<.<.<.<.<.<.<.<.<.<.<.<.<.<.<.<.<.<.<.<.<.<.<.<.<.<.<.<.:.K T 8.l.t.k.t.p.w.d.h.h.f.d.f :.>.:.>.,.<.<.<.<.<.<.<.<.<.<.<.",
"<.<.<.<.<.<.<.<.<.<.<.<.<.<.<.<.<.<.<.<.<.<.<.<.<.<.<.<.<.>.%.Q h.b.l.h.h.a.j.d.0.` 0.0.0.t.d.q.x u.] [ g <.<.<.<.<.<.<.<.<.<.<.",
"<.<.<.<.<.<.<.<.<.<.<.<.<.<.<.<.<.<.<.<.<.<.<.<.@.Y P P P h c.` b.z.d.3.z.d.3.q.g.f.g.g.d.0.G 0.n j.j.d.a P P P L L L P X.<.<.<.",
"<.<.*.*.-.<.<.<.<.<.<.<.<.<.<.<.<.<.<.<.<.<.<.<.{ j.e.q.q.[ d.^ x.v.z.v.k.e.t.e.D m.l.h.h.h.m R z u.u.p.p A ] ` B Z A 2.I <.<.<.",
"<.<.8 u.y.} } }  . . . . . . . . .}  . . . . .U ( 7.7.7.7.' g.Q z.x.l.k.d.t.d.d.G t.k.h.h.t.d N 8 G H J e m ] ] x V A 1.P <.<.<.",
"<.<.8 a.j.n.M.M.h.j.j.h.0.0.0.e.h.j.h.j.p.0.q.7.t.m.k.k.k.s.g.Q h.h.h.d.d.d.h.h.N 0.D b c G p b G c G G e x ] ] x V x _ s A { <.",
"<.<.%.%.%.%.%.%.%.%.%.%.%.%.%.%.%.%.&.r H ' ' ( p l c c x l g.Q h.h.h.d.d.t.g.h.0./ ] N D N R R G c G l p ^ ] 0.! ' ! _ Z u.U <.",
"<.<.<.<.<.<.<.<.<.<.<.<.<.<.<.<.<.>.C 6.r.v x ( 9.s.a.u.e.5.l p N n n b n t.t.t.e.N b b c N R R N c G G d 3.` J 0.5.4.4.y d U <.",
"<.<.<.<.<.<.<.<.<.<.<.<.<.<.<.<.<.:.e.e.4.4.q.x y s.d.a.a.9.l z / / / ~ ~ N N N b b n R R R G G G p c b i [ ^ d.J 7.[ 3.e y U <.",
"<.<.<.<.<.<.<.<.<.<.<.<.<.<.<.<.<.:.H e.e.e.e.9.M s.d.s.s.9.M z ) / ~ N W ~ ~ ~ ~ W N R G G G G N ! 3.] [ 0.0.J ) [ 3.3.B q.U <.",
"<.<.<.<.<.<.<.<.<.<.<.<.<.<.<.<.<.:.4.p.u.e.e.e.! 9.s.9.9.[ Z z ) / N / n ~ ~ ~ ~ W R R G G G G n ` 0.] 5.] ] ` Q ( ' ) Z 4.U <.",
"<.<.<.<.<.<.<.<.<.<.<.<.<.<.<.<.<.:.] p.w.e.e.Q x q.4.z.d.6.u z ) / W N R ~ ~ ~ ~ ~ R G G G G n ' 0.] V F B ] [ B A B u B M U <.",
"<.<.<.<.<.<.<.<.<.<.<.<.<.<.<.<.<.:.' p.p.e.e.! [ q.[ s.s.0.0.S W ~ W G E G W G H N N N N Z N ) 0.q.q.B V B [ ] B B Z 4.i v U <.",
"<.<.<.<.<.<.<.<.<.<.<.<.<.<.<.<.<.:.4.p.w.e.e.Z F r.i.9.9.q.u.q.] ' / ) ) ( / ` ( ( ) 3.[ e.e.4.5.e.0.v B v e.0.v V V ] e w *.<.",
"<.<.<.<.<.<.<.<.<.<.<.<.<.<.<.<.<.:.[ u.u.e.w.n s l d z z z z d l l p p p s p p s p s d d z s p s d d i i i d d i i i s P <.<.<.",
"<.<.<.<.<.<.<.<.<.<.<.<.<.<.<.<.<.:.2.t.9.5.4.] Z ! ! ! ! ! ! ~ W W W W Q Q Q Q W J W W Q Q W W J W J J W W W W W Q W W j <.<.<.",
"<.<.<.<.<.<.<.<.<.<.<.<.<.<.<.<.<.:.H ' 5.w.e.e.Q z z z z z z z z z z d z z z z z z z d z d d z z d z d z z z d z z z u { <.<.<.",
"<.<.<.<.<.<.<.<.<.<.<.<.<.<.<.<.<.:.) w.e.e.5.' Z W Q Q Q W ) Q Q Q Q ~ Q Q Q Q ! W ) _ ` _ ' ' ' ' ` _ ' ) ' ` ` _ ) b <.<.<.<.",
"<.<.<.<.<.<.<.<.<.<.<.<.<.<.<.<.<.:.( e.) m B % $ $ $ $ o $ e = < = = = $ * * = % = d z z z z z c z c z z c z z z z z %.<.<.<.<.",
"<.<.<.<.<.<.<.<.<.<.<.<.<.<.<.<.<.:.g 8 < & o % % .         %                               o . 8 2 8 2 9 9 9 9 9 9 9 #.<.<.<.<.",
"<.<.<.<.<.<.<.<.<.<.<.<.<.<.<.<.<.<.+.. * & @ & * > o o o o = o o o o o o o o o o + o o o o o o o o o o o o o . 2 2 * > o.<.<.<.",
"<.<.<.<.<.<.<.<.<.<.<.<.<.<.<.<.<.<.+.. < 3 < 3 * < @ % + 0 3 2 X & & * 3 3 @ @ @ @ 3 3 3 o @ & @ 3 3 > o & @ < . @ @ * j <.<.<.",
"<.<.<.<.<.<.<.<.<.<.<.<.<.<.<.<.<.<.O.- > + > * @ 3 O @ < & & & < o > * @ % > > o 2 @ @ @ 2 + * < @ @ > 2 X + 2 O 2 O % j <.<.<.",
"<.<.<.<.<.<.<.<.<.<.<.<.<.<.<.<.<.<.<.-.X 2 < + < % o @ * * 0 & 3 o 3 & 3 3 % 3 + 3 & q & 2 % * & 2 3 % 0 O + > o O @ > } <.<.<.",
"<.<.<.<.<.<.<.<.<.<.<.<.<.<.<.<.<.<.<.>.@.: > > + & o @ * & 3 @ < o 3 @ < < @ < + 2 & 2 & 2 @ * & * 2 @ 3 + + o * * & ..<.<.<.<.",
"<.<.<.<.<.<.<.<.<.<.<.<.<.<.<.<.<.<.<.<.<.;.o.5 . X @ o < @ & * @ . + < & & 3 X . * & & & 2 + o 3 @ & 2 + . X . O 4 k <.<.<.<.<.",
"<.<.<.<.<.<.<.<.<.<.<.<.<.<.<.<.<.<.<.<.<.<.<.>.X.5 1 1 ; 6 7 6 - - ; , 7 7 , # - # 6 6 7 : 1 4 4 t t * @ @ @ + | =.<.<.<.<.<.<.",
"<.<.<.<.<.<.<.<.<.<.<.<.<.<.<.<.<.<.<.<.<.<.<.<.<.-.-.=.=.-.-.=.-.=.-.=.=.=.=.=.=.=.=.=.-.-.-.-.=.=.=.=.*.=.=.*.<.<.<.<.<.<.<.<.",
"<.<.<.<.<.<.<.<.<.<.<.<.<.<.<.<.<.<.<.<.<.<.<.<.<.<.<.<.<.<.<.<.<.<.<.<.<.<.<.<.<.<.<.<.<.<.<.<.<.<.<.<.<.<.<.<.<.<.<.<.<.<.<.<.",
"<.<.<.<.<.<.<.<.<.<.<.<.<.<.<.<.<.<.<.<.<.<.<.<.<.<.<.<.<.<.<.<.<.<.<.<.<.<.<.<.<.<.<.<.<.<.<.<.<.<.<.<.<.<.<.<.<.<.<.<.<.<.<.<.",
"<.<.<.<.<.<.<.<.<.<.<.<.<.<.<.<.<.<.<.<.<.<.<.<.<.<.<.<.<.<.<.<.<.<.<.<.<.<.<.<.<.<.<.<.<.<.<.<.<.<.<.<.<.<.<.<.<.<.<.<.<.<.<.<.",
"<.<.<.<.<.<.<.<.<.<.<.<.<.<.<.<.<.<.<.<.<.<.<.<.<.<.<.<.<.<.<.<.<.<.<.<.<.<.<.<.<.<.<.<.<.<.<.<.<.<.<.<.<.<.<.<.<.<.<.<.<.<.<.<.",
"<.<.<.<.<.<.<.<.<.<.<.<.<.<.<.<.<.<.<.<.<.<.<.<.<.<.<.<.<.<.<.<.<.<.<.<.<.<.<.<.<.<.<.<.<.<.<.<.<.<.<.<.<.<.<.<.<.<.<.<.<.<.<.<.",
"<.<.<.<.<.<.<.<.<.<.<.<.<.<.<.<.<.<.<.<.<.<.<.<.<.<.<.<.<.<.<.<.<.<.<.<.<.<.<.<.<.<.<.<.<.<.<.<.<.<.<.<.<.<.<.<.<.<.<.<.<.<.<.<.",
"<.<.<.<.<.<.<.<.<.<.<.<.<.<.<.<.<.<.<.<.<.<.<.<.<.<.<.<.<.<.<.<.<.<.<.<.<.<.<.<.<.<.<.<.<.<.<.<.<.<.<.<.<.<.<.<.<.<.<.<.<.<.<.<.",
"<.<.<.<.<.<.<.<.<.<.<.<.<.<.<.<.<.<.<.<.<.<.<.<.<.<.<.<.<.<.<.<.<.<.<.<.<.<.<.<.<.<.<.<.<.<.<.<.<.<.<.<.<.<.<.<.<.<.<.<.<.<.<.<.",
"<.<.<.<.<.<.<.<.<.<.<.<.<.<.<.<.<.<.<.<.<.<.<.<.<.<.<.<.<.<.<.<.<.<.<.<.<.<.<.<.<.<.<.<.<.<.<.<.<.<.<.<.<.<.<.<.<.<.<.<.<.<.<.<.",
"<.<.<.<.<.<.<.<.<.<.<.<.<.<.<.<.<.<.<.<.<.<.<.<.<.<.<.<.<.<.<.<.<.<.<.<.<.<.<.<.<.<.<.<.<.<.<.<.<.<.<.<.<.<.<.<.<.<.<.<.<.<.<.<.",
"<.<.<.<.<.<.<.<.<.<.<.<.<.<.<.<.<.<.<.<.<.<.<.<.<.<.<.<.<.<.<.<.<.<.<.<.<.<.<.<.<.<.<.<.<.<.<.<.<.<.<.<.<.<.<.<.<.<.<.<.<.<.<.<.",
"<.<.<.<.<.<.<.<.<.<.<.<.<.<.<.<.<.<.<.<.<.<.<.<.<.<.<.<.<.<.<.<.<.<.<.<.<.<.<.<.<.<.<.<.<.<.<.<.<.<.<.<.<.<.<.<.<.<.<.<.<.<.<.<.",
"<.<.<.<.<.<.<.<.<.<.<.<.<.<.<.<.<.<.<.<.<.<.<.<.<.<.<.<.<.<.<.<.<.<.<.<.<.<.<.<.<.<.<.<.<.<.<.<.<.<.<.<.<.<.<.<.<.<.<.<.<.<.<.<.",
"<.<.<.<.<.<.<.<.<.<.<.<.<.<.<.<.<.<.<.<.<.<.<.<.<.<.<.<.<.<.<.<.<.<.<.<.<.<.<.<.<.<.<.<.<.<.<.<.<.<.<.<.<.<.<.<.<.<.<.<.<.<.<.<.",
"<.<.<.<.<.<.<.<.<.<.<.<.<.<.<.<.<.<.<.<.<.<.<.<.<.<.<.<.<.<.<.<.<.<.<.<.<.<.<.<.<.<.<.<.<.<.<.<.<.<.<.<.<.<.<.<.<.<.<.<.<.<.<.<.",
"<.<.<.<.<.<.<.<.<.<.<.<.<.<.<.<.<.<.<.<.<.<.<.<.<.<.<.<.<.<.<.<.<.<.<.<.<.<.<.<.<.<.<.<.<.<.<.<.<.<.<.<.<.<.<.<.<.<.<.<.<.<.<.<."
};
