/* XPM */
static char *result[] = {
/* columns rows colors chars-per-pixel */
"64 64 118 2 ",
"   c #0E0D0A",
".  c #11100E",
"X  c #1A140F",
"o  c #0F1116",
"O  c #141316",
"+  c #1C1614",
"@  c #1D1C1D",
"#  c #221810",
"$  c #291E14",
"%  c #312418",
"&  c #39291B",
"*  c #1D1E20",
"=  c #1F2327",
"-  c #1F2428",
";  c #242527",
":  c #252629",
">  c #23292D",
",  c #2A2F34",
"<  c #2B3035",
"1  c #2E3439",
"2  c #31373C",
"3  c #333A3F",
"4  c #42342A",
"5  c #4E3B2E",
"6  c #5C4431",
"7  c #5A473A",
"8  c #5B493E",
"9  c #684F3D",
"0  c #363D43",
"q  c #383E43",
"w  c #374045",
"e  c #3A4147",
"r  c #3C444B",
"t  c #3F484E",
"y  c #3F4650",
"u  c #3F4851",
"i  c #41474D",
"p  c #42494E",
"a  c #444D54",
"s  c #465057",
"d  c #47525A",
"f  c #4B555C",
"g  c #4D585F",
"h  c #51575B",
"j  c #614E42",
"k  c #6D5442",
"l  c #735640",
"z  c #4B5760",
"x  c #4F5962",
"c  c #525C64",
"v  c #585F67",
"b  c #515E69",
"n  c #585E6A",
"m  c #566066",
"M  c #596067",
"N  c #55626D",
"B  c #5A656D",
"V  c #576370",
"C  c #5B6771",
"Z  c #5E6A73",
"A  c #5F6678",
"S  c #60676F",
"D  c #616D75",
"F  c #616C7B",
"G  c #677077",
"H  c #64727C",
"J  c #6C757D",
"K  c #976E4D",
"L  c #98704F",
"P  c #A27652",
"I  c #AB7C56",
"U  c #BC895F",
"Y  c #A98164",
"T  c #BF8B60",
"R  c #A78771",
"E  c #C48F63",
"W  c #C89164",
"Q  c #D79C6B",
"!  c #D99E6D",
"~  c #DCA06E",
"^  c #DFA370",
"/  c #E4A672",
"(  c #677780",
")  c #697681",
"_  c #677882",
"`  c #6D7A84",
"'  c #6E7D88",
"]  c #737C83",
"[  c #717E89",
"{  c #798187",
"}  c #73828D",
"|  c #7A8288",
" . c #768591",
".. c #788793",
"X. c #7A8A96",
"o. c #7D8E99",
"O. c #818A8F",
"+. c #838C91",
"@. c #808D9A",
"#. c #81919D",
"$. c #8496A2",
"%. c #8598A6",
"&. c #899AA6",
"*. c #879AA9",
"=. c #8C9DAB",
"-. c #8FA1AE",
";. c #8FA5B2",
":. c #94A6B3",
">. c #97A9B5",
",. c #98ABB7",
"<. c #97ABBB",
"1. c #9AADBB",
"2. c #9DB1BD",
"3. c #A0AEB3",
"4. c #9BB0C0",
"5. c #A2B5C2",
"6. c #A4B8C6",
"7. c #AEC2CC",
/* pixels */
"/ / / / / / / / / / / / / / / / / / / / / / / / / / / / / / / / / / / / / / / / / / / / / / / / / / / / / / / / / / / / / / / / ",
"/ / / / / / / / / / / / / / / / / / / / / / / / / / / / / / / / / / / / / / / / / / / / / / / / / / / / / / / / / / / / / / / / ",
"/ / / / / / / / / / / / / / / / / / / / / / / / / / / / / / / / / / / / / / / / / / / / / / / / / / / / / / / / / / / / / / / / ",
"/ / / / / / / / / / / / / / / / / / / / / / / / / / / / / / / / / / / / / / / / / / / / / / / / / / / / / / / / / / / / / / / / ",
"/ / / / / / / / / / / / / / / / / / / / / / / / / / / / / / / / / / / / / / / / / / / / / / / / / / / / / / / / / / / / / / / / ",
"/ / / / / / / / / / / / / / / / / / / / / / / / / / / / / / / / / / / / / / / / / / / / / / / / / / / / / / / / / / / / / / / / ",
"/ / / / / / / / / / / / / / / / / / / / / / / / / / / / / / / / / / / / / / / / / / / / / / / / / / / / / / / / / / / / / / / / ",
"/ / / / / / / / / / / / / / / / / / / / / / / / / / / / / ! ! Q ! / / / / / / / / / / / / / / / / / / / / / / / / / / / / / / / ",
"/ / / / / / / / / / / / / / / / / / / / / / / / / / / / / 8 ' H 9 / / / / / / / / / / / / / / / / / / / / / / / / / / / / / / / ",
"/ / / / / / / / / / / / / / / / / / / / / / / / / / / / / 9 ' Z l / / / / / / / / / / / / / / / / / / / / / / / / / / / / / / / ",
"/ / / / / / / / / / / / / / / / / / / / / / / / / / / / / ^ H B / / / / / / / / / / / / / / / / / / / / / / / / / / / / / / / / ",
"/ / / / / / / / / / / / / / / / / / / / / / / / / / / / / ^ H C / / / / / / / / / / / / / / / / / / / / / / / / / / / / / / / / ",
"/ / / / / / / / / / / / / / / / / / / / / / / / / / / / / ^ H B ^ / / / / / / / / / / / / / / / / / / / / / / / / / / / / / / / ",
"/ / / / / / / / / / / / / / / / / / / / / / / / / / / / / ^ H B / / / / / / / / / / / / / / / / / / / / / / / / / / / / / / / / ",
"/ / / / / / / / / / / / / / / / / / / / / / / / / / / / / ^ F C / / / / / / / / / / / / / / / / / / / / / / / / / / / / / / / / ",
"/ / / / / / / / / / / / / / / / / / / / / / / / / / / / / ~ H C ~ / / / / / / / / / / / / / / / / / / / / / / / / / / / / / / / ",
"/ / / / / / / / / / / / / / / / / / / / / / / / / / / / / ^ H C / / / / / / / / / / / / / / / / / / / / / / / / / / / / / / / / ",
"/ / / / / / / / / / / / / / / / / / / / / / / / / / / / / ^ b x / / / / / / / / / / / / / / / / / / / / / / / / / / / / / / / / ",
"/ / / / / / / / / / / / / / / / / / / / / / / / / / / / / ^ b c / / / / / / / / / / / / / / / / / / / / / / / / / / / / / / / / ",
"/ / / / / / / / / / / / / / / / / / / / / / / / / / / / / ! b f ! / / / / / / / / / / / / / / / / / / / / / / / / / / / / / / / ",
"/ / / / / / / / / / / / / / / / / / / / / / / / / / / / / 7 B B 9 / / / / / / / / / / / / / / / / / / / / / / / / / / / / / / / ",
"/ / / / / / / / / / / / / / / / / / / / / / / / / / / / / j &.%.k / / / / / / / / / / / / / / / / / / / / / / / / / / / / / / / ",
"/ / / / / / / / / / / / / / / / K p : : : ; W R M m m m v b b c x v x h c f Y E ; : ; ; i P / / / / / / / / / / / / / / / / / / ",
"/ / / / / / / / / / / / / / / / K } m J D D C #.6.5.5.5.5.1.1.2.>.,.,.,.,.,.H Z D F F d [ P / / / / / / / / / / / / / / / / / / ",
"/ / / / / / / / / / / / / / / / K } F $.] b t ..[ [ } [  . .X.X......... .X. .q c ] X.x [ P / / / / / / / / / / / / / / / / / / ",
"/ / / / / / / / / / / / / / / / K N D #.H *.x :.@.` ` D Z  .;.*...>.>.>.>.>.>.` } B  .x C P / / / / / / / / / / / / / / / / / / ",
"/ / / / / / / / / / / / / / / / K + D } ` f 1 3.7.2.:.=.&.f } 4.&.@.>.>.>.>.>.-.t ` ..x 0 P / / / / / / / / / / / / / / / / / / ",
"/ / / / / / / / / / / / / / / / K + D o.o.f :.$.6.,.2.,.>.u o.` ' :.:.b A A [ o.m X.X.x O P / / / / / / / / / / / / / / / / / / ",
"/ / / / / / / / / / / / / / / / K + D ..$.f :.y >.,.>.-.| 3 X.=.>.>.>.X.( ` ( u m X.X.c + P / / / / / / / / / / / / / / / / / / ",
"/ / / / / / / / / / / / / / / / K o D } #.f :.' B s w w u r X.-.:.>.>.;.$.[ d b b X.X.b o P / / / / / / / / / / / / / / / / / / ",
"/ / / / / / / / / / / / / / / / K o Z ..#.g 4.-.| } d f z  .X.;.=.:.;.o.( z V b b X.X.c O P / / / / / / / / / / / / / / / / / / ",
"/ / / / / / / / / / / / / / / / K O Z o.$.h 1.<.} ; > = w t u s a a u u V A N b m X.X.x O P / / / / / / / / / / / / / / / / / / ",
"/ / / / / / / / / / / / / / / / K o S &.-.b a ,.$.} H Z -.*.$.o.X.o.b z F D V b n ..X.c O P / / / / / / / / / / / / / / / / / / ",
"/ / / / / / / / / / / / / / / / K @ J $.@.` a 1.%.} p %.*.*.o.o.o.o.X.w F D D u [ ..X.c O P / / / / / / / / / / / / / / / / / / ",
"/ / / / / / / / / / / / / / / / K * i S v S M [ -.} s w w w w 0 0 0 0 w Z Z t b V F F i O P / / / / / / / / / / / / / / / / / / ",
"/ / / / / / / / / / / / / / / / K * i J |  .] v Z g 3 _ H F G H H ' ` , s s G } ] ) ) h O P / / / / / / / / / / / / / / / / / / ",
"/ / / / / / / / / / / / / / / / K * q +.J J +.G m } a } } } } } } } G f } Z ] +.J G ] r O P / / / / / / / / / / / / / / / / / / ",
"/ / / / / / / / / / / / / / / / K * x [ [ [ D D D ..B s r d d a 0 f d D  .Z D D D D D i o P / / / / / / / / / / / / / / / / / / ",
"/ / / / / / / / / / / / / / / / K * h ) J ] D C Z ..} ..Z } } } m } } ....S Z S Z Z Z p O P / / / / / / / / / / / / / / / / / / ",
"/ / / / / / / / / / / / / / / / K * q O.J J O.H G } [ [ } m x x J } } ....S ] +.] G ` p O P / / / / / / / / / / / / / / / / / / ",
"/ / / / / / / / / / / / / / / / K * r ] ] J ] J ] _ ` _ _ } _ _ _ } } }  .B { | ] J J f o P / / / / / / / / / / / / / / / / / / ",
"/ / / / / / / / / / / / / / / / K * q n v v v c x _ H H H H ( H H H H } } x c M c c v w o P / / / / / / / / / / / / / / / / / / ",
"/ / / / / / / / / / / / / / / / K * q d d a s s s w d B z < r < D N t 1 w u s s s s s g @ P / / / / / / / / / / / / / / / / / / ",
"/ / / / / / / / / / / / / / / / K + x ` ` ` J J _ C o.o. .w V w ;.o.H t V V J J H H ` ] > P / / / / / / / / / / / / / / / / / / ",
"/ / / / / / / / / / / / / / / / L O x ` ` ` ` ` ` C a a q 1 V r d t 0 t N } _ _ _ J J ` - P / / / / / / / / / / / / / / / / / / ",
"/ / / / / / / / / / / / / / / / L $ f ' ] ' ` [ ` Z ) ] C 0 V r ..} d t N _ ` ` ` ` ` ` - P / / / / / / / / / / / / / / / / / / ",
"/ / / / / / / / / / / / / / / / L < 0 q e e r ] ` Z _ ) C 0 V q  .J d t N ` ` 0 w w 0 w < P / / / / / / / / / / / / / / / / / / ",
"/ / / / / / / / / / / / / / / / K ( _ _ _ ` e ' ] C ` ) B 0 V r ..} d t _ ` } 0 _ _ _ _ H P / / / / / / / / / / / / / / / / / / ",
"/ / / / / / / / / / / / / / / / K 0 0 w w w 0 ` ` D ) ` B 3 N e ..` d i ) ` [ 1 w w 0 0 0 P / / / / / / / / / / / / / / / / / / ",
"/ / / / / / / / / / / / / / / / K X .     # 1 D D b Z a r 2 Z 0 t r t a b b D , $       O P / / / / / / / / / / / / / / / / / / ",
"/ / / / / / / / / / / / / / / / K X       # 5 U U U U U U U U U U U U U U U T 4 $         P / / / / / / / / / / / / / / / / / / ",
"/ / / / / / / / / / / / / / / / K % $ $ $ % 6 / / / / / / / / / / / / / / / / 5 & $ % $ $ P / / / / / / / / / / / / / / / / / / ",
"/ / / / / / / / / / / / / / / / E P P P P P I / / / / / / / / / / / / / / / / I P P P P I E / / / / / / / / / / / / / / / / / / ",
"/ / / / / / / / / / / / / / / / / / / / / / / / / / / / / / / / / / / / / / / / / / / / / / / / / / / / / / / / / / / / / / / / ",
"/ / / / / / / / / / / / / / / / / / / / / / / / / / / / / / / / / / / / / / / / / / / / / / / / / / / / / / / / / / / / / / / / ",
"/ / / / / / / / / / / / / / / / / / / / / / / / / / / / / / / / / / / / / / / / / / / / / / / / / / / / / / / / / / / / / / / / ",
"/ / / / / / / / / / / / / / / / / / / / / / / / / / / / / / / / / / / / / / / / / / / / / / / / / / / / / / / / / / / / / / / / ",
"/ / / / / / / / / / / / / / / / / / / / / / / / / / / / / / / / / / / / / / / / / / / / / / / / / / / / / / / / / / / / / / / / ",
"/ / / / / / / / / / / / / / / / / / / / / / / / / / / / / / / / / / / / / / / / / / / / / / / / / / / / / / / / / / / / / / / / ",
"/ / / / / / / / / / / / / / / / / / / / / / / / / / / / / / / / / / / / / / / / / / / / / / / / / / / / / / / / / / / / / / / / ",
"/ / / / / / / / / / / / / / / / / / / / / / / / / / / / / / / / / / / / / / / / / / / / / / / / / / / / / / / / / / / / / / / / ",
"/ / / / / / / / / / / / / / / / / / / / / / / / / / / / / / / / / / / / / / / / / / / / / / / / / / / / / / / / / / / / / / / / ",
"/ / / / / / / / / / / / / / / / / / / / / / / / / / / / / / / / / / / / / / / / / / / / / / / / / / / / / / / / / / / / / / / / ",
"/ / / / / / / / / / / / / / / / / / / / / / / / / / / / / / / / / / / / / / / / / / / / / / / / / / / / / / / / / / / / / / / / "
};
