/* XPM */
static char *result[] = {
/* columns rows colors chars-per-pixel */
"64 64 113 2 ",
"   c black",
".  c #06060A",
"X  c #0E0D09",
"o  c #110F0D",
"O  c #0E1015",
"+  c #161415",
"@  c #1A1716",
"#  c #1B1916",
"$  c #131519",
"%  c #1C1A19",
"&  c #241D16",
"*  c #221E1B",
"=  c #25221C",
"-  c #2A221C",
";  c #191D21",
":  c #1E2225",
">  c #2A2823",
",  c #21262A",
"<  c #262829",
"1  c #322722",
"2  c #262C31",
"3  c #2A2E32",
"4  c #2B3136",
"5  c #2D3339",
"6  c #30383D",
"7  c #543D2A",
"8  c #664D3A",
"9  c #353C42",
"0  c #393E45",
"q  c #384146",
"w  c #374048",
"e  c #3B444B",
"r  c #3F4A52",
"t  c #41474D",
"y  c #43494F",
"u  c #444D53",
"i  c #494F54",
"p  c #475057",
"a  c #4A5056",
"s  c #46515B",
"d  c #4B545B",
"f  c #4C585F",
"g  c #52585B",
"h  c #755741",
"j  c #775943",
"k  c #765C4C",
"l  c #4F5760",
"z  c #4E5961",
"x  c #525C64",
"c  c #585F67",
"v  c #545F6A",
"b  c #5A6064",
"n  c #56636B",
"m  c #59646C",
"M  c #5D686F",
"N  c #5D6770",
"B  c #5E6A73",
"V  c #60676E",
"C  c #636C74",
"Z  c #636F79",
"A  c #65727B",
"S  c #6A747C",
"D  c #6E787F",
"F  c #976E4C",
"G  c #A0744F",
"H  c #A27651",
"J  c #997863",
"K  c #B7865C",
"L  c #BE8A5F",
"P  c #C38E62",
"I  c #C69064",
"U  c #D39969",
"Y  c #DA9F6E",
"T  c #DDA16E",
"R  c #DEA270",
"E  c #E4A672",
"W  c #6A7780",
"Q  c #6C7A84",
"!  c #6E7D88",
"~  c #737C84",
"^  c #717E89",
"/  c #74838D",
"(  c #7C858B",
")  c #768490",
"_  c #798592",
"`  c #778993",
"'  c #7A8A95",
"]  c #7E8C99",
"[  c #7F909A",
"{  c #818F9B",
"}  c #82919D",
"|  c #8696A2",
" . c #8997A4",
".. c #8698A1",
"X. c #8A99A6",
"o. c #8D9DAA",
"O. c #909FAC",
"+. c #8FA1AC",
"@. c #91A1A6",
"#. c #91A1AE",
"$. c #95A5B2",
"%. c #96A8B4",
"&. c #98AAB7",
"*. c #9AADB9",
"=. c #9EB2BD",
"-. c #A2B5C2",
";. c #A5B9C6",
":. c #A7BBC8",
">. c #AABDCA",
",. c #ADC0CE",
"<. c #B2C7D4",
"1. c #BED2D6",
"2. c #C4DAE8",
/* pixels */
"E E E E E E E E E E E E E E E E E E E E E E E E E E E E E E E E E E E E E E E E E E E E E E E E E E E E E E E E E E E E E E E E ",
"E E E E E E E E E E E E E E E E E E E E E E E E E E E E E E E E E E E E E E E E E E E E E E E E E E E E E E E E E E E E E E E E ",
"E E E E E E E E E E E E E E E E E E E E E E E E E E E E E E E E E E E E E E E E E E E E E E E E E E E E E E E E E E E E E E E E ",
"E E E E E E E E E E E E E E E E E E E E E E E E E E E E E E E E E E E E E E E E E E E E E E E E E E E E E E E E E E E E E E E E ",
"E E E E E E E E E E E E E E E E E E E E E E E E E E E E E E E E E E E E E E E E E E E E E E E E E E E E E E E E E E E E E E E E ",
"E E E E E E E E E E E E E E E E E E E E E E E E E E E E E E E E E E E E E E E E E E E E E E E E E E E E E E E E E E E E E E E E ",
"E E E E E E E E E E E E E E E E E E E E E E E E E E E E E E E E E E E E E E E E E E E E E E E E E E E E E E E E E E E E E E E E ",
"E E E E E E E E E E E E E E E E E E E E E E E E E E E E E E E E E E E E E E E E E E E E E E E E E E E E E E E E E E E E E E E E ",
"E E E E E E E E E E E E E E E E E E E E E E E E E E E E E E E E E E E E E E E E E E E E E E E E E E E E E E E E E E E E E E E E ",
"E E E E E E E E E E E E E E E E E E E E E E E E E E E E E E E E E E E E E E E E E E E E E E E E E E E E E E E E E E E E E E E E ",
"E E E E E E E E E E E E E E E E E E E E E E E E E E E E E E E E E E E E E E E E E E E E E E E E E E E E E E E E E E E E E E E E ",
"E E E E E E E E E E E E E E E E E E E E E E E E E E E E E E E E E E E E E E E E E E E E E E E E E E E E E E E E E E E E E E E E ",
"E E E E E E E E E E E E E E E E E E E E E E E E E E E E E E E E E E E E E E E E E E E E E E E E E E E E E E E E E E E E E E E E ",
"E E E E E E E E E E E E E E E E E E E E E E E E E E E T T Y T Y T T T T T T Y E E E E E E E E E E E E E E E E E E E E E E E E E ",
"E E E E E E E E E E E E E E E E E E E E E E E E E E P l V B B V B V y v B B N J E E E E E E E E E E E E E E E E E E E E E E E E ",
"E E E E E E E E E E E E E E E E E E T h j j j j j j 8 y d l d l d d ) o.o.o.o.| k j j j h T E E E E E E E E E E E E E E E E E E ",
"E E E E E E E E E E E E E E E E E E Y 0 ( D S { B x ! $.o.O.%.O.O.} } =.o.o.o.O.9 D Z W t R E E E E E E E E E E E E E E E E E E ",
"E E E E E E E E E E E E E E E E E E Y 0 ~ D S D Z ^ ' $.$.$.#.$.#.} Z <.&.#.O.) 5 D S S a R E E E E E E E E E E E E E E E E E E ",
"E E E E E E E E E E E E E E E E E E T e b c g b | >.$.! #.#. .Z { } / N l t e u 9 x c b q T E E E E E E E E E E E E E E E E E E ",
"E E E E E E E E E E E E E E E E E E Y s S S t -.X.' ) ) -.$.^ *./ o._ ' ] x e d Q u A S i T E E E E E E E E E E E E E E E E E E ",
"E E E E E E E E E E E E E E E E E E Y 0 { V g -.-.! B #.-.-.+.[ X.o.O.Q ^ { ] ^ ! c V W 0 R E E E E E E E E E E E E E E E E E E ",
"E E E E E E E E E E E E E E E E E E P 0 V ( t c ' ! ^ ) ] ] ] ` _ _ _ _ ' ^ ^ ' l y W Z g I E E E E E E E E E E E E E E E E E E ",
"E E E E E E E E E E E E E E E E E K - 0 C c y y ,.:.>.,.,.:.-.=.;.>.-.=.=.=.=.-.9 i c m 9 1 L E E E E E E E E E E E E E E E E E ",
"E E E E E E E E E E E E E E E E E F & d ^ ~ y o.+.2.;.>.-.>.:.=.=.=.*.=.*.=.=.Q a z / ^ d $ H E E E E E E E E E E E E E E E E E ",
"E E E E E E E E E E E E E E E E E F * V | ] s &.o.%.o./ ` } [ +.X.} [ ` / / / n s z / / f O H E E E E E E E E E E E E E E E E E ",
"E E E E E E E E E E E E E E E E E F @ B | | z *.^ 1.o.#.5 r e e e e e 6 +.+.[ e d z / ) f O H E E E E E E E E E E E E E E E E E ",
"E E E E E E E E E E E E E E E E E F @ m | ] l &./ v B B d :.+.X...o.o.q B n x e d z / / f + H E E E E E E E E E E E E E E E E E ",
"E E E E E E E E E E E E E E E E E F @ l }  .^ W ! ! ` ` w ! e [ W r ! 9 ` ` / e w Q / / d + H E E E E E E E E E E E E E E E E E ",
"E E E E E E E E E E E E E E E E E F @ l  .o.O.l Z ! ` ` e m S u 9 r B w ` ` / w e ) / ) l + H E E E E E E E E E E E E E E E E E ",
"E E E E E E E E E E E E E E E E E F @ x o.o.o.^   / ` ` 9 f : ..W : z 9 ` ` Q . ^ / ) / l + H E E E E E E E E E E E E E E E E E ",
"E E E E E E E E E E E E E E E E E F ; v o.#.W l 9 0 e w 2 4 2 [ Z : 2 < q q 6 e z C / / d + H E E E E E E E E E E E E E E E E E ",
"E E E E E E E E E E E E E E E E E F @ v O. .} o.S ] X.| ] ` q ` n w ! / / / Q [ ' Q Q ) l + H E E E E E E E E E E E E E E E E E ",
"E E E E E E E E E E E E E E E E E F + m $.$.^ Z W } o.| ] ' Q M z A / / / / / A n S / / d $ H E E E E E E E E E E E E E E E E E ",
"E E E E E E E E E E E E E E E E E F + ' >.o.o.o.| Q ^ ' B B B M v m A W S Q Q S W W W ! d $ H E E E E E E E E E E E E E E E E E ",
"E E E E E E E E E E E E E E E E E F * M Z N B C C 4 : s B B N A B n ) ' ` / ` z B B B B 9 # H E E E E E E E E E E E E E E E E E ",
"E E E E E E E E E E E E E E E E E F % x ! ! Q ^ v >.o.B Q / W A m Q p a d d d q / ) / / / : H E E E E E E E E E E E E E E E E E ",
"E E E E E E E E E E E E E E E E E F : m ! Q Q Q n M 9 u Q ^ Q A M W x A W W Q f / / / ) ` : H E E E E E E E E E E E E E E E E E ",
"E E E E E E E E E E E E E E E E E F 3 0 u u u u e 0 , 6 s s i N n u 9 e e q q 9 u p p p d 5 H E E E E E E E E E E E E E E E E E ",
"E E E E E E E E E E E E E E E E E F O.O.o.o.o.V o.o.Z O.o.o.| n x X.o.X.o.o.o.o.} C o.| ..[ H E E E E E E E E E E E E E E E E E ",
"E E E E E E E E E E E E E E E E E F >.O.o.o.X.a O.o.O.o.o.o.o.n x } | | | | ....} A X.| X.[ G E E E E E E E E E E E E E E E E E ",
"E E E E E E E E E E E E E E E E E F >.*.O. .X.d +.o.o.X.X.| | n x | | ..[ +.[ ..[ W +.| @.[ G E E E E E E E E E E E E E E E E E ",
"E E E E E E E E E E E E E E E E E F -.%.#.O.O.d [ Q ! ! Q W W m x S Q ^ Q / / W W W *.X.@.[ G E E E E E E E E E E E E E E E E E ",
"E E E E E E E E E E E E E E E E E F d d d d d 3 z f z n n n 4 z s 4 m m v f f z d 0 z r i u H E E E E E E E E E E E E E E E E E ",
"E E E E E E E E E E E E E E E E E F & # @ + & 3 A A A A Q Q 9 W W 9 Z A A A A A m & % @ o + H E E E E E E E E E E E E E E E E E ",
"E E E E E E E E E E E E E E E E E F * % & % & < x x b z x n q $ $ e x x x x v x z - % % @ @ H E E E E E E E E E E E E E E E E E ",
"E E E E E E E E E E E E E E E E E F * - * * * 7 E T R R T R R T R R R R R R R R T % > = * * H E E E E E E E E E E E E E E E E E ",
"E E E E E E E E E E E E E E E E E F X X X o o 7 E E E E E E E E R E E E E E E E T X X X X X G E E E E E E E E E E E E E E E E E ",
"E E E E E E E E E E E E E E E E E U U U U U U U E E E E E E E E E E E E E E E E T U U U U U T R E E E E E E E E E E E E E E E E ",
"E E E E E E E E E E E E E E E E E E E E E E E E E E E E E E E E E E E E E E E E E E E E E E E E E E E E E E E E E E E E E E E E ",
"E E E E E E E E E E E E E E E E E E E E E E E E E E E E E E E E E E E E E E E E E E E E E E E E E E E E E E E E E E E E E E E E ",
"E E E E E E E E E E E E E E E E E E E E E E E E E E E E E E E E E E E E E E E E E E E E E E E E E E E E E E E E E E E E E E E E ",
"E E E E E E E E E E E E E E E E E E E E E E E E E E E E E E E E E E E E E E E E E E E E E E E E E E E E E E E E E E E E E E E E ",
"E E E E E E E E E E E E E E E E E E E E E E E E E E E E E E E E E E E E E E E E E E E E E E E E E E E E E E E E E E E E E E E E ",
"E E E E E E E E E E E E E E E E E E E E E E E E E E E E E E E E E E E E E E E E E E E E E E E E E E E E E E E E E E E E E E E E ",
"E E E E E E E E E E E E E E E E E E E E E E E E E E E E E E E E E E E E E E E E E E E E E E E E E E E E E E E E E E E E E E E E ",
"E E E E E E E E E E E E E E E E E E E E E E E E E E E E E E E E E E E E E E E E E E E E E E E E E E E E E E E E E E E E E E E E ",
"E E E E E E E E E E E E E E E E E E E E E E E E E E E E E E E E E E E E E E E E E E E E E E E E E E E E E E E E E E E E E E E E ",
"E E E E E E E E E E E E E E E E E E E E E E E E E E E E E E E E E E E E E E E E E E E E E E E E E E E E E E E E E E E E E E E E ",
"E E E E E E E E E E E E E E E E E E E E E E E E E E E E E E E E E E E E E E E E E E E E E E E E E E E E E E E E E E E E E E E E ",
"E E E E E E E E E E E E E E E E E E E E E E E E E E E E E E E E E E E E E E E E E E E E E E E E E E E E E E E E E E E E E E E E ",
"E E E E E E E E E E E E E E E E E E E E E E E E E E E E E E E E E E E E E E E E E E E E E E E E E E E E E E E E E E E E E E E E ",
"E E E E E E E E E E E E E E E E E E E E E E E E E E E E E E E E E E E E E E E E E E E E E E E E E E E E E E E E E E E E E E E E ",
"E E E E E E E E E E E E E E E E E E E E E E E E E E E E E E E E E E E E E E E E E E E E E E E E E E E E E E E E E E E E E E E E ",
"E E E E E E E E E E E E E E E E E E E E E E E E E E E E E E E E E E E E E E E E E E E E E E E E E E E E E E E E E E E E E E E E "
};
