/* XPM */
static char *result[] = {
/* columns rows colors chars-per-pixel */
"64 64 145 2 ",
"   c #050403",
".  c #090704",
"X  c #0D0A05",
"o  c #060909",
"O  c #0E0C0A",
"+  c #110C04",
"@  c #110E0B",
"#  c #1C1307",
"$  c #15120E",
"%  c #1C1208",
"&  c #131414",
"*  c #191611",
"=  c #1D1A15",
"-  c #161719",
";  c #171A1D",
":  c #1A1B1E",
">  c #20160B",
",  c #251A0E",
"<  c #221B15",
"1  c #291E14",
"2  c #221E19",
"3  c #2D2117",
"4  c #25211C",
"5  c #29241E",
"6  c #30261F",
"7  c #3A2818",
"8  c #1B1F22",
"9  c #1D2225",
"0  c #2A2520",
"q  c #24272B",
"w  c #23292D",
"e  c #2A2A2D",
"r  c #322A21",
"t  c #382C23",
"y  c #272C31",
"u  c #2C3236",
"i  c #2E353A",
"p  c #2E383F",
"a  c #353434",
"s  c #31363B",
"d  c #32383E",
"f  c #3A3B3D",
"g  c #413125",
"h  c #553E2C",
"j  c #4B3E37",
"k  c #5C4636",
"l  c #5D493B",
"z  c #664A33",
"x  c #634C3C",
"c  c #6C523F",
"v  c #715135",
"b  c #7D5A3B",
"n  c #353D44",
"m  c #3B3F43",
"M  c #374046",
"N  c #3B4246",
"B  c #3D454B",
"V  c #3F484F",
"C  c #3B4750",
"Z  c #3D4A53",
"A  c #40464B",
"S  c #444A4F",
"D  c #5F4D43",
"F  c #444D54",
"G  c #494E53",
"H  c #444F58",
"J  c #455056",
"K  c #4B5054",
"L  c #47515A",
"P  c #4A555D",
"I  c #52575B",
"U  c #54595D",
"Y  c #624E41",
"T  c #645043",
"R  c #6A5345",
"E  c #7D5C43",
"W  c #4A5762",
"Q  c #4D5963",
"!  c #4F5D68",
"~  c #525C65",
"^  c #535F6A",
"/  c #5C6267",
"(  c #54616B",
")  c #5A666E",
"_  c #576671",
"`  c #5A6770",
"'  c #5C6973",
"]  c #5F6D78",
"[  c #63696D",
"{  c #616D77",
"}  c #626F7A",
"|  c #64727C",
" . c #68757E",
".. c #876346",
"X. c #886345",
"o. c #956C48",
"O. c #9E7351",
"+. c #B2825B",
"@. c #BD895E",
"#. c #BC8B64",
"$. c #C18C5F",
"%. c #C28D60",
"&. c #C79163",
"*. c #CB9365",
"=. c #D49A6A",
"-. c #D99E6D",
";. c #DDA16F",
":. c #E4A672",
">. c #677681",
",. c #697781",
"<. c #6D7B85",
"1. c #6E7D89",
"2. c #717E8A",
"3. c #73818C",
"4. c #768591",
"5. c #788591",
"6. c #778995",
"7. c #7A8A96",
"8. c #7D8D99",
"9. c #7F929E",
"0. c #84898D",
"q. c #808E9C",
"w. c #82929E",
"e. c #8595A2",
"r. c #8799A6",
"t. c #899AA6",
"y. c #8D9DAA",
"u. c #909FAA",
"i. c #92A2AD",
"p. c #94A5B3",
"a. c #98A7B7",
"s. c #96A8B5",
"d. c #98AAB7",
"f. c #9FB1BF",
"g. c #AAAFB2",
"h. c #A8B6BE",
"j. c #A3B6C4",
"k. c #A5B8C7",
"l. c #A7BAC9",
"z. c #A9BCCB",
"x. c #B7C7CF",
"c. c #B3C6D4",
"v. c #B9CCD8",
"b. c #C3D4DD",
"n. c #CCDFEA",
/* pixels */
":.:.:.:.:.:.:.:.:.:.:.:.:.:.:.:.:.:.:.:.:.:.:.:.:.:.:.:.:.:.:.:.:.:.:.:.:.:.:.:.:.:.:.:.:.:.:.:.:.:.:.:.:.:.:.:.:.:.:.:.:.:.:.:.",
":.:.:.:.:.:.:.:.:.:.:.:.:.:.:.:.:.:.:.:.:.:.:.:.:.:.:.:.:.:.:.:.:.:.:.:.:.:.:.:.:.:.:.:.:.:.:.:.:.:.:.:.:.:.:.:.:.:.:.:.:.:.:.:.",
":.:.:.:.:.:.:.:.:.:.:.:.:.:.:.:.:.:.:.:.:.:.:.:.:.:.:.:.:.:.:.:.:.:.:.:.:.:.:.:.:.:.:.:.:.:.:.:.:.:.:.:.:.:.:.:.:.:.:.:.:.:.:.:.",
":.:.:.:.:.:.:.:.:.:.:.:.:.:.:.:.:.:.:.:.:.:.:.:.:.:.:.:.:.:.:.:.:.:.:.:.:.:.:.:.:.:.:.:.:.:.:.:.:.:.:.:.:.:.:.:.:.:.:.:.:.:.:.:.",
":.:.:.:.:.:.:.:.:.:.:.:.:.:.:.:.:.:.:.:.:.:.:.:.:.:.:.:.:.:.:.:.:.:.:.:.:.:.:.:.:.:.:.:.:.:.:.:.:.:.:.:.:.:.:.:.:.:.:.:.:.:.:.:.",
":.:.:.:.:.:.:.:.:.:.:.:.:.:.:.:.:.:.:.:.:.:.:.:.:.:.:.:.:.:.:.:.:.:.:.:.:.:.:.:.:.:.:.:.:.:.:.:.:.:.:.:.:.:.:.:.:.:.:.:.:.:.:.:.",
":.:.:.:.:.:.:.:.:.:.:.:.:.:.:.:.:.:.:.:.:.:.:.:.:.:.:.:.:.:.:.:.:.:.:.:.:.:.:.:.:.:.:.:.:.:.:.:.:.:.:.:.:.:.:.:.:.:.:.:.:.:.:.:.",
":.:.:.:.:.:.:.:.:.:.:.:.:.:.:.:.:.:.:.:.:.:.:.:.:.:.:.:.:.:.:.:.:.:.:.:.:.:.:.:.:.:.:.:.:.:.:.:.:.:.:.:.:.:.:.:.:.:.:.:.:.:.:.:.",
":.:.:.:.:.:.:.:.:.:.:.:.:.:.:.:.:.:.:.:.:.:.:.:.:.:.:.:.:.:.:.:.:.:.:.:.:.:.:.:.:.:.:.:.:.:.:.:.:.:.:.:.:.:.:.:.:.:.:.:.:.:.:.:.",
":.:.:.:.:.:.:.:.:.:.:.:.:.:.:.:.:.:.:.:.:.:.:.:.:.:.:.:.:.:.:.:.:.:.:.:.:.:.:.:.:.:.:.:.:.:.:.:.:.:.:.:.:.:.:.:.:.:.:.:.:.:.:.:.",
":.:.:.:.:.:.:.:.:.:.:.:.:.:.:.:.:.:.:.:.:.:.:.:.:.:.:.:.:.:.:.:.:.:.:.:.:.:.:.:.:.:.:.:.:.:.:.:.:.:.:.:.:.:.:.:.:.:.:.:.:.:.:.:.",
":.:.:.:.:.:.:.:.:.:.:.:.:.:.:.:.:.:.:.:.:.:.:.:.:.:.:.:.:.:.:.:.:.:.:.:.:.:.:.:.:.:.:.:.:.:.:.:.:.:.:.:.:.:.:.:.:.:.:.:.:.:.:.:.",
":.:.:.:.:.:.:.:.:.:.:.:.:.:.:.:.:.:.:.:.:.:.:.:.:.:.:.:.:.:.:.:.:.:.:.:.:.:.:.:.:.:.:.:.:.:.:.:.:.:.:.:.:.:.:.:.:.:.:.:.:.:.:.:.",
":.:.:.:.:.:.:.:.:.:.:.:.:.:.:.:.:.:.:.:.:.:.:.:.:.:.:.:.:.:.:.:.:.:.:.:.:.:.:.:.:.:.:.:.:.:.:.:.:.:.:.:.:.:.:.:.:.:.:.:.:.:.:.:.",
":.:.:.:.:.:.:.:.:.:.:.:.:.:.:.:.:.:.:.:.:.:.:.:.:.:.:.:.:.:.:.:.:.:.:.:.:.:.:.:.:.:.:.:.:.:.:.:.:.:.:.:.:.:.:.:.:.:.:.:.:.:.:.:.",
":.:.:.:.:.:.:.:.:.:.:.:.:.:.:.:.:.:.:.:.:.:.:.:.:.:.:.:.:.:.:.:.:.:.:.:.:.:.:.:.:.:.:.:.:.:.:.:.:.:.:.:.:.:.:.:.:.:.:.:.:.:.:.:.",
":.:.:.:.:.:.:.:.:.:.:.:.:.:.:.:.:.:.:.:.:.:.:.:.:.:.:.:.:.:.:.:.:.:.:.:.:.:.:.:.:.:.:.:.:.:.:.:.:.:.:.:.:.:.:.:.:.:.:.:.:.:.:.:.",
":.:.:.:.:.:.:.:.:.:.:.:.:.:.:.:.:.:.:.:.:.;.:.:.:.:.:.:.:.:.:.:.:.:.:.:.:.:.:.:.:.:.:.:.:.:.:.:.:.:.:.:.:.:.:.:.:.:.:.:.:.:.:.:.",
":.:.:.:.:.:.:.:.:.:.:.:.:.:.:.:.:.=.0.) ( ( #.=.;.:.:.:.:.:.:.:.:.:.:.:.:.:.:.:.:.:.:.:.:.:.:.:.:.:.:.:.:.:.:.:.:.:.:.:.:.:.:.:.",
":.:.:.:.:.:.:.:.:.:.:.:.:.:.:.:.-.g.v.h.s.a.e.h E E ;.:.:.:.:.:.:.:.:.:.:.:.:.:.:.:.:.:.:.:.:.:.:.:.:.:.:.:.:.:.:.:.:.:.:.:.:.:.",
":.:.:.:.:.:.:.:.:.:.:.:.:.:.:.=.@.3.j.s.s.s.w.' 9.w.( U #.&.*.:.:.:.:.:.:.:.:.:.:.:.:.:.:.:.:.:.:.:.:.:.:.:.:.:.:.:.:.:.:.:.:.:.",
":.:.:.:.:.:.:.:.:.:.:.:.......h w.( ) ) ) ` P [ 9.9.6.d.w.9.9.E X.:.:.:.:.:.:.:.:.:.:.:.:.:.:.:.:.:.:.:.:.:.:.:.:.:.:.:.:.:.:.:.",
":.:.:.c S f a a G S a [ n.l.d.y.l.7.3.| W W W | 9.d.8.s.} r.s.s.( K f f f N N m +.:.:.:.:.:.:.:.:.:.:.:.:.:.:.:.:.:.:.:.:.:.:.:.",
":.:.:.R q.S U A w.7.n b.l.l.t.x.z.h.7.<.<.<.1.t. .8.8.s.r.i.s.s./ e. .P J ( 5.| +.:.:.:.:.:.:.:.:.:.:.:.:.:.:.:.:.:.:.:.:.:.:.:.",
":.=.=.Y q.I S A q.w.u u.j.l.s.h.c.f.d.s.p.p.s.9.9.6.4.p.s.s.s.s.( w.d V B V V B 9 *.;.*.=.=.=.=.=.*.=.*.=.=.=.*.;.=.=.=.K f z ;.",
":.k } N q.L G m q.8.s } i.p.e.  i.z.k.s.3.3.3.s.9.y.9.y.p.s.s.s.( e.<.9.r.r.r.6.U | 3.6.6.6.6.6.3.3.3.3.3.|  .3.3.3.6.6.9.( k :.",
":.Y 2.A g.r.w.q.7.4. .q p p i w.t.3.i.f._ s._ s.s.9.3.p.p.s.s.s.( w.J ( ( ^ ( Q A i u u C M u l D T T T l l T T x T T T x x E :.",
":.x w u a.y.a.<.2.) ,.C P P J w.i.3.P  .Z 4._ s.s.r.6.( _ | >.>.N e.~ ) ( ) ( P  .V V d } 3.Z ;.:.:.:.:.:.:.:.:.:.:.:.:.:.:.:.:.",
":.l n u a.y.a.{ 7.)  .C P P Z w.s.r.} } L u u M M M M ! ! _ _ _ n i | 4.3.3.3.' i S | 3.) S ! =.:.:.:.:.:.:.:.:.:.:.:.:.:.:.:.:.",
":.Y 7.F a.y.y.e. .2.2.F n n P w.p.e.] ` ( _ _ _ _ ( _ _ Z _ _ ] n F ,.q.8.8.3.' P } }  .3.3.J =.:.:.:.:.:.:.:.:.:.:.:.:.:.:.:.:.",
":.l H d 5./ I G q.5.P G H (  .3.p.9.] ] _ ( ( ! ( _ ! Z _ Z ] _ n Z  .~ Q ) 5.] J ` ] |  .3.( ;.:.:.:.:.:.:.:.:.:.:.:.:.:.:.:.:.",
":.l A d q.G I A q.7.A S F { <.B p.9.3._ ( ( ( _ ! ( ( Z W W _ ] n n y p.e.5.) | ) Z } | ,. ._ =.:.:.:.:.:.:.:.:.:.:.:.:.:.:.:.:.",
":.c d i 5.S U A w.7.N S f | 3.2.F B Z ( ( W ! ( ^ ^ ^ ^ ! ^ _ _ n 4.2.P F ~ 2.{ 2.G ' | >.<./ -.:.:.:.:.:.:.:.:.:.:.:.:.:.:.:.:.",
":.:.O.j [ S A N ' ] a a N U ' ^ P ( ) ; 8 8 9 : 8 8 8 8 8 q 8 8 ~ ' ~ L F L ~ F d N { >.,.<.^ =.:.:.:.:.:.:.:.:.:.:.:.:.:.:.:.:.",
":.:.:.c L L L L L G H L J J H J L L P P P H H H L H H L H H G H W W P W L W P L a S { | ,.<.^ -.:.:.:.:.:.:.:.:.:.:.:.:.:.:.:.:.",
":.:.:.x A J H H P P H H S F S S S F S F F F F F F F F H H H F H F H L L H H H S ^ <.{ ~ ^ { P =.:.:.:.:.:.:.:.:.:.:.:.:.:.:.:.:.",
":.:.:.=.d ^ ^ ( ( ( ( ( ( ( ^ ( ( ^ ~ ( ^ ^ ) ) ) ) ` ` ` ` ` ` ` ` ` ` ` ) ` ^ ~ <.<.<.,. .~ =.:.:.:.:.:.:.:.:.:.:.:.:.:.:.:.:.",
":.:.:.:.N ( ^ ~ ( ( ~ ( ( ( ( ~ ( ( ( ( ^ ( P d Z A B B A B B n n m n i d d d d : 9 P ) | 2.( =.:.:.:.:.:.:.:.:.:.:.:.:.:.:.:.:.",
":.:.:...q e e e e e e e e e e e : - & & - & ;     X     . . . . . .             @ & : & a N d =.:.:.:.:.:.:.:.:.:.:.:.:.:.:.:.:.",
":.:.:.x : $ $ $     . .                       .           .   . .           X * < 2 @ 2 @ o O.:.:.:.:.:.:.:.:.:.:.:.:.:.:.:.:.:.",
":.:.:.z * = & $ 2 & = @ $ 5 4 * * = X = 5 5 @ * * X 4 0 4 @ = & X 0 0 2 & = @ 0 < 4 < 4 < X O.:.:.:.:.:.:.:.:.:.:.:.:.:.:.:.:.:.",
":.:.:.z * @ 5 @ 4 $ @ = 5 $ * 4 * O 2 2 * * 4 $ @ 4 = * * 4 @ & 4 * * = = @ @ 2 @ 5 = @ 2 , O.:.:.:.:.:.:.:.:.:.:.:.:.:.:.:.:.:.",
":.:.:.z * @ @ + 4 $ @ 4 * 4 4 * 4 O 0 & 4 2 * 4 @ 0 * 5 = 4 * * = = 0 * 4 @ @ 2 = X < 4 + g =.:.:.:.:.:.:.:.:.:.:.:.:.:.:.:.:.:.",
":.:.:.:.v < 2 2 X $ + 5 * 4 4 * 4 O 0 * 5 4 * 4 @ 4 * 5 = = * * = = 5 * 2 @ @ * = 4 5 1 b :.:.:.:.:.:.:.:.:.:.:.:.:.:.:.:.:.:.:.",
":.:.:.:.-.z + + . X X @ 4 * * 4 $ + 4 4 $ * 4 $ @ = * * * 2 @ X 4 * * = = @ $ @   + o.$.:.:.:.:.:.:.:.:.:.:.:.:.:.:.:.:.:.:.:.:.",
":.:.:.:.:.:.&.v < , * $ * 6 t 3 3 3 > 3 t 6 % # % % 6 r r > > > > 5 6 5 > 1 , 7 b ;.:.:.:.:.:.:.:.:.:.:.:.:.:.:.:.:.:.:.:.:.:.:.",
":.:.:.:.:.:.:.:.@.@.@.@.@.$.%.%.%.%.$.$.#.%.#.%.$.$.$.$.$.$.%.$.%.$.$.$.$.$.$.*.:.:.:.:.:.:.:.:.:.:.:.:.:.:.:.:.:.:.:.:.:.:.:.:.",
":.:.:.:.:.:.:.:.:.:.:.:.:.:.:.:.:.:.:.:.:.:.:.:.:.:.:.:.:.:.:.:.:.:.:.:.:.:.:.:.:.:.:.:.:.:.:.:.:.:.:.:.:.:.:.:.:.:.:.:.:.:.:.:.",
":.:.:.:.:.:.:.:.:.:.:.:.:.:.:.:.:.:.:.:.:.:.:.:.:.:.:.:.:.:.:.:.:.:.:.:.:.:.:.:.:.:.:.:.:.:.:.:.:.:.:.:.:.:.:.:.:.:.:.:.:.:.:.:.",
":.:.:.:.:.:.:.:.:.:.:.:.:.:.:.:.:.:.:.:.:.:.:.:.:.:.:.:.:.:.:.:.:.:.:.:.:.:.:.:.:.:.:.:.:.:.:.:.:.:.:.:.:.:.:.:.:.:.:.:.:.:.:.:.",
":.:.:.:.:.:.:.:.:.:.:.:.:.:.:.:.:.:.:.:.:.:.:.:.:.:.:.:.:.:.:.:.:.:.:.:.:.:.:.:.:.:.:.:.:.:.:.:.:.:.:.:.:.:.:.:.:.:.:.:.:.:.:.:.",
":.:.:.:.:.:.:.:.:.:.:.:.:.:.:.:.:.:.:.:.:.:.:.:.:.:.:.:.:.:.:.:.:.:.:.:.:.:.:.:.:.:.:.:.:.:.:.:.:.:.:.:.:.:.:.:.:.:.:.:.:.:.:.:.",
":.:.:.:.:.:.:.:.:.:.:.:.:.:.:.:.:.:.:.:.:.:.:.:.:.:.:.:.:.:.:.:.:.:.:.:.:.:.:.:.:.:.:.:.:.:.:.:.:.:.:.:.:.:.:.:.:.:.:.:.:.:.:.:.",
":.:.:.:.:.:.:.:.:.:.:.:.:.:.:.:.:.:.:.:.:.:.:.:.:.:.:.:.:.:.:.:.:.:.:.:.:.:.:.:.:.:.:.:.:.:.:.:.:.:.:.:.:.:.:.:.:.:.:.:.:.:.:.:.",
":.:.:.:.:.:.:.:.:.:.:.:.:.:.:.:.:.:.:.:.:.:.:.:.:.:.:.:.:.:.:.:.:.:.:.:.:.:.:.:.:.:.:.:.:.:.:.:.:.:.:.:.:.:.:.:.:.:.:.:.:.:.:.:.",
":.:.:.:.:.:.:.:.:.:.:.:.:.:.:.:.:.:.:.:.:.:.:.:.:.:.:.:.:.:.:.:.:.:.:.:.:.:.:.:.:.:.:.:.:.:.:.:.:.:.:.:.:.:.:.:.:.:.:.:.:.:.:.:.",
":.:.:.:.:.:.:.:.:.:.:.:.:.:.:.:.:.:.:.:.:.:.:.:.:.:.:.:.:.:.:.:.:.:.:.:.:.:.:.:.:.:.:.:.:.:.:.:.:.:.:.:.:.:.:.:.:.:.:.:.:.:.:.:.",
":.:.:.:.:.:.:.:.:.:.:.:.:.:.:.:.:.:.:.:.:.:.:.:.:.:.:.:.:.:.:.:.:.:.:.:.:.:.:.:.:.:.:.:.:.:.:.:.:.:.:.:.:.:.:.:.:.:.:.:.:.:.:.:.",
":.:.:.:.:.:.:.:.:.:.:.:.:.:.:.:.:.:.:.:.:.:.:.:.:.:.:.:.:.:.:.:.:.:.:.:.:.:.:.:.:.:.:.:.:.:.:.:.:.:.:.:.:.:.:.:.:.:.:.:.:.:.:.:.",
":.:.:.:.:.:.:.:.:.:.:.:.:.:.:.:.:.:.:.:.:.:.:.:.:.:.:.:.:.:.:.:.:.:.:.:.:.:.:.:.:.:.:.:.:.:.:.:.:.:.:.:.:.:.:.:.:.:.:.:.:.:.:.:.",
":.:.:.:.:.:.:.:.:.:.:.:.:.:.:.:.:.:.:.:.:.:.:.:.:.:.:.:.:.:.:.:.:.:.:.:.:.:.:.:.:.:.:.:.:.:.:.:.:.:.:.:.:.:.:.:.:.:.:.:.:.:.:.:.",
":.:.:.:.:.:.:.:.:.:.:.:.:.:.:.:.:.:.:.:.:.:.:.:.:.:.:.:.:.:.:.:.:.:.:.:.:.:.:.:.:.:.:.:.:.:.:.:.:.:.:.:.:.:.:.:.:.:.:.:.:.:.:.:.",
":.:.:.:.:.:.:.:.:.:.:.:.:.:.:.:.:.:.:.:.:.:.:.:.:.:.:.:.:.:.:.:.:.:.:.:.:.:.:.:.:.:.:.:.:.:.:.:.:.:.:.:.:.:.:.:.:.:.:.:.:.:.:.:.",
":.:.:.:.:.:.:.:.:.:.:.:.:.:.:.:.:.:.:.:.:.:.:.:.:.:.:.:.:.:.:.:.:.:.:.:.:.:.:.:.:.:.:.:.:.:.:.:.:.:.:.:.:.:.:.:.:.:.:.:.:.:.:.:."
};
