/* XPM */
static char *result[] = {
/* columns rows colors chars-per-pixel */
"64 64 80 1 ",
"  c #040303",
". c #090704",
"X c #0B0906",
"o c #0E0C0A",
"O c #110E0B",
"+ c #15110D",
"@ c #18150F",
"# c #0E0F10",
"$ c #0E1011",
"% c #161311",
"& c #191612",
"* c #1E1B15",
"= c #1C1D1F",
"- c #201D17",
"; c #211E18",
": c #1F2023",
"> c #212224",
", c #212529",
"< c #262A2D",
"1 c #292B2D",
"2 c #282D31",
"3 c #2C3237",
"4 c #2D3439",
"5 c #31363B",
"6 c #353A3E",
"7 c #353D43",
"8 c #393F46",
"9 c #3B4147",
"0 c #3D454C",
"q c #3B4750",
"w c #3E4A51",
"e c #40474C",
"r c #42484E",
"t c #444D54",
"y c #494E50",
"u c #465057",
"i c #495157",
"p c #46525A",
"a c #4A545B",
"s c #4C585F",
"d c #4A5761",
"f c #4D5A63",
"g c #525D65",
"h c #535F68",
"j c #56616A",
"k c #5A656D",
"l c #566571",
"z c #5F6770",
"x c #5D6A74",
"c c #626C76",
"v c #626E79",
"b c #65727B",
"n c #6A757E",
"m c #6A7782",
"M c #6D7B85",
"N c #6E7E8A",
"B c #707C87",
"V c #717E89",
"C c #73828D",
"Z c #778692",
"A c #788692",
"S c #7A8A96",
"D c #7F8F9B",
"F c #7F909B",
"G c #82919D",
"H c #8695A2",
"J c #8698A4",
"K c #8A9AA6",
"L c #8B9BA8",
"P c #919FA8",
"I c #8FA0AD",
"U c #91A1AF",
"Y c #93A4B2",
"T c #96A9B6",
"R c #9BACBA",
"E c #9FB1BF",
"W c #9FB2C0",
"Q c #AABDCB",
"! c #B8CDDD",
"~ c None",
/* pixels */
"~~~~~~~~~~~~~~~~~~~~~~~~~~~~~~~~~~~~~~~~~~~~~~~~~~~~~~~~~~~~~~~~",
"~~~~~~~~~~~~~~~~~~~~~~~~~~~~~~~~~~~~~~~~~~~~~~~~~~~~~~~~~~~~~~~~",
"~~~~~~~~~~~~~~~~~~~~~~~~~~~~~~~~~~~~~~~~~~~~~~~~~~~~~~~~~~~~~~~~",
"~~~~~~~~~~~~~~~~~~~~~~~~~~~~~~~~~~~~~~~~~~~~~~~~~~~~~~~~~~~~~~~~",
"~~~~~~~~~~~~~~~~~~~~~~~~~~~~~~~~~~~~~~~~~~~~~~~~~~~~~~~~~~~~~~~~",
"~~~~~~~~~~~~~~~~~~~~~~~~~~~~~~~~~~~~~~~~~~~~~~~~~~~~~~~~~~~~~~~~",
"~~~~~~~~~~~~~~~~~~~~~~~~~~~~~~~~~~~~~~~~~~~~~~~~~~~~~~~~~~~~~~~~",
"~~~~~~~~~~~~~~~~~~~~~~~~~~~~~~~~~~~~~~~~~~~~~~~~~~~~~~~~~~~~~~~~",
"~~~~~~~~~~~~~~~~~~~~~~~~~~~~~~~~~~~~~~~~~~~~~~~~~~~~~~~~~~~~~~~~",
"~~~~~~~~~~~~~~~~~~~~~~~~~~~~~~~~~~~~~~~~~~~~~~~~~~~~~~~~~~~~~~~~",
"~~~~~~~~~~~~~~~~~~~~~~~~~~~~~~~~~~~~~~~~~~~~~~~~~~~~~~~~~~~~~~~~",
"~~~~~~~~~~~~~~~~~~~~~~~~~~~~~~~~~~~~~~~~~~~~~~~~~~~~~~~~~~~~~~~~",
"~~~~~~~~~~~~~~~~~~~~~~~~~~~~~~~~~~~~~~~~~~~~~~~~~~~~~~~~~~~~~~~~",
"~~~~~~~~~~~~~~~~~~~~~~~~~~~~~~~~~~~~~~~~~~~~~~~~~~~~~~~~~~~~~~~~",
"~~~~~~~~~~~~~~~~~~~~~~~~~~~~~~~~~~~~~~~~~~~~~~~~~~~~~~~~~~~~~~~~",
"~~~~~~~~~~~~~~~~~~~~~~~~~~~~~~~~~~~~~~~~~~~~~~~~~~~~~~~~~~~~~~~~",
"~~~~~~~~~~~~~~~~~~~~~~~~~~~~~~~~~~~~~~~~~~~~~~~~~~~~~~~~~~~~~~~~",
"~~~~~~~~~~~~~~~~~~~~~~~~~~~~~~~~~~~~~~~~~~~~~~~~~~~~~~~~~~~~~~~~",
"~~~~~~~~~~~~~~~~~~~~~~~~~~~~~~~~~~~~~~~~~~~~~~~~~~~~~~~~~~~~~~~~",
"~~~~~~~~~~~~~~~~~~~~~~~~~~~~~~~~~~~~~~~~~~~~~~~~~~~~~~~~~~~~~~~~",
"~~~~~~~~~~~~~~~~~~~~~~~~~~~~~~~~~~~~~~~~~~~~~~~~~~~~~~~~~~~~~~~~",
"~~~~~~~~~~~~~~~~~~~~~~~~~~MQTC4q~~~~~~~~~~~~~~~~~~~~~~~~~~~~~~~~",
"~~~~~~~~~~~~~~~~~~~~~~~~~5sSAxvFNxa~~~~~~~~~~~~~~~~~~~~~~~~~~~~~",
"~~~~~~~~~~~~~~~~~~e6eayRAKGa0wCJLFRC808a7~~~~~~~~~~~~~~~~~~~~~~~",
"~~~~~~~~~~~~~~~~~7zezAk!JPQKJISCKYTFjptk9~~~~~~~~~~~~0,~~~~~~~~~",
"~~~~~~~~~~~~~~~~9gnkbC8bkaLWZCIFJREHfxCNatahffaapuasgj<~~~~~~~~~",
"~~~~~~~~~~~~~~~~26KYBv0t7FmkjxJCxxbjataa0r6jr~~~~~~~~~~~~~~~~~~~",
"~~~~~~~~~~~~~~~~8sHPBma09DJxpwupaahp4CSStgmba~~~~~~~~~~~~~~~~~~~",
"~~~~~~~~~~~~~~~~7ycgcCyefMJvllllddlg3vmmagvVj~~~~~~~~~~~~~~~~~~~",
"~~~~~~~~~~~~~~~~18kyzCerCkkgdsddptfupxxvggxNj~~~~~~~~~~~~~~~~~~~",
"~~~~~~~~~~~~~~~~~2r8rt87ut0733333747dt9t6rbNk~~~~~~~~~~~~~~~~~~~",
"~~~~~~~~~~~~~~~~~~quiaatwtttuuppptppudaa0bkka~~~~~~~~~~~~~~~~~~~",
"~~~~~~~~~~~~~~~~~~ehhhhghhhggftatuptyqer50xMg~~~~~~~~~~~~~~~~~~~",
"~~~~~~~~~~~~~~~~~~,>>:>>==%#$# .  ...   O+&15~~~~~~~~~~~~~~~~~~~",
"~~~~~~~~~~~~~~~~~~%&+OOO%OOO&+Oo&%OO+&oO-@@O+~~~~~~~~~~~~~~~~~~~",
"~~~~~~~~~~~~~~~~~~&+&++-**+--*&*=-&&-=&%&&&@%~~~~~~~~~~~~~~~~~~~",
"~~~~~~~~~~~~~~~~~~O++++*;=+-;-&*;-*&---O@@@X~~~~~~~~~~~~~~~~~~~~",
"~~~~~~~~~~~~~~~~~~~ XOO-;&+@*&.O-&XX&&O+. ~~~~~~~~~~~~~~~~~~~~~~",
"~~~~~~~~~~~~~~~~~~~~~~~~~~~~~~~~~~~~~~~~~~~~~~~~~~~~~~~~~~~~~~~~",
"~~~~~~~~~~~~~~~~~~~~~~~~~~~~~~~~~~~~~~~~~~~~~~~~~~~~~~~~~~~~~~~~",
"~~~~~~~~~~~~~~~~~~~~~~~~~~~~~~~~~~~~~~~~~~~~~~~~~~~~~~~~~~~~~~~~",
"~~~~~~~~~~~~~~~~~~~~~~~~~~~~~~~~~~~~~~~~~~~~~~~~~~~~~~~~~~~~~~~~",
"~~~~~~~~~~~~~~~~~~~~~~~~~~~~~~~~~~~~~~~~~~~~~~~~~~~~~~~~~~~~~~~~",
"~~~~~~~~~~~~~~~~~~~~~~~~~~~~~~~~~~~~~~~~~~~~~~~~~~~~~~~~~~~~~~~~",
"~~~~~~~~~~~~~~~~~~~~~~~~~~~~~~~~~~~~~~~~~~~~~~~~~~~~~~~~~~~~~~~~",
"~~~~~~~~~~~~~~~~~~~~~~~~~~~~~~~~~~~~~~~~~~~~~~~~~~~~~~~~~~~~~~~~",
"~~~~~~~~~~~~~~~~~~~~~~~~~~~~~~~~~~~~~~~~~~~~~~~~~~~~~~~~~~~~~~~~",
"~~~~~~~~~~~~~~~~~~~~~~~~~~~~~~~~~~~~~~~~~~~~~~~~~~~~~~~~~~~~~~~~",
"~~~~~~~~~~~~~~~~~~~~~~~~~~~~~~~~~~~~~~~~~~~~~~~~~~~~~~~~~~~~~~~~",
"~~~~~~~~~~~~~~~~~~~~~~~~~~~~~~~~~~~~~~~~~~~~~~~~~~~~~~~~~~~~~~~~",
"~~~~~~~~~~~~~~~~~~~~~~~~~~~~~~~~~~~~~~~~~~~~~~~~~~~~~~~~~~~~~~~~",
"~~~~~~~~~~~~~~~~~~~~~~~~~~~~~~~~~~~~~~~~~~~~~~~~~~~~~~~~~~~~~~~~",
"~~~~~~~~~~~~~~~~~~~~~~~~~~~~~~~~~~~~~~~~~~~~~~~~~~~~~~~~~~~~~~~~",
"~~~~~~~~~~~~~~~~~~~~~~~~~~~~~~~~~~~~~~~~~~~~~~~~~~~~~~~~~~~~~~~~",
"~~~~~~~~~~~~~~~~~~~~~~~~~~~~~~~~~~~~~~~~~~~~~~~~~~~~~~~~~~~~~~~~",
"~~~~~~~~~~~~~~~~~~~~~~~~~~~~~~~~~~~~~~~~~~~~~~~~~~~~~~~~~~~~~~~~",
"~~~~~~~~~~~~~~~~~~~~~~~~~~~~~~~~~~~~~~~~~~~~~~~~~~~~~~~~~~~~~~~~",
"~~~~~~~~~~~~~~~~~~~~~~~~~~~~~~~~~~~~~~~~~~~~~~~~~~~~~~~~~~~~~~~~",
"~~~~~~~~~~~~~~~~~~~~~~~~~~~~~~~~~~~~~~~~~~~~~~~~~~~~~~~~~~~~~~~~",
"~~~~~~~~~~~~~~~~~~~~~~~~~~~~~~~~~~~~~~~~~~~~~~~~~~~~~~~~~~~~~~~~",
"~~~~~~~~~~~~~~~~~~~~~~~~~~~~~~~~~~~~~~~~~~~~~~~~~~~~~~~~~~~~~~~~",
"~~~~~~~~~~~~~~~~~~~~~~~~~~~~~~~~~~~~~~~~~~~~~~~~~~~~~~~~~~~~~~~~",
"~~~~~~~~~~~~~~~~~~~~~~~~~~~~~~~~~~~~~~~~~~~~~~~~~~~~~~~~~~~~~~~~",
"~~~~~~~~~~~~~~~~~~~~~~~~~~~~~~~~~~~~~~~~~~~~~~~~~~~~~~~~~~~~~~~~"
};
