/* XPM */
static char *result[] = {
/* columns rows colors chars-per-pixel */
"64 64 82 1 ",
"  c #060503",
". c #090705",
"X c #0C0905",
"o c #0D0B0A",
"O c #110E0B",
"+ c #15120E",
"@ c #0C0E10",
"# c #0F1011",
"$ c #151413",
"% c #191612",
"& c #1D1A15",
"* c #1A1C1E",
"= c #201C17",
"- c #211E18",
"; c #242426",
": c #202428",
"> c #262E35",
", c #2B3035",
"< c #2C343B",
"1 c #31363C",
"2 c #363A3E",
"3 c #353C42",
"4 c #393E43",
"5 c #353F48",
"6 c #354047",
"7 c #37414A",
"8 c #3D454D",
"9 c #3F484F",
"0 c #3C4350",
"q c #3E4A53",
"w c #414549",
"e c #41484E",
"r c #414750",
"t c #434C54",
"y c #464F5A",
"u c #465157",
"i c #485157",
"p c #46525B",
"a c #4B555E",
"s c #475560",
"d c #4B5662",
"f c #4D5963",
"g c #4E5E68",
"h c #515B64",
"j c #525F69",
"k c #55626B",
"l c #58646C",
"z c #566671",
"x c #5B6770",
"c c #5E6A73",
"v c #606C77",
"b c #616D79",
"n c #65727C",
"m c #68747D",
"M c #667481",
"N c #6A7780",
"B c #6C7A84",
"V c #6E7D88",
"C c #707C83",
"Z c #717E8A",
"A c #74828C",
"S c #768591",
"D c #7A8794",
"F c #7A8A96",
"G c #7D8D99",
"H c #7F909C",
"J c #828E9C",
"K c #81919D",
"L c #8595A4",
"P c #8798A5",
"I c #899BA7",
"U c #8C9DAA",
"Y c #8FA1AD",
"T c #91A2AF",
"R c #94A5B2",
"E c #97A9B6",
"W c #9BADB9",
"Q c #9EB0BE",
"! c #9FB1C0",
"~ c #A1B4C1",
"^ c #A9BDCB",
"/ c None",
/* pixels */
"////////////////////////////////////////////////////////////////",
"////////////////////////////////////////////////////////////////",
"////////////////////////////////////////////////////////////////",
"////////////////////////////////////////////////////////////////",
"////////////////////////////////////////////////////////////////",
"////////////////////////////////////////////////////////////////",
"////////////////////////////////////////////////////////////////",
"////////////////////////////////////////////////////////////////",
"////////////////////////////////////////////////////////////////",
"////////////////////////////////////////////////////////////////",
"////////////////////////////////////////////////////////////////",
"////////////////////////////////////////////////////////////////",
"////////////////////////////////////////////////////////////////",
"////////////////////////////////////////////////////////////////",
"////////////////////////////////////////////////////////////////",
"////////////////////////////////////////////////////////////////",
"////////////////////////////////////////////////////////////////",
"////////////////////////////////////////////////////////////////",
"////////////////////////////////////////////////////////////////",
"////////////////////////////////////////////////////////////////",
"////////////////////////////////////////////////////////////////",
"//////////////////////////////8<<88/////////////////////////////",
"///////////////////////////lVFEBmUYS3///////////////////////////",
"////////////////////////4iW^PRHHAVmVhHP4////////////////////////",
"///////,h////////////8nchcT^QUSxE!Wa6bA6klwa8///////////////////",
"///////1ABCxxhaaxckhpvKGBxU~EUWAkkg76<6>kcwup8//////////////////",
"/////////////////1fhftkka8xmcBHSr78pp7q7nbMvu8//////////////////",
"/////////////////fDVcyRRS>djssuuqqpsp19ammmB81//////////////////",
"/////////////////aLGFhJDb<kgsdzzgsaaqkNmnlllaa//////////////////",
"/////////////////hPGmfZJVtdgqpdaqqq8kFh8lvwwe<//////////////////",
"/////////////////hLJvrblxmprrrq9quhclbe2ah283://////////////////",
"/////////////////aGZberytttttytt9qe9989eqrrt,///////////////////",
"/////////////////iSFAarttpttututufffffafffht////////////////////",
"/////////////////ev2:##@o***$$$$*,,,14243332////////////////////",
"//////////////////o++$X .$  .o . .  .OooOo$o////////////////////",
"//////////////////O%&%%+&=%+*&%+%-&+%&&+O%+$$///////////////////",
"//////////////////X+&%O%&-&%&-&%&-&%&&&&O%$++///////////////////",
"////////////////////XXO+&&+O&-&o%&-+$&&$oXX.////////////////////",
"//////////////////////XXo+  X%X X%+Xo+&+OO//////////////////////",
"////////////////////////////////////////////////////////////////",
"////////////////////////////////////////////////////////////////",
"////////////////////////////////////////////////////////////////",
"////////////////////////////////////////////////////////////////",
"////////////////////////////////////////////////////////////////",
"////////////////////////////////////////////////////////////////",
"////////////////////////////////////////////////////////////////",
"////////////////////////////////////////////////////////////////",
"////////////////////////////////////////////////////////////////",
"////////////////////////////////////////////////////////////////",
"////////////////////////////////////////////////////////////////",
"////////////////////////////////////////////////////////////////",
"////////////////////////////////////////////////////////////////",
"////////////////////////////////////////////////////////////////",
"////////////////////////////////////////////////////////////////",
"////////////////////////////////////////////////////////////////",
"////////////////////////////////////////////////////////////////",
"////////////////////////////////////////////////////////////////",
"////////////////////////////////////////////////////////////////",
"////////////////////////////////////////////////////////////////",
"////////////////////////////////////////////////////////////////",
"////////////////////////////////////////////////////////////////",
"////////////////////////////////////////////////////////////////",
"////////////////////////////////////////////////////////////////",
"////////////////////////////////////////////////////////////////"
};
