/* XPM */
static char *result[] = {
/* columns rows colors chars-per-pixel */
"64 64 180 2 ",
"   c #331F0A",
".  c #36200B",
"X  c #3C210B",
"o  c #3C2611",
"O  c #3C2812",
"+  c #43220C",
"@  c #4B230D",
"#  c #53250E",
"$  c #5B260E",
"%  c #402712",
"&  c #4D2610",
"*  c #442B15",
"=  c #4A2A14",
"-  c #462E19",
";  c #542611",
":  c #582711",
">  c #5D2913",
",  c #47301A",
"<  c #52361E",
"1  c #52381F",
"2  c #62270F",
"3  c #652710",
"4  c #682710",
"5  c #642B14",
"6  c #6B2C15",
"7  c #6D2E18",
"8  c #732A12",
"9  c #7C2C13",
"0  c #702F18",
"q  c #753116",
"w  c #7F3014",
"e  c #743219",
"r  c #7B351A",
"t  c #7F391C",
"y  c #553A21",
"u  c #5B3D24",
"i  c #763B22",
"p  c #5E4027",
"a  c #5F4329",
"s  c #65452A",
"d  c #66482D",
"f  c #6D4A2E",
"g  c #714E31",
"h  c #755235",
"j  c #7A5537",
"k  c #7C5839",
"l  c #842C13",
"z  c #8B2C13",
"x  c #912E14",
"c  c #823417",
"v  c #83351B",
"b  c #8B371B",
"n  c #833A1C",
"m  c #8B3D1D",
"M  c #92361B",
"N  c #923B1E",
"B  c #9B3C1F",
"V  c #873D23",
"C  c #9E3920",
"Z  c #A13D20",
"A  c #8E401E",
"S  c #93421E",
"D  c #9A441F",
"F  c #9D4A1E",
"G  c #A1441F",
"H  c #A64A1F",
"J  c #AC4E1F",
"K  c #A4531E",
"L  c #AD521F",
"P  c #AE591E",
"I  c #B2551F",
"U  c #B55B1F",
"Y  c #B95D1F",
"T  c #B6631F",
"R  c #BD641F",
"E  c #B56F1B",
"W  c #BF691F",
"Q  c #9B4620",
"!  c #9F4920",
"~  c #864F32",
"^  c #845B3B",
"/  c #8B5838",
"(  c #935C3C",
")  c #A54320",
"_  c #A94520",
"`  c #A54D22",
"'  c #AA4A21",
"]  c #B14A21",
"[  c #B94B24",
"{  c #AC5122",
"}  c #AA5229",
"|  c #B35323",
" . c #BA5424",
".. c #BE5E21",
"X. c #B66020",
"o. c #BD6120",
"O. c #B6653B",
"+. c #C1671F",
"@. c #C36C1F",
"#. c #C5701E",
"$. c #CA741E",
"%. c #CE7B1E",
"&. c #D17E1E",
"*. c #CD5427",
"=. c #C95925",
"-. c #D45D27",
";. c #D25628",
":. c #C16620",
">. c #CE6424",
",. c #C66B20",
"<. c #C96C21",
"1. c #D56227",
"2. c #D86727",
"3. c #D36B25",
"4. c #D96B26",
"5. c #CF7920",
"6. c #DC7426",
"7. c #D27A22",
"8. c #DE7B25",
"9. c #E07E25",
"0. c #8D6442",
"q. c #916744",
"w. c #956B47",
"e. c #9E6B47",
"r. c #9A6E49",
"t. c #9C714B",
"y. c #A56A45",
"u. c #B86C41",
"i. c #A3754E",
"p. c #BE754A",
"a. c #AB7B53",
"s. c #B77B53",
"d. c #C3774B",
"f. c #C97B4D",
"g. c #C97F51",
"h. c #D4831E",
"j. c #D8861F",
"k. c #DA8B1E",
"l. c #DD921E",
"z. c #E1951E",
"x. c #E49C1F",
"c. c #E89F1D",
"v. c #E3A21F",
"b. c #EBA21E",
"n. c #EEB51F",
"m. c #DD8522",
"M. c #DE9320",
"N. c #E18325",
"B. c #E48C24",
"V. c #E59323",
"C. c #E89624",
"Z. c #E39A21",
"A. c #EA9C23",
"S. c #E7A121",
"D. c #ECA422",
"F. c #EEAA22",
"G. c #F0AF22",
"H. c #F2B421",
"J. c #F4BC21",
"K. c #F5C021",
"L. c #F9C820",
"P. c #B28157",
"I. c #B58359",
"U. c #B9855A",
"Y. c #BC895D",
"T. c #C28559",
"R. c #CB8759",
"E. c #CC8658",
"W. c #C18C5F",
"Q. c #D18D5D",
"!. c #C48E61",
"~. c #C79062",
"^. c #CB9364",
"/. c #D19666",
"(. c #DA9665",
"). c #D49A69",
"_. c #DA9E6C",
"`. c #DEA16E",
"'. c #E1A26F",
"]. c #E4A672",
/* pixels */
"].].].].].].].].].].].].].].].].].].].].].].].].].].].].].].].].].].].].].].].].].].].].].].].].d.O.(.].].].].].].].].].].].].].",
"].].].].].].].].].].].].].].].].].].].].].].].].].].].].].].].].].].].].].].].].].].].].].].].E.|  .f.].].].].].].].].].].].].].",
"].].].].].].].].].].].].].].].].].].].].].].].].].].].].].].].].].].].].].].].].].].].].].].R.} ' | d.].].].].].].].].].].].].].",
"].].].].].].].].].].].].].].].].].].].].].].].].].].].].].].].].].].].].].].].].].].].].]._.S F ` ' d.].].].].].].].].].].].].].",
"].].].].].].].].].].].].].].].].].].].].].].].].].].].].].].].].].].].].].].].].].].].].].~ 8 9 N Q p.].].].].].].].].].].].].].",
"].].].].].].].].].].].].].].].].].].].].].].].].].].].].].].].].].].].].].].].].].].].].].$ 2 4 8 8 ^.].].].].].].].].].].].].].",
"].].].].].].].].].].].].].].].].].].].].].].].].].].].].].].].].].].].].].].].].].].].].]./ $ 5 3 y.].].].].].].].].].].].].].].",
"].].].].].].].].].].].].].].].].].].].].].].].].].].].].].].].].].].].].].].].].].].].].'.+ @ ( ^.].].].].].].].].].].].].].].].",
"].].].].].].].].].].].].].].].].].].].].].].].].].].].].].].].'.].].].].].].].].].].].]./.- _.].].].].].].].].].].].].].].].].].",
"].].].].].].].].].].].].].].].].].].].].].].].].].].].].].].'.a.j a p g 0.U.`.].].].].`.  U.].].].].].].].].].].].].].].].].].].",
"].].].].].].].].].].].].].].].].].].].].].].].].].].].].].].j X X . . . . . . j r.Y.`.).r.].].].].].].].].].].].].].].].].].].].",
"].].].].].].].].].].].].].].].].].].].].].I.1 y Y.].].I.^ p X X X X X X X X . X .   d ^.].].].].].].].].].].].].].].].].].].].].",
"].].].].].].].].].].].].].].].].].]./.P.s . . . f /.s X + + + + + & & @ + X X X . . . - ).].].].].].].].].].].].].].].].].].].].",
"].].].].].].].].].].].].].].].].'.e.. .   X X X = + + + + @ + @ 5 7 6 7 6 > & + + X X . p ].].].].].].].].].].].].].].].].].].].",
"].].].].].].].].].].].].].].].`.f     X X + + + @ + @ @ @ & : 7 7 0 0 0 7 7 7 7 5 & X X . ).].].].].].].].].].].].].].].].].].].",
"].].].].].].].].].].].].].].].,     +   X @ + @ @ @ @ # @ ; e e r e r 7 e 7 7 7 7 5 + + X a.].].].].].].].].].].].].].].].].].].",
"].].].].].].].].].].].].].].w.    + X 5 6 7 > & # # # # # $ q r r b Z Z C v q e 0 6 + + X P.]././.`.].].].].].].].].].].].].].].",
"].].].].].].].].].].].].]._.    + + 5 6 7 7 : ; # # # $ $ 6 t t r N ) Z Z Z n q e 6 @ @ + ^.p X X . h ].].].].].].].].].].].].].",
"].].].].].].].].].].].].]./.      > 6 7 0 e 5 # $ $ 2 $ $ 3 q n n n _ H ) ) M r r 6 # @ @ & + + X . . a.].].].].].].].].].].].].",
"].].].].].].].].].].].].].'.  + @ @ 7 7 e e e 5 $ $ 2 3 3 3 8 n m m I J ' ) D t r r > # @ @ + + X X . w.].].].].].].].].].].].].",
"].].].].].].].].].].].].s.q.< + + @ 0 e e r r r q q q 4 4 4 n m m S U I L H H m t t r # # @ @ + + X X s `.].].].].].].].].].].].",
"].].].].].].].].].].!.s X   + + @ : e e r r v n n n n n v n m m m { U U A N N N t t t r 6 > > 7 & + X X 0.].].].].].].].].].].].",
"].].].].].].].].]._.-   X X + @ @ e q r A H m m K P F m S S A A F R R S B L Y J m n t t r e e q 7 @ X X d ].].].].].].].].].].].",
"].].].].].].].].].0.    o + & : 7 e r r K U U P R @.W S S S Q K @.@.T S S S T @.D n t q r t q 6 6 & + X p ].].].].].].].].].].].",
"].].].].].].].].].y   X + 5 7 0 e e r D I Y R +.@.>.$.U P P #.$.%.#.W S S Q S @.D 9 3 2 2 r 5 # @ @ + + g ].].].].].].].].].].].",
"].].].].].].].].].- . X & 6 7 0 e r S I U R +.@.4.9.6.%.&.&.h.h.&.%.$.F F S D L N 4 4 4 2 $ $ # # @ + + j ].].].].].].].].].].].",
"].].].].].].].].w.. X X > 6 0 e v H I *.-.1.4.6.6.9.m.h.j.j.j.j.m.%.%.$.{ Q D S c 8 8 4 2 2 $ # # @ + + X t.].].].].].].].].].].",
"].].].].].].].`.  . X + 5 7 e n H J I ;.-.4.4.6.N.N.B.B.V.V.V.V.B.j.h.%.$.! Q Q l 8 8 4 4 2 $ $ # @ @ + + X a.].].].].].].].].].",
"].].].].].].].`.  . X + 5 7 e C _ ] I -.2.6.9.9.N.B.C.C.A.A.A.A.l.k.h.%.$.F ! Q c 9 8 4 4 2 2 $ # # @ + + X X Y.].].].].].].].].",
"].].].].].].].].  . X + @ e C ) H I =.1.4.6.9.N.B.C.A.D.D.F.F.c.l.k.j.h.%.{ ! Q S 9 8 8 4 q 2 $ $ # @ @ + X . O ].].].].].].].].",
"].].].].].].].].^.* X + + w Z ) J =.=.1.4.9.N.B.C.A.D.F.G.D.S.b.z.l.j.h.%.#.W T L S m n n n 3 $ $ # @ # # X .   `.].].].].].].].",
"].].].].].].].]._.s X + @ r C ) ] ] I 2.6.9.N.B.A.D.x.H.F.z.z.H.x.z.x.m.&.<.7.5.R K S A A n 8 $ # # @ 5 # X . . `.].].].].].].].",
"].].].].].].].].d X + + @ 7 C ) _ I I 2.6.8.N.B.D.D.l.l.z.b.x.F.J.G.F.A.&.N.9.6.>.I S m m n n 6 5 5 7 7 @ + X . `.].].].].].].].",
"].].].].].].].`.  X X + 5 v C ) H L I 3.8.N.%.%.Z.F.H.K.x.b.l.j.%.n.F.A.C.B.N.6.3.I F D m m n n r e e > + + X   `.].].].].].].].",
"].].].].].].].].* X X + 5 v C C _ J I U o.@.@.%.&.D.J.J.x.l.n.v.z.H.F.D.C.B.N.6...I ' _ ) n n r r r : @ + X X 1 ].].].].].].].].",
"].].].].].].].].I.. X + > 0 C C _ J I I R R T $.%.h.H.n.h.K.L.L.J.H.F.A.C.B.9.6.:.| ' _ Z C n r e 6 @ @ + X * /.].].].].].].].].",
"].].].].].].].].]., X + ; 7 0 C N v J I Y F S T #.%.F.H.Z.K.J.v.k.M.A.A.V.N.9.9.2.1.;.) Z C v r r > @ @ + a.`.].].].].].].].].].",
"].].].].].].].].].y X + # : : 0 r r 6 4 n A S K ,.$.M.F.l.%.%.%.%.$.$.$.B.N.9.4.2.-.;._ Z C r r e : @ + f ].].].].].].].].].].].",
"].].].].].].].].].u X X + @ @ # q 3 2 4 q m A F @.@.m.$.$.$.%.$.$.,.@.@.+.8.6.4.-.] _ Z C C r r e # @ + 1 '.].].].].].].].].].].",
"].].].].].].].].].u   + + @ @ # # $ 2 6 t m m F R W W W #.@.X.{ ` { o.R Y ,.6.-.' _ Z C C C r r e : @ + + g ].].].].].].].].].].",
"].].].].].].].].].1 . X % + @ @ # $ $ 6 n n A K Y R R +.Y H Q Q F Q ! T U I 4.| H ) C C C v r r e 6 @ + X o ].].].].].].].].].].",
"].].].].].].].].].y . o + + @ @ # # $ 0 n n N I I I U Y D S S Q Q S S { | ' 1.' ) Z C C M r r 0 7 : + + X . ].].].].].].].].].].",
"].].].].].].].].].k   o   + 5 : # # > r r n D J I I I I S S S F Q S S J ' ' -.[ Z Z C C v r 0 6 @ + + X X u ].].].].].].].].].].",
"].].].].].].].].].j   . + 6 6 7 6 0 e r r v D G H J J F A D T h.H S S ' _ ) ] Z C Z Z M r i 0 & @ + + X . a.].].].].].].].].].].",
"].].].].].].].].].y     X 7 7 6 7 7 e q v v r n m G H N A S o.,.D A A G G Z Z C C C Z b e 0 6 @ + + f q.U.].].].].].].].].].].].",
"].].].].].].].].].j       & 5 6 6 6 q B H n r r n m n n n A S N m m m N Z C C C C C M i e 0 : + + + ).].].].].].].].].].].].].].",
"].].].].].].].].]./.o     . + + : 6 7 B T K r r t r t n n r 8 8 t n n n b N b r l e e r 0 0 @ + + * ].].].].].].].].].].].].].].",
"].].].].].].].].].].w.    .     + % 5 S R k.E K L r r t 0 2 2 2 2 2 2 $ 3 r r r e e e 0 0 : + + X ^ ].].].].].].].].].].].].].].",
"].].].].].].].].].].].U.        X + + @ L $.%.R H r e r > $ 2 $ $ $ $ $ > 3 r e 0 0 7 6 @ + + + X ~.`.].].].].].].].].].].].].].",
"].].].].].].].].].].].].`.^.i.  X X + + @ S U H b e e e # # $ # $ $ $ # # # 0 0 6 ; & @ + +     a.].].].].].].].].].].].].].].].",
"].].].].].].].].].].].].].].].~.  X X + + @ ; : 5 7 0 e : # # # # # # # # @ 7 > @ + + + +     !.].].].].].].].].].].].].].].].].",
"].].].].].].].].].].].].].].].].W.j %   X + + + @ @ @ > 6 # @ @ @ @ @ # @ @ > @ + + + +   g `.].].].].].].].].].].].].].].].].].",
"].].].].].].].].].^.i.'.].].].].].].W.%   X X + + + + @ # 5 ; @ @ @ @ + @ + + + + + ^ 0.a.].].].].].].].].].].].].].].].].].].].",
"].].].].].].].'.r.& & '.].].].].].].].~.r.w.g X X X X + + + + + + + + + + +   +   q.].].].].].].].`.).].].].].].].].].].].].].].",
"].].].].].].).i 3 # W.].].].].].].].].].].].].^.P.r.X X X X X X   + +     +       a.].].].].].].].e.5 T.].].].].].].].].].].].].",
"].].].].].T.V 8 4 t ].].].].].].].].].].].].].].].].!.y . X X X + +   s +         Y.].].].].].].].t.2 ~ ].].].].].].].].].].].].",
"].].].].Q.' M l c y.].].].].].].].].].].].].].].].].].].!.U.^.].].].].].Y.s o , r.].].].].].].].].].( 4 r /.].].].].].].].].].].",
"].].].].g.| { ` F `.].].].].].].].].].].].].].].].].].].].].].].].].].].].].].].].].].].].].].].].].].s.8 9 T.T.O.p.'.].].].].].",
"].].].].(. .] ` E.].].].].].].].].].].].].].].].].].].].].].].].].].].].].].].].].].].].].].].].].].].s.9 9 l z Q ` } '.].].].].",
"].].].].].].'.].].].].].].].].].].].].].].].].].].].].].].].].].].].].].].].].].].].].].].].].].].].].y.9 l z z { { { /.].].].].",
"].].].].].].].].].].].].].].].].].].].].].].].].].].].].].].].].].].].].].].].].].].].].].].].].].].].d.l l z x { ] | g.].].].].",
"].].].].].].].].].].].].].].].].].].].].].].].].].].].].].].].].].].].].].].].].].].].].].].].].].].]./.b z x _ | |  .E.].].].].",
"].].].].].].].].].].].].].].].].].].].].].].].].].].].].].].].].].].].].].].].].].].].].].].].].].].]._.` ! ' ] |  .f.].].].].].",
"].].].].].].].].].].].].].].].].].].].].].].].].].].].].].].].].].].].].].].].].].].].].].].].].].].].].(.u.O.u.O.E.].].].].].]."
};
