/* XPM */
static char *result[] = {
/* columns rows colors chars-per-pixel */
"64 64 4 1 ",
"  c #3A4466",
". c #5A6988",
"X c #8B9BB4",
"o c #C0CBDC",
/* pixels */
"ooooooo.ooooooo.ooooooo.ooooooo.ooooooo.ooooooo.ooooooo.ooooooo.",
"Xooooo..Xooooo..Xooooo..Xooooo..Xooooo..Xooooo..Xooooo..Xooooo..",
"XXooo...XXooo...XXooo...XXooo...XXooo...XXooo...XXooo...XXooo...",
"XXXo....XXXo....XXXo....XXXo....XXXo....XXXo....XXXo....XXXo....",
"XXX ....XXX ....XXX ....XXX ....XXX ....XXX ....XXX ....XXX ....",
"XX   ...XX   ...XX   ...XX   ...XX   ...XX   ...XX   ...XX   ...",
"X     ..X     ..X     ..X     ..X     ..X     ..X     ..X     ..",
"       .       .       .       .       .       .       .       .",
"ooooooo.ooooooo.ooooooo.ooooooo.ooooooo.ooooooo.ooooooo.ooooooo.",
"Xooooo..Xooooo..Xooooo..Xooooo..Xooooo..Xooooo..Xooooo..Xooooo..",
"XXooo...XXooo...XXooo...XXooo...XXooo...XXooo...XXooo...XXooo...",
"XXXo....XXXo....XXXo....XXXo....XXXo....XXXo....XXXo....XXXo....",
"XXX ....XXX ....XXX ....XXX ....XXX ....XXX ....XXX ....XXX ....",
"XX   ...XX   ...XX   ...XX   ...XX   ...XX   ...XX   ...XX   ...",
"X     ..X     ..X     ..X     ..X     ..X     ..X     ..X     ..",
"       .       .       .       .       .       .       .       .",
"ooooooo.ooooooo.ooooooo.ooooooo.ooooooo.ooooooo.ooooooo.ooooooo.",
"Xooooo..Xooooo..Xooooo..Xooooo..Xooooo..Xooooo..Xooooo..Xooooo..",
"XXooo...XXooo...XXooo...XXooo...XXooo...XXooo...XXooo...XXooo...",
"XXXo....XXXo....XXXo....XXXo....XXXo....XXXo....XXXo....XXXo....",
"XXX ....XXX ....XXX ....XXX ....XXX ....XXX ....XXX ....XXX ....",
"XX   ...XX   ...XX   ...XX   ...XX   ...XX   ...XX   ...XX   ...",
"X     ..X     ..X     ..X     ..X     ..X     ..X     ..X     ..",
"       .       .       .       .       .       .       .       .",
"ooooooo.ooooooo.ooooooo.ooooooo.ooooooo.ooooooo.ooooooo.ooooooo.",
"Xooooo..Xooooo..Xooooo..Xooooo..Xooooo..Xooooo..Xooooo..Xooooo..",
"XXooo...XXooo...XXooo...XXooo...XXooo...XXooo...XXooo...XXooo...",
"XXXo....XXXo....XXXo....XXXo....XXXo....XXXo....XXXo....XXXo....",
"XXX ....XXX ....XXX ....XXX ....XXX ....XXX ....XXX ....XXX ....",
"XX   ...XX   ...XX   ...XX   ...XX   ...XX   ...XX   ...XX   ...",
"X     ..X     ..X     ..X     ..X     ..X     ..X     ..X     ..",
"       .       .       .       .       .       .       .       .",
"ooooooo.ooooooo.ooooooo.ooooooo.ooooooo.ooooooo.ooooooo.ooooooo.",
"Xooooo..Xooooo..Xooooo..Xooooo..Xooooo..Xooooo..Xooooo..Xooooo..",
"XXooo...XXooo...XXooo...XXooo...XXooo...XXooo...XXooo...XXooo...",
"XXXo....XXXo....XXXo....XXXo....XXXo....XXXo....XXXo....XXXo....",
"XXX ....XXX ....XXX ....XXX ....XXX ....XXX ....XXX ....XXX ....",
"XX   ...XX   ...XX   ...XX   ...XX   ...XX   ...XX   ...XX   ...",
"X     ..X     ..X     ..X     ..X     ..X     ..X     ..X     ..",
"       .       .       .       .       .       .       .       .",
"ooooooo.ooooooo.ooooooo.ooooooo.ooooooo.ooooooo.ooooooo.ooooooo.",
"Xooooo..Xooooo..Xooooo..Xooooo..Xooooo..Xooooo..Xooooo..Xooooo..",
"XXooo...XXooo...XXooo...XXooo...XXooo...XXooo...XXooo...XXooo...",
"XXXo....XXXo....XXXo....XXXo....XXXo....XXXo....XXXo....XXXo....",
"XXX ....XXX ....XXX ....XXX ....XXX ....XXX ....XXX ....XXX ....",
"XX   ...XX   ...XX   ...XX   ...XX   ...XX   ...XX   ...XX   ...",
"X     ..X     ..X     ..X     ..X     ..X     ..X     ..X     ..",
"       .       .       .       .       .       .       .       .",
"ooooooo.ooooooo.ooooooo.ooooooo.ooooooo.ooooooo.ooooooo.ooooooo.",
"Xooooo..Xooooo..Xooooo..Xooooo..Xooooo..Xooooo..Xooooo..Xooooo..",
"XXooo...XXooo...XXooo...XXooo...XXooo...XXooo...XXooo...XXooo...",
"XXXo....XXXo....XXXo....XXXo....XXXo....XXXo....XXXo....XXXo....",
"XXX ....XXX ....XXX ....XXX ....XXX ....XXX ....XXX ....XXX ....",
"XX   ...XX   ...XX   ...XX   ...XX   ...XX   ...XX   ...XX   ...",
"X     ..X     ..X     ..X     ..X     ..X     ..X     ..X     ..",
"       .       .       .       .       .       .       .       .",
"ooooooo.ooooooo.ooooooo.ooooooo.ooooooo.ooooooo.ooooooo.ooooooo.",
"Xooooo..Xooooo..Xooooo..Xooooo..Xooooo..Xooooo..Xooooo..Xooooo..",
"XXooo...XXooo...XXooo...XXooo...XXooo...XXooo...XXooo...XXooo...",
"XXXo....XXXo....XXXo....XXXo....XXXo....XXXo....XXXo....XXXo....",
"XXX ....XXX ....XXX ....XXX ....XXX ....XXX ....XXX ....XXX ....",
"XX   ...XX   ...XX   ...XX   ...XX   ...XX   ...XX   ...XX   ...",
"X     ..X     ..X     ..X     ..X     ..X     ..X     ..X     ..",
"       .       .       .       .       .       .       .       ."
};
