/* XPM */
static char *result[] = {
/* columns rows colors chars-per-pixel */
"64 64 185 2 ",
"   c #4A230D",
".  c #51240E",
"X  c #592710",
"o  c #502C11",
"O  c #592A11",
"+  c #5A2913",
"@  c #5D2F13",
"#  c #503512",
"$  c #533512",
"%  c #553514",
"&  c #602B13",
"*  c #622B14",
"=  c #6B2E14",
"-  c #6D2F16",
";  c #6F3116",
":  c #633916",
">  c #703116",
",  c #723017",
"<  c #793519",
"1  c #7E3719",
"2  c #723818",
"3  c #7F381B",
"4  c #484A17",
"5  c #564316",
"6  c #554818",
"7  c #504D18",
"8  c #4F5119",
"9  c #595F1D",
"0  c #5C5D1D",
"q  c #6C4219",
"w  c #55661F",
"e  c #627A25",
"r  c #677D26",
"t  c #647F27",
"y  c #84371B",
"u  c #8B3E1B",
"i  c #943F1C",
"p  c #A83E22",
"a  c #95441D",
"s  c #A14D1F",
"d  c #A2571D",
"f  c #B9661E",
"g  c #AB4621",
"h  c #AB5C20",
"j  c #B85223",
"k  c #BD5524",
"l  c #C46723",
"z  c #CA7E21",
"x  c #CE7C22",
"c  c #6D822A",
"v  c #6F932F",
"b  c #6D952F",
"n  c #72942F",
"m  c #6E9931",
"M  c #6F9931",
"N  c #729B31",
"B  c #769B31",
"V  c #709D32",
"C  c #729E33",
"Z  c #729F33",
"A  c #759E32",
"S  c #749F33",
"D  c #759F33",
"F  c #799D32",
"G  c #799D33",
"H  c #7C9F33",
"J  c #7E9F32",
"K  c #73A033",
"L  c #75A133",
"P  c #75A234",
"I  c #76A334",
"U  c #79A133",
"Y  c #7AA033",
"T  c #7AA233",
"R  c #7FA233",
"E  c #78A334",
"W  c #79A334",
"Q  c #7AA234",
"!  c #7CA034",
"~  c #7CA334",
"^  c #7EA334",
"/  c #7EA335",
"(  c #78A434",
")  c #79A434",
"_  c #78A535",
"`  c #7AA635",
"'  c #7BA635",
"]  c #7BA735",
"[  c #7BA736",
"{  c #7CA535",
"}  c #7FA434",
"|  c #7EA535",
" . c #7FA535",
".. c #7DA635",
"X. c #7DA735",
"o. c #7EA635",
"O. c #7EA735",
"+. c #7CA736",
"@. c #7DA736",
"#. c #7EA736",
"$. c #7DA835",
"%. c #7CA836",
"&. c #7DA836",
"*. c #7DA936",
"=. c #7EA936",
"-. c #7FA936",
";. c #7EA937",
":. c #7EAA36",
">. c #7FAA36",
",. c #7EAA37",
"<. c #7FAA37",
"1. c #7FAB37",
"2. c #81A636",
"3. c #80A736",
"4. c #80A836",
"5. c #81A936",
"6. c #80AA36",
"7. c #80AA37",
"8. c #80AB37",
"9. c #81AB37",
"0. c #82AA36",
"q. c #82AB37",
"w. c #80AC37",
"e. c #81AC37",
"r. c #82AC37",
"t. c #82AD37",
"y. c #83AD37",
"u. c #83AE37",
"i. c #84AC37",
"p. c #85AD37",
"a. c #82AD38",
"s. c #83AD38",
"d. c #83AE38",
"f. c #84AE38",
"g. c #85AE38",
"h. c #84AF38",
"j. c #85AF38",
"k. c #87AE38",
"l. c #86AF38",
"z. c #87AF38",
"x. c #85B038",
"c. c #85B039",
"v. c #86B038",
"b. c #86B138",
"n. c #87B138",
"m. c #86B039",
"M. c #87B039",
"N. c #86B139",
"B. c #87B139",
"V. c #88B239",
"C. c #89B239",
"Z. c #88B339",
"A. c #89B339",
"S. c #8BB239",
"D. c #8AB339",
"F. c #89B33A",
"G. c #8AB33A",
"H. c #89B43A",
"J. c #8AB43A",
"K. c #8BB43A",
"L. c #8BB53A",
"P. c #8CB53A",
"I. c #8CB63A",
"U. c #8DB63A",
"Y. c #8CB63B",
"T. c #8DB73B",
"R. c #8EB73B",
"E. c #8EB83B",
"W. c #8FB83B",
"Q. c #91B83B",
"!. c #90B93C",
"~. c #91B93C",
"^. c #92B93C",
"/. c #91BA3C",
"(. c #94BA3C",
"). c #95BB3C",
"_. c #96BB3C",
"`. c #C78020",
"'. c #DF8225",
"]. c #E38C24",
"[. c #E59124",
"{. c #E79823",
"}. c #F4BA21",
"|. c #F6C021",
" X c #F9C720",
/* pixels */
"h.&.r.h.X.=.7.y.-.` 8.$.e.c.8.V.h.&.r.h.X.=.7.y.-.` 8.$.e.c.8.V.h.&.r.h.X.=.7.y.-.` 8.$.e.c.8.V.h.&.r.h.X.=.7.y.-.` 8.$.e.c.8.V.",
"Z q.#.=.O.A.T.d.x.B.C.8.F.+.+.d.Z q.#.=.O.A.T.d.x.B.C.8.F.+.+.d.Z q.#.=.O.A.T.d.x.B.C.8.F.+.+.d.Z q.#.=.O.A.T.d.x.B.C.8.F.+.+.d.",
"N.K.v.D.W.(.R.Y.R.J.~.f.=.` e.=.N.K.v.D.W.(.R.Y.R.J.~.f.=.` e.=.N.K.v.D.W.(.R.Y.R.J.~.f.=.` e.=.N.K.v.D.W.(.R.Y.R.J.~.f.=.` e.=.",
"F.<.r.o.3.f.V.b.s.*.8.=.P :.A.y.F.<.r.o.3.f.V.b.s.*.8.=.P :.A.y.F.<.r.o.3.f.V.b.s.*.8.=.P :.A.y.F.<.r.o.3.f.V.b.s.*.8.=.P :.A.y.",
"&.:.X. .9.8.d._ S { G.^ p.J.:.j.&.:.X. .9.8.d._ S { G.^ p.J.:.j.&.:.X. .9.8.d._ S { G.^ p.J.:.j.&.:.X. .9.8.d._ S { G.^ p.J.:.j.",
"8.e.J.^./.d.:.&.d.l.l.R.L.B.U.N.8.e.J.^./.d.:.&.d.l.l.R.L.B.U.N.8.e.J.^./.d.:.&.d.l.l.R.L.B.U.N.8.e.J.^./.d.:.&.d.l.l.R.L.B.U.N.",
"m.V a.=.F.x.v.d.j.@.{ t._ 8.,.J.m.V a.=.F.x.v.d.j.@.{ t._ 8.,.J.m.V a.=.F.x.v.d.j.@.{ t._ 8.,.J.m.V a.=.F.x.v.d.j.@.{ t._ 8.,.J.",
"&.d.m.I.d.F.V.e.C Y Y W ( m N f.&.d.m.I.d.F.V.e.C Y Y W ( m N f.&.d.m.I.d.F.V.e.C Y Y W ( m N f.&.d.m.I.d.F.V.e.C Y Y W ( m N f.",
"<.W.B.F.j.n.m.w.G.e.r.R.8.z.U.d.<.W.B.F.j.n.m.w.G.e.r.R.8.z.U.d.<.W.B.F.j.n.m.w.G.e.r.R.8.z.U.d.<.W.B.F.j.n.m.w.G.e.r.R.8.z.U.d.",
"1.d.%.) 5...) ! 2.R._.J.v.] &.m.1.d.%.) 5...) ! 2.R._.J.v.] &.m.1.d.%.) 5...) ! 2.R._.J.v.] &.m.1.d.%.) 5...) ! 2.R._.J.v.] &.m.",
">.V.>.d.U G.g.} w.e.H.I.v.' I e.>.V.>.d.U G.g.} w.e.H.I.v.' I e.>.V.>.d.U G.g.} w.e.H.I.v.' I e.>.V.>.d.U G.g.} w.e.H.I.v.' I e.",
"8.Z.L.P.).Q.m.-.Y.C.G { e.I.m.[ 8.Z.L.P.).Q.m.-.Y.C.G { e.I.m.[ 8.Z.L.P.).Q.m.-.Y.C.G { e.I.m.[ 8.Z.L.P.).Q.m.-.Y.C.G { e.I.m.[ ",
"R.!.P.A.9.$...>.] A Y Y o.w.D s.R.!.P.A.9.$...>.] A Y Y o.w.D s.R.!.P.A.9.$...>.] A Y Y o.w.D s.R.!.P.A.9.$...>.] A Y Y o.w.D s.",
"a.L.N.` o.i.{ M 6.M.-.S.0.E k.f.a.L.N.` o.i.{ M 6.M.-.S.0.E k.f.a.L.N.` o.i.{ M 6.M.-.S.0.E k.f.a.L.N.` o.i.{ M 6.M.-.S.0.E k.f.",
"F.N.>.l.m.m.;.f.B.1.F.J.U.A.E.I.F.N.>.l.m.m.;.f.B.1.F.J.U.A.E.I.F.N.>.l.m.m.;.f.B.1.F.J.U.A.E.I.F.N.>.l.m.m.;.f.B.1.F.J.U.A.E.I.",
"H.+.a.f.+.K @./ 4.w.N.t.L u.t.8.H.+.a.f.+.K @./ 4.w.N.t.L u.t.8.H.+.a.f.+.K @./ 4.w.N.t.L u.t.8.H.+.a.f.+.K @./ 4.w.N.t.L u.t.8.",
"h.&.r.h.X.=.7.y.-.` 8.$.e.c.8.V.h.&.r.h.X.=.7.y.-.` 8.$.e.c.8.V.h.&.r.h.X.=.7.y.-.` 8.$.e.c.8.V.h.&.r.h.X.=.7.y.-.` 8.$.e.c.8.V.",
"Z q.#.=.O.A.T.d.x.B.C.8.F.+.+.d.Z q.#.=.O.A.T.d.x.B.C.8.F.+.+.d.Z q.#.=.O.A.T.d.x.B.C.8.F.+.+.d.Z q.#.=.O.A.T.d.x.B.C.8.F.+.+.d.",
"N.K.v.D.W.(.R.Y.R.J.~.f.=.` e.=.N.K.v.D.W.(.R.Y.R.J.~.f.=.` e.=.N.K.v.D.W.(.R.Y.R.J.~.f.=.` e.=.N.K.v.D.W.(.R.Y.R.J.~.f.=.` e.=.",
"F.<.r.o.3.f.V.b.s.*.8.=.P :.A.y.F.<.r.o.3.f.V.b.s.*.8.=.P :.A.y.F.<.r.o.3.f.V.b.s.*.8.=.P :.A.y.F.<.r.o.3.f.V.b.s.*.8.=.P :.A.y.",
"&.:.X. .9.8.d._ S { G.^ p.J.:.j.&.:.X. .9.8.d._ S { G.^ p.J.:.j.&.:.X. .9.8.d._ S { G.^ p.J.:.j.&.:.X. .9.8.d._ S { G.^ p.J.:.j.",
"8.e.J.^./.d.:.&.d.l.l.R.L.B.U.N.8.e.J.^./.d.:.&.d.l.l.R.L.B.U.N.8.e.J.^./.d.:.&.d.l.l.R.L.B.U.N.8.e.J.^./.d.:.&.d.l.l.R.L.B.U.N.",
"m.V a.=.F.x.v.d.j.@.{ t._ 8.,.J.m.V a.=.F.x.v.d.j.@.{ t._ 8.,.J.m.V a.=.F.x.v.d.j.@.{ t._ 8.,.J.m.V a.=.F.x.v.d.j.@.{ t._ 8.,.J.",
"&.d.m.I.d.F.V.e.C Y Y W ( m N f.&.d.m.I.d.F.V.e.C Y Y W ( m N f.&.d.m.I.d.F.V.e.C Y Y W ( m N f.&.d.m.I.d.F.V.e.C Y Y W ( m N f.",
"<.W.B.F.j.n.m.w.G.e.r.R.8.z.U.d.<.W.B.F.j.n.m.w.G.e.r.R.8.z.U.d.<.W.B.F.j.n.m.w.G.e.r.R.8.z.U.d.<.W.B.F.j.n.m.w.G.e.r.R.8.z.U.d.",
"1.d.%.) 5...) ! 2.R._.J.v.] &.m.1.d.%.) 5...) ! 2.R._.J.v.] &.m.1.d.%.) 5...) ! 2.R._.J.v.] &.m.1.d.%.) 5...) ! 2.R._.J.v.] &.m.",
">.V.>.d.U G.g.} w.e.H.I.v.' I e.>.V.>.d.U G.g.} w.e.H.I.v.' I e.>.V.>.d.U G.g.} w.e.H.I.v.' I e.>.V.>.d.U G.g.} w.e.H.I.v.' I e.",
"8.Z.L.P.).Q.m.-.Y.C.G { e.I.m.[ 8.Z.L.P.).Q.m.-.Y.C.G { e.I.H c B v.L.P.).Q.m.-.Y.C.G { e.I.m.[ 8.Z.L.P.).Q.m.-.Y.C.G { e.I.m.[ ",
"R.!.P.A.9.$...>.] A Y Y o.w.D s.R.!.P.A.9.$...>.] A Y Y o.n @ ; O 0 J n.9.$...>.] A Y Y o.w.D s.R.!.P.A.9.$...>.] A Y Y o.w.D s.",
"a.L.N.` o.i.{ M 6.M.-.S.0.E k.f.a.L.N.` o.i.{ M 6.M.-.S.r : < 1 a =   4 ~ i.{ M 6.M.-.S.0.E k.f.a.L.N.` o.i.{ M 6.M.-.S.0.E k.f.",
"F.N.>.l.m.m.;.f.B.1.F.J.U.A.E.I.F.N.>.l.m.m.;.f.B.1.F.J.$ p s x ].l - o | m.;.f.B.1.F.J.U.A.E.I.F.N.>.l.m.m.;.f.B.1.F.J.U.A.E.I.",
"H.+.a.f.+.K @./ 4.w.N.t.L u.t.8.H.+.a.f.+.K @./ 4.w.N.e & g '.}.}.z 3 + v K @./ 4.w.N.t.L u.t.8.H.+.a.f.+.K @./ 4.w.N.t.L u.t.8.",
"h.&.r.h.X.=.7.y.-.` 8.$.e.c.8.V.h.&.r.h.X.=.7.y.-.` 8.w . i [.|. X{.k % T =.7.y.-.` 8.$.e.c.8.V.h.&.r.h.X.=.7.y.-.` 8.$.e.c.8.V.",
"Z q.#.=.O.A.T.d.x.B.C.8.F.+.+.d.Z q.#.=.O.A.T.d.x.B.C.Q 2 y j h `.d > 7 O.A.T.d.x.B.C.8.F.+.+.d.Z q.#.=.O.A.T.d.x.B.C.8.F.+.+.d.",
"N.K.v.D.W.(.R.Y.R.J.~.f.=.` e.=.N.K.v.D.W.(.R.Y.R.J.~.5.# * u f , X q R W.(.R.Y.R.J.~.f.=.` e.=.N.K.v.D.W.(.R.Y.R.J.~.f.=.` e.=.",
"F.<.r.o.3.f.V.b.s.*.8.=.P :.A.y.F.<.r.o.3.f.V.b.s.*.8.=.b t 9 5 6 8 F o.3.f.V.b.s.*.8.=.P :.A.y.F.<.r.o.3.f.V.b.s.*.8.=.P :.A.y.",
"&.:.X. .9.8.d._ S { G.^ p.J.:.j.&.:.X. .9.8.d._ S { G.^ p.J.:.g.@.:.X. .9.8.d._ S { G.^ p.J.:.j.&.:.X. .9.8.d._ S { G.^ p.J.:.j.",
"8.e.J.^./.d.:.&.d.l.l.R.L.B.U.N.8.e.J.^./.d.:.&.d.l.l.R.L.B.U.N.8.e.J.^./.d.:.&.d.l.l.R.L.B.U.N.8.e.J.^./.d.:.&.d.l.l.R.L.B.U.N.",
"m.V a.=.F.x.v.d.j.@.{ t._ 8.,.J.m.V a.=.F.x.v.d.j.@.{ t._ 8.,.J.m.V a.=.F.x.v.d.j.@.{ t._ 8.,.J.m.V a.=.F.x.v.d.j.@.{ t._ 8.,.J.",
"&.d.m.I.d.F.V.e.C Y Y W ( m N f.&.d.m.I.d.F.V.e.C Y Y W ( m N f.&.d.m.I.d.F.V.e.C Y Y W ( m N f.&.d.m.I.d.F.V.e.C Y Y W ( m N f.",
"<.W.B.F.j.n.m.w.G.e.r.R.8.z.U.d.<.W.B.F.j.n.m.w.G.e.r.R.8.z.U.d.<.W.B.F.j.n.m.w.G.e.r.R.8.z.U.d.<.W.B.F.j.n.m.w.G.e.r.R.8.z.U.d.",
"1.d.%.) 5...) ! 2.R._.J.v.] &.m.1.d.%.) 5...) ! 2.R._.J.v.] &.m.1.d.%.) 5...) ! 2.R._.J.v.] &.m.1.d.%.) 5...) ! 2.R._.J.v.] &.m.",
">.V.>.d.U G.g.} w.e.H.I.v.' I e.>.V.>.d.U G.g.} w.e.H.I.v.' I e.>.V.>.d.U G.g.} w.e.H.I.v.' I e.>.V.>.d.U G.g.} w.e.H.I.v.' I e.",
"8.Z.L.P.).Q.m.-.Y.C.G { e.I.m.[ 8.Z.L.P.).Q.m.-.Y.C.G { e.I.m.[ 8.Z.L.P.).Q.m.-.Y.C.G { e.I.m.[ 8.Z.L.P.).Q.m.-.Y.C.G { e.I.m.[ ",
"R.!.P.A.9.$...>.] A Y Y o.w.D s.R.!.P.A.9.$...>.] A Y Y o.w.D s.R.!.P.A.9.$...>.] A Y Y o.w.D s.R.!.P.A.9.$...>.] A Y Y o.w.D s.",
"a.L.N.` o.i.{ M 6.M.-.S.0.E k.f.a.L.N.` o.i.{ M 6.M.-.S.0.E k.f.a.L.N.` o.i.{ M 6.M.-.S.0.E k.f.a.L.N.` o.i.{ M 6.M.-.S.0.E k.f.",
"F.N.>.l.m.m.;.f.B.1.F.J.U.A.E.I.F.N.>.l.m.m.;.f.B.1.F.J.U.A.E.I.F.N.>.l.m.m.;.f.B.1.F.J.U.A.E.I.F.N.>.l.m.m.;.f.B.1.F.J.U.A.E.I.",
"H.+.a.f.+.K @./ 4.w.N.t.L u.t.8.H.+.a.f.+.K @./ 4.w.N.t.L u.t.8.H.+.a.f.+.K @./ 4.w.N.t.L u.t.8.H.+.a.f.+.K @./ 4.w.N.t.L u.t.8.",
"h.&.r.h.X.=.7.y.-.` 8.$.e.c.8.V.h.&.r.h.X.=.7.y.-.` 8.$.e.c.8.V.h.&.r.h.X.=.7.y.-.` 8.$.e.c.8.V.h.&.r.h.X.=.7.y.-.` 8.$.e.c.8.V.",
"Z q.#.=.O.A.T.d.x.B.C.8.F.+.+.d.Z q.#.=.O.A.T.d.x.B.C.8.F.+.+.d.Z q.#.=.O.A.T.d.x.B.C.8.F.+.+.d.Z q.#.=.O.A.T.d.x.B.C.8.F.+.+.d.",
"N.K.v.D.W.(.R.Y.R.J.~.f.=.` e.=.N.K.v.D.W.(.R.Y.R.J.~.f.=.` e.=.N.K.v.D.W.(.R.Y.R.J.~.f.=.` e.=.N.K.v.D.W.(.R.Y.R.J.~.f.=.` e.=.",
"F.<.r.o.3.f.V.b.s.*.8.=.P :.A.y.F.<.r.o.3.f.V.b.s.*.8.=.P :.A.y.F.<.r.o.3.f.V.b.s.*.8.=.P :.A.y.F.<.r.o.3.f.V.b.s.*.8.=.P :.A.y.",
"&.:.X. .9.8.d._ S { G.^ p.J.:.j.&.:.X. .9.8.d._ S { G.^ p.J.:.j.&.:.X. .9.8.d._ S { G.^ p.J.:.j.&.:.X. .9.8.d._ S { G.^ p.J.:.j.",
"8.e.J.^./.d.:.&.d.l.l.R.L.B.U.N.8.e.J.^./.d.:.&.d.l.l.R.L.B.U.N.8.e.J.^./.d.:.&.d.l.l.R.L.B.U.N.8.e.J.^./.d.:.&.d.l.l.R.L.B.U.N.",
"m.V a.=.F.x.v.d.j.@.{ t._ 8.,.J.m.V a.=.F.x.v.d.j.@.{ t._ 8.,.J.m.V a.=.F.x.v.d.j.@.{ t._ 8.,.J.m.V a.=.F.x.v.d.j.@.{ t._ 8.,.J.",
"&.d.m.I.d.F.V.e.C Y Y W ( m N f.&.d.m.I.d.F.V.e.C Y Y W ( m N f.&.d.m.I.d.F.V.e.C Y Y W ( m N f.&.d.m.I.d.F.V.e.C Y Y W ( m N f.",
"<.W.B.F.j.n.m.w.G.e.r.R.8.z.U.d.<.W.B.F.j.n.m.w.G.e.r.R.8.z.U.d.<.W.B.F.j.n.m.w.G.e.r.R.8.z.U.d.<.W.B.F.j.n.m.w.G.e.r.R.8.z.U.d.",
"1.d.%.) 5...) ! 2.R._.J.v.] &.m.1.d.%.) 5...) ! 2.R._.J.v.] &.m.1.d.%.) 5...) ! 2.R._.J.v.] &.m.1.d.%.) 5...) ! 2.R._.J.v.] &.m.",
">.V.>.d.U G.g.} w.e.H.I.v.' I e.>.V.>.d.U G.g.} w.e.H.I.v.' I e.>.V.>.d.U G.g.} w.e.H.I.v.' I e.>.V.>.d.U G.g.} w.e.H.I.v.' I e.",
"8.Z.L.P.).Q.m.-.Y.C.G { e.I.m.[ 8.Z.L.P.).Q.m.-.Y.C.G { e.I.m.[ 8.Z.L.P.).Q.m.-.Y.C.G { e.I.m.[ 8.Z.L.P.).Q.m.-.Y.C.G { e.I.m.[ ",
"R.!.P.A.9.$...>.] A Y Y o.w.D s.R.!.P.A.9.$...>.] A Y Y o.w.D s.R.!.P.A.9.$...>.] A Y Y o.w.D s.R.!.P.A.9.$...>.] A Y Y o.w.D s.",
"a.L.N.` o.i.{ M 6.M.-.S.0.E k.f.a.L.N.` o.i.{ M 6.M.-.S.0.E k.f.a.L.N.` o.i.{ M 6.M.-.S.0.E k.f.a.L.N.` o.i.{ M 6.M.-.S.0.E k.f.",
"F.N.>.l.m.m.;.f.B.1.F.J.U.A.E.I.F.N.>.l.m.m.;.f.B.1.F.J.U.A.E.I.F.N.>.l.m.m.;.f.B.1.F.J.U.A.E.I.F.N.>.l.m.m.;.f.B.1.F.J.U.A.E.I.",
"H.+.a.f.+.K @./ 4.w.N.t.L u.t.8.H.+.a.f.+.K @./ 4.w.N.t.L u.t.8.H.+.a.f.+.K @./ 4.w.N.t.L u.t.8.H.+.a.f.+.K @./ 4.w.N.t.L u.t.8."
};
