/* XPM */
static char *result[] = {
/* columns rows colors chars-per-pixel */
"64 64 173 2 ",
"   c #331F0A",
".  c #36210B",
"X  c #3C210B",
"o  c #37290C",
"O  c #3A2C0E",
"+  c #3F320F",
"@  c #3E3B12",
"#  c #43220C",
"$  c #4B230D",
"%  c #43290D",
"&  c #53250E",
"*  c #5B260F",
"=  c #40330F",
"-  c #552611",
";  c #5A2711",
":  c #5D2912",
">  c #443D12",
",  c #4B3812",
"<  c #553111",
"1  c #62270F",
"2  c #642710",
"3  c #642B14",
"4  c #6B2C15",
"5  c #6E2F18",
"6  c #722A12",
"7  c #7B2C13",
"8  c #702F18",
"9  c #6F3017",
"0  c #7C3315",
"q  c #733B15",
"w  c #743219",
"e  c #7B351A",
"r  c #7F381B",
"t  c #444113",
"y  c #484314",
"u  c #474A16",
"i  c #4B4B16",
"p  c #474F18",
"a  c #4C5419",
"s  c #4E5C1C",
"d  c #565E1D",
"f  c #775E1F",
"g  c #4F601D",
"h  c #54641F",
"j  c #5C671F",
"k  c #5C6720",
"l  c #566A20",
"z  c #5A6D21",
"x  c #5E7424",
"c  c #736E23",
"v  c #647D27",
"b  c #677E28",
"n  c #737726",
"m  c #862C13",
"M  c #813316",
"N  c #8D3015",
"B  c #83361B",
"V  c #89351D",
"C  c #843A1C",
"Z  c #8B3C1C",
"A  c #923216",
"S  c #943B1E",
"D  c #9A3A1F",
"F  c #9E3A20",
"G  c #A23E20",
"H  c #874318",
"J  c #8E401D",
"K  c #94421E",
"L  c #9A441E",
"P  c #954C19",
"I  c #9B4A1E",
"U  c #8D571F",
"Y  c #A2431E",
"T  c #A54C1F",
"R  c #AC4D1F",
"E  c #A5531F",
"W  c #AC531F",
"Q  c #AF581F",
"!  c #B2551F",
"~  c #B35A1F",
"^  c #B95D1F",
"/  c #B2661D",
"(  c #BC631F",
")  c #BD691F",
"_  c #9B4620",
"`  c #A44220",
"'  c #A84620",
"]  c #A44C22",
"[  c #AB4C22",
"{  c #B24A22",
"}  c #BB4C24",
"|  c #A55524",
" . c #AD5422",
".. c #B35223",
"X. c #BB5223",
"o. c #B35B26",
"O. c #BB5B20",
"+. c #837627",
"@. c #9C752A",
"#. c #9A792B",
"$. c #A26827",
"%. c #B76120",
"&. c #AC792C",
"*. c #C26C1F",
"=. c #C7701F",
"-. c #C9751E",
";. c #CE7B1E",
":. c #D17F1E",
">. c #C65824",
",. c #CB5C25",
"<. c #C56322",
"1. c #CE6225",
"2. c #CE6C22",
"3. c #D46127",
"4. c #D46F25",
"5. c #D96C26",
"6. c #D57124",
"7. c #DC7426",
"8. c #D47C22",
"9. c #DF7B25",
"0. c #E07F25",
"q. c #65862A",
"w. c #6A862A",
"e. c #6C892B",
"r. c #728A2C",
"t. c #6D922E",
"y. c #73932E",
"u. c #7F932E",
"i. c #6E9931",
"p. c #739731",
"a. c #739E32",
"s. c #799D33",
"d. c #75A234",
"f. c #7CA535",
"g. c #7EA936",
"h. c #86862C",
"j. c #8E8F30",
"k. c #879130",
"l. c #889E34",
"z. c #999732",
"x. c #A4832E",
"c. c #81A636",
"v. c #8BA736",
"b. c #81AC37",
"n. c #84AE38",
"m. c #8EAD38",
"M. c #9FA937",
"N. c #86B039",
"B. c #8BB43A",
"V. c #8FB83B",
"C. c #90B63A",
"Z. c #92BA3C",
"A. c #D4831E",
"S. c #DA8B1E",
"D. c #DD921F",
"F. c #E1951E",
"G. c #E59D1E",
"H. c #E6A21F",
"J. c #E8A11F",
"K. c #F1BA1F",
"L. c #DD8C21",
"P. c #DE9420",
"I. c #E28425",
"U. c #E38C24",
"Y. c #E59423",
"T. c #E89624",
"R. c #E39A21",
"E. c #EA9D23",
"W. c #E5A320",
"Q. c #ECA522",
"!. c #ECAB21",
"~. c #EFB420",
"^. c #F4BA21",
/* pixels */
"n.g.b.n.f.g.g.n.g.f.g.g.n.N.g.N.n.g.b.N.f.g.g.n.g.f.g.g.g.N.g.N.N.g.n.n.f.g.g.n.b.f.b.g.b.N.g.B.n.g.n.n.g.g.b.b.g.f.b.g.n.N.g.B.",
"a.b.g.g.g.B.V.n.N.N.B.g.N.g.g.n.a.n.f.g.g.B.V.n.N.N.B.g.B.f.g.N.d.g.f.g.g.B.V.n.N.N.N.b.N.f.f.n.d.g.f.g.g.N.V.n.N.N.N.g.N.f.f.n.",
"N.B.N.B.V.Z.V.V.V.N.Z.N.g.d.g.g.N.B.N.B.V.Z.C.B.V.B.Z.n.g.f.b.g.N.B.N.B.V.Z.V.B.V.N.Z.N.g.g.n.g.N.N.N.N.V.Z.V.B.V.N.Z.n.g.f.g.g.",
"B.b.b.f.f.N.N.N.n.g.g.g.d.g.B.n.B.g.b.f.f.n.B.N.n.g.g.g.d.g.B.b.N.g.n.f.c.n.N.N.b.g.g.c.d.g.N.n.B.g.n.g.g.N.N.N.b.g.n.g.d.g.B.N.",
"f.g.g.f.b.g.n.d.a.f.B.f.N.B.g.N.g.g.g.g.b.b.b.f.a.f.B.f.b.B.g.n.f.g.g.g.n.g.n.f.a.f.N.f.N.B.g.N.g.g.f.g.b.g.n.f.a.f.N.g.n.B.g.N.",
"b.b.B.Z.Z.n.g.g.n.n.n.V.B.N.V.N.g.g.B.Z.Z.b.g.g.n.N.N.B.B.B.V.N.g.n.B.Z.V.n.g.g.b.n.N.Z.N.N.V.N.g.n.B.Z.Z.n.g.g.N.N.N.B.B.N.B.N.",
"N.i.n.g.B.N.N.n.n.c.f.n.d.g.g.B.N.i.g.g.B.N.n.b.n.f.f.n.d.g.g.B.N.i.g.g.N.N.N.n.N.g.f.n.f.n.g.N.N.a.n.g.N.N.N.n.N.g.f.n.f.g.g.B.",
"g.n.N.B.n.N.N.n.a.f.f.d.f.i.a.n.g.N.N.B.n.B.B.b.a.f.s.f.f.i.a.n.g.N.N.B.n.B.B.g.a.f.a.f.d.i.i.n.g.n.n.B.n.N.N.n.i.s.d.f.d.i.a.N.",
"g.V.N.B.n.N.B.b.B.b.b.C.b.N.V.n.g.V.N.B.N.N.B.b.B.b.b.V.b.N.V.n.g.V.N.B.n.N.N.b.B.b.b.C.g.N.V.n.g.V.N.B.N.N.N.c.N.N.n.Z.c.N.V.n.",
"g.b.g.f.b.f.f.s.c.V.Z.B.N.f.g.n.g.N.g.d.g.f.d.s.c.V.Z.B.N.f.f.N.g.N.g.d.c.c.f.s.l.&.M.B.N.f.g.N.g.n.g.d.b.f.f.f.c.V.Z.N.N.f.g.N.",
"g.B.g.n.s.B.n.c.g.b.B.B.N.f.d.n.g.B.g.n.d.V.n.c.b.b.N.V.N.f.d.n.g.N.g.N.f.B.n.c.@...x.V.N.f.d.b.g.B.g.n.s.B.N.f.b.b.N.Z.N.f.d.b.",
"g.B.B.V.Z.C.N.f.B.B.s.f.g.B.N.f.g.B.B.B.Z.Z.n.b.V.N.s.f.b.V.n.f.g.B.B.B.Z.C.N.+.K ] #.d.b.V.N.f.n.N.C.C.Z.C.N.c.V.N.d.f.n.B.N.f.",
"V.V.B.B.b.f.c.g.f.s.d.s.g.g.d.n.V.V.B.B.b.f.f.b.f.a.d.f.c.b.a.n.V.V.B.B.g.g.f.3 6 0 h.d.c.b.a.n.B.V.B.B.c.g.f.b.f.d.s.s.g.g.a.n.",
"n.B.N.f.f.n.f.a.b.n.b.B.b.f.n.n.n.B.N.f.c.b.f.i.g.N.b.m.b.d.N.n.g.V.N.f.f.n.f.< 3 c b.N.c.f.N.N.n.B.N.f.f.n.f.i.b.N.g.B.g.f.N.n.",
"B.N.g.N.N.N.g.n.N.g.B.B.V.B.B.V.B.N.b.N.N.n.b.n.N.g.N.V.V.N.V.B.B.N.g.N.N.N.p.k c.g.B.B.V.N.V.B.B.n.g.N.N.N.g.n.N.b.B.B.N.B.V.N.",
"B.g.g.n.f.d.f.f.b.b.N.b.a.b.n.b.B.f.b.n.f.d.f.f.b.b.N.b.a.s.s @ @ p x i.f.a.s a.c.b.N.b.d.b.n.b.B.g.n.n.g.a.f.f.b.g.N.N.d.n.N.b.",
"N.g.b.n.f.g.g.b.g.f.g.g.g.N.g.N.N.g.n.n.f.f.b.f.h j g.t.j y X X X X X   O j f.n.g.d.g.g.g.N.g.B.n.g.g.N.g.g.b.b.g.f.n.g.n.N.g.B.",
"a.g.g.g.g.B.V.n.N.N.B.b.N.g.g.n.d.g.f.f.g.s.h O X X j % # % $ : 3 ; $ X     v b.B.B.B.g.B.f.g.n.a.g.g.g.g.N.V.n.N.N.N.g.N.f.g.n.",
"N.B.N.B.Z.Z.V.B.V.B.C.n.g.f.n.g.N.B.N.B.r.o   # X # # $ $ : 9 w 5 5 5 4 ; # o N.B.B.V.N.g.f.b.g.N.B.N.B.V.Z.V.B.V.B.Z.n.g.g.g.g.",
"B.g.g.g.g.n.N.N.b.g.b.c.d.g.B.b.N.g.n.q.    $ : * $ & & * 4 w e S V w 8 4 # # s.b.d.g.g.d.g.B.b.N.g.n.f.g.n.N.N.n.f.g.g.d.g.N.n.",
"f.g.g.f.b.g.n.d.a.f.V.f.n.B.g.N.g.g.f.u   & 4 5 3 & & * * w e Z ` G D w 9 $ # h X . x f.b.B.g.N.g.g.g.g.g.b.n.f.a.f.N.f.n.B.g.N.",
"g.n.B.V.Z.n.g.g.n.N.n.V.B.N.B.N.g.g.B.d # : 8 8 w * * 1 2 4 C Z [ [ ` e e ; $ $ # X . B.B.B.V.N.g.n.B.V.V.n.g.g.n.N.B.B.B.N.B.N.",
"N.a.n.g.B.N.N.N.n.f.f.n.f.g.g.B.N.q.l , # : w e e e e w 6 M Z I ! T L Z e w * $ & #   v d.b.g.B.N.a.g.g.N.N.N.n.N.g.f.n.f.g.g.B.",
"g.n.N.B.n.N.N.n.a.f.d.f.d.i.a.b.e.o X # $ 5 w K J P E K J K K ( Q L  .T C e e w 5 - # t d.i.a.n.g.n.N.V.N.N.N.n.a.s.d.f.f.i.i.N.",
"g.V.N.B.n.B.n.n.B.n.b.C.g.N.V.N.s   $ : 4 w B Q ^ ( *./ I E ) *.W K I *.C 6 8 e 2 * # y b.n.B.n.g.V.N.N.N.N.N.c.N.n.N.V.g.N.V.n.",
"g.N.g.d.c.f.f.s.c.B.Z.B.N.d.g.b.@ o : 5 w B E ^ <.2.7.8.:.A.:.;.) _ K  .0 2 1 1 & $ # i n.f.g.N.g.n.g.f.b.f.f.f.c.V.Z.B.N.f.g.N.",
"g.N.g.n.f.B.n.f.b.n.B.B.B.g.d.x . X 4 5 S R >.3.5.7.9.I.L.L.U.A.;.) _ S 6 6 1 1 * $ $ X j f.d.b.g.B.g.n.s.B.N.f.g.b.B.B.N.f.d.b.",
"g.B.B.B.Z.Z.n.g.B.B.s.f.g.B.B.h . X 4 B G { ,.5.7.I.Y.T.E.Q.T.S.A.-._ I 7 6 4 1 * & $ % X v N.g.g.B.B.C.Z.C.N.c.V.N.s.f.n.B.N.f.",
"V.Z.V.B.g.g.f.b.f.a.s.f.f.b.s.y.= # - F ] ..3.7.L.U.T.Q.!.Q.G.D.A.;.( Q S M 0 e * & & & o @ a.n.V.V.B.B.c.f.f.b.f.d.f.s.f.n.a.n.",
"g.V.N.f.g.g.f.i.g.B.f.B.b.f.n.d.> # $ F ' ..1.7.I.T.Q.R.H.F.~.G.R.;.8.6.~ S H C 1 & ; : X t n.n.n.B.n.f.f.n.g.i.f.B.f.B.b.d.N.n.",
"B.N.g.N.N.N.g.n.N.g.B.B.B.B.B.b X # 4 F ' { <.9.8.L.Q.~.J.G.D.!.Q.Y.I.7.O.L Z C r w 9 & X u V.V.B.n.g.N.N.N.g.N.B.g.N.B.V.B.V.B.",
"B.g.g.N.f.d.f.f.b.b.N.n.a.n.n.w.X # 5 F ` [ ^ ( <.;.G.^.G.K.!.~.Q.T.I.5.~ R Y Z r w & # # h g.g.B.g.n.n.g.a.g.f.f.b.N.n.a.n.b.b.",
"N.g.b.N.g.g.g.n.g.g.g.g.b.N.b.N.> X 3 0 S K W Q I ) ;.!.W.~.H.G.T.Y.I.7.1.} G D e 9 $ % v b.g.B.n.g.b.n.f.g.g.n.g.f.g.g.b.N.g.B.",
"i.b.g.c.g.N.V.n.N.N.N.g.N.f.g.n.u # $ & 9 w 2 B J  .-.P.A.;.-.-.-.8.0.5.,.} D S w 4 $ y B.f.g.b.d.g.g.g.g.B.V.n.N.N.B.g.B.f.g.n.",
"N.V.N.N.V.Z.V.B.V.N.Z.N.g.f.n.g.a X # $ & * 4 B J Q ( *.*.%. .W %.( 4.<.` F F S e 4 # # x f.g.g.N.B.N.B.V.Z.V.V.V.N.Z.N.g.g.g.g.",
"N.g.b.g.g.n.N.N.N.g.g.g.d.g.N.b.a X # $ & * 2 C Z Q ^ ( E _ _ I T ..>.[ ` F F 0 w 4 $ # a g.B.b.B.b.b.f.f.N.N.N.n.g.g.g.d.g.N.n.",
"g.g.g.f.b.g.n.f.d.f.N.c.n.N.b.N.d . # : ; : w e K R ! ! K K E K _ [ X.[ F F V w 4 $ #   x B.g.N.f.g.g.f.b.g.n.d.a.f.B.f.n.B.g.N.",
"b.b.V.C.Z.N.g.g.b.N.N.V.B.N.V.N.a . - 5 4 w w B C S Y L Z ( =.J _ ` G F F F w w $ # i x N.N.B.N.g.b.B.Z.Z.n.g.g.n.n.n.V.B.N.B.N.",
"N.a.b.g.N.N.N.N.N.g.f.b.d.b.b.N.l   . : 3 5 V E e e Z C C Z Z C V F F F F B w 4 $ X d.b.d.b.g.B.N.i.N.g.B.N.N.n.n.c.f.b.d.g.g.B.",
"g.b.N.V.N.N.N.b.i.s.s.f.f.i.a.n.a.@   . X - B -./ I Z e w 1 1 4 4 9 e w w 8 5 - # > f.d.f.i.a.n.g.n.N.B.n.N.N.n.a.d.f.d.g.i.i.N.",
"g.V.N.B.n.N.N.g.B.b.b.V.g.N.B.n.g.n.z u   # $ P *.W B w : * * ; * * 4 w 4 3 $ # X q.b.B.g.N.V.b.b.C.B.B.n.N.N.b.B.n.b.B.b.n.V.n.",
"g.b.g.d.b.g.f.f.c.V.Z.V.N.f.g.N.b.n.f.f.l     # : 3 4 5 : * & & & $ 3 : $ $ X = b B.Z.B.n.g.g.N.g.b.f.d.b.f.f.s.c.V.Z.B.B.f.f.n.",
"g.B.g.n.f.N.n.f.g.b.m.B.N.f.d.c.s.n.c.n.s.s., X X # # $ : & $ $ $ $ $ # # y a y.b.n.B.B.N.f.d.g.g.B.b.b.d.B.n.c.b.b.B.V.N.f.f.n.",
"b.B.B.B.Z.C.N.c.V.m.d.f.b.V.n.w., s.B.B.Z.C.f.v x y % # # # # # # # X X d C.n.f.V.n.r.c.n.B.N.g.g.B.V.C.Z.C.N.c.V.n.s.f.g.B.N.f.",
"V.Z.V.N.n.f.c.c.f.a.d.f.f.c.f 6 c V.V.B.b.f.c.b.g.a.y.i X X X X + X   . z g.f.b.f.e.1 y.c.b.d.b.V.V.B.B.b.g.f.g.f.a.s.s.g.g.d.n.",
"n.N.N.f.f.n.g.i.b.N.c.B.b.$.D Z k.B.N.f.c.b.f.i.g.B.g.N.s.t.b.g.b.d.l g s.b.f.a.b.n.n q u.s.v.g.n.B.N.f.f.n.f.a.b.N.g.B.b.f.n.n.",
"B.N.b.n.n.N.g.n.N.b.N.B.m.&.[ @.B.n.g.n.n.B.g.n.N.g.B.B.B.B.V.B.B.N.g.n.n.N.g.n.B.g.B.e 0 H T &.N.N.g.N.N.N.b.n.N.b.B.B.V.B.V.V.",
"B.g.n.n.f.d.f.f.b.b.N.n.d.n.n.b.B.f.n.n.f.a.f.f.g.g.N.b.d.b.n.g.B.f.n.n.f.d.f.f.c.b.c.M m A [  .n.g.n.n.f.a.f.f.g.b.N.b.d.b.b.g.",
"b.g.b.n.f.g.g.b.g.f.g.g.b.N.g.B.n.g.b.n.g.g.b.n.g.f.g.g.n.N.g.N.N.f.b.n.g.g.g.n.g.f.b.U N Y ..o.v.f.n.n.g.g.g.n.g.f.b.g.g.N.g.B.",
"d.g.g.g.g.B.V.n.N.N.B.g.B.f.g.n.a.b.f.g.f.B.B.n.N.N.B.g.N.g.g.n.a.n.f.g.f.N.V.N.N.N.B.j.|  .o.z.d.b.f.g.f.B.B.n.N.N.N.n.B.f.g.n.",
"N.B.N.N.V.Z.V.B.V.B.V.N.g.g.g.g.N.B.N.B.V.Z.V.B.V.B.Z.n.g.f.g.g.N.V.N.B.V.Z.V.B.V.B.C.n.c.s.b.g.n.B.B.B.V.Z.V.V.V.B.V.n.g.g.g.g.",
"B.b.b.g.f.N.B.N.n.g.g.g.d.g.N.n.B.g.n.g.c.n.B.N.n.g.g.g.d.g.B.n.B.g.b.f.b.n.B.N.n.g.b.g.d.b.B.b.B.b.b.f.g.n.N.N.n.g.g.g.d.g.N.n.",
"f.g.g.f.b.b.n.d.d.f.B.f.b.B.g.N.g.g.g.f.n.g.n.f.a.f.B.f.n.B.g.N.f.g.f.f.b.g.n.d.a.f.B.f.N.B.g.n.f.g.g.f.b.g.n.d.a.f.B.f.n.B.g.N.",
"b.b.B.Z.Z.n.g.g.n.n.n.V.B.N.B.N.g.g.V.V.V.n.g.f.n.n.N.V.B.n.B.N.g.n.B.Z.V.n.g.g.n.n.n.V.B.N.V.N.b.n.B.Z.Z.n.g.g.n.n.n.B.B.N.B.N.",
"N.a.b.g.B.N.N.N.n.c.f.b.d.g.g.B.N.i.g.g.B.N.N.n.N.f.f.g.f.g.g.B.N.i.n.g.B.N.N.n.n.g.f.b.f.g.g.B.N.i.n.g.B.N.N.n.N.f.f.n.f.g.g.B.",
"g.b.N.B.n.N.N.b.a.d.f.d.f.i.a.N.g.N.N.V.g.B.N.b.a.f.s.f.f.i.a.n.g.n.n.V.n.N.B.b.a.s.s.f.d.i.a.n.g.n.N.B.n.N.N.n.a.f.f.f.d.i.i.N.",
"g.V.N.B.n.B.B.b.B.b.n.V.b.n.V.n.g.V.N.B.N.N.n.n.B.b.b.V.b.n.V.n.g.V.N.B.N.N.N.n.B.b.b.V.b.n.V.b.g.V.N.B.n.B.n.b.B.b.n.B.n.B.V.b.",
"b.b.f.f.b.f.d.s.c.C.Z.B.n.f.f.N.g.n.g.d.b.g.f.s.b.V.Z.B.N.g.f.N.g.N.g.d.g.f.d.f.c.V.Z.B.n.f.g.N.g.b.g.f.b.f.f.s.c.B.Z.B.n.f.f.n.",
"g.B.f.n.s.B.n.c.n.b.B.B.N.f.d.n.g.B.g.N.f.B.n.c.b.b.B.B.N.f.d.n.g.B.g.N.s.B.n.c.g.b.B.C.N.f.d.b.g.B.b.b.s.B.n.c.n.b.B.B.N.f.d.n.",
"g.B.V.V.Z.C.n.g.V.N.s.f.g.V.n.g.g.B.B.B.Z.C.n.g.B.B.s.f.b.B.N.f.g.B.B.B.Z.C.B.f.V.B.s.f.b.V.N.f.g.B.B.V.Z.C.n.b.B.B.s.f.n.B.N.g.",
"V.V.B.B.b.f.c.g.f.s.d.s.f.g.d.n.V.V.B.N.b.f.f.g.f.a.f.s.f.g.d.n.V.Z.B.B.b.g.f.b.f.a.d.s.f.n.d.g.V.V.B.B.b.f.f.g.f.a.s.s.f.n.a.n.",
"b.B.N.g.f.n.f.a.b.n.b.B.b.f.n.n.n.B.N.g.c.n.f.i.g.N.c.B.b.d.n.n.n.B.N.f.f.n.d.a.b.N.b.B.b.d.N.N.n.B.N.f.c.n.f.a.b.N.g.B.b.d.n.n.",
"B.N.g.N.N.N.g.n.N.g.B.B.V.B.V.V.N.N.b.n.N.N.b.n.N.g.B.B.B.B.V.B.N.N.g.N.N.N.c.n.N.g.B.B.V.B.V.B.B.N.g.N.N.n.f.n.B.g.B.B.V.B.B.V.",
"B.g.n.b.f.d.f.f.b.b.N.b.a.b.b.b.B.f.n.n.g.a.f.f.b.b.N.b.d.N.n.g.B.g.n.n.f.a.f.c.b.g.N.b.d.b.n.g.B.g.g.n.g.a.g.f.b.g.N.b.d.b.n.b."
};
