/* XPM */
static char *result[] = {
/* columns rows colors chars-per-pixel */
"64 64 152 2 ",
"   c #0D1715",
".  c #101111",
"X  c #121C1A",
"o  c #1C1D1D",
"O  c #1A2617",
"+  c #16231D",
"@  c #1D2C1A",
"#  c #2B3B17",
"$  c #22311C",
"%  c #2E3E18",
"&  c #172622",
"*  c #182623",
"=  c #1A2825",
"-  c #1D2D2B",
";  c #1D312E",
":  c #1E3432",
">  c #2A2E26",
",  c #24322F",
"<  c #2C302E",
"1  c #223532",
"2  c #2A3534",
"3  c #233A36",
"4  c #2E3937",
"5  c #263D3A",
"6  c #2A3D3B",
"7  c #333434",
"8  c #333C3B",
"9  c #3A3B3C",
"0  c #344517",
"q  c #3B4E16",
"w  c #3D531A",
"e  c #26403C",
"r  c #29413E",
"t  c #36403F",
"y  c #415718",
"u  c #445D1B",
"i  c #4B641E",
"p  c #4F6A1F",
"a  c #526C1F",
"s  c #455921",
"d  c #4F6A20",
"f  c #526D20",
"g  c #5A7422",
"h  c #567925",
"j  c #5D7D26",
"k  c #617F27",
"l  c #2B4542",
"z  c #2D4946",
"x  c #2E4C49",
"c  c #334442",
"v  c #3D4544",
"b  c #324E4B",
"n  c #3A4C4A",
"m  c #34514E",
"M  c #3B514E",
"N  c #355452",
"B  c #3B5553",
"V  c #375955",
"C  c #395A56",
"Z  c #3B5D5A",
"A  c #3D615E",
"S  c #3E6461",
"D  c #424545",
"F  c #404847",
"G  c #454748",
"H  c #444949",
"J  c #4B4D4D",
"K  c #41504F",
"L  c #4A4F50",
"P  c #4D5252",
"I  c #435A56",
"U  c #495956",
"Y  c #445C5A",
"T  c #4B5D5C",
"R  c #525455",
"E  c #565758",
"W  c #565A5B",
"Q  c #5B5C5D",
"!  c #42615E",
"~  c #5D5F60",
"^  c #416662",
"/  c #4D6564",
"(  c #436966",
")  c #486A67",
"_  c #446D6A",
"`  c #486D6B",
"'  c #566161",
"]  c #5E6163",
"[  c #5A6A69",
"{  c #45716E",
"}  c #49726E",
"|  c #58706E",
" . c #477672",
".. c #4A7571",
"X. c #4C7975",
"o. c #4E7D7A",
"O. c #507E7A",
"+. c #636465",
"@. c #656A6B",
"#. c #6A6B6D",
"$. c #6E6F70",
"%. c #677071",
"&. c #6E7172",
"*. c #727375",
"=. c #757779",
"-. c #757879",
";. c #7A7B7D",
":. c #5F8127",
">. c #5F8128",
",. c #608227",
"<. c #638529",
"1. c #67892A",
"2. c #6B8C2B",
"3. c #6C922E",
"4. c #70932E",
"5. c #6F9931",
"6. c #739E32",
"7. c #799D33",
"8. c #75A133",
"9. c #7CA535",
"0. c #7EA936",
"q. c #52827D",
"w. c #80A636",
"e. c #81AB37",
"r. c #84AE38",
"t. c #86B039",
"y. c #8BB43A",
"u. c #8FB83B",
"i. c #93BA3C",
"p. c #7D7E80",
"a. c #548581",
"s. c #578A86",
"d. c #598B86",
"f. c #5A8D89",
"g. c #5E928E",
"h. c #5F9490",
"j. c #7E8082",
"k. c #619692",
"l. c #828385",
"z. c #868788",
"x. c #87898A",
"c. c #8A8C8D",
"v. c #8D8F90",
"b. c #8F9092",
"n. c #929395",
"m. c #959698",
"M. c #979899",
"N. c #999A9C",
"B. c #9D9EA0",
"V. c #A3A4A6",
"C. c #A7A8AA",
"Z. c #AAABAD",
/* pixels */
"r.0.e.r.0.0.0.e.e.9.0.0.0.t.0.t.0.0.0.y.0.0.0.0.0.0.0.0.0.t.0.t.t.0.e.r.0.0.e.e.0.9.0.9.0.t.0.t.t.0.e.t.0.0.0.e.0.9.0.0.e.t.0.t.",
"6.e.0.0.9.y.u.e.t.t.y.0.y.0.0.t.8.0.0.0.0.y.u.0.u.y.y.0.y.9.0.t.8.0.0.0.0.t.u.r.t.t.t.t.t.0.9.t.8.0.9.0.9.y.y.t.t.t.y.0.y.9.9.t.",
"t.y.t.y.u.i.u.u.u.y.i.t.0.0.0.0.0.y.0.0.u.u.u.0.u.u.u.0.0.0.e.0.t.y.t.y.u.i.u.y.u.y.u.r.0.8.0.0.t.y.t.y.u.i.u.u.u.y.i.t.0.9.e.0.",
"y.e.e.9.0.t.t.t.e.0.0.0.8.2.1.<.3.>.>.:.>.<.3.5.0.0.0.0.8.0.y.e.t.0.e.0.w.3.2.<.<.:.>.:.:.:.2.3.y.0.e.0.0.t.t.t.e.0.0.0.8.0.t.t.",
"9.0.0.9.e.e.e.8.7.9.y.9.9.$ 3 l V V S V x l : & 8.0.y.9.r.y.0.e.9.0.9.w.9.@ 3 l x N Z N x l : > 8.0.0.9.e.e.t.8.8.9.y.9.t.y.0.t.",
"e.e.y.i.i.e.0.0.e.t.t.u.2.; V S S a.s.a.S S Z ; 1.0.t.u.u.r.u.t.e.e.u.i.4.- V S ..a.f.a. .S V - <.e.y.i.i.r.0.9.e.t.t.u.y.t.u.t.",
"t.6.e.0.y.t.t.t.r.0.9.e.q 3 A ( a.f.h.a.a.S S 3 w 9.9.0.8.0.0.y.t.6.r.9.w 6 Z ( o.s.h.d.o.( A 5 w 6.e.0.y.t.r.t.t.0.9.0.8.0.0.t.",
"0.e.t.y.e.y.t.e.6.7.8.3.X l N C S S o.p.S S N z & 5.8.9.9.5.6.r.0.e.r.w.+ r N C S  .a.X.( C N l + 6.t.y.e.y.t.e.6.8.9.9.9.5.5.t.",
"e.u.y.y.r.r.t.e.y.e.e.4.* 1 6 x V S S S N x e : = <.e.u.e.t.y.r.0.u.t.2.* 1 6 x N A S A N x e : * 2.t.t.t.t.y.e.y.e.r.u.e.t.y.r.",
"0.e.0.8.w.0.9.7.w.u.i.2.= 5 x N S S  .S S N x e = 2.i.y.t.9.0.t.0.t.0.j = 5 x N S S X.S S V z 5 = 1.0.9.w.9.8.7.w.y.i.y.t.9.9.y.",
"0.y.w.r.9.y.r.w.e.e.y.2.= 5 S (  .a.s.o. .S S e - k y.u.t.9.7.e.0.t.0.<.= 6 Z ( S X.s.q. .S S l = 2.w.r.9.t.r.w.e.e.y.y.t.9.8.e.",
"e.t.y.u.i.u.r.0.y.y.7.j = b Z ( S o.s.o. .S S x = 2.7.7.6.3.j k 6.t.y.2.* b ! ( X.q.a.q. .S A b * 2.y.u.i.i.r.0.y.y.7.9.e.y.t.0.",
"u.i.y.y.w.0.0.w.9.7.7.j = b Z ( C 3 5 3 : 5 A b = 0 s > 7 9 D 9 2 > s y = b Z x : e 3 : x S Z x * 4.y.y.e.9.w.0.9.6.8.7.9.e.6.e.",
"e.y.t.9.0.r.9.5.0.t.0.2.= b A ( {  .p.S _ ! A b 2 L E E R G ~ G E Q E J 2 b Z S S S o.a.S S S m = 2.r.9.9.r.9.6.e.t.e.y.e.9.r.t.",
"y.t.0.r.r.r.0.r.t.0.y.2.= b A ( A m N m z x A b 4 E E +.~ $.E #.+.+.E E 4 b Y N V Z Z S S S S N = <.e.r.t.t.0.r.t.e.y.y.u.y.i.y.",
"t.0.r.e.0.6.0.9.e.e.r.<.= b A _ { _  .{ S Z A b 8 *.=.*.$.$.$.$.#.*.=.*.4 b S A S S S S S S S S = ,.r.r.9.8.9.9.w.e.t.e.8.e.e.e.",
"t.0.e.r.0.0.e.e.0.9.r.>.= m ^ _ _ ( { S A C ( b 8 $.$.x.p.*.z.*.q.x.$.$.t m ! A A S _ ( ( _ ^ b = ,.r.r.0.0.0.r.e.9.0.0.e.t.0.t.",
"6.e.0.0.0.r.u.r.r.r.t.<.= m ( ` ( Z S A V N ( b t x.b.n.n.n.n.n.N.n.n.x.t m ! A V A S A A } ^ m = 1.9.0.0.t.y.r.t.t.y.e.y.9.0.t.",
"t.y.t.y.u.i.u.y.u.y.i.<.= m ( } ` _ { ( ^ Z ( m 8 p.l.l.z.l.l.l.z.z.l.;.4 m ( ! A ( { ( ( ..^ M * 2.t.y.u.i.u.u.y.y.i.e.0.9.0.0.",
"t.0.r.0.w.e.y.t.r.0.e.,.= m N S ` S _ ( Z C _ b 9 *.=.=.p.*.p.*.=.=.-.&.t m ( A A S _ ^ ( ! V m = ,.e.w.0.t.t.t.e.0.e.0.8.0.t.t.",
"0.0.9.0.e.0.r.9.6.9.y.k & V S S X.q.q.q.} ( _ m v p.p.p.p.p.p.p.p.;.p.;.D m ( ` } o.q.q.X.^ Z m = 1.9.w.e.e.t.8.6.9.y.9.t.y.0.t.",
"0.0.y.i.i.r.0.0.r.r.r.3.= Z S S ( m V N b m ` m 9 $.$.$.$.$.$.$.$.$.$.$.t m ` V b N V m Z } ) m * <.y.i.i.e.0.9.r.r.t.u.y.t.u.t.",
"t.6.r.0.t.t.t.r.r.0.9.>.= N S a.q.d.k.f.q...` m 8 ~ ~ J ~ ] ] ] Q J +.~ 8 m _  .q.d.h.f.q.X...m = h e.0.y.t.t.t.t.9.0.e.8.0.9.y.",
"0.t.t.y.t.y.t.0.8.8.8.>.& N a.s.! e r e 3 r ` m 7 J R 9 J J L L J 9 R J 2 m _ m 3 e r e m q.a.m = 1.t.y.e.y.t.e.7.8.9.8.9.5.5.t.",
"0.u.t.y.r.y.r.e.y.e.e.3.= m p.f.q.f.g.d.q.} ` m v p.;.*.$.$.#.@.+.+.~ Q 7 B / ..O.f.h.d.q.O.q.B = 2.t.t.r.t.t.r.y.e.e.u.e.t.y.t.",
"0.r.0.8.w.9.9.7.w.u.i.2.= m S S q.q.g.d.q.} ` m D q.l.c.v.b.B.b.c.z.l.;.s M ( ..o.d.g.s.O.X...m = 1.0.9.w.w.8.7.w.u.i.y.t.9.0.t.",
"0.t.0.t.9.y.r.0.e.e.y.2.= m ( _ A A f.d.O.} ( m s p.l.c.b.B.m.B.n.c.l.p.D m ( } o.d.f.Z ^ _ ( N = 2.w.r.9.y.r.w.e.e.y.y.t.9.8.e.",
"r.t.y.y.i.i.r.0.u.t.7.k = m C ! e : q.q.X.} } r 9 #.+.Q R v 4 v R Q +.#.t 6 ` } X.a.a.; 5 A C m * 2.y.u.i.u.r.9.y.y.7.9.0.u.t.9.",
"u.u.y.y.0.0.9.0.9.6.7.j = N N A _ } s.s.X.S r 1 2 2 2 6 6 8 8 8 6 2 3 : : : 6 ( X.a.d._ _ A V m * 4.y.y.e.0.9.e.9.6.8.7.0.e.8.e.",
"t.y.t.9.0.r.9.5.e.t.0.2.= m A _ X.q.s.a. .m r c D G G J J L R R J J J D D c 6 m  .a.s.a.X._ ! m = 2.r.9.9.r.9.6.e.t.e.y.e.8.t.r.",
"y.t.0.t.t.t.0.r.t.0.y.2.= b A (  .q.s.q.A z l P W W R T T Y ! Y U R R ~ ~ R z z A X.s.q...( A m = <.e.r.t.t.e.r.t.e.y.y.y.y.i.y.",
"y.9.0.t.9.8.9.9.w.e.t.<.= m A ( } q.q.S b b L +.~ c b N Z ( ..( A C x c ~ +.L b N S a.O...( ! m = ,.r.r.9.6.9.9.w.e.t.r.8.e.e.e.",
"t.9.e.r.0.0.0.t.0.9.0.>.= m S S  .X. .V N K #.@.n x N Z ! Y U Y A Z C x H @.#.M N C ..X. .( A m = j e.r.0.0.0.e.e.9.e.0.0.t.0.y.",
"6.r.9.0.0.t.u.e.t.t.y.<.= m A S _ _ S B B +.*.~ 6 N N T D o . o D Y m N 5 ~ p.+.V N A _ ` ( A b = <.0.0.0.y.u.e.r.r.y.0.y.9.9.r.",
"t.y.t.y.u.i.u.u.u.y.i.<.= m S S A S V A ~ l.$.6 b z B R . . . . . R B z b 4 $.p.W A V _ S S S N = 2.r.y.u.i.u.u.u.y.i.r.0.9.0.0.",
"y.e.e.9.e.e.t.t.e.0.0.<.& 3 b N S S ( T l.p.L 6 l z ] 9 . . . . . 9 [ z l 6 L j.l./ S S A N x 5 * <.e.w.0.t.t.t.r.0.0.0.8.0.y.r.",
"9.0.0.9.e.e.e.9.8.9.y.8.i ; r b V V { @.n.z.6 l 5 z %.7 . . . . . 7 %.z r l 8 l.m.$._ V V b l 1 u 8.9.0.e.0.r.8.7.0.y.9.r.y.0.t.",
"e.e.y.i.i.e.0.0.e.t.t.u.t.p & l A Z  .-.B.v.8 z r z T G . . . . . G T z 5 z t c.N.-. .C A l & f e.w.y.i.i.r.0.0.e.r.r.u.y.t.u.t.",
"t.6.e.0.y.r.r.r.r.w.9.r.9.8.+ z ^ S X.p.B.n.9 z 5 z N ~ o .   X o ~ N z 5 l t n.V.;.X.A ( z * w.t.6.r.0.t.r.t.r.r.0.9.r.8.0.0.t.",
"0.e.r.u.e.y.y.e.6.9.7.8.9.3.= n _ S o.p.V.B.H r r z m C P 7 7 b P Z m z l l D B.C.j.o.S _ b = 9.0.e.r.u.r.y.t.e.6.7.9.8.9.5.6.t.",
"0.u.t.y.t.t.t.0.y.e.e.u.e.0.7 R / ( o.l.Z.N.v.8 n x m V S ( S S S Z N x x 9 v.B.C.z.p.S / E 7 8.e.u.t.y.r.y.t.r.y.0.r.u.r.t.u.r.",
"0.e.0.8.0.0.8.9.w.u.i.y.t.6.J l.-.( o.l.V.m.m.z.t n m A S { a.S S A N b D l.n.n.V.j.o.S -.j.J 0.0.r.9.9.w.w.8.7.w.u.i.y.r.9.0.t.",
"e.t.0.t.9.y.t.w.e.e.y.u.t.6.J z.p.( X.l.B.v.v.c.z.G m Z S S q.q.S Z N m l.v.v.c.B.z. .S -.x.I 0.0.y.e.r.8.y.r.w.0.0.y.y.t.9.8.0.",
"0.y.u.y.i.u.r.w.u.r.7.9.e.r.7 Q | _ ..j.m.z.z.z.v.q.M Z S { S S S Z N p.z.z.z.z.M.k.o.S | ~ 4 8.e.t.y.y.i.i.r.w.u.y.7.9.0.y.t.0.",
"u.u.u.t.w.9.9.e.0.8.7.7.0.8.: ( f.{ { j.m.j.j.j.p.*.@.K C ! ! ! C Y @.*.j.j.p.j.m.p.S S h.S : 8.u.i.y.y.e.0.0.e.9.7.7.7.0.0.8.r.",
"e.y.t.0.w.r.9.6.e.r.0.y.w.6.e { g.q.S ' p.x.-.;.;.#.+.;.;.;.#.;.*.p.+.@.=.p.p.x.p./ Z p.k.S e 0.e.y.t.9.0.e.8.5.0.t.0.y.e.9.r.r.",
"y.t.0.t.t.t.9.r.t.e.y.y.u.e.e  .h.h.a.A Y =.l.*.*.+.~ *.&.*.G *.$.*.~ ~ $.$.j.=.T A a.g.k. .e 0.y.t.0.t.t.t.0.e.t.0.y.y.u.y.u.u.",
"t.0.e.e.9.7.w.9.w.e.r.e.8.9.3 { g.g.g.Z V Y $.*.#.~ E #.#.#.G #.$.#.~ ~ #.=.$.Y C A g.g.k.o.e 8.t.0.e.e.9.8.0.9.0.t.t.e.8.e.e.0.",
"t.0.0.t.0.0.0.e.0.9.0.0.r.0.3 _ f.f.s.C X.N M +.$.W E +.+.@.D +.+.+.E W #.+.M N ..C f.s.f._ 1 e.t.0.e.t.0.0.0.e.e.9.0.0.e.t.0.y.",
"8.0.0.0.0.y.u.r.t.t.y.0.t.8.1 Y a.| $.x.;.W b n ~ ] Q ] Q Q 9 Q ~ ~ ~ ] Q n b W ;.x.&.| a.Y , 9.8.0.0.0.0.t.u.e.t.t.y.0.y.9.0.r.",
"t.y.t.y.u.i.u.u.u.y.i.r.0.7.9 +.[ @.#.v.*.#.^ x c R E E E E R E E E W R c z / #.*.b.#.@.[ +.9 8.t.u.r.y.u.i.u.u.u.y.i.r.0.0.0.0.",
"y.0.e.0.0.t.t.t.r.9.0.0.8.8.L v.j.@.*.~ *.*.` Y 6 8 D D D D D D D D F 8 6 Z ` $.*.] *.#.j.v.R 9.y.0.e.9.0.t.t.t.e.0.0.0.8.0.t.r.",
"9.0.0.0.0.0.0.8.6.9.y.9.r.w.G ;.$.@.@.x.$.$.) Z   1 1 1 , 1 , 1 1 , , 1   Z ) #.&.c.#.@.$.-.F w.9.0.0.0.e.0.r.8.7.9.y.9.r.y.0.t.",
"0.e.y.i.i.r.0.0.r.r.r.i.y.w.< P ^ ~ $.v.p.+.^ N 0 0 % % # # % % # # # 0 q V ^ ] ;.v.&.' / L < 9.0.e.t.i.i.r.0.0.e.y.w.u.y.t.y.t.",
"t.5.t.0.t.t.t.r.t.9.9.e.9.8.& z ( Z Y l Y Z Y N p 9.9.w.8.0.9.t.w.6.e.0.f N ! Z Z c A Z ( z * e.t.5.t.0.y.t.t.t.r.0.0.e.0.0.0.y.",
"0.r.t.y.r.y.t.r.6.9.8.9.8.3.+ r S C V 3 N C Z b u 8.8.9.9.5.6.r.0.r.r.y.d b Z V N 3 C C S 6 & 9.0.r.t.y.r.t.t.e.6.8.9.8.8.5.5.t.",
"e.i.t.y.t.t.y.e.y.e.r.u.e.r.i - 6 m N 1 m N V b f e.e.u.e.r.u.t.e.u.t.y.d x N N b 1 N b l - d 0.0.i.y.y.r.y.t.e.y.e.e.u.e.r.u.w.",
"0.r.9.8.e.9.8.7.w.y.i.y.r.9.9.i - 3 z - z z b 3 d u.i.t.t.9.0.t.0.r.0.9.d 1 b x l - z 3 = u 9.t.0.r.9.8.w.w.8.7.w.u.i.y.r.0.0.y.",
"0.t.e.r.7.y.r.w.e.w.u.y.t.9.8.0.u * ; X = - - O 3.e.y.u.t.9.8.e.e.y.0.e.2.O - - , X - * i 8.9.e.0.y.w.r.8.y.r.w.e.e.y.y.t.9.8.e.",
"e.y.y.u.i.u.r.0.u.t.7.9.e.u.t.9.0.h f f g f p 2.y.y.7.9.e.y.t.9.e.t.y.y.i.7.d i f a u f 9.y.t.9.e.t.y.u.i.i.r.0.u.r.7.0.r.y.t.9.",
"y.i.y.y.e.9.w.0.9.6.7.7.9.e.8.r.u.u.u.y.e.0.9.e.9.8.8.7.0.e.8.r.u.u.y.t.e.e.9.e.9.6.8.7.0.0.8.0.u.i.y.y.e.0.9.e.9.7.7.8.0.e.7.r.",
"r.y.r.9.9.r.9.6.e.r.e.y.e.8.t.r.e.u.t.8.9.r.9.3.0.t.e.y.e.8.r.r.e.u.t.9.9.w.8.6.e.t.e.y.e.9.r.t.e.y.t.9.0.e.9.5.0.y.e.y.e.8.r.r.",
"y.t.0.r.y.r.9.r.t.e.y.y.y.y.u.y.t.t.0.t.y.r.e.r.t.0.y.y.y.t.u.u.t.t.0.t.t.t.w.r.t.0.y.y.u.t.u.u.y.t.0.t.t.t.e.r.t.0.y.y.y.y.u.y.",
"t.0.r.r.9.8.9.9.e.e.t.r.8.r.e.e.y.0.e.e.9.7.9.9.e.e.y.w.8.t.0.t.t.0.t.e.9.7.9.w.e.e.t.e.8.e.t.0.t.0.e.e.9.6.0.9.0.0.t.e.8.t.e.0."
};
