/* XPM */
static char *result[] = {
/* columns rows colors chars-per-pixel */
"64 64 128 2 ",
"   c #171D0B",
".  c #181E0C",
"X  c #0F1213",
"o  c #111314",
"O  c #161816",
"+  c #1C1B16",
"@  c #161A1A",
"#  c #1B1C1A",
"$  c #1A210B",
"%  c #1F2A0C",
"&  c #1E261B",
"*  c #23221D",
"=  c #191D21",
"-  c #1C2123",
";  c #1F2328",
":  c #292723",
">  c #2A2824",
",  c #21262A",
"<  c #24292E",
"1  c #272D31",
"2  c #292E33",
"3  c #2B3135",
"4  c #2E353A",
"5  c #32373D",
"6  c #33383E",
"7  c #475D1E",
"8  c #485D1E",
"9  c #455A26",
"0  c #495E27",
"q  c #465C2D",
"w  c #495F2D",
"e  c #4D652A",
"r  c #4E692A",
"t  c #516A2A",
"y  c #323740",
"u  c #363C42",
"i  c #393F45",
"p  c #3A4147",
"a  c #3C444B",
"s  c #3F4951",
"d  c #40494E",
"f  c #444C54",
"g  c #465057",
"h  c #465259",
"j  c #4B545B",
"k  c #4E585F",
"l  c #50575F",
"z  c #53595D",
"x  c #637D47",
"c  c #4B5761",
"v  c #4E5962",
"b  c #545D65",
"n  c #585F67",
"m  c #575E68",
"M  c #566166",
"N  c #57646D",
"B  c #5A646C",
"V  c #5D6771",
"C  c #5D6A72",
"Z  c #5F6F78",
"A  c #60676D",
"S  c #616D76",
"D  c #636F79",
"F  c #637077",
"G  c #697077",
"H  c #66737C",
"J  c #6A757D",
"K  c #71787E",
"L  c #5E822C",
"P  c #668C2D",
"I  c #698D2E",
"U  c #6C902E",
"Y  c #70922E",
"T  c #6A8731",
"R  c #678D31",
"E  c #6D8F32",
"W  c #6A873E",
"Q  c #6E9232",
"!  c #6F9931",
"~  c #729532",
"^  c #739E33",
"/  c #799D33",
"(  c #71923E",
")  c #75A234",
"_  c #7CA535",
"`  c #7EA936",
"'  c #739641",
"]  c #769941",
"[  c #7A9C42",
"{  c #81A736",
"}  c #81AC37",
"|  c #84AE38",
" . c #86B039",
".. c #8BB43A",
"X. c #8FB83B",
"o. c #92BA3C",
"O. c #80A043",
"+. c #6A7682",
"@. c #6C7A83",
"#. c #707C87",
"$. c #787F84",
"%. c #717F89",
"&. c #788086",
"*. c #74838D",
"=. c #768591",
"-. c #798692",
";. c #778892",
":. c #7D8B96",
">. c #7D8B99",
",. c #808F9B",
"<. c #82919E",
"1. c #8696A2",
"2. c #8798A3",
"3. c #8A9AA6",
"4. c #8D9DAA",
"5. c #92A2AF",
"6. c #95A5B2",
"7. c #95A8B3",
"8. c #98AAB7",
"9. c #9BACB9",
"0. c #9DB1BC",
"q. c #A0B1BF",
"w. c #A3B5C2",
"e. c #A6BAC7",
"r. c #AABECB",
"t. c #ADC1CE",
"y. c #B0C4D1",
"u. c #CCE2EF",
/* pixels */
"| ` }  ._ ` ` } } _ ` ` `  .` .. .` ` | _ ` } } } _ ` ` `  .`  . ._ }  .` ` ` } { ` ` _ }  .`  . ._ }  .` ` ` } ` _ ` ` }  .` ..",
"^ } _ ` `  .X.}  . ...` ..` ` } ^ } ` ` _ ..X.| | ....` ..` `  .) } _ ` _ ..X.|  . . .} ..` ` | ) ` ` ` ` ..X.| | ....` .._ _  .",
" ... ...X.o.X.X.X...o. .` ` ` `  ... ...o.o.........o.} ` _ } `  ... ...o.o.X...o. .o.| ` ` ` `  ... ...X.o.X...X...X. .` _ ` ` ",
"..} } _ `  . . .} ` ` ` ) ` ..} ..` } ` ` | .. .| ` ` ` ) ` ..} .._ } ` ` } .. .| _ } _ ) `  .| ..} } _ ` ` .. .} ` ` ` ) _ .. .",
"_ ` _ _ } ` } _ / _ .._ } ..`  .` ` ` ` ` ` } _ ) _ ..{ | ..`  .` ` _ ` } } } _ ^ _ X._ } ..` | _ ` _ ` } } | _ ) _ .._ | ..` | ",
"} } ..o.o. .` ` } |  .X... .X. .` ` ..X.o. .` ` | |  ..... ... .` } ..o.o.} ` ` |  .| X... .X. .} } ..o.X.| ` _ }  . .X....... .",
" .^ } ` .. . . . .` _ } _ ` ` ....!  ._ .. .| } | _ _ } _ } ` .. .! ` ` .. . .} | _ _ } _ ` ` .. .^ } ` ..|  .|  ._ _ | _ ` ` ..",
"` }  .X.} .. .` ^ _ ) _ ) ! !  .` `  .X.} ....} / _ _ ) ) Q ^ | `  .....` ....} ^ _ ) ` ) ! ^ | ` }  ...| ....` / ) ) ) _ ! !  .",
"} o. ... . . .} ..` | o.`  ... .` X..... . . .} ..} } X.}  .X.} ` X..... . . .{ ..{ } ..`  .X.| ` X. . . . . .{ ..` } ..} | .. .",
"` | _ ) } _ _ / { ..o... ._ `  .` } ` ) ` _ _ / { X.o... ._ _  .`  .` ) { { ) { { o.o.X.| ` _  .` | ` _ { _ _ _ } X.o....._ `  .",
"}  .} | / ..| _ } } .... ._ ) } ` ..` } _ ..| { } } .... .` _ } _ ..` ` ) ..| { } } ..X. ._ ) } ` ..` | / .. ._ } } .... ._ ) } ",
"}  .....o.o..._ ..../ _ } ..| ` ` ..X...o.o.| ` ..../ _ } .. ._ ` ....X.o.o.| ` .. ./ _ } X. ._ |  ...X.o.o. .{ ..../ _ } .. .` ",
"X.o.....} _ _ } _ / _ ) ` ` / } X.o.....} _ _ ` ` ) / / { } ) { X.X.....} ` _ ` _ ) ) ) { } / } X.X... .} _ _ ` _ / / ) _ ` ) | ",
"} .. ._ _ | _ ^ } | { ..} _ |  .} .. ._ _ | _ ^ _ .._ ..{ /  .| ` X. .) _ } _ ^ {  .` ..| ) | } | .. .` _  ._ ^ }  .{ ..} _ | | ",
"....`  . . .} |  .` ........X..... .} | ..| ` |  .` ..t e e t e r r e e e e t |  .` ........o.X. .| `  . . ._  ...`  ...X...o...",
".._ }  ._ ) _ _ ` }  .} )  .} ` .._ } } Q R Q Q ~ ^ / M ,.:.,.,.>.>.M 4.4.4.3.x ~ / / ~ ) | } } ..` | | _ ) _ { _ }  .} ) } } } ",
"` _ }  ._ ` ` } _ ` ` _ }  .` ..| ` } ~ f K $.A b b = :.:.:.1.:.:.S 0.5.4.4.4.S l A D 5 `  .`  .| ` | | _ ` } | ` ` ` ` | | ` ..",
") | ` ` ` ..X.|  . ...}  .` _ | ) } _ Q g K J J H +.6.8.5.6.6.7.6.J t.0.5.4.4.b +.J S b ..` `  .) ` ` ` _ ..X.| | | ..`  .` ` | ",
" .......X.o.X...X...o.| ` ` ` ` | .. ./ g A A j 4.3.7.<.4.5.4.C 4.J 4.V b l c y v n M u ` _ ` `  ...| ..X.o.X.X.X. .o. .` ` ` ` ",
".._ ` _ } } .. . ._ } _ ) ` ..} ..` } Q S @.+.J 9.#.@.%.w.6.J 0.H 4.N 2.1.f g D 3 +.@.h ) ` ..} ..` } _ ` |  . .| ` ` ` ) `  .| ",
"` ` ` ` } `  .) / _ .._ | ..` | _ } _ E j $.,.J r.1.C >.w.w.4.<.4.4.4.+.<.<.+.*.6 G @.u } ..`  ._ ` ` _ | ` | ) ^ _ .._ | ..` | ",
"` } ..o.o.} ` ` |  .| X.X. ... .} } ..T g K K 5 <.=.=.>.<.<.1.>.:.:.:.:.>.*.:.D 2 J S z /  .X. .` | ..o.o.| ` ` }  . ..... .X. .",
" .! } ` ..|  . .| _ _ } _ ` ` ..| ^ t # j m n # 9.r.r.r.r.e.0.0.r.r.0.0.0.0.0.J 1 n n u & ! ` .. .^ ` ` .. . .|  ._ ` | ) ` ` ..",
"_  . ...} ....` ^ _ ) _ ) ! ^  .` | 0 # H -.%.G f u.y.e.0.r.e.w.w.0.0.0.0.0.8.a 4 *.*.j X L !  .` |  ...|  . .| ^ _ / ` ) ! ^ | ",
"` X. ...| ..| } ..} } X.}  .X.} ` O.t & ;.1.>.D 7.M b s s C C Z C C C s s d d k 4 *.*.k X U .. .} X. . . . . .} ..} | X.{  .X.} ",
"`  .` ) { _ _ / { X.o... ._ _  .` | 9 @ ;.1.>.D q.*.4.<.4 >.@.@.@.@.@.F <.<.; c 4 *.*.k X P _ ..} } ` _ { _ _ / { X.o... .` _  .",
"` ..`  ._ ..| { } } .... ._ ) } _  .9 @ +.>.>.D 0.k *.*.3 Z N p p N N N =.*.; v 4 *.*.j X P ) ` `  .}  ._  . ._ { } ..X.| ` ) } ",
"` ......o.o.| _ ..../ _ | .. ._ }  .e @ H 2.4.#.<.v ;.;.3 @.M >.s c ;.V ;.;.; p *.*.*.j o / .._ } ......o.o. .{ ....^ _ ` X. ._ ",
"X.X.....` _ _ ` _ / / ) { } ) | X.X.e @ +.4.4.3.f k ;.;.3 C 1 2.c - ;.C ;.;.- N *.*.*.k X U ^ | X.X.....{ ` ` ` ` ^ / / _ } ) } ",
" ... ._ `  .` ! }  .` ..} _ | | | ..9 @ +.5.1.H p s C Z < 4 = <.c = a h C C - v H *.*.j X P  .| } .. ._ ` } _ ! }  .} ..} _ |  .",
"....`  . . .` }  .` ...... .o.......9 @ +.7.V 5.>.Z <.>.:.;.< <.c b @.@.*.*.v <.@.J *.j   ~ X.X... .`  . . .`  . .` ........X.X.",
"..) `  ._ ) ` _ } }  .} ) | } } .._ 9 @ *.7.>.;.&.*.4.2.>.;.V Z a H @.*.*.*.F @.;.@.*.j X U } ` .._ }  ._ ^ ` _ { }  .} )  .} _ ",
" .` } | ` ` ` | ` ` ` ` `  .`  .| _ 9 @ e.r.9.9.8.>.*.1.@.J H H ; Z *.*.*.*.*.*.*.*.*.j o Y }  . .` }  ._ ` } } } _ ` ` `  .`  .",
"^ { ` ` `  .X. .|  ...` .._ ` | ) } 9 # -.V V V V k 3 a C V V %.; h 5.*.*.*.@.j C C C p O I _  .) ` _ ` ` ..X.}  . ...` ..` `  .",
" ... ...X.o.X...X...X. .` ` | `  ...0 @ %.@.@.@.@.<.0.:.H @.@.*.< B 6 6 6 6 6 C *.*.*.*.o P } `  ... ...X.o.X...X...o. .` _ ` ` ",
"..` } _ `  ... .| ` ` ` ) `  .| ..` 9 - %.@.@.+.@.g ; v @.*.%.*.; B Z F H F Z D *.*.*.*.o Q  .} ..} } _ ` ` ....} ` ` ` ) ` ..} ",
"` ` ` _ } ` | ) ) _ .._  ...` | _ ` q u i i i i p p @ p p p p F , p p p p p p p 5 p p p u ~ `  .` ` ` _ } }  .) ) _ .._ } ..`  .",
"` } ..o.X.| ` ` `  . .X... .X. .} } e 0.4.4.4.-.1.4.%.4.4.4.4.H ; 3.3.3.3.3.3.2.d 3.1.2.>.~ .. .` } ..o.o.} ` _ | | | X.X. ... .",
" .! } _ ..|  .|  .` _ } _ ` ` .. .~ q r.5.3.4.%.1.4.4.4.4.4.4.H ; 1.1.2.2.1.2.2.f 5.2.2.>.Q ` .. .^ } ` .. . . .| _ _ } _ ` ` ..",
"_  . .X.| .. .` ^ / / _ ) ! ^ | ` | w y.8.4.4.=.9.4.4.4.2.2.2.H , 1.3.4.3.4.1.2.f 6.3.4.>.L ^ | ` }  ...} .. .} ^ _ _ _ ) ! !  .",
"} X. . . . . .}  .} | X.{ | X.| ` O.q 4.4.1.1.@.2 3 3 3 4 4 ; Z ; 1 4 4 3 3 3 3 p 6.>.,.*.~ o.} _ o. ...|  . .} ..} | X.} ....| ",
"` | ` _ ` ` _ / { X.o.X. .` _  . .X.9 & @ @ @ # N S C C J J - *.D h Z Z C C C N & @ @ @ O I `  .} | { ) } _ _ / { ..o...| _ ` | ",
"` ..` | _ .. ._ } } ..X.| _ _ ` ` ..e * > > > # F H H H H J 1 - = h H H J H H H > > : # * I ) } ` ..{ | ) ..| { } } .... ._ ) } ",
"|  .....X.o. .{ X. .^ ` } .. ._ ` ..7 O * + + + ( ( W E ( [ ] R R ] [ [ O.[ ' ' * * * + + ~  ._ }  ...X.o.o.| ` ..../ _ } ...._ ",
"X.X.....} { ` { ` ^ / / _ } ) } X.o.8 $ . $ $ o / ^ _ _ ` ` ) | ..o.....` ` _ ` % . . . . U ) | X.o.....} _ { ` _ / ) / _ ` ) | ",
"} .. ._ _ } ` ! {  .` ..| )  . .} X.^ I I Y P P _  ._  .} )  .| } .. ._ _ } _ ^ U Y U Y U / |  .} ..| ` _ | _ ^ }  .} ..} _ | | ",
".. .{  . . .` }  .} X. .X. .X... . .{  . . .{ {  .} ....X. .X.X... .`  ... .` | ..` ...... .o... . .`  . . .` | | } ........X...",
".._ } | ` ^ ` _ { } | | ) | | ` .._ | | _ ^ _ { ` }  .} ^  .} ` ..` }  ._ ) _ _ } }  .} ) | } } ..` } | _ ) _ _ { }  .} ) | | } ",
"| ` } | _ ` } | ` _ } ` ` | ` .. .` } | ` ` } } { _ ` ` `  .`  . .{ }  ._ ` ` | ` ) ` ` | | }  .| ` } | ` ` ` } ` _ ` ` ` ..` ..",
") ` _ ` _ ..X.|  . ...` ..` ` | ^ } ` ` `  .X.}  .....` X._ ` | ^ } _ ` ` ..X.|  . .X.`  .` _ | ) ` ` ` ` ..X.} | ....` .._ _ ` ",
" ... .X.X.o...X.X. .X. .` ` ` `  ... . .X.o.X.X.X...X. .` _ } {  ... ...X.o.....X...o. .` _ ` `  ... ...X.o.X...X...o. .` _  .` ",
".._ } ` ` | .. .| ` ` ` ) `  .| ..{ } ` { }  . .} ` ` ` ) ` ..} ..` } _ `  .X. .| ` ` ` ) ` ..| ..` } _ ` ` .. .} ` ` ` ) ` ..` ",
"_ ` ` _ } } | ) ^ _ .._ | ..` | ` ` ` ` } } } ) ^ `  ._ } ..`  .` ` ` _ ` ` | ) ) _ .._  ...` | ` ` ` _ } }  ._ ) _ .._  ...`  .",
"` | ..o.o.| ` ` }  . .X... .X. .` | ..X.X. .` ` }  . .X... ... .` } ..o.o.| ` ` | |  .X... .X. .` } ..o.o.} ` _ } | | X....... .",
" .^ ` ` .. . .|  .` _ | ) ` ` .. .! ` ` .. . .}  .` ` { _ } ` .. .! } ` ..|  .} } _ _ } ) } ` .. .! | ` ..| | |  ._ _ | _ ` ` ..",
"` |  ...|  . .| ) / / ` ) ! ^ | ` |  .X.} ....} ! / _ _ _ ! !  .` }  .X.| .. .} ) / _ _ _ ! ! | ` |  ... .....` ^ _ _ ) ) ! ) ` ",
"` X. . .}  . .}  .} | X.}  ... .` X. ...|  . .} ..} } X.`  .X.| ` o. . . . . .` ..} } X.}  .X.} ` X. . . . . .{ ..} | o.}  ...| ",
"`  ._ _ } ` _ / { X.o... ._ `  .` | ` _ ` _ _ / { X.o... ._ `  .` | ` _ ` ` _ _ { X.o... ._ `  .` | _ _ { _ _ _ { ..o...| _ `  .",
"}  .{  ./ ..} { } } .... ._ ) } ` ..` | _ .. .{ } }  ... ._ ) } `  .` | _ ..| _ ` } ..X. .` ) } } ..`  ./ .. ._ } } .... ._ ) } ",
"}  ...X.o.o. .` X. ./ _ } .. ._ `  ...X.o.X. .` X. ._ _ ` X. ._ ` ..X...o.X. .{ X. ./ _ } .. ._ `  ...X.o.o. .` ..../ _ } .. .` ",
"X.X.X. .{ ` ` ` _ / / _ ` ` ) } X.X.X. .{ ` ` ` ` ^ _ / ` } ^ | X.X.....{ ` _ } ` ) / / _ ` ) | X.X.X...} _ _ { _ ^ _ ) _ } / } ",
"} X. ._ ` } _ ! `  .` ..} _ | | } .. ._ ` } _ ! {  .{ ..} )  . .` X. ._ { } _ ! ` ..` ..| )  . .| ..| ` _ | _ ^ {  .{  .} _  .| ",
"X. .`  . . .{ }  .` ....X...o..... .{  . . .{  ...` ....X. .X..... .{  . . .{  . .` ....X...X... .| ` |  . ._  ...` ....X...X...",
" ._ }  .` ^ ` _ } }  .} ^ } } } ..` } } ` ^ _ _ ` `  .} ) | | ` .._ } | ` ^ _ _ { `  .} ) } | ` ..` | | ` ) _ _ { }  .} ) | } ` "
};
