/* XPM */
static char *result[] = {
/* columns rows colors chars-per-pixel */
"64 64 141 2 ",
"   c #020100",
".  c #090704",
"X  c #0E0B06",
"o  c #0D0B0A",
"O  c #110E0A",
"+  c #121505",
"@  c #161E04",
"#  c #14110C",
"$  c #19150E",
"%  c #131111",
"&  c #191511",
"*  c #1D1915",
"=  c #15171A",
"-  c #17191B",
";  c #1C1C1D",
":  c #201C17",
">  c #231E1A",
",  c #1B210A",
"<  c #1C2211",
"1  c #202C08",
"2  c #25320A",
"3  c #28360C",
"4  c #2C3A0D",
"5  c #26221D",
"6  c #2A251F",
"7  c #293610",
"8  c #2C3912",
"9  c #313D14",
"0  c #1D2024",
"q  c #202121",
"w  c #2A2620",
"e  c #2D2822",
"r  c #242629",
"t  c #23292E",
"y  c #2C3A23",
"u  c #2F3D2B",
"i  c #252B31",
"p  c #2A2F33",
"a  c #2B3135",
"s  c #2B343A",
"d  c #2F383D",
"f  c #31363C",
"g  c #353A3E",
"h  c #324212",
"j  c #3A4E14",
"k  c #455818",
"l  c #4B661D",
"z  c #41542C",
"x  c #4E672E",
"c  c #567432",
"v  c #5A7632",
"b  c #5C7933",
"n  c #617E34",
"m  c #343D43",
"M  c #393E43",
"N  c #3C4146",
"B  c #374249",
"V  c #3D454C",
"C  c #3F494F",
"Z  c #3E4951",
"A  c #41464A",
"S  c #42494E",
"D  c #424C54",
"F  c #484D52",
"G  c #424F59",
"H  c #4C5156",
"J  c #46535C",
"K  c #4B545D",
"L  c #4A5761",
"P  c #4D5A63",
"I  c #4D576C",
"U  c #4F5D68",
"Y  c #515D65",
"T  c #535E69",
"R  c #5A6065",
"E  c #54626C",
"W  c #58636B",
"Q  c #566570",
"!  c #5B6774",
"~  c #5C6A74",
"^  c #5E697B",
"/  c #606D77",
"(  c #626D7B",
")  c #64727C",
"_  c #68757F",
"`  c #6C7D79",
"'  c #638A2F",
"]  c #688E2D",
"[  c #68902E",
"{  c #70952F",
"}  c #628233",
"|  c #668A32",
" . c #6A8C32",
".. c #6D9333",
"X. c #6E9931",
"o. c #729635",
"O. c #739E33",
"+. c #799D33",
"@. c #7B9E38",
"#. c #75A133",
"$. c #7CA535",
"%. c #7EA936",
"&. c #69835D",
"*. c #81A736",
"=. c #81AC37",
"-. c #84AE38",
";. c #86B039",
":. c #8BB43A",
">. c #8FB83B",
",. c #92BA3C",
"<. c #667481",
"1. c #687681",
"2. c #6C7A85",
"3. c #647088",
"4. c #6E7E89",
"5. c #707C86",
"6. c #707D8A",
"7. c #6E7B90",
"8. c #73828D",
"9. c #768592",
"0. c #798793",
"q. c #7A8A95",
"w. c #7D8C9A",
"e. c #81919E",
"r. c #8494A2",
"t. c #8995A1",
"y. c #899AA6",
"u. c #8D9EAB",
"i. c #92A2AC",
"p. c #94A6B3",
"a. c #96A8B5",
"s. c #9CAEBB",
"d. c #9FB2BF",
"f. c #A1B3C1",
"g. c #A7B9C7",
"h. c #A8BBC9",
"j. c #B4C2D3",
"k. c #BACEDE",
"l. c #C4D7E3",
"z. c #C6D9E4",
"x. c #D4E5EF",
/* pixels */
"-.%.=.-.$.%.=.-.%.$.=.%.=.;.%.;.;.%.=.;.$.%.=.-.=.$.%.$.%.:.%.:.-.%.=.=.%.%.=.=.$.$.=.%.=.;.%.:.%.%.-.-.$.%.%.-.%.$.%.%.%.;.%.:.",
"O.=.%.%.%.:.>.-.;.;.;.-.:.$.$.;.O.=.$.%.$.:.:.-.-.:.:.=.>.$.%.%.#.%.%.%.$.:.>.-.;.;.:.%.:.$.%.-.#.%.%.%.$.:.>.-.-.:.:.%.>.%.%.%.",
";.:.;.:.>.,.>.>.:.:.>.-.%.#.%.%.;.:.;.:.>.,.:.:.>.:.,.=.%.$.=.$.;.:.-.:.,.,.:.>.>.:.,.;.%.$.%.%.:.:.-.:.>.,.>.>.>.>.>.-.%.$.%.%.",
":.=.=.$.$.;.;.;.-.%.%.%.#.%.:.;.:.%.=.$.=.-.:.;.=.%.%.%.#.%.:.-.:.%.=.%.$.=.:.;.-.%.%.$.#.%.:.-.:.%.-.$.%.;.;.;.%.%.%.%.#.%.:.-.",
"$.%.%.$.=.=.-.#.+.$.:.$.;.:.%.;.%.%.%.%.=.%.=.$.#.$.:.$.-.:.$.;.%.%.%.%.=.=.=.$.O.$.:.$.=.:.%.-.$.%.$.$.-.%.%.$.+.$.:.$.-.:.%.%.",
"=.=.:.,.,.-.%.%.-.;.-.>.:.;.>.;.%.-.:.>.,.;.%.$.-.-.;.:.:.;.:.:.%.%.:.,.,.-.%.%.=.;.;.>.:.:.:.:.%.%.:.>.>.-.%.%.=.;.-.>.:.:.>.:.",
";.X.-.%.;.;.;.;.-.$.$.=.#.%.%.:.;.X.=.%.:.-.-.-.;.$.$.=.$.%.%.:.;.X.%.%.:.-.;.-.:.$.$.-.$.%.$.:.:.#.%.%.>.-.-.-.;.%.%.%.$.%.%.:.",
"%.-.;.:.-.:.;.%.O.$.$.#.$.X.O.-.%.-.;.:.-.:.:.=.O.$.+.$.$.X.X.-.%.;.-.>.-.:.:.%.O.+.#.#.$.X.O.=.$.-.;.>.-.:.:.%.O.$.$.#.#.X.#.%.",
"%.>.;.:.-.:.-.=.:.=.-.:.-.-.:.;.%.>.:.:.-.;.-.=.:.=.=.>.%.:.:.=.%.>.;.:.-.;.;.=.:.=.-.:.%.;.>.-.%.>.;.:.-.;.:.=.;.=.-.>.=.;.:.-.",
"%.-.$.$.*.$.$.+.*.:.,.:.;.$.%.;.%.%.%.$.%.$.$.$.*.,.,.:.;.$.%.:.%.;.%.#.*.$.$.+.*.>.,.:.;.$.$.:.=.=.$.$.*.$.$.+.*.:.,.:.;.$.%.;.",
"%.:.=.-.+.:.-.*.=.=.:.:.;.$.#.=.%.:.%.%.#.:.;.$.%.=.:.:.;.$.#.=.%.:.%.;.$.:.-.$.=.=.:.>.;.$.#.=.%.:.%.=.+.:.;.$.=.=.:.:.;.$.#.=.",
"%.:.:.:.,.,.-.=.:.:.+.$.=.:.;.%.%.:.>.:.,.,.;.%.>.:.+.$.=.:.;.$.%.:.:.:.,.,.;.=.:.:.+.$.=.>.;.$.%.:.:.>.,.,.:.$.:.:.+.$.=.:.;.%.",
">.>.>.:.=.%.$.=.$.+.+.$.$.=.+.=.>.>.>.:.=.$.$.$.$.O.$.+.$.%.#.=.>.>.>.:.%.%.$.%.$.+.$.+.$.=.O.=.>.>.:.:.=.$.$.=.$.O.+.+.$.=.+.=.",
"=.:.-.$.$.=.$.X.%.;.$.:.=.$.-.-.%.>.-.%.*.;.$.X.%.;.$.:.=.#.:.=.-.:.;.$.%.%.$.X.=.;.%.:.=.$.:.=.=.:.;.%.$.=.$.O.%.:.%.;.=.$.;.-.",
":.;.%.;.;.;.%.;.;.%.:.:.>.:.>.:.:.-.$.;.;.;.=.;.;.=.:.:.>.:.>.:.:.;.%.;.;.-.%.-.;.%.:.:.:.:.:.>.:.:.%.;.:.;.$.;.:.%.:.:.:.:.>.:.",
":.$.-.-.$.#.%.$.=.%.;.=.#.-.=.=.>.$.-.-.$.#.$.$.*.=.;.=.#.-.=.%.:.$.%.;.%.#.$.$.*.%.;.=.#.-.-.*.:.%.=.=.$.#.$.$.%.%.:.-.O.-.-.%.",
"-.%.=.-.$.%.=.-.$.$.=.%.=.:.%.:.;.%.-.-.$.%.%.=.%.$.%.$.=.;.%.:.-.%.=.=.%.%.%.;.%.%.%.%.%.%.%.:.%.%.-.-.$.$.=.=.=.$.%.%.=.-.%.:.",
"#.%.%.%.$.:.>.-.;.;.:.%.:.$.%.%.#.%.$.%.%.:.>.-.-.:.:.=.:.$.%.-.#.=.%.%.%.:.>.%.%.;.:.%.>.%.%.:.#.%.$.%.*.:.>.;.;.;.:.=.:.%.%.=.",
";.:.-.:.>.,.>.:.>.:.,.;.$.$.%.%.;.:.;.:.>.,.>.:.>.:.>.-.%.$.%.%.;.:.;.:.>.>.>.>.>.>.>.%.%.%.%.%.:.:.:.:.:.,.>.:.>.:.>.=.%.%.%.%.",
":.%.%.%.*.=.:.;.-.$.=.$.#.%.:.-.:.%.%.%.*.%.:.:.-.$.*.*.#.%.:.-.:.%.=.%.] y y y y u y u ' %.%.%.:.%.%.$.=.=.:.;.=.%.=.%.#.%.:.=.",
"%.%.%.%.=.%.-.$.O.$.:.$.=.:.%.-.%.%.%.%.=.%.-.$.O.$.:.*.-.:.=.-.} } &.q.9.a.w.9.<.a.a.a.q.&.} %.$.%.$.$.=.=.-.$.+.$.:.$.=.:.%.;.",
"%.%.:.>.,.-.%.%.-.;.;.>.:.:.:.:.%.=.:.,.,.-.%.%.-.-.-.>.:.;.t t k.g.h.p.y.a.w.U U p.a.a.a.p.Q t i 0 t ' ,.=.$.=.=.;.;.>.:.;.>.;.",
";.#.-.%.:.;.-.-.=.%.$.=.$.%.$.:.;.X.%.%.:.-.;.#.n n b n c t.W z.g.u.2.f.u.9.r.a.i.8.q.8.) ) 8.) d.a.i.z } | } n } v v #.#.%.%.:.",
"%.%.%.:.%.:.:.%.O.+.$.$.#.X.O.=.%.;.;.>.%.:.;.| j.u.e.e.e.y.K h.h.h.g.s.8.u.q.i l.g.p.p.p.B G G w.e.w.B S _ T F A S 3. .$.X.O.-.",
"%.b S t.n b v c n c c n c v b v c b v b c b v K 1.1.1.1.<.t.G f.h.d.s.u.y.w.u.a w.s.a.a.q.s Z d W E E f N _ ) A A N 3.@.%.-.:.-.",
"%.c H d.h.x.x.g.s.s.d.q.q.q.q.d.s.d.d.p.q.q.q.2.x.d.d.d.s.y.D a.p.p.i.p.y.a.a.i <.B B s L s B Z Z J J p N _ ) M H N 3.M M X.%.;.",
"%.$.....| o.o. .....o.@.o. .| .. .o.z V <.1.1.s B B B B m y.D a.p.a.y.y.r.a.a.8.Q Q Z Z Z L L Z Z L 0 J Q ) 8.~ ^ T ~ 1.4...#.-.",
"%.:.:.:.,.,.;.%.:.;.+.$.=.:.-.%.-.m 7.9.F M M t.u.u.y.r.q.t p m B B m m 8.8.8.8.B B B B Z L J Z Z J J J ` / R 8.2._ / i i $.;.$.",
">.>.:.:.%.%.%.%.$.+.$.+.$.=.+.=.>.J 7.1.6.0.D g u.u.y.y.w.m s ! Q Q E E P L P Z Z Z L L L J L Z s a s J ) 2.w.~ 2._ ^ p p o.#.-.",
"-.:.;.$.$.-.$.o.=.;.$.:.=.$.;.-.-.M w.e.q.q.q.T y.u.y.t.e.Z s ! Q I Z U E E E Q I J L J Z L J Z <.8.8.8.8.) H ) _ 1./ 1.2...-.-.",
";.;.%.-.;.;.%.-.;.=.:.:.:.:.:.:.:.D r.w.w.q.q.( 2.y.Y T L V s ! ~ Z Q B E E E E U J J L L L J Z 8./ E R K ) ) H F K M K G $.>.:.",
":.%.-.-.$.#.$.$.*.=.;.=.#.-.-.=.:.G r.e.q.q.D T 6.2.h.f.e.J s ! Q Q Z U E E E E I L J J B Z F 8.8.~ H S V _ _ A F V L V M +.-.=.",
";.$.=.;.$.%.%.-.%.$.%.%.%.:.%.:.-.D r.w.q.q.D w.5.w.P Y Y w.4.i i i t i t i i t r 0 t B 8.8.9.9.0.) g F N 8.) M H N 8.t i +.%.:.",
"#.-.$.$.$.:.>.=.;.;.>.%.:.$.$.-.O.D r.q.w.q.D M ( ( _ _ 1.) / ~ ~ Q W E W W W W W E ^ / ~ ~ K E / R V g a / ~ N a g I x  .%.$.;.",
";.:.;.:.>.,.>.:.>.:.>.;.%.$.%.%.;.D w.q.e.6.N f P Y Y U Y Y U K L J L P P K K K K K P U P K K K K K K K K K K L K K K ..%.#.%.%.",
":.%.=.$.=.;.:.:.%.%.%.%.#.%.:.=.:.V 2.1.1.6.q./ D S D Z D D S D Z Z Z Z D Z C Z S V V C C C C C C C C C C D Z Z S C M ..#.%.:.;.",
"%.%.$.$.=.=.=.#.#.$.:.$.-.:.$.-.$.S q.q.q.q.q./ / / ( / / ) / ) ) ^ / ) / ) ( ) / ! ! ! ! ! ! ! ~ ! ! ! ! ! ! ! ! T z $.;.:.%.;.",
"%.=.:.,.,.=.%.%.-.-.;.>.:.:.>.:.=.D w.7.E K 0 = = = - - = d 0 q < 5 0 = < q 0 ; 0 J H J F J H J G G J H J F F H H G o.>.:.;.>.;.",
";.O.-.%.:.-.;.=.-.$.$.=.#.=.%.:.-.u t q $ # % %           .                               o O r e r r r r r r r r r #.-.$.%.%.:.",
"%.;.;.:.=.:.:.=.O.$.#.$.#.X.O.-.$.@.% O * * & * > o o o o ; o o o o o o o o o o o o o o o o o o X o X o o o . > > % 8 X.#.X.X.-.",
"%.>.;.:.-.;.;.=.:.=.-.>.=.;.>.-.%.*.# # 6 $ 6 * 5 # & # w 6 6 X = & & w w # O & O e w 6 X & & & 6 w $ O & # 6 . O > o @.=.;.:.-.",
"%.=.%.$.%.$.$.$.*.:.,.:.;.$.$.;.%.@., $ # 5 $ * 6 O O > & & & 5 O > * & & * : O > & & & 5 O > * & $ : > o $ 5 * : : o { -.$.$.;.",
"%.;.%.=.+.:.=.$.=.=.:.:.;.$.$.=.%.;.%., > > $ * & o o > & e & > O 6 & w 6 & > O > & e $ 5 o > $ 6 5 & > o % > # O : 3 *.-.$.$.=.",
"=.:.>.:.,.,.-.=.:.:.O.$.*.:.;.$.=.:.:.$.k + # X * o O ; & * & > o w & & & & > O > & & & 5 o > $ * * & > O # . # O , o.$.-.>.;.$.",
">.,.:.:.-.$.*.*.$.+.$.$.%.=.+.-.:.,.:.:.=.{ l @ . # # & * * * +   . > : : > .   & > : > = O X 5 : > > . X + . X l ] $.+.$.-.+.-.",
"=.:.;.$.$.-.$.X.=.;.$.:.=.#.-.;.=.:.;.$.$.-.$.[ j 4 4 4 8 8 4 3 3 4 4 7 7 3 2 1 2 9 3 9 4 4 h h h 9 * * X # < ] =.;.$.:.=.#.-.-.",
":.;.%.;.;.:.$.;.;.%.:.:.:.:.>.:.:.;.=.-.;.;.%.-.:.%.:.:.>.:.>.:.:.;.%.-.-.:.$.-.;.=.:.:.>.:.>.:.:.;.%.-.:.-.$.-.;.%.:.:.:.;.>.:.",
":.%.=.-.$.#.$.$.=.=.;.=.#.=.=.%.:.%.-.-.$.#.$.$.%.%.;.%.#.-.%.%.:.$.-.-.$.#.$.$.*.=.-.-.+.-.=.=.:.$.-.-.$.#.$.$.=.=.:.=.#.-.-.%.",
"=.%.=.-.$.%.=.=.%.$.%.%.=.;.%.:.-.$.-.-.$.%.%.-.$.$.%.%.=.:.%.:.;.%.%.:.%.%.%.-.%.$.%.%.%.;.%.:.-.$.-.-.$.%.=.-.%.$.-.$.%.;.%.;.",
"#.%.%.%.$.:.:.;.;.;.:.%.:.$.%.-.#.%.$.%.$.:.>.-.:.;.:.%.:.$.$.-.O.=.$.$.$.:.>.%.;.:.:.%.:.$.%.;.O.-.$.%.%.;.>.-.;.;.;.-.:.%.$.;.",
";.:.;.:.>.,.>.:.>.:.>.-.%.%.%.%.:.:.:.:.>.,.>.:.>.:.>.-.%.$.=.%.:.:.;.:.>.,.:.>.>.:.>.;.%.$.%.%.;.:.;.:.>.,.>.>.:.:.>.-.%.#.%.%.",
":.%.=.$.%.;.;.:.-.%.=.%.#.%.;.-.:.%.%.$.=.-.:.;.-.%.%.%.#.%.:.=.:.%.-.$.%.-.:.;.%.$.%.%.#.%.:.=.:.%.-.$.%.;.;.;.-.%.%.%.#.%.:.;.",
"%.%.%.$.=.=.-.#.+.$.:.$.-.:.%.;.%.%.%.%.%.%.-.$.#.$.:.$.-.:.%.;.$.%.%.$.-.%.-.$.#.$.:.$.;.:.%.;.%.%.%.$.=.%.-.#.+.$.:.$.;.:.%.;.",
"%.=.:.,.,.-.%.%.=.-.-.>.:.;.:.;.%.%.:.>.,.-.%.$.=.;.;.>.:.:.:.;.%.%.:.,.>.%.%.%.;.;.-.>.:.;.:.;.%.%.:.,.,.-.%.%.-.-.-.>.:.;.>.;.",
";.X.-.%.;.;.;.;.;.%.$.=.$.%.%.:.;.X.%.%.:.;.;.=.;.$.$.=.$.=.$.:.:.X.-.%.:.-.:.-.:.$.$.%.$.%.%.:.;.X.;.%.:.;.;.-.-.$.$.-.#.%.%.:.",
"%.-.;.:.;.;.;.=.O.$.$.$.#.X.X.;.%.;.:.:.-.:.:.=.O.$.+.#.O.X.O.;.$.-.:.:.-.:.;.%.O.O.$.$.$.X.X.-.%.-.;.:.-.;.;.-.O.$.$.#.$.X.O.-.",
"%.>.:.:.-.-.:.=.;.=.-.>.=.;.:.-.%.>.:.;.;.;.;.=.:.=.=.>.%.;.:.-.%.>.;.:.%.:.-.%.:.=.=.,.*.;.:.-.%.>.;.:.-.-.:.=.:.%.-.>.%.:.:.-.",
"%.-.$.$.*.$.$.+.*.:.,.:.;.$.%.;.%.-.%.$.%.$.$.+.*.>.,.:.:.%.$.;.%.-.%.$.%.%.$.$.*.>.,.:.;.$.$.:.=.=.$.$.=.$.$.+.*.>.,.:.-.$.$.;.",
"%.:.*.=.+.:.-.*.=.=.:.:.;.$.#.=.%.:.%.%.#.>.;.*.=.=.:.:.;.$.#.-.%.:.%.-.+.:.-.$.=.=.:.:.;.$.#.=.%.:.*.;.+.:.-.*.=.=.:.:.;.$.#.-.",
"%.:.:.>.,.,.;.=.:.:.+.$.=.:.;.%.%.:.:.:.,.>.;.$.>.:.+.$.%.:.;.$.%.:.:.:.,.,.:.$.:.:.+.$.=.>.;.$.%.:.:.:.,.,.-.%.:.:.+.$.%.>.-.%.",
":.>.:.:.=.$.$.=.$.O.+.$.$.=.+.=.>.>.>.:.=.$.$.%.$.O.+.+.$.=.#.=.>.,.:.:.=.$.$.=.$.#.$.+.%.=.#.-.>.>.:.:.=.%.$.%.$.+.$.+.$.%.+.-.",
"-.:.;.$.$.=.$.X.=.;.$.:.=.$.;.-.%.:.:.$.*.-.$.X.%.:.%.:.%.$.;.;.=.:.;.$.$.;.$.X.*.;.$.:.=.#.;.%.=.>.:.#.$.=.$.O.%.;.$.:.-.$.-.-.",
":.;.%.:.;.;.%.;.;.%.:.:.>.:.>.:.:.:.%.;.;.;.%.;.:.%.:.:.:.:.>.>.:.;.%.;.;.:.%.;.:.%.:.:.:.:.>.>.:.-.%.;.-.;.%.;.;.%.:.:.>.;.>.:.",
":.%.-.%.%.#.$.$.*.=.;.=.#.-.=.%.:.$.=.;.$.O.$.$.$.%.:.=.#.-.%.%.:.$.=.-.$.O.$.$.$.=.;.=.#.-.-.%.:.%.=.-.%.O.%.$.=.%.;.=.#.;.-.%."
};
