/* XPM */
static char *result[] = {
/* columns rows colors chars-per-pixel */
"64 64 150 2 ",
"   c #010101",
".  c #090703",
"X  c #0C0A05",
"o  c #050708",
"O  c #0E0C09",
"+  c #100E0B",
"@  c #141904",
"#  c #15120D",
"$  c #18140E",
"%  c #0F1313",
"&  c #171411",
"*  c #1A1611",
"=  c #1D1A15",
"-  c #161718",
";  c #1F1B19",
":  c #201D17",
">  c #221E19",
",  c #1D2807",
"<  c #222E09",
"1  c #24310B",
"2  c #28360C",
"3  c #202312",
"4  c #26221C",
"5  c #28241E",
"6  c #293411",
"7  c #2E3C12",
"8  c #313E13",
"9  c #1B1F23",
"0  c #201F21",
"q  c #1E2226",
"w  c #222124",
"e  c #2B2721",
"r  c #2D2822",
"t  c #212529",
"y  c #252A2E",
"u  c #2A2C2D",
"i  c #272D32",
"p  c #2A2F33",
"a  c #2D3135",
"s  c #2D343A",
"d  c #2E383E",
"f  c #30363B",
"g  c #34393E",
"h  c #383C3F",
"j  c #334313",
"k  c #384B15",
"l  c #3A4C28",
"z  c #3E5129",
"x  c #526B1F",
"c  c #42552A",
"v  c #4A6223",
"b  c #516C20",
"n  c #516B2A",
"m  c #55712E",
"M  c #59742E",
"N  c #5B7A2D",
"B  c #4D623F",
"V  c #617C2D",
"C  c #617D30",
"Z  c #343C41",
"A  c #393F44",
"S  c #374147",
"D  c #394046",
"F  c #364148",
"G  c #3C434A",
"H  c #3D4952",
"J  c #40474D",
"K  c #41484E",
"L  c #444D54",
"P  c #484D52",
"I  c #424F58",
"U  c #475057",
"Y  c #4C5255",
"T  c #46545D",
"R  c #4B545D",
"E  c #52575B",
"W  c #54595D",
"Q  c #506642",
"!  c #5D774F",
"~  c #4B5760",
"^  c #4D5A64",
"/  c #4F5E68",
"(  c #525C64",
")  c #595E62",
"_  c #535F69",
"`  c #556067",
"'  c #54626C",
"]  c #5A656E",
"[  c #566570",
"{  c #5A6771",
"}  c #5C6973",
"|  c #5F6E78",
" . c #616D76",
".. c #626E79",
"X. c #65737C",
"o. c #6A777F",
"O. c #70932D",
"+. c #678E31",
"@. c #6C8D32",
"#. c #679030",
"$. c #6C9231",
"%. c #6F9931",
"&. c #729533",
"*. c #739E32",
"=. c #799D33",
"-. c #779B3D",
";. c #75A133",
":. c #7CA535",
">. c #7EA936",
",. c #80A736",
"<. c #81AC37",
"1. c #84AE38",
"2. c #86B039",
"3. c #8BB43A",
"4. c #8FB83B",
"5. c #92BA3C",
"6. c #677680",
"7. c #697681",
"8. c #6D7A85",
"9. c #6F7F8B",
"0. c #717B81",
"q. c #717D89",
"w. c #74828D",
"e. c #768691",
"r. c #788793",
"t. c #778893",
"y. c #7A8B97",
"u. c #7D8D9A",
"i. c #7D909B",
"p. c #808F9A",
"a. c #81919E",
"s. c #8596A3",
"d. c #8799A5",
"f. c #899AA6",
"g. c #8C9CA9",
"h. c #8FA0AD",
"j. c #90A2AF",
"k. c #94A5B3",
"l. c #96A8B5",
"z. c #9AA9B7",
"x. c #9BAEBB",
"c. c #A0B3C2",
"v. c #A5B8C7",
"b. c #A7BAC9",
"n. c #ACBECC",
"m. c #AEC1CF",
"M. c #B6C6CE",
"N. c #BED0DD",
"B. c #CFE1EB",
"V. c #DBEDF8",
/* pixels */
"1.>.<.1.:.>.<.1.>.:.>.>.1.1.>.3.1.>.<.2.:.>.<.1.<.:.<.>.<.2.>.2.2.>.<.2.>.>.<.<.<.:.<.:.<.2.>.2.2.:.1.1.>.>.>.<.<.:.>.>.<.2.>.3.",
"*.<.>.>.:.3.4.1.2.2.3.>.2.>.:.1.*.<.:.>.>.3.3.2.1.2.3.>.3.:.>.<.*.<.:.>.:.3.3.1.1.1.3.>.3.:.:.1.;.<.>.>.>.3.4.<.2.2.3.>.3.:.>.1.",
"2.3.2.3.4.5.4.4.3.3.4.2.>.:.1.>.2.3.2.3.4.5.3.3.3.3.5.<.>.:.<.>.2.3.2.3.5.5.5.3.4.3.4.1.>.:.>.>.2.3.2.3.4.5.4.3.4.3.4.1.>.:.>.>.",
"3.<.<.:.>.2.2.2.1.>.>.>.;.>.2.1.3.>.<.>.,.1.3.2.<.>.<.>.;.>.3.<.3.>.<.:.>.<.3.2.1.>.<.>.;.>.3.1.3.>.<.:.>.1.2.2.<.>.<.>.;.>.3.<.",
":.>.>.:.<.<.1.;.*.:.3.:.1.3.>.2.>.>.>.:.<.<.<.:.;.:.3.=.2.3.<.1.>.>.>.>.<.<.<.:.;.:.3.:.1.3.>.1.>.>.>.>.<.>.1.:.*.:.3.:.1.3.>.2.",
"<.<.3.5.5.1.>.>.1.2.1.4.3.2.4.2.>.<.3.5.5.1.>.:.1.2.2.4.3.2.3.3.>.<.3.5.5.<.>.>.<.2.1.4.3.2.4.2.>.<.3.5.5.<.>.>.1.2.1.4.3.2.3.2.",
"2.%.1.>.2.2.2.2.1.:.:.<.:.>.>.3.2.%.<.>.3.2.1.1.1.,.:.1.:.<.<.3.2.%.>.>.3.2.2.<.2.>.:.<.:.>.>.3.2.*.>.>.3.1.2.1.1.>.:.<.;.>.>.4.",
">.1.2.3.1.3.2.>.*.:.;.>.;.%.%.1.>.1.2.4.<.2.3.<.*.;.:.;.;.%.%.1.>.1.1.4.1.3.2.<.;.=.=.:.;.%.*.1.>.1.2.3.1.3.2.<.*.=.:.;.:.%.*.1.",
">.4.2.3.1.3.2.<.3.<.1.4.<.2.3.1.>.5.3.3.1.2.2.1.3.<.<.4.<.1.3.1.>.4.2.3.1.3.1.1.3.<.1.3.>.2.4.<.<.4.2.2.1.2.2.<.3.<.<.5.>.2.4.<.",
">.<.:.:.,.:.:.=.,.4.5.3.1.:.,.2.>.<.>.;.>.>.;.=.,.4.5.3.2.>.>.2.>.2.>.;.,.,.;.=.,.4.5.3.2.:.>.2.>.<.>.:.,.:.:.=.,.4.5.3.2.:.>.2.",
"<.3.>.<.=.3.1.,.<.<.3.3.2.:.;.<.>.3.>.2.;.3.1.,.<.<.3.4.1.:.;.1.>.3.>.2.:.3.1.,.<.<.3.4.2.:.;.<.<.2.<.2.=.3.1.,.<.>.3.3.2.:.;.<.",
">.2.4.4.5.4.2.>.3.3.=.:.<.3.2.>.>.3.3.3.5.5.2.<.3.3.=.:.<.3.2.:.>.3.3.3.5.4.1.>.3.3.=.:.<.4.2.:.>.3.3.4.5.4.2.>.4.3.=.:.<.3.2.>.",
"4.4.4.3.<.:.,.<.:.=.=.;.:.<.*.<.4.4.3.2.<.>.:.>.:.*.;.:.:.>.;.1.4.4.3.3.>.>.:.<.:.*.=.;.,.<.;.1.4.4.4.3.<.:.,.<.:.*.=.=.:.>.;.<.",
"1.3.1.:.:.1.:.%.<.2.<.3.<.:.2.1.<.3.2.>.:.1.:.&.>.2.,.3.>.;.2.1.2.3.2.>.:.<.:.%.,.3.>.3.<.;.1.<.<.3.2.:.:.1.:.%.<.2.>.3.<.:.2.1.",
"2.2.>.2.3.1.:.1.2.>.3.3.3.3.5.3.3.2.>.3.2.1.<.1.2.<.3.3.4.3.4.4.3.3.>.2.2.1.>.1.3.<.3.3.4.3.4.4.3.2.>.2.3.1.:.1.2.<.3.3.4.3.4.4.",
"4.:.1.1.:.;.:.:.<.<.2.1.;.<.<.<.3.:.<.1.:.;.:.:.,.<.1.1.;.2.>.>.3.;.>.2.>.;.:.:.:.<.1.<.=.1.<.<.2.:.<.1.:.;.:.:.<.<.2.<.;.<.<.<.",
"1.>.<.2.>.>.>.<.>.:.>.>.1.1.>.2.2.>.1.1.:.>.<.<.>.>.>.>.<.2.>.3.2.:.<.1.:.>.>.1.>.:.>.>.>.2.>.2.2.>.1.1.:.>.<.<.<.:.>.>.<.2.>.2.",
";.>.>.>.:.3.4.<.2.2.3.>.3.:.>.1.%.-.G S Z B 3.1.2.2.3.>.2.>.:.1.*.1.:.>.>.3.3.1.2.3.3.>.3.>.>.1.;.>.>.>.,.3.3.2.2.2.3.>.3.>.>.1.",
"2.3.1.3.4.5.4.4.4.3.5.1.>.:.>.>.$.M.n.x.l.j.L C V @.5.<.>.:.>.>.2.3.2.3.4.5.4.4.4.3.5.2.>.;.1.>.2.3.2.3.3.5.4.4.4.3.5.1.>.:.>.>.",
"3.>.>.>.<.2.2.2.1.>.>.<.;.>.3.>.m c.x.l.l.k.' a.i.w.D Q %.:.3.1.3.>.1.:.,.1.3.2.>.>.>.>.;.>.2.1.3.>.<.:.<.1.2.2.<.>.>.>.;.>.3.1.",
":.>.:.,.<.<.<.:.*.:.3.=.M N m G ` o.X.X.X. .g i.a.i.h.h.t.t.! M ;.<.:.,.<.<.<.:.;.:.2.:.1.3.>.2.>.>.:.,.<.<.1.;.*.:.3.:.<.3.>.2.",
"<.<.3.t s a u y Z g t 0.N.b.8.m.b.E y./ _ / H s.h.h.h.d.e.l.l.a.S y a p f f s n 1.2.1.4.3.2.4.2.>.<.3.5.5.<.>.>.1.1.2.4.3.2.4.2.",
"2.*.1.p 0.Y Y K a.w.f V.b.v...V.b.j.q.8.8.8.y.d.8.h.h.j.g.l.l.i.f.R _ U R w.7.M 2.>.:.1.:.>.>.3.2.*.<.>.3.1.1.<.2.:.:.<.:.>.>.3.",
":.:.,.p q.` Y K a.u.u b.b.b.7.B.m.z.l.l.k.l.l.X.h...g.l.l.l.l.i.f.p S S S S S q +.&.&.&.%.#.$.:.;.:.:.<.:.<.,.:.%.&.$.S q N %.2.",
">.t X.p q.E P K p.r.p q.j.j.} G x.b.x.h.w.6.h.j.i.j.d.h.l.l.l.i.f.^ i.s.d.d.u.T 6.9.t.y.y.y.t.t.9.w.9.8.X.8.9.q.y.y.u.u.4 $.3.1.",
">.y 8.a z.g.s.a.r.q.( a i i y c.X.g.x.g.i.h.i.l.l.[ h.k.l.l.l.i.f.Z ^ ^ ^ ^ ^ A a w q Z Z q l z l l l l l l l l l z c z z +.>.2.",
">.p p p z.f.j. .q._ ( ~ T T Z c.s.X.{ ' } X.i.k.l.w.} / [ } [ ^ f.K X.}  .} ' ( K L h  .8.R *.<.>.2.<.1.;.3.2.:.<.<.3.3.2.:.;.1.",
">.t G p z.g.k.) r.( ^ T T T s c.k.t.w.T F d d d s s ^ ' [ [ | / i R e.w.w.w.X.s K X.8.} L ^ 1.:.>.2.3.3.5.5.2.>.3.3.=.:.>.3.2.:.",
"4.y r.p k.g.f.p.q.r.0.f Z A G c.s.d.} [ [ [ ' ' ' ' / H / [ [ / U R p.p.u.r.X.L } ..6.8.8.R ;.1.4.4.4.2.<.:.,.>.:.=.;.=.>.1.*.1.",
"1.q G p 7.) P K p.q.P P L X.R g.s.t.| | [ / ' ' ' ' H [ H [ [ ^ I U } _ ( w.6.G ]  .X.8.8.' <.>.1.4.2.:.:.1.:.&.<.2.<.3.<.;.1.1.",
"3.y H p q.W W K a.e.K K K q.X.R j.y.X.} / [ [ ' ' [ ^ H ^ [ [ ^ s y g.a.p.^ 7.] L | X.7.0.' 4.4.3.1.>.1.3.1.:.1.2.>.3.3.3.3.4.3.",
"3.z s p 7.Y E L a.q.A P g r.e.o.S G W ^ ^ H ^ ^ ^ ~ ~ ^ ^ / [ T q.q.R G L q.6.{ L [ X.7.0.' >.>.3.>.1.1.:.;.:.:.<.<.2.1.;.<.<.1.",
"1.:.&.y J A Z f R P a i p U I S G U f t w t w t t w t t y t w f R L A Z A A A Z A } 7.7.9._ ,.3.1.>.<.1.:.>.<.<.>.:.>.>.<.2.>.2.",
"*.,.:.y E ~ ~ ^ ~ R ~ R R R R ~ R ~ ^ ^ ~ R R R R R ( R R R R ^ ( ( _ _ ^ ( ^ Z P  .{ ..q._ :.1.*.<.>.>.>.3.4.1.1.2.3.<.3.:.:.2.",
"3.3.2.y Z A A A I U L A A A A A S A A A S A S S S S S D S G S G A A T A A A A ~ q.7...{ E A <.,.2.3.1.3.4.5.4.3.4.3.4.1.>.:.2.>.",
"3.>.<.=.K } }  .} } } } } } } } } } { } } } { ] } } } } } } ] ] { } { { } { [ L  .X.q.0.8._ 2.<.3.<.<.:.>.1.2.2.1.>.>.>.;.>.3.>.",
":.>.:.:.Z K K K K K K K K K K K K K K K K H f y a p p u a a u u u p t 0 0 9 9 % - A K _ 8.' >.2.>.>.:.>.<.>.1.:.-.:.3.:.1.3.>.2.",
"<.1.3.t y 0 0 0 0 0 t 0 w w w 0 o O                                     o o o - = + & 4 9 l 3.2.<.<.3.5.5.<.>.>.1.1.1.4.3.2.3.2.",
"1.*.1.9 % > > > O + + + + + + + + + O + + + + + + + + + + + + + + + # + + O > = $ $ $ = o N >.3.1.*.<.>.3.1.1.1.1.>.:.1.:.>.>.3.",
":.1.1.: > . * O : * * + > 5 5 $ * & # e e > & * # = 5 5 = * * + 4 e > * * $ 0 = r 3 4 : X n &.1.>.1.1.4.1.3.3.>.&.:.;.;.:.%.*.2.",
"<.5.2.; ; . 4 X : + + 5 * * * : * & > * * * 4 O 4 = * * = 4 + 4 * * * > & + > * & : X > , V 3.1.>.4.3.3.1.3.2.<.3.>.1.4.<.2.3.1.",
">.1.>.v 3 & & & : + + 5 * r : = = & > ; r * e + 4 * 5 5 * 4 + > * r = ; # + = : * > 4 @ b >.:.2.>.1.:.=.,.:.:.=.<.4.5.3.2.:.>.2.",
">.3.>.1.x X + O # + + e * : * = * & > * = & 5 O 4 * = * * 4 + 4 * = * ; $ + * X + + < ,.1.:.;.<.>.3.>.<.=.3.1.,.>.<.3.3.2.:.;.<.",
"<.2.3.3.5.V k + @ + + X > > : > # # : > > > # . . 4 : : 3 X . + 3 ; ; * + # X @ x O.=.,.>.4.3.:.<.2.4.4.5.4.1.<.3.3.=.:.<.3.2.>.",
"4.4.3.3.1.>.=.O.# # * = ; j 7 j j j 8 7 7 6 < 2 2 1 2 2 2 2 1 2 8 8 j 7 7 2 j ;.:.=.;.:.,.<.*.1.4.4.3.3.1.:.:.<.:.*.;.=.:.>.;.<.",
"<.3.2.:.,.1.:.*.>.3.>.3.<.:.1.1.<.3.2.:.:.<.:.%.>.3.>.3.>.:.2.1.1.3.2.;.>.<.:.&.<.3.>.3.<.=.1.1.1.3.2.:.:.1.:.%.<.2.<.3.<.:.2.1.",
"3.2.>.2.2.2.>.2.2.>.3.3.3.3.4.3.3.2.<.1.2.2.:.1.2.>.2.3.3.3.4.4.3.2.>.2.2.2.>.1.2.>.3.3.4.2.4.4.3.2.>.2.2.2.,.1.3.<.3.3.3.3.5.3.",
"3.>.<.1.:.;.:.:.<.>.2.<.;.1.1.>.3.:.1.1.:.;.:.:.>.>.2.1.;.1.>.>.3.:.1.1.:.;.:.:.,.>.2.<.;.<.1.<.3.:.1.1.:.;.:.:.:.<.2.1.;.<.<.<.",
"1.>.<.1.:.>.<.1.>.:.>.>.<.2.>.3.2.>.<.2.:.>.,.1.>.:.<.>.>.1.>.3.1.>.<.1.>.>.>.1.>.:.1.>.1.2.>.2.1.>.>.2.>.>.>.<.>.:.>.>.<.1.>.3.",
";.>.>.>.>.3.3.1.2.2.3.>.3.:.>.<.%.<.>.>.>.3.4.1.1.2.3.>.3.>.>.1.*.<.>.>.>.3.4.>.2.2.2.>.2.:.>.1.;.>.:.>.>.2.4.1.2.2.3.>.3.>.>.1.",
"2.3.2.3.4.5.4.4.4.3.5.2.>.>.>.>.2.3.1.3.3.5.4.4.4.3.5.1.>.:.>.>.1.4.1.3.4.5.4.3.4.3.4.2.>.:.<.>.2.3.2.3.4.5.4.3.4.4.4.1.>.:.>.>.",
"3.>.<.:.>.<.3.2.<.>.>.>.;.>.3.<.3.<.<.>.,.1.2.2.<.>.>.>.;.>.3.1.3.>.<.>.>.1.3.1.1.>.>.>.;.>.3.<.3.>.<.>.>.1.2.2.1.:.>.>.;.>.3.1.",
">.>.>.:.<.<.1.;.*.:.3.:.<.3.>.2.>.>.>.>.<.>.1.:.*.>.3.:.1.3.>.2.>.>.>.:.1.>.1.:.*.:.3.:.1.3.>.1.:.>.:.>.>.>.1.:.;.:.3.:.1.3.>.1.",
">.<.3.5.5.<.>.>.1.2.1.4.3.2.4.2.>.>.3.4.4.1.>.>.1.1.1.4.3.1.3.2.>.<.3.4.4.1.>.>.1.1.2.4.4.2.4.2.>.1.4.4.5.1.>.>.<.1.2.4.3.2.4.2.",
"2.*.<.>.3.2.2.1.1.,.:.<.;.>.>.3.1.*.1.>.3.1.1.1.1.>.>.<.:.>.>.3.2.%.1.,.2.2.1.1.1.>.:.<.;.<.>.3.2.;.>.>.3.1.1.1.2.:.:.<.:.>.>.3.",
">.<.2.3.<.3.2.<.*.;.:.;.:.%.*.1.>.1.2.3.1.3.3.<.*.=.=.:.:.O.*.1.>.1.1.4.1.3.2.1.*.=.=.:.:.%.%.2.>.1.1.4.1.3.2.1.*.;.:.;.;.%.*.1.",
"<.4.2.2.1.2.2.<.3.1.1.4.<.2.4.1.>.4.2.3.1.2.2.<.3.<.<.4.<.1.4.1.>.4.2.3.1.1.1.1.3.<.<.4.<.1.3.<.<.4.2.2.2.2.2.<.3.1.<.3.<.2.4.1.",
"<.<.>.:.<.:.:.=.,.4.5.3.1.:.:.1.>.1.>.:.>.>.:.=.,.4.5.3.1.:.>.2.>.2.>.;.<.>.:.=.,.4.5.3.1.>.>.2.>.1.>.:.<.>.=.=.,.3.5.3.2.:.:.1.",
">.2.,.1.=.3.1.,.<.<.3.3.3.:.;.1.>.2.>.1.:.3.1.:.<.<.3.3.1.>.;.<.>.3.>.1.=.3.1.:.<.<.3.3.1.:.;.<.>.2.<.2.=.3.1.,.<.1.3.4.2.:.:.<.",
"<.3.3.4.5.5.1.<.3.3.=.:.<.3.2.:.1.2.3.3.5.4.2.,.4.3.=.:.>.4.2.>.<.2.3.4.5.4.1.<.4.2.=.>.<.4.2.>.<.3.3.3.5.4.2.>.3.3.=.:.<.3.2.:.",
"4.4.4.2.<.>.:.<.:.*.=.=.:.<.;.1.4.4.3.3.<.>.>.>.:.*.:.=.>.<.*.1.4.5.3.3.1.:.:.<.:.*.=.=.>.>.;.1.4.4.4.3.<.:.,.<.>.*.=.=.>.<.;.1.",
"<.3.2.:.:.1.:.%.<.1.<.3.<.;.2.1.<.3.2.:.>.<.>.O.>.1.,.3.<.;.1.1.1.3.2.:.,.1.:.O.<.2.<.3.<.:.1.1.<.3.2.:.:.1.:.%.<.1.<.3.<.;.2.1.",
"3.2.>.2.2.2.,.<.3.>.3.3.4.3.4.4.3.2.<.1.1.2.,.1.2.>.3.3.4.3.4.4.2.2.<.1.2.2.>.2.2.,.3.3.3.2.4.3.3.2.>.2.3.1.<.1.2.<.3.3.4.3.4.4.",
"2.:.<.2.:.;.:.:.<.<.2.<.*.<.<.<.3.>.<.1.>.*.:.:.<.<.2.<.;.1.>.>.3.:.<.1.>.*.>.:.>.<.2.1.;.1.1.<.2.>.<.<.:.*.:.:.:.<.2.<.*.<.<.<."
};
