/* XPM */
static char *result[] = {
/* columns rows colors chars-per-pixel */
"64 64 122 2 ",
"   c #0E0D0A",
".  c #13130D",
"X  c #151A09",
"o  c #0B0E12",
"O  c #0E1114",
"+  c #121414",
"@  c #14171A",
"#  c #17191A",
"$  c #191C1A",
"%  c #1A210A",
"&  c #1F2B0D",
"*  c #1E231D",
"=  c #1E2123",
"-  c #202725",
";  c #21262A",
":  c #242A2E",
">  c #293526",
",  c #2E3829",
"<  c #292E33",
"1  c #2D3236",
"2  c #2E3539",
"3  c #31373B",
"4  c #32393E",
"5  c #3D4E23",
"6  c #374828",
"7  c #3C4D2B",
"8  c #3E5024",
"9  c #3F502C",
"0  c #425325",
"q  c #455B26",
"w  c #495F27",
"e  c #41522C",
"r  c #465C2B",
"t  c #495F2D",
"y  c #4C632D",
"u  c #4F692B",
"i  c #556E2D",
"p  c #56732B",
"a  c #5E7E2E",
"s  c #343B41",
"d  c #383E44",
"f  c #384147",
"g  c #3B444B",
"h  c #434D54",
"j  c #494E56",
"k  c #475157",
"l  c #475259",
"z  c #4B545B",
"x  c #50555A",
"c  c #4C5760",
"v  c #4F5A62",
"b  c #535B63",
"n  c #525E68",
"m  c #526067",
"M  c #54626C",
"N  c #5A646C",
"B  c #586570",
"V  c #5D6A73",
"C  c #616D76",
"Z  c #626E78",
"A  c #64727C",
"S  c #69747D",
"D  c #71787E",
"F  c #5D822C",
"G  c #678B2F",
"H  c #628231",
"J  c #668A31",
"K  c #698D31",
"L  c #6C9231",
"P  c #6F9931",
"I  c #729632",
"U  c #739E32",
"Y  c #799D33",
"T  c #75A133",
"R  c #7CA535",
"E  c #7EA936",
"W  c #81A736",
"Q  c #81AC37",
"!  c #84AE38",
"~  c #86B039",
"^  c #8BB43A",
"/  c #8FB83B",
"(  c #92BA3C",
")  c #677780",
"_  c #6A7780",
"`  c #677982",
"'  c #6D7A84",
"]  c #6E7C8A",
"[  c #757E85",
"{  c #717F8A",
"}  c #798186",
"|  c #73828C",
" . c #7D858A",
".. c #778691",
"X. c #788692",
"o. c #778892",
"O. c #7B8A96",
"+. c #7D8D99",
"@. c #7E929E",
"#. c #80898E",
"$. c #828D94",
"%. c #818F9B",
"&. c #81919E",
"*. c #8B9399",
"=. c #8F989D",
"-. c #8596A4",
";. c #8997A4",
":. c #879DA8",
">. c #8B9CAA",
",. c #909FAE",
"<. c #8EA2B1",
"1. c #93A5B2",
"2. c #96A8B5",
"3. c #99ABB7",
"4. c #95A9B8",
"5. c #9AADBA",
"6. c #9DB1BE",
"7. c #9FB3C1",
"8. c #AFC4D1",
"9. c #B2C7D4",
"0. c #B5C9D8",
"q. c #C3D6DD",
/* pixels */
"! E Q ! R E Q ! E R E E ! ! E ^ Q E Q ! R E Q ! E R Q E E ~ E ^ ! E Q ~ E E Q Q Q R E E Q ~ E ~ ~ E ! ~ E E E ! E R E E ! ~ E ~ ",
"U Q E E R ^ / ! ~ ~ ^ E ~ E R ! T Q E E R ^ ^ ! ~ ~ ~ E ^ E E Q T Q R E R ^ / Q ! ^ ^ E ^ R E ~ U E R E R ^ / ! ! ~ ~ ! ~ E E ! ",
"~ ^ ~ ^ / ( / / ^ ^ / ~ E R ! E ~ ^ ~ ^ ( ( ^ ( / ^ ( ! E R Q E ! ^ ~ ^ / ( / ^ ^ ^ ( Q E R E E ~ ^ ~ ^ / ( / / ^ ^ ( ! E R ! E ",
"^ Q Q R E ~ ~ ~ ! E E E T E ~ ! ^ E Q R E ! ~ ~ Q E Q E T E ^ Q ^ E Q R W ! ^ ~ ! R Q Q T E ^ Q ^ E Q R E ! ~ ~ ! E E E T E ~ ! ",
"R E E R Q Q ! T T R ^ R ! ^ E ~ E E E E Q E ~ T T R ^ R ! ^ > 1 1 a E E Q Q ! T T R ^ W ! ^ E ~ E E E R E ! ! T Y R ^ R ! ^ E ~ ",
"Q Q ^ ( ( ! E E ! ! ~ / ^ ~ / ~ E E / / ( ! E E ! ! ! / ^ ~ > @.V a ^ ( ( Q E E ! ! ! ^ ^ ~ ^ ~ ! E ^ / / ! E E Q ~ ! / ^ ~ ^ ~ ",
"~ P ! E ~ ~ ~ ~ ! R R E R E E ^ ! U ! E ^ ! ~ ! ! R R Q R E E | : U Q E ^ ~ ~ ~ Q R R ! R E E ~ ~ P E E ^ ~ ~ ! ~ R R Q T E E ^ ",
"E ! ~ ^ ! ^ ~ E U R R R T P P ! E ! ! ^ ! ^ ~ Q U R Y R R P P | : ! ! / Q ^ ~ Q U R R T R P U ! E ! ^ / ! ~ ~ ! U R R T R P U ~ ",
"Q / ~ ~ ~ ~ ~ Q ^ Q Q / Q ~ ^ ! E / ^ ^ ! ~ ! W ^ Q Q / E ! ^ ] : / ~ ^ ~ ~ ~ Q ^ Q Q / E ~ / ! E ( ~ ~ ~ ~ ~ Q ^ Q ! ^ ! ~ ^ ! ",
"E ! E R W R R Y W ^ ( ^ ! R R ^ E ! E T E E R R Q / ( ^ ~ R E | : Q E T W R R Y W / ( ^ ~ R E ~ E ! E R W R R Y W ^ ( ^ ~ R E ~ ",
"E ~ W ! R ~ ! R Q Q ^ ^ ~ R T ! E ^ E Q R ~ ! W E Q ~ / ~ E T | : ~ E Q R ^ ! R Q Q ^ ^ ~ E T ! Q ~ W ! T ^ ! W Q Q ^ ^ ~ R T Q ",
"Q ^ ^ / ( ( ^ R / ^ Y R ! ^ ~ R E ~ / / ( ( ~ W / ~ Y E E ^ ~ | ; ^ ^ / ( ( ~ E / ^ Y R E ^ ~ R E ^ ^ / ( ( ! Q ^ ^ Y R Q ^ ~ E ",
"/ ( ^ ^ Q R R Q R Y R Y R E T ! / / ^ ~ Q R E W E U R Y R Q Y ] : / / ~ E E R Q R U Y R R Q Y ! / ( ^ ^ Q R R Q R U Y R R Q Y Q ",
"Q ^ ~ R R ! R U Q ~ R ^ Q R ! ! Q ^ ^ R R ! R P E ~ W ^ Q R ! C = / ~ T E ! R P Q ~ R ^ Q R ! ! Q ^ ! E R ! R P W ~ E ^ Q R ! ~ ",
"~ ~ E ~ ~ ~ Q ! ~ E ^ ^ ^ ^ ^ ^ ^ ~ W ~ ~ ~ E ! ~ E ~ ^ ^ ^ ^ Z : ~ E ~ ~ ~ E ! ~ Q ^ ^ ^ ^ / ^ ~ ~ E ~ ~ ~ E ! ~ E ^ ^ ^ ^ / ^ ",
"^ E ! Q R T R R E Q ~ ! T ! Q ! ^ E Q ! R T E R W Q ~ ! T ! u g = K ~ ~ R T R R W Q ! ! U ! ! Q ^ E Q ! R T E R E ! ~ Q T ! ! E ",
"! E Q ! E E Q Q E R E E Q ~ E ^ ! E ! ! R E E ! E R Q E E ~ > :.;.a ! ! R E E Q E R E E ! ~ E ~ ! E E ~ E E E Q W E E E Q ! E ^ ",
"T Q E E R ^ ^ ! ~ ~ ^ E ~ E E Q U Q p y r y y H ~ y y w y q = z c 6 q r r y i ! y y y t y L E ! T Q E E E ^ ^ ~ ! ~ ^ E ^ E E ! ",
"! ^ ~ ~ ( ( ( ^ / ^ ( ! E E E E ~ ^ y _ b j l k : 9.7.7.7.6.6.5.4.2.5.4.4.2.,.d l l l s | K ! E ~ ^ ~ ~ / ( / / / ^ ( ! E E E E ",
"^ E Q E R ~ ~ ~ ! E W R T E ^ Q ~ E r ' %.%.V c C +.+.+.+.+.O.+.+.O.O.O.O.O.O.b n ` O.v | K ~ ! ^ W Q E E ! ~ ~ Q E E E T E ^ Q ",
"E E E E Q Q Q R T R ~ W ! ^ E ~ E E q N O.| 1.A 8._ V V n V ..4.>.;.2.2.2.2.2...` Z O.c C Y R ! E E E R E Q ! T Y R ^ R Q ^ E ~ ",
"E Q ^ ( ( ! E E ! ~ ~ / ^ ~ ^ ~ E Q w $ O.{ Z 4 z q.6.3.>.:.g ] 0.+.2.2.2.4.2.2.< ' X.c 4 I / ~ E Q ^ ( ( Q E E Q ~ ~ ^ ^ ~ / ~ ",
"~ P E E ^ ~ ~ ! ~ R R ! R E E ^ ~ U q # O.O.O.S h 8.3.5.5.1.1 @.A +.2...) Z b -.4 O.O.b + L E ^ ~ U E E ^ ! ~ ! ~ R R Q T E E ^ ",
"E ! ! / ! ^ ~ E T Y T T R P U ! R ! w @ O.O.+.A h } 5.2.,.| = O.1.2.2.1.B B O.z 4 O.O.c O F U ! E ! ~ / ! ^ ~ Q U R R T E P U Q ",
"E / ~ ^ ~ ~ ~ Q ^ Q Q / E ~ ^ ! E / r @ O.X.$.A { X.Z h g g v O.2.1.2.2.-.O.g M 2 O.O.v o L ^ ! R / ~ ^ ~ ~ ~ Q ~ Q ! ( Q ~ ^ ~ ",
"E ~ E T W R R Y W / ( ^ ~ R E ~ E ~ q @ O.X.+.A 7.@.h 2 1 M O.@.2.,.:.:.d b M M s O.O.v + K E ~ Q ~ R R W R R Y W / ( ^ ! R E ~ ",
"E ^ E ~ R ^ ! R Q Q ^ ^ ~ E T Q E ~ q @ O.;.&.b 6.-.b z ; V V B b m b 4 B V M M 4 O.O.v + J T E E ^ Q ! T ^ ~ W Q ! ^ ^ ~ E T Q ",
"E ^ ^ ^ ( ( ~ E ^ ^ Y R Q ^ ~ E Q ~ w @ O.,.>.- 4.>.| N @.:.@.@.+.+.+.M M ) M V 4 O.O.v + Y ~ E Q ~ ^ ^ ( ( ~ W ^ ~ Y R Q ^ ~ R ",
"/ / / ^ E E R Q R Y R Y R Q Y Q / ( y = | _ S N ..<.| N _ ] ' S Z A A l M A M g ' ] ] z . L U ! / / ^ ^ W E R Q E T Y Y R E T Q ",
"~ ^ ~ R E E R P Q ~ R ^ Q R ~ ! ! ^ q = z #.*.$.N V | N V V C V V C V l M ) < ..N D ] d O G ~ ! ! ^ ~ R R ! R P W ~ Q ~ W R ~ ~ ",
"^ ^ E ~ ~ ~ E ! ~ E ^ ^ ^ ~ ( ^ ^ ~ q = z [ [ D _ N b h | ] ] | ] | o.b b z { } D D S x + U / / ~ ~ E ~ ! ~ E ! ~ Q ^ ^ ^ ^ / ^ ",
"^ T E ~ R T R R Q Q ~ Q T ! Q Q ^ R q = z b b b b b | C : : : : : : : ; ..S b b b b x f O L ! E ^ R ! ! E U E R E Q ~ Q T ~ Q Q ",
"~ R Q ! E E E Q E E Q E Q ~ E ^ ! R q = | $.+.| S S ......Z ..| ' Z | o.o.' S S S S S h O I E ^ ~ E Q ! E E E ! R R E E ! ~ E ~ ",
"U Q W E E ^ / Q ! ~ ^ E ^ R E Q Y W q = z #.*.D N _ | | { { z l k | | | o.A =. .N D | s + K R ! T E R E R ^ / ! ~ ~ ~ ! ~ E E ! ",
"~ ^ ~ ^ / ( ^ / / ^ / ! E R Q E ~ ^ q = z } } ' S ' _ ` _ ' | ` S ` | | | A } } S D S z O G Q E ~ ^ ~ ^ / ( / ^ / ^ / ! E R E E ",
"^ E Q R Q Q ^ ^ Q E E E T E ^ ! ^ E q - z x b x b x A ` A ) ` ` A ` ` ' | A x b b b x f O L ^ Q ^ Q Q R E ~ ~ ^ ! E E E T E ^ ! ",
"E E E R Q E ! T T R ^ R ~ ^ E ~ E E q $ x m m v b v v l A V < g : ' A g h h v v v v m M + Y E ! E E E R Q Q ! T Y R ^ R ! ^ E ~ ",
"E Q ^ ( ( Q E E Q ~ ~ ^ ^ ~ ^ ~ E Q y @ A S ' ' ` ` ` S @.| 4 M 2 >.&.z M B ) ) S ` ' ' @ I ^ ~ E Q ^ ( ( ! E E ! ~ ~ ^ ^ ~ ^ ~ ",
"~ U Q Q ^ ~ ~ ! ! R R Q R E E ^ ^ P q # A | ' ] ] ' S l M v 2 B 2 V n s M Z ' ` _ S S ' O L E ^ ~ P ! E ~ ~ ~ ~ ! R R ! T E E ^ ",
"E ! ~ ^ ! ^ ~ Q U Y R R T P U ! E E w * Z S S S ' ' ' N ] B 2 M 3 | ] d B Z { ' _ _ _ _ + F U ! E ! ~ ^ ! ^ ~ E U R R T R P U ~ ",
"E ^ ~ ~ ~ ~ ~ Q ^ Q Q / Q ~ ^ ! E / y m M m m l S ' S N ' V 1 M 1 | [ g M _ ' z M b M m c I ^ ! W / ~ ^ ! ~ ! Q ^ E ! ^ ! ! ^ ~ ",
"E ! E R E R R R W ( ( ^ ~ R E ~ E ! 9 Z A A A m S ' ] N S V 2 M 1 | _ f B ' { z A A A Z V K E ~ Q ! R R Q R R Y W ^ ( ^ ~ R E ~ ",
"Q ~ E ~ R ^ ! R Q Q ^ ^ ~ R T Q E ^ q $ @ @ $ * S ] D N V v 1 V 2 N M f A C ] z * $ @ @ $ K T Q W ^ Q Q R ^ ! W ! Q ^ ^ ~ R T Q ",
"Q ^ ^ ^ ( / ~ W ^ ~ Y R Q ^ ~ E E ^ y         * 7 e 6 5 8 9 9 7 7 9 9 e e e 9 , &       . Y ~ R Q ~ ^ ^ ( / ! Q ^ ^ Y R Q ^ ~ E ",
"^ ( ^ ~ Q W R W R Y R R R E U ! ^ ( w % X X X & U U T Y R E T ! ^ ( ^ ^ E E R p & X X X X L T Q / ( ^ ^ Q E R Q R Y Y R R Q Y Q ",
"Q ^ ^ R R Q R P E ^ R ~ Q R ! ~ ! ^ p 8 8 8 5 5 R ~ W ^ Q T ~ ~ ! ^ ~ E R ! R p 8 8 8 0 8 L ~ ~ Q ^ ! E R ! R P E ! E ^ Q R ! ~ ",
"^ ~ Q ! ~ ~ Q ! ~ E ^ ^ ^ ^ ^ ^ ^ ~ E ! ~ ~ E Q ^ E ^ / / ^ / ^ ^ ~ E ~ ~ ~ E ! ^ E ^ ^ / ^ / / ~ ! E ~ ~ ! E ~ ~ E ^ ^ / ^ / ^ ",
"^ E ! ! R T R R Q E ~ ! T ! ! ! ~ E ! ! R T R R R E ~ Q T Q ~ E ^ R E ~ R T R R E E ^ E T Q E E / E Q ! E T R R Q E ~ Q T ! Q E ",
"! E Q ! R E Q Q E R E E ! ~ E ~ ~ E E ! R E E ! R R E E E ~ E ~ ~ R Q ~ E E E ! E R E E E ~ E ~ ! E ! ! E E E ! E R E E Q ~ E ^ ",
"T E R E R ^ ^ ~ ~ ~ ^ E ~ E E ! U Q E E R ^ / Q ~ ^ ^ E ^ R E ! T ! R R R ~ / ~ ~ ~ ^ E ^ E E ~ U E E E E ^ ^ ! ~ ~ ^ E ^ R E Q ",
"~ ^ ~ ^ / ( / / / ^ / ~ E R E E ~ ^ ~ ^ / ( / / / ^ ( ! E R Q E ~ ^ ~ ^ ( ( / ^ / ^ ( ~ E R E E ~ ^ ! ^ / ( / / / ^ ( ~ E E E E ",
"^ Q ! R E ~ ~ ~ ! E E E T E ^ ! ^ E Q R Q ~ ~ ~ ! E E E T E ^ Q ^ E ~ R R ~ ~ ~ E E E E T E ^ Q ^ E Q E E E ^ ~ Q E E E T E ^ Q ",
"R E E R Q E ! T Y R ^ R ! ^ E ~ E E E E Q E ~ R T R ^ Y ~ ^ E ~ R E R R Q E ! R T R ^ R ~ ^ E ~ E E E R Q Q ! T Y R ^ R Q ^ E ~ ",
"E Q ^ ( ( ! E E ! ~ ! / ^ ~ ^ ~ E E ^ ( ( Q E E Q ! ~ / ^ ~ ^ ~ E ! ^ ( ( Q E R ~ ! ~ / ^ ~ ^ ~ E E ^ / ( Q E E Q ~ ! / ^ ~ / ~ ",
"~ P ~ E ^ ~ ~ ! ! R R Q T E E ^ ~ U ~ E ^ ~ ~ Q ~ R R ! R E E ^ ~ P ! E ^ ~ ~ ! ! W R Q R E E ^ ~ P ! E ^ ! ~ ! ~ E R Q T E E ^ ",
"E ! ~ ^ ! ~ ~ ! U R R T R P U ~ E E ~ / E ^ ~ Q U T Y R R P U ! E ! ~ / ! ^ ~ Q U T T R T P U ! E ! ^ ^ ! ^ ^ E U R R T R P U ! ",
"E ( ~ ~ ! ~ ~ Q ^ Q ! ^ ! ~ ^ ! E / ~ ^ ! ~ ~ Q ^ Q Q / E ~ / ~ E / ~ ~ ~ ~ ~ E ^ Q Q ( R ~ / ! W / ~ ~ ~ ~ ~ W ^ E ! / Q ~ ^ ! ",
"E Q E R W R R Y W ^ ( ^ ~ R R ^ E ! E R E R R Y W / ( ^ ~ R R ~ E ! E R E R R R W / ( ^ ~ R R ~ E ! E R W R R R W ^ ( ^ ! R R ^ ",
"E ^ W ~ R ~ ! W Q Q ^ ^ ~ R T Q E ^ E ! R ^ ~ W Q Q ^ / ~ R T Q E ^ E ~ T ^ ~ R Q Q ^ / ~ R T ! E ^ W ! T ^ ~ R Q Q ^ ^ ~ R T Q ",
"Q ~ ^ / ( ( ~ E ^ ^ Y R Q ^ ~ E E ^ ^ / ( / ~ R / ~ T R E / ~ R E ^ ^ ^ ( / ^ R / ~ Y R Q / ~ R ! ~ ^ / ( ( ~ W ^ ^ Y R Q ^ ~ E ",
"/ / ^ ^ Q E R Q E Y Y R E E Y Q / / ^ ~ Q W R E R U Y Y R Q T ! / / ^ ^ Q W W Q R T T Y E Q T ! / / ^ ^ Q E R Q R U Y R E E Y Q ",
"! ^ ! E R Q R P E ~ E ~ Q R ! ! ! ^ ~ R R Q R P Q ~ Q ^ E R ~ ! ! ^ ~ R W Q R P W ~ W ^ Q T ~ ! ! ^ ! E R Q R P W ~ E ^ Q R ~ ! ",
"~ ~ E ~ ~ ~ E ~ ~ E ^ ^ / ^ / ^ ^ ~ Q ! ^ ~ W ~ ~ Q ^ ^ ^ ~ / ^ ^ ~ E ~ ~ ~ R ! ~ Q ^ ^ ^ ^ / ^ ~ ! E ! ~ ~ W ! ~ Q ^ ^ ^ ^ / ^ ",
"^ E Q ! R T E R W E ~ Q T ! Q Q ^ R Q ! R T R R Q Q ! Q T ! ! ! ~ R Q ~ R T R W E Q ~ Q T ! ! E ^ E ! ! R T E R E Q ~ Q T ! Q Q "
};
